<svg width="59" height="59" viewBox="0 0 59 59" fill="none" xmlns="http://www.w3.org/2000/svg">
<path d="M23.4617 26.7541C24.0346 26.3393 24.3112 25.6545 24.3112 24.7128C24.3309 24.2651 24.2387 23.8239 24.0412 23.4222C23.8634 23.0996 23.6 22.8296 23.2773 22.6386C22.9428 22.4357 22.5712 22.3014 22.1843 22.2435C21.7628 22.1645 21.3348 22.125 20.9134 22.1316H16.2843V27.3797H21.2953C22.1579 27.3863 22.8888 27.1756 23.4617 26.7541ZM24.2387 31.4952C23.5934 31.0013 22.7308 30.7577 21.6575 30.7577H16.2711V36.9474H21.5521C22.046 36.9474 22.5003 36.9013 22.9415 36.8092C23.3589 36.7275 23.7568 36.5666 24.1136 36.335C24.4494 36.1177 24.7194 35.8214 24.9235 35.4395C25.1211 35.0576 25.2199 34.5703 25.2199 33.9843C25.2199 32.8187 24.8906 31.9956 24.2387 31.4952ZM29.5 0C13.2092 0 0 13.2092 0 29.5C0 45.7908 13.2092 59 29.5 59C45.7908 59 59 45.7908 59 29.5C59 13.2092 45.7908 0 29.5 0ZM35.1959 18.8919H44.3093V21.1109H35.1959V18.8919ZM29.5 37.1911C29.0737 38.0002 28.4651 38.6991 27.7221 39.2324C26.9451 39.7723 26.0825 40.1674 25.1672 40.3979C24.2096 40.6545 23.2217 40.7807 22.2304 40.7732H11.3259V18.3124H21.9275C23.0008 18.3124 23.9753 18.4112 24.8643 18.5955C25.7467 18.7799 26.4973 19.096 27.1295 19.524C27.755 19.952 28.2489 20.5249 28.5979 21.236C28.9403 21.9406 29.1181 22.823 29.1181 23.87C29.1181 25.0026 28.8613 25.9376 28.3477 26.6949C27.8275 27.4521 27.0768 28.0645 26.0561 28.5452C27.4455 28.9403 28.4662 29.6449 29.1378 30.6326C29.8227 31.6335 30.1585 32.8319 30.1585 34.2411C30.1585 35.3868 29.9412 36.368 29.5 37.1911ZM47.8585 33.7143H36.1112C36.1112 34.9917 36.5523 36.2165 37.2174 36.875C37.8891 37.5269 38.8504 37.8561 40.1081 37.8561C41.0169 37.8561 41.7873 37.6257 42.4458 37.1713C43.0977 36.717 43.4927 36.2363 43.6376 35.7358H47.5753C46.9432 37.6915 45.9818 39.0875 44.678 39.9304C43.3874 40.7732 41.807 41.1946 39.9699 41.1946C38.6858 41.1946 37.5335 40.9839 36.4997 40.5823C35.5054 40.1938 34.6098 39.6011 33.8723 38.8373C33.1452 38.0529 32.5831 37.1303 32.2195 36.1243C31.8179 35.0115 31.6203 33.8394 31.6335 32.6607C31.6335 31.4425 31.8376 30.3099 32.2327 29.2564C32.99 27.2085 34.5637 25.5689 36.5721 24.7194C37.6454 24.2717 38.7978 24.0478 39.9633 24.0609C41.3461 24.0609 42.5445 24.3243 43.5849 24.8643C44.5865 25.3799 45.4562 26.1189 46.1267 27.0241C46.7917 27.9262 47.2593 28.9535 47.5556 30.1124C47.8387 31.2516 47.9375 32.45 47.8585 33.7143ZM39.825 27.4192C39.1138 27.4192 38.5146 27.5443 38.0537 27.7879C37.5927 28.0316 37.2108 28.3345 36.9211 28.6835C36.6452 29.0204 36.4412 29.4104 36.3219 29.8292C36.2165 30.1782 36.1441 30.5338 36.1177 30.896H43.394C43.2886 29.7568 42.8935 28.914 42.3667 28.3213C41.8136 27.7353 40.9247 27.4192 39.825 27.4192Z" fill="black"/>
</svg>
