<svg width="34" height="34" viewBox="0 0 34 34" fill="none" xmlns="http://www.w3.org/2000/svg">
<mask id="mask0_63_8" style="mask-type:alpha" maskUnits="userSpaceOnUse" x="0" y="0" width="34" height="34">
<rect x="0.875977" y="0.875977" width="32.2481" height="32.2481" fill="#D9D9D9"/>
</mask>
<g mask="url(#mask0_63_8)">
<path d="M16.7218 27.2006C17.0125 27.4913 17.4836 27.4913 17.7743 27.2006L22.5102 22.4647C22.8009 22.174 22.8009 21.7028 22.5102 21.4122C22.2196 21.1216 21.7484 21.1216 21.4578 21.4122L17.248 25.622L13.0383 21.4122C12.7477 21.1216 12.2765 21.1216 11.9859 21.4122C11.6952 21.7028 11.6952 22.174 11.9859 22.4647L16.7218 27.2006ZM16.5039 7.8217L16.5039 26.6744L17.9922 26.6744L17.9922 7.8217L16.5039 7.8217Z" fill="black"/>
</g>
</svg>
