<svg width="60" height="59" viewBox="0 0 60 59" fill="none" xmlns="http://www.w3.org/2000/svg">
<path d="M29.6269 2.07666C44.8557 2.07666 57.1772 14.3981 57.1772 29.6038C57.1772 44.8096 44.8557 57.1541 29.6269 57.1541C14.3982 57.1541 2.07668 44.8326 2.07668 29.6269C2.07668 14.4212 14.3982 2.07666 29.6269 2.07666Z" fill="#E74D89"/>
<path d="M29.5346 59C13.2444 59 0 45.7786 0 29.5115C0 13.2214 13.2444 0 29.5346 0C45.8248 0 59.0692 13.2214 59.0692 29.4885C59.0692 45.7556 45.8248 59 29.5346 59ZM54.4314 33.5264C53.5776 33.2495 46.6324 31.1959 38.718 32.4419C42.0176 41.4869 43.3559 48.8705 43.6097 50.3934C49.2859 46.5862 53.3238 40.5409 54.4314 33.5264ZM39.3872 52.7239C39.018 50.5088 37.5413 42.8021 34.0109 33.6187C33.9648 33.6418 33.8956 33.6648 33.8494 33.6648C19.6128 38.6257 14.5135 48.4783 14.052 49.4013C18.3207 52.7239 23.6969 54.7083 29.5346 54.7083C33.0188 54.7313 36.3645 54.016 39.3872 52.7239ZM10.7986 46.3786C11.3754 45.4095 18.2976 33.9648 31.3113 29.7423C31.6343 29.6269 31.9804 29.5346 32.3035 29.4423C31.6805 28.0117 30.9883 26.5812 30.2499 25.1736C17.6515 28.9347 5.42237 28.7732 4.31482 28.7501C4.31482 29.0039 4.29175 29.2577 4.29175 29.5115C4.31482 35.9953 6.76066 41.9022 10.7986 46.3786ZM4.84552 24.3661C5.97614 24.3891 16.3594 24.4353 28.1733 21.2972C23.9969 13.8674 19.4744 7.63747 18.8283 6.73758C11.7446 10.0602 6.48377 16.5671 4.84552 24.3661ZM23.6277 5.03011C24.3199 5.95307 28.9116 12.183 33.0418 19.7743C42.0176 16.4056 45.8017 11.3293 46.2632 10.6832C41.8099 6.73758 35.9492 4.3379 29.5346 4.3379C27.5041 4.3379 25.5198 4.59171 23.6277 5.03011ZM49.0551 13.5905C48.5244 14.3058 44.3019 19.7282 34.9801 23.5354C35.5569 24.7352 36.1337 25.9582 36.6644 27.1811C36.849 27.6195 37.0336 28.0579 37.2182 28.4732C45.6171 27.4118 53.9468 29.1193 54.7775 29.2808C54.7083 23.3508 52.5855 17.8823 49.0551 13.5905Z" fill="#B2215A"/>
</svg>
