<svg width="203" height="440" viewBox="0 0 203 440" fill="none" xmlns="http://www.w3.org/2000/svg">
<g clip-path="url(#clip0_206_3351)">
<rect x="0.0957031" y="0.558594" width="202.809" height="439.15" rx="8.11237" fill="#FBFBFC"/>
<path d="M23.3507 28.1406H15.2383" stroke="#FFB901" stroke-width="1.62247" stroke-linecap="round"/>
<path d="M17.9422 24.355L14.6973 28.1408L17.9422 31.9265" stroke="#FFB901" stroke-width="1.62247" stroke-linecap="round" stroke-linejoin="round"/>
<path d="M94.6881 30.7324H95.6345V28.1804H98.2541V27.3818H95.6345V25.4509H98.495V24.6355H94.6881V30.7324ZM98.4443 30.7324H99.4372L99.9991 29.0846H102.348L102.906 30.7324H103.899L101.685 24.6355H100.662L98.4443 30.7324ZM101.165 25.6453H101.182L102.091 28.3241H100.253L101.165 25.6453ZM106.992 30.8338C107.389 30.8338 107.752 30.7747 108.078 30.6564L108.597 31.3789H109.582L108.779 30.2677C109.464 29.7311 109.848 28.8353 109.848 27.6861V27.6776C109.848 25.7467 108.75 24.5341 106.992 24.5341C105.238 24.5341 104.136 25.7425 104.136 27.6776V27.6861C104.136 29.6254 105.234 30.8338 106.992 30.8338ZM106.992 29.9972C105.834 29.9972 105.103 29.1057 105.103 27.6861V27.6776C105.103 26.2579 105.838 25.3707 106.992 25.3707C108.15 25.3707 108.876 26.2622 108.876 27.6776V27.6861C108.876 28.4804 108.648 29.1142 108.238 29.5156L107.769 28.8649H106.789L107.55 29.9212C107.376 29.9719 107.19 29.9972 106.992 29.9972Z" fill="#979797"/>
<rect x="16.8611" y="55.723" width="169.819" height="169.819" rx="4.86742" fill="#E9E9E9" stroke="#888888" stroke-width="1.08165" stroke-dasharray="5.41 5.41"/>
<path d="M97.7481 114.001C95.779 114.001 94.1855 112.408 94.1855 110.439C94.1855 108.469 95.779 106.876 97.7481 106.876C99.7172 106.876 101.311 108.469 101.311 110.439C101.311 112.408 99.7172 114.001 97.7481 114.001ZM97.7481 108.819C96.8542 108.819 96.1287 109.545 96.1287 110.439C96.1287 111.332 96.8542 112.058 97.7481 112.058C98.6419 112.058 99.3674 111.332 99.3674 110.439C99.3674 109.545 98.6419 108.819 97.7481 108.819Z" fill="#979797"/>
<path d="M105.52 129.545H97.7469C90.7125 129.545 87.707 126.54 87.707 119.505V111.733C87.707 104.698 90.7125 101.693 97.7469 101.693H102.929C103.46 101.693 103.9 102.133 103.9 102.664C103.9 103.196 103.46 103.636 102.929 103.636H97.7469C91.7748 103.636 89.6502 105.761 89.6502 111.733V119.505C89.6502 125.478 91.7748 127.602 97.7469 127.602H105.52C111.492 127.602 113.616 125.478 113.616 119.505V113.028C113.616 112.497 114.057 112.057 114.588 112.057C115.119 112.057 115.559 112.497 115.559 113.028V119.505C115.559 126.54 112.554 129.545 105.52 129.545Z" fill="#979797"/>
<path d="M113.614 107.521H106.489C105.958 107.521 105.518 107.081 105.518 106.55C105.518 106.019 105.958 105.578 106.489 105.578H113.614C114.145 105.578 114.586 106.019 114.586 106.55C114.586 107.081 114.145 107.521 113.614 107.521Z" fill="#979797"/>
<path d="M110.054 111.086C109.522 111.086 109.082 110.646 109.082 110.115V102.99C109.082 102.459 109.522 102.018 110.054 102.018C110.585 102.018 111.025 102.459 111.025 102.99V110.115C111.025 110.646 110.585 111.086 110.054 111.086Z" fill="#979797"/>
<path d="M89.5464 125.595C89.2355 125.595 88.9246 125.44 88.7432 125.168C88.4453 124.727 88.5619 124.119 89.0023 123.821L95.3889 119.533C96.788 118.6 98.7183 118.704 99.9878 119.779L100.415 120.154C101.063 120.712 102.164 120.712 102.799 120.154L108.188 115.53C109.574 114.351 111.725 114.351 113.111 115.53L115.222 117.343C115.624 117.693 115.676 118.302 115.326 118.717C114.976 119.118 114.367 119.17 113.953 118.82L111.841 117.006C111.194 116.449 110.092 116.449 109.458 117.006L104.069 121.631C102.695 122.81 100.532 122.81 99.1458 121.631L98.7183 121.256C98.1224 120.75 97.1378 120.699 96.4771 121.152L90.1035 125.44C89.9221 125.544 89.7278 125.595 89.5464 125.595Z" fill="#979797"/>
<path d="M42.9099 152.048C44.2519 152.048 45.0653 151.253 45.0653 150.085V146.624H44.2408V150.018C44.2408 150.794 43.7602 151.316 42.9099 151.316C42.0596 151.316 41.5753 150.794 41.5753 150.018V146.624H40.7471V150.085C40.7471 151.253 41.5716 152.048 42.9099 152.048ZM45.9526 153.253H46.7511V151.305H46.7696C46.9988 151.756 47.4462 152.037 47.997 152.037C48.973 152.037 49.6126 151.257 49.6126 150.018V150.014C49.6126 148.772 48.9767 147.996 47.9859 147.996C47.4314 147.996 47.0025 148.277 46.7696 148.739H46.7511V148.07H45.9526V153.253ZM47.7789 151.349C47.1763 151.349 46.7474 150.824 46.7474 150.018V150.014C46.7474 149.205 47.1726 148.68 47.7789 148.68C48.4037 148.68 48.7993 149.186 48.7993 150.014V150.018C48.7993 150.839 48.4074 151.349 47.7789 151.349ZM50.2633 151.959H51.0619V146.624H50.2633V151.959ZM53.5537 152.037C54.6665 152.037 55.3985 151.268 55.3985 150.014V150.007C55.3985 148.761 54.6591 147.996 53.55 147.996C52.4446 147.996 51.7088 148.765 51.7088 150.007V150.014C51.7088 151.264 52.4372 152.037 53.5537 152.037ZM53.5574 151.367C52.9326 151.367 52.5259 150.876 52.5259 150.014V150.007C52.5259 149.157 52.9363 148.665 53.55 148.665C54.1748 148.665 54.5815 149.157 54.5815 150.007V150.014C54.5815 150.872 54.1822 151.367 53.5574 151.367ZM57.1583 152.029C57.6722 152.029 58.1232 151.763 58.3487 151.345H58.3635V151.959H59.1658V149.279C59.1658 148.499 58.5632 147.996 57.613 147.996C56.6555 147.996 56.0751 148.51 56.0196 149.179L56.0159 149.219H56.7701L56.7775 149.186C56.844 148.876 57.1287 148.658 57.5908 148.658C58.0862 148.658 58.3635 148.916 58.3635 149.345V149.637L57.3062 149.7C56.3856 149.756 55.8606 150.17 55.8606 150.846V150.854C55.8606 151.552 56.3819 152.029 57.1583 152.029ZM56.6666 150.835V150.828C56.6666 150.499 56.9328 150.288 57.4134 150.258L58.3635 150.199V150.502C58.3635 151.009 57.9384 151.39 57.3764 151.39C56.9476 151.39 56.6666 151.175 56.6666 150.835ZM61.3951 152.037C61.9534 152.037 62.3822 151.756 62.6151 151.301H62.6299V151.959H63.4322V146.624H62.6299V148.731H62.6151C62.3822 148.273 61.9386 147.996 61.3877 147.996C60.4117 147.996 59.7684 148.772 59.7684 150.011V150.014C59.7684 151.253 60.4043 152.037 61.3951 152.037ZM61.6058 151.349C60.9736 151.349 60.5855 150.842 60.5855 150.014V150.011C60.5855 149.19 60.9773 148.68 61.6058 148.68C62.2048 148.68 62.6336 149.205 62.6336 150.011V150.014C62.6336 150.824 62.2085 151.349 61.6058 151.349ZM66.9333 152.029C67.4472 152.029 67.8982 151.763 68.1237 151.345H68.1385V151.959H68.9408V149.279C68.9408 148.499 68.3381 147.996 67.388 147.996C66.4305 147.996 65.85 148.51 65.7946 149.179L65.7909 149.219H66.5451L66.5525 149.186C66.619 148.876 66.9037 148.658 67.3658 148.658C67.8612 148.658 68.1385 148.916 68.1385 149.345V149.637L67.0812 149.7C66.1606 149.756 65.6356 150.17 65.6356 150.846V150.854C65.6356 151.552 66.1569 152.029 66.9333 152.029ZM66.4416 150.835V150.828C66.4416 150.499 66.7078 150.288 67.1884 150.258L68.1385 150.199V150.502C68.1385 151.009 67.7133 151.39 67.1514 151.39C66.7225 151.39 66.4416 151.175 66.4416 150.835ZM72.9262 152.037C73.8615 152.037 74.5122 151.438 74.5972 150.658L74.6009 150.632H73.832L73.8283 150.661C73.7321 151.083 73.4179 151.367 72.9262 151.367C72.3088 151.367 71.8984 150.868 71.8984 150.018V150.014C71.8984 149.183 72.3014 148.665 72.9225 148.665C73.4438 148.665 73.7395 148.987 73.8246 149.367L73.832 149.397H74.5935L74.5898 149.371C74.5233 148.639 73.917 147.996 72.9151 147.996C71.806 147.996 71.0814 148.776 71.0814 150.007V150.011C71.0814 151.257 71.7912 152.037 72.9262 152.037ZM75.1962 151.959H75.9947V146.624H75.1962V151.959ZM78.4754 152.037C79.4182 152.037 80.0171 151.475 80.1428 150.857L80.1502 150.817H79.3923L79.3812 150.846C79.2814 151.138 78.9671 151.382 78.4939 151.382C77.858 151.382 77.4551 150.953 77.4403 150.218H80.1946V149.948C80.1946 148.78 79.5254 147.996 78.4348 147.996C77.3441 147.996 76.6417 148.809 76.6417 150.025V150.029C76.6417 151.257 77.3331 152.037 78.4754 152.037ZM78.4385 148.65C78.9598 148.65 79.3369 148.979 79.4034 149.652H77.4514C77.5216 149.001 77.9209 148.65 78.4385 148.65ZM81.9581 152.029C82.4719 152.029 82.923 151.763 83.1485 151.345H83.1633V151.959H83.9656V149.279C83.9656 148.499 83.3629 147.996 82.4128 147.996C81.4553 147.996 80.8748 148.51 80.8194 149.179L80.8157 149.219H81.5699L81.5773 149.186C81.6438 148.876 81.9285 148.658 82.3906 148.658C82.886 148.658 83.1633 148.916 83.1633 149.345V149.637L82.1059 149.7C81.1854 149.756 80.6604 150.17 80.6604 150.846V150.854C80.6604 151.552 81.1817 152.029 81.9581 152.029ZM81.4663 150.835V150.828C81.4663 150.499 81.7325 150.288 82.2132 150.258L83.1633 150.199V150.502C83.1633 151.009 82.7381 151.39 82.1762 151.39C81.7473 151.39 81.4663 151.175 81.4663 150.835ZM84.7419 151.959H85.5405V149.641C85.5405 149.061 85.8584 148.724 86.3723 148.724C86.5276 148.724 86.6681 148.743 86.7309 148.768V148.025C86.6681 148.014 86.5683 147.996 86.4537 147.996C86.01 147.996 85.6847 148.28 85.559 148.735H85.5405V148.07H84.7419V151.959ZM88.7643 153.253H89.5629V151.305H89.5814C89.8106 151.756 90.2579 152.037 90.8088 152.037C91.7848 152.037 92.4244 151.257 92.4244 150.018V150.014C92.4244 148.772 91.7885 147.996 90.7977 147.996C90.2431 147.996 89.8143 148.277 89.5814 148.739H89.5629V148.07H88.7643V153.253ZM90.5907 151.349C89.988 151.349 89.5592 150.824 89.5592 150.018V150.014C89.5592 149.205 89.9843 148.68 90.5907 148.68C91.2155 148.68 91.611 149.186 91.611 150.014V150.018C91.611 150.839 91.2191 151.349 90.5907 151.349ZM93.478 147.471C93.7405 147.471 93.9439 147.264 93.9439 147.012C93.9439 146.757 93.7405 146.55 93.478 146.55C93.2193 146.55 93.0122 146.757 93.0122 147.012C93.0122 147.264 93.2193 147.471 93.478 147.471ZM93.0788 151.959H93.8773V148.07H93.0788V151.959ZM96.3728 152.037C97.3082 152.037 97.9589 151.438 98.0439 150.658L98.0476 150.632H97.2786L97.2749 150.661C97.1788 151.083 96.8645 151.367 96.3728 151.367C95.7554 151.367 95.345 150.868 95.345 150.018V150.014C95.345 149.183 95.748 148.665 96.3691 148.665C96.8904 148.665 97.1862 148.987 97.2712 149.367L97.2786 149.397H98.0402L98.0365 149.371C97.9699 148.639 97.3636 147.996 96.3617 147.996C95.2526 147.996 94.528 148.776 94.528 150.007V150.011C94.528 151.257 95.2378 152.037 96.3728 152.037ZM99.9774 152.037C100.14 152.037 100.292 152.018 100.384 152.003V151.386C100.325 151.393 100.255 151.401 100.17 151.401C99.8333 151.401 99.6558 151.282 99.6558 150.887V148.706H100.384V148.07H99.6558V147.057H98.8388V148.07H98.2805V148.706H98.8388V150.935C98.8388 151.711 99.2085 152.037 99.9774 152.037ZM102.369 152.037C102.961 152.037 103.357 151.767 103.56 151.375H103.578V151.959H104.381V148.07H103.578V150.34C103.578 150.946 103.216 151.349 102.654 151.349C102.1 151.349 101.826 151.024 101.826 150.436V148.07H101.027V150.591C101.027 151.486 101.515 152.037 102.369 152.037ZM105.172 151.959H105.97V149.641C105.97 149.061 106.288 148.724 106.802 148.724C106.957 148.724 107.098 148.743 107.161 148.768V148.025C107.098 148.014 106.998 147.996 106.884 147.996C106.44 147.996 106.115 148.28 105.989 148.735H105.97V148.07H105.172V151.959ZM109.146 152.037C110.089 152.037 110.688 151.475 110.813 150.857L110.821 150.817H110.063L110.052 150.846C109.952 151.138 109.638 151.382 109.165 151.382C108.529 151.382 108.126 150.953 108.111 150.218H110.865V149.948C110.865 148.78 110.196 147.996 109.105 147.996C108.015 147.996 107.312 148.809 107.312 150.025V150.029C107.312 151.257 108.004 152.037 109.146 152.037ZM109.109 148.65C109.63 148.65 110.008 148.979 110.074 149.652H108.122C108.192 149.001 108.592 148.65 109.109 148.65ZM114.695 152.037C115.808 152.037 116.54 151.268 116.54 150.014V150.007C116.54 148.761 115.801 147.996 114.692 147.996C113.586 147.996 112.851 148.765 112.851 150.007V150.014C112.851 151.264 113.579 152.037 114.695 152.037ZM114.699 151.367C114.074 151.367 113.668 150.876 113.668 150.014V150.007C113.668 149.157 114.078 148.665 114.692 148.665C115.316 148.665 115.723 149.157 115.723 150.007V150.014C115.723 150.872 115.324 151.367 114.699 151.367ZM117.391 151.959H118.193V148.706H118.969V148.07H118.178V147.67C118.178 147.327 118.348 147.153 118.707 147.153C118.806 147.153 118.906 147.16 118.984 147.171V146.58C118.877 146.561 118.699 146.547 118.537 146.547C117.745 146.547 117.391 146.901 117.391 147.656V148.07H116.854V148.706H117.391V151.959ZM121.594 153.257C122.356 153.257 122.762 152.946 123.051 152.14L124.5 148.07H123.657L122.677 151.234H122.651L121.672 148.07H120.807L122.223 151.963L122.156 152.148C122.023 152.525 121.816 152.624 121.439 152.624C121.332 152.624 121.239 152.61 121.176 152.595V153.22C121.272 153.238 121.439 153.257 121.594 153.257ZM126.489 152.037C127.602 152.037 128.334 151.268 128.334 150.014V150.007C128.334 148.761 127.594 147.996 126.485 147.996C125.38 147.996 124.644 148.765 124.644 150.007V150.014C124.644 151.264 125.372 152.037 126.489 152.037ZM126.493 151.367C125.868 151.367 125.461 150.876 125.461 150.014V150.007C125.461 149.157 125.872 148.665 126.485 148.665C127.11 148.665 127.517 149.157 127.517 150.007V150.014C127.517 150.872 127.117 151.367 126.493 151.367ZM130.275 152.037C130.866 152.037 131.262 151.767 131.465 151.375H131.484V151.959H132.286V148.07H131.484V150.34C131.484 150.946 131.121 151.349 130.559 151.349C130.005 151.349 129.731 151.024 129.731 150.436V148.07H128.933V150.591C128.933 151.486 129.421 152.037 130.275 152.037ZM133.077 151.959H133.876V149.641C133.876 149.061 134.194 148.724 134.707 148.724C134.863 148.724 135.003 148.743 135.066 148.768V148.025C135.003 148.014 134.903 147.996 134.789 147.996C134.345 147.996 134.02 148.28 133.894 148.735H133.876V148.07H133.077V151.959ZM137.018 152.037C137.935 152.037 138.6 151.549 138.6 150.839V150.835C138.6 150.277 138.297 149.963 137.502 149.778L136.87 149.634C136.452 149.534 136.293 149.371 136.293 149.131V149.127C136.293 148.816 136.563 148.613 136.992 148.613C137.443 148.613 137.709 148.85 137.758 149.19L137.761 149.216H138.512L138.508 149.171C138.467 148.51 137.913 147.996 136.992 147.996C136.098 147.996 135.491 148.473 135.491 149.168V149.171C135.491 149.737 135.857 150.092 136.597 150.262L137.233 150.406C137.65 150.506 137.791 150.65 137.791 150.902V150.905C137.791 151.22 137.502 151.419 137.022 151.419C136.53 151.419 136.264 151.208 136.19 150.85L136.183 150.813H135.391L135.395 150.846C135.476 151.556 136.046 152.037 137.018 152.037ZM140.882 152.037C141.824 152.037 142.423 151.475 142.549 150.857L142.556 150.817H141.798L141.787 150.846C141.687 151.138 141.373 151.382 140.9 151.382C140.264 151.382 139.861 150.953 139.846 150.218H142.601V149.948C142.601 148.78 141.931 147.996 140.841 147.996C139.75 147.996 139.048 148.809 139.048 150.025V150.029C139.048 151.257 139.739 152.037 140.882 152.037ZM140.845 148.65C141.366 148.65 141.743 148.979 141.809 149.652H139.857C139.928 149.001 140.327 148.65 140.845 148.65ZM143.251 151.959H144.05V146.624H143.251V151.959ZM145.104 151.959H145.906V148.706H146.682V148.07H145.891V147.67C145.891 147.327 146.061 147.153 146.42 147.153C146.52 147.153 146.619 147.16 146.697 147.171V146.58C146.59 146.561 146.412 146.547 146.25 146.547C145.458 146.547 145.104 146.901 145.104 147.656V148.07H144.567V148.706H145.104V151.959ZM148.878 151.959H149.677V149.707C149.677 149.101 150.043 148.68 150.594 148.68C151.156 148.68 151.481 149.064 151.481 149.707V151.959H152.28V149.556C152.28 148.617 151.732 147.996 150.901 147.996C150.32 147.996 149.902 148.258 149.695 148.709H149.677V146.624H148.878V151.959ZM154.716 152.037C155.659 152.037 156.258 151.475 156.383 150.857L156.391 150.817H155.633L155.622 150.846C155.522 151.138 155.208 151.382 154.734 151.382C154.098 151.382 153.695 150.953 153.681 150.218H156.435V149.948C156.435 148.78 155.766 147.996 154.675 147.996C153.585 147.996 152.882 148.809 152.882 150.025V150.029C152.882 151.257 153.573 152.037 154.716 152.037ZM154.679 148.65C155.2 148.65 155.577 148.979 155.644 149.652H153.692C153.762 149.001 154.161 148.65 154.679 148.65ZM157.056 151.959H157.855V149.641C157.855 149.061 158.173 148.724 158.686 148.724C158.842 148.724 158.982 148.743 159.045 148.768V148.025C158.982 148.014 158.882 147.996 158.768 147.996C158.324 147.996 157.999 148.28 157.873 148.735H157.855V148.07H157.056V151.959ZM161.03 152.037C161.973 152.037 162.572 151.475 162.698 150.857L162.705 150.817H161.947L161.936 150.846C161.836 151.138 161.522 151.382 161.049 151.382C160.413 151.382 160.01 150.953 159.995 150.218H162.75V149.948C162.75 148.78 162.08 147.996 160.99 147.996C159.899 147.996 159.197 148.809 159.197 150.025V150.029C159.197 151.257 159.888 152.037 161.03 152.037ZM160.993 148.65C161.515 148.65 161.892 148.979 161.958 149.652H160.006C160.077 149.001 160.476 148.65 160.993 148.65Z" fill="black"/>
<rect x="0.0957031" y="394.279" width="202.809" height="45.4293" fill="white"/>
<rect x="66.0762" y="429.973" width="72.4705" height="2.70412" rx="1.35206" fill="#1E272E"/>
<path d="M28.1252 406.182L24.5828 403.349C23.8906 402.797 22.8089 402.792 22.1221 403.343L18.5797 406.182C18.0713 406.588 17.763 407.399 17.8712 408.038L18.5526 412.115C18.7095 413.029 19.5586 413.749 20.4834 413.749H26.2161C27.1301 413.749 27.9954 413.013 28.1523 412.11L28.8337 408.032C28.931 407.399 28.6228 406.588 28.1252 406.182ZM23.7554 411.585C23.7554 411.807 23.5715 411.991 23.3497 411.991C23.128 411.991 22.9441 411.807 22.9441 411.585V409.963C22.9441 409.741 23.128 409.557 23.3497 409.557C23.5715 409.557 23.7554 409.741 23.7554 409.963V411.585Z" fill="#E8E8E8"/>
<path d="M16.5773 422.994H17.3748V421.388H19.0913V422.994H19.8888V419.183H19.0913V420.731H17.3748V419.183H16.5773V422.994ZM21.7558 423.052C22.6114 423.052 23.158 422.502 23.158 421.578V421.573C23.158 420.657 22.6008 420.105 21.7531 420.105C20.9081 420.105 20.3535 420.662 20.3535 421.573V421.578C20.3535 422.5 20.8949 423.052 21.7558 423.052ZM21.7584 422.447C21.3782 422.447 21.1378 422.133 21.1378 421.578V421.573C21.1378 421.026 21.3808 420.709 21.7531 420.709C22.1281 420.709 22.3737 421.026 22.3737 421.573V421.578C22.3737 422.13 22.1334 422.447 21.7584 422.447ZM23.5568 422.994H24.3279V421.285C24.3279 420.966 24.5259 420.744 24.819 420.744C25.1042 420.744 25.2759 420.923 25.2759 421.227V422.994H26.0179V421.272C26.0179 420.958 26.2107 420.744 26.5038 420.744C26.8022 420.744 26.966 420.923 26.966 421.251V422.994H27.7371V421.058C27.7371 420.488 27.3647 420.105 26.8102 420.105C26.3956 420.105 26.0576 420.332 25.9308 420.688H25.915C25.8199 420.316 25.532 420.105 25.1359 420.105C24.7557 420.105 24.4599 420.316 24.3437 420.638H24.3279V420.163H23.5568V422.994ZM29.5143 423.052C30.3224 423.052 30.7132 422.574 30.8003 422.157L30.8083 422.127H30.1005L30.0953 422.143C30.0398 422.302 29.847 422.476 29.5301 422.476C29.1367 422.476 28.8911 422.212 28.8832 421.76H30.832V421.523C30.832 420.667 30.3118 420.105 29.4826 420.105C28.6534 420.105 28.1226 420.68 28.1226 421.581V421.583C28.1226 422.489 28.6481 423.052 29.5143 423.052ZM29.4958 420.68C29.8153 420.68 30.0451 420.884 30.0926 421.275H28.8911C28.9413 420.892 29.1789 420.68 29.4958 420.68Z" fill="#333333"/>
<path d="M92.4967 423.057C93.3681 423.057 93.9042 422.629 93.9042 421.953V421.951C93.9042 421.37 93.5768 421.053 92.7951 420.881L92.3726 420.789C91.8761 420.68 91.6464 420.485 91.6464 420.173V420.171C91.6464 419.804 91.9791 419.561 92.4888 419.558C92.972 419.558 93.2968 419.788 93.3549 420.176L93.3602 420.213H93.8356L93.8329 420.173C93.7907 419.55 93.2467 419.12 92.502 419.12C91.7177 419.12 91.1631 419.558 91.1605 420.184V420.187C91.1605 420.744 91.5091 421.079 92.2537 421.243L92.6763 421.335C93.1991 421.451 93.4183 421.639 93.4183 421.974V421.977C93.4183 422.37 93.0724 422.619 92.5231 422.619C91.9712 422.619 91.6015 422.384 91.546 422.001L91.5407 421.964H91.0654L91.0681 422.001C91.1156 422.653 91.6728 423.057 92.4967 423.057ZM95.1929 423.046C95.56 423.046 95.8901 422.848 96.0511 422.547H96.0617V422.994H96.5212V421.095C96.5212 420.546 96.1145 420.194 95.4649 420.194C94.8179 420.194 94.4244 420.559 94.3848 421.01L94.3822 421.04H94.8258L94.8311 421.016C94.8839 420.77 95.1058 420.601 95.4596 420.601C95.8425 420.601 96.0617 420.804 96.0617 421.14V421.37L95.2748 421.414C94.6436 421.451 94.2792 421.745 94.2792 422.212V422.217C94.2792 422.716 94.6463 423.046 95.1929 423.046ZM94.7493 422.217V422.212C94.7493 421.956 94.9605 421.792 95.3276 421.771L96.0617 421.726V421.951C96.0617 422.349 95.729 422.648 95.2959 422.648C94.9658 422.648 94.7493 422.481 94.7493 422.217ZM97.8785 422.994H98.3486L99.3574 420.247H98.8794L98.1188 422.505H98.1083L97.3504 420.247H96.8671L97.8785 422.994ZM99.9779 419.783C100.139 419.783 100.266 419.653 100.266 419.495C100.266 419.334 100.139 419.207 99.9779 419.207C99.8195 419.207 99.6901 419.334 99.6901 419.495C99.6901 419.653 99.8195 419.783 99.9779 419.783ZM99.7482 422.994H100.208V420.247H99.7482V422.994ZM100.834 422.994H101.293V421.378C101.293 420.91 101.576 420.601 102.009 420.601C102.431 420.601 102.64 420.847 102.64 421.293V422.994H103.099V421.211C103.099 420.585 102.751 420.194 102.149 420.194C101.731 420.194 101.451 420.382 101.304 420.638H101.293V420.247H100.834V422.994ZM104.847 423.971C105.592 423.971 106.06 423.553 106.06 422.917V420.247H105.6V420.712H105.59C105.421 420.406 105.114 420.194 104.726 420.194C104.029 420.194 103.551 420.749 103.551 421.602V421.605C103.551 422.463 104.024 423.02 104.715 423.02C105.109 423.02 105.426 422.825 105.59 422.521H105.6V422.872C105.6 423.297 105.325 423.564 104.842 423.564C104.467 423.564 104.206 423.443 104.119 423.245L104.108 423.221H103.646L103.651 423.245C103.741 423.651 104.169 423.971 104.847 423.971ZM104.816 422.613C104.327 422.613 104.021 422.228 104.021 421.605V421.602C104.021 420.992 104.327 420.601 104.816 420.601C105.281 420.601 105.6 420.997 105.6 421.602V421.605C105.6 422.215 105.283 422.613 104.816 422.613ZM107.628 423.046C108.241 423.046 108.695 422.708 108.695 422.228V422.225C108.695 421.834 108.494 421.615 107.94 421.481L107.504 421.375C107.2 421.301 107.076 421.172 107.076 420.984V420.981C107.076 420.738 107.282 420.577 107.615 420.577C107.956 420.577 108.159 420.754 108.196 421.021L108.199 421.04H108.637L108.634 421.005C108.6 420.546 108.217 420.194 107.615 420.194C107.021 420.194 106.606 420.53 106.606 421.003V421.005C106.606 421.401 106.857 421.642 107.375 421.766L107.81 421.871C108.122 421.948 108.225 422.059 108.225 422.257V422.26C108.225 422.508 108.003 422.664 107.631 422.664C107.256 422.664 107.052 422.502 106.997 422.228L106.992 422.201H106.532L106.535 422.225C106.59 422.716 106.981 423.046 107.628 423.046Z" fill="#718096"/>
<path d="M105.015 414.154H95.8211C94.7016 414.154 93.793 413.246 93.793 412.126V402.932C93.793 402.71 93.9768 402.526 94.1986 402.526C94.4203 402.526 94.6042 402.71 94.6042 402.932V412.126C94.6042 412.797 95.1504 413.343 95.8211 413.343H105.015C105.237 413.343 105.421 413.527 105.421 413.748C105.421 413.97 105.237 414.154 105.015 414.154Z" fill="#FFB901"/>
<path d="M95.8215 411.45C95.7296 411.45 95.6322 411.418 95.5565 411.353C95.3889 411.207 95.3672 410.953 95.5133 410.78L97.9957 407.881C98.2661 407.567 98.6555 407.378 99.0665 407.362C99.4775 407.351 99.8831 407.502 100.175 407.794L100.689 408.308C100.824 408.443 100.997 408.508 101.192 408.508C101.381 408.503 101.554 408.416 101.679 408.27L104.161 405.371C104.307 405.204 104.561 405.182 104.734 405.328C104.902 405.474 104.924 405.728 104.778 405.901L102.295 408.8C102.025 409.114 101.635 409.303 101.224 409.319C100.808 409.33 100.408 409.179 100.116 408.887L99.6073 408.373C99.4721 408.238 99.2936 408.168 99.1043 408.173C98.9151 408.178 98.742 408.265 98.6176 408.411L96.1352 411.31C96.0487 411.402 95.9351 411.45 95.8215 411.45Z" fill="#FFB901"/>
<path d="M166.392 422.994H167.673C168.806 422.994 169.471 422.289 169.471 421.087V421.082C169.471 419.885 168.8 419.183 167.673 419.183H166.392V422.994ZM166.867 422.566V419.611H167.641C168.505 419.611 168.985 420.136 168.985 421.087V421.092C168.985 422.038 168.505 422.566 167.641 422.566H166.867ZM170.25 419.783C170.411 419.783 170.538 419.653 170.538 419.495C170.538 419.334 170.411 419.207 170.25 419.207C170.092 419.207 169.962 419.334 169.962 419.495C169.962 419.653 170.092 419.783 170.25 419.783ZM170.02 422.994H170.48V420.247H170.02V422.994ZM172.08 423.046C172.693 423.046 173.147 422.708 173.147 422.228V422.225C173.147 421.834 172.946 421.615 172.392 421.481L171.956 421.375C171.652 421.301 171.528 421.172 171.528 420.984V420.981C171.528 420.738 171.734 420.577 172.067 420.577C172.408 420.577 172.611 420.754 172.648 421.021L172.651 421.04H173.089L173.086 421.005C173.052 420.546 172.669 420.194 172.067 420.194C171.473 420.194 171.058 420.53 171.058 421.003V421.005C171.058 421.401 171.309 421.642 171.827 421.766L172.262 421.871C172.574 421.948 172.677 422.059 172.677 422.257V422.26C172.677 422.508 172.455 422.664 172.083 422.664C171.708 422.664 171.505 422.502 171.449 422.228L171.444 422.201H170.984L170.987 422.225C171.042 422.716 171.433 423.046 172.08 423.046ZM174.763 423.046C175.384 423.046 175.835 422.642 175.909 422.12L175.912 422.101H175.46L175.455 422.122C175.379 422.429 175.138 422.64 174.763 422.64C174.288 422.64 173.96 422.262 173.96 421.623V421.62C173.96 420.997 174.28 420.601 174.758 420.601C175.162 420.601 175.384 420.844 175.453 421.119L175.458 421.14H175.907L175.904 421.119C175.846 420.649 175.442 420.194 174.758 420.194C173.995 420.194 173.49 420.749 173.49 421.615V421.618C173.49 422.492 173.984 423.046 174.763 423.046ZM177.473 423.046C178.231 423.046 178.743 422.497 178.743 421.62V421.615C178.743 420.738 178.228 420.194 177.47 420.194C176.712 420.194 176.2 420.741 176.2 421.615V421.62C176.2 422.495 176.71 423.046 177.473 423.046ZM177.475 422.64C176.989 422.64 176.67 422.267 176.67 421.62V421.615C176.67 420.973 176.992 420.601 177.47 420.601C177.956 420.601 178.273 420.971 178.273 421.615V421.62C178.273 422.265 177.959 422.64 177.475 422.64ZM180.145 423.046C180.562 423.046 180.842 422.859 180.99 422.603H181.001V422.994H181.46V420.247H181.001V421.863C181.001 422.331 180.718 422.64 180.285 422.64C179.863 422.64 179.654 422.394 179.654 421.948V420.247H179.194V422.03C179.194 422.656 179.543 423.046 180.145 423.046ZM182.06 422.994H182.519V421.378C182.519 420.91 182.802 420.601 183.235 420.601C183.657 420.601 183.866 420.847 183.866 421.293V422.994H184.325V421.211C184.325 420.585 183.977 420.194 183.375 420.194C182.958 420.194 182.678 420.382 182.53 420.638H182.519V420.247H182.06V422.994ZM185.804 423.046C185.894 423.046 185.992 423.036 186.05 423.028V422.656C186.01 422.658 185.957 422.666 185.902 422.666C185.656 422.666 185.527 422.584 185.527 422.291V420.628H186.05V420.247H185.527V419.505H185.052V420.247H184.65V420.628H185.052V422.294C185.052 422.819 185.3 423.046 185.804 423.046Z" fill="#718096"/>
<path d="M177.909 402.932H173.82C171.776 402.932 171.268 403.478 171.268 405.658V411.748C171.268 413.186 172.057 413.527 173.014 412.499L173.02 412.494C173.463 412.023 174.139 412.061 174.523 412.575L175.07 413.305C175.508 413.884 176.216 413.884 176.654 413.305L177.2 412.575C177.59 412.056 178.266 412.018 178.709 412.494C179.672 413.521 180.456 413.181 180.456 411.742V405.658C180.462 403.478 179.953 402.932 177.909 402.932ZM174.242 405.636C174.54 405.636 174.783 405.88 174.783 406.177C174.783 406.475 174.545 406.718 174.242 406.718C173.939 406.718 173.701 406.475 173.701 406.177C173.701 405.88 173.939 405.636 174.242 405.636ZM177.487 409.422C177.184 409.422 176.946 409.179 176.946 408.881C176.946 408.584 177.19 408.34 177.487 408.34C177.785 408.34 178.028 408.584 178.028 408.881C178.028 409.179 177.79 409.422 177.487 409.422ZM177.974 405.955L174.334 409.595C174.253 409.676 174.15 409.714 174.047 409.714C173.945 409.714 173.842 409.676 173.761 409.595C173.604 409.438 173.604 409.179 173.761 409.022L177.401 405.382C177.557 405.225 177.817 405.225 177.974 405.382C178.131 405.539 178.131 405.798 177.974 405.955Z" fill="#E8E8E8"/>
<g filter="url(#filter0_i_206_3351)">
<path fill-rule="evenodd" clip-rule="evenodd" d="M13.0762 351.013C13.0762 348.624 15.0133 346.687 17.4028 346.687H185.599C187.989 346.687 189.926 348.624 189.926 351.013V369.401C189.926 371.791 187.989 373.728 185.599 373.728H17.4028C15.0133 373.728 13.0762 371.791 13.0762 369.401V351.013Z" fill="#D8D8D8"/>
</g>
<path d="M80.8488 362.891C82.2241 362.891 83.0818 362.096 83.0818 360.913V357.464H81.9653V360.814C81.9653 361.505 81.566 361.945 80.8488 361.945C80.1316 361.945 79.7286 361.505 79.7286 360.814V357.464H78.6121V360.913C78.6121 362.1 79.4809 362.891 80.8488 362.891ZM83.8804 364.093H84.9599V362.122H84.9821C85.1965 362.592 85.6439 362.88 86.2095 362.88C87.2003 362.88 87.814 362.104 87.814 360.817V360.814C87.814 359.523 87.2003 358.754 86.1947 358.754C85.6328 358.754 85.2002 359.046 84.9858 359.527H84.9599V358.836H83.8804V364.093ZM85.8398 361.985C85.3148 361.985 84.9562 361.534 84.9562 360.821V360.817C84.9562 360.1 85.3148 359.649 85.8398 359.649C86.3759 359.649 86.716 360.089 86.716 360.814V360.817C86.716 361.538 86.3759 361.985 85.8398 361.985ZM88.4019 362.799H89.4814V357.464H88.4019V362.799ZM92.0287 362.88C93.2265 362.88 93.9918 362.111 93.9918 360.817V360.81C93.9918 359.527 93.2117 358.754 92.025 358.754C90.8419 358.754 90.0655 359.534 90.0655 360.81V360.817C90.0655 362.107 90.8234 362.88 92.0287 362.88ZM92.0324 362.034C91.5 362.034 91.1636 361.594 91.1636 360.817V360.81C91.1636 360.045 91.5037 359.601 92.025 359.601C92.5499 359.601 92.8938 360.045 92.8938 360.81V360.817C92.8938 361.59 92.5573 362.034 92.0324 362.034ZM95.7294 362.862C96.2507 362.862 96.6721 362.614 96.8977 362.207H96.9199V362.799H97.9994V360.082C97.9994 359.283 97.3376 358.754 96.3135 358.754C95.2673 358.754 94.6388 359.279 94.5796 360.011L94.5759 360.056H95.563L95.5704 360.022C95.6222 359.767 95.8662 359.579 96.2692 359.579C96.6906 359.579 96.9199 359.797 96.9199 360.148V360.392L95.9401 360.451C94.9567 360.514 94.3985 360.936 94.3985 361.656V361.664C94.3985 362.363 94.9345 362.862 95.7294 362.862ZM95.4669 361.608V361.601C95.4669 361.32 95.685 361.143 96.1028 361.117L96.9199 361.065V361.35C96.9199 361.764 96.5649 362.074 96.0806 362.074C95.7072 362.074 95.4669 361.9 95.4669 361.608ZM100.166 362.88C100.739 362.88 101.175 362.592 101.386 362.122H101.408V362.799H102.488V357.464H101.408V359.523H101.386C101.171 359.043 100.728 358.754 100.166 358.754C99.1677 358.754 98.5539 359.523 98.5539 360.814V360.817C98.5539 362.104 99.1677 362.88 100.166 362.88ZM100.528 361.985C99.9884 361.985 99.652 361.538 99.652 360.817V360.814C99.652 360.089 99.9921 359.649 100.528 359.649C101.049 359.649 101.412 360.1 101.412 360.814V360.817C101.412 361.534 101.053 361.985 100.528 361.985ZM104.802 362.799H105.918V361.117H106.946C108.07 361.117 108.821 360.392 108.821 359.294V359.287C108.821 358.189 108.07 357.464 106.946 357.464H104.802V362.799ZM106.673 358.348C107.312 358.348 107.689 358.684 107.689 359.29V359.298C107.689 359.904 107.312 360.244 106.673 360.244H105.918V358.348H106.673ZM109.416 362.799H110.495V360.529C110.495 360.011 110.802 359.649 111.279 359.649C111.771 359.649 112.044 359.978 112.044 360.533V362.799H113.124V360.311C113.124 359.353 112.592 358.754 111.734 358.754C111.139 358.754 110.721 359.028 110.518 359.52H110.495V357.464H109.416V362.799ZM115.638 362.88C116.836 362.88 117.601 362.111 117.601 360.817V360.81C117.601 359.527 116.821 358.754 115.634 358.754C114.451 358.754 113.675 359.534 113.675 360.81V360.817C113.675 362.107 114.433 362.88 115.638 362.88ZM115.642 362.034C115.109 362.034 114.773 361.594 114.773 360.817V360.81C114.773 360.045 115.113 359.601 115.634 359.601C116.159 359.601 116.503 360.045 116.503 360.81V360.817C116.503 361.59 116.167 362.034 115.642 362.034ZM119.734 362.88C119.96 362.88 120.134 362.858 120.256 362.839V362.048C120.189 362.056 120.119 362.067 120.023 362.067C119.697 362.067 119.531 361.941 119.531 361.571V359.649H120.256V358.836H119.531V357.867H118.44V358.836H117.889V359.649H118.44V361.69C118.44 362.54 118.854 362.88 119.734 362.88ZM122.611 362.88C123.808 362.88 124.574 362.111 124.574 360.817V360.81C124.574 359.527 123.794 358.754 122.607 358.754C121.424 358.754 120.647 359.534 120.647 360.81V360.817C120.647 362.107 121.405 362.88 122.611 362.88ZM122.614 362.034C122.082 362.034 121.745 361.594 121.745 360.817V360.81C121.745 360.045 122.086 359.601 122.607 359.601C123.132 359.601 123.476 360.045 123.476 360.81V360.817C123.476 361.59 123.139 362.034 122.614 362.034Z" fill="black"/>
</g>
<rect x="1.44776" y="1.91066" width="200.105" height="436.445" rx="6.76031" stroke="#979797" stroke-width="2.70412"/>
<defs>
<filter id="filter0_i_206_3351" x="13.0762" y="346.687" width="176.85" height="27.041" filterUnits="userSpaceOnUse" color-interpolation-filters="sRGB">
<feFlood flood-opacity="0" result="BackgroundImageFix"/>
<feBlend mode="normal" in="SourceGraphic" in2="BackgroundImageFix" result="shape"/>
<feColorMatrix in="SourceAlpha" type="matrix" values="0 0 0 0 0 0 0 0 0 0 0 0 0 0 0 0 0 0 127 0" result="hardAlpha"/>
<feOffset/>
<feGaussianBlur stdDeviation="0.270412"/>
<feComposite in2="hardAlpha" operator="arithmetic" k2="-1" k3="1"/>
<feColorMatrix type="matrix" values="0 0 0 0 0 0 0 0 0 0 0 0 0 0 0 0 0 0 0.1 0"/>
<feBlend mode="normal" in2="shape" result="effect1_innerShadow_206_3351"/>
</filter>
<clipPath id="clip0_206_3351">
<rect x="0.0957031" y="0.558594" width="202.809" height="439.15" rx="8.11237" fill="white"/>
</clipPath>
</defs>
</svg>
