<svg width="203" height="440" viewBox="0 0 203 440" fill="none" xmlns="http://www.w3.org/2000/svg">
<g clip-path="url(#clip0_206_2882)">
<rect x="0.191406" y="0.558594" width="202.809" height="439.15" rx="8.11237" fill="#FBFBFC"/>
<path d="M23.4464 28.1406H15.334" stroke="#FFB901" stroke-width="1.62247" stroke-linecap="round"/>
<path d="M18.0379 24.355L14.793 28.1408L18.0379 31.9265" stroke="#FFB901" stroke-width="1.62247" stroke-linecap="round" stroke-linejoin="round"/>
<g filter="url(#filter0_d_206_2882)">
<rect x="11.5469" y="130.356" width="176.85" height="32.4495" rx="2.1633" fill="white"/>
</g>
<path d="M50.8666 148.795H51.719V145.703H51.7444L52.9802 148.795H53.5823L54.815 145.703H54.8436V148.795H55.696V144.223H54.59L53.2908 147.509H53.2718L51.9725 144.223H50.8666V148.795ZM56.9097 149.914C57.6639 149.914 58.1202 149.657 58.3864 148.856L59.5525 145.398H58.5765L57.8572 148.054H57.8318L57.1157 145.398H56.0984L57.2995 148.795L57.2583 148.906C57.1759 149.138 57.0238 149.217 56.7481 149.217C56.6118 149.217 56.5041 149.198 56.4375 149.185V149.873C56.5453 149.892 56.729 149.914 56.9097 149.914ZM61.2416 148.795H62.1986V147.354H63.0795C64.0429 147.354 64.6861 146.732 64.6861 145.791V145.785C64.6861 144.844 64.0429 144.223 63.0795 144.223H61.2416V148.795ZM62.845 144.98C63.3932 144.98 63.7165 145.268 63.7165 145.788V145.794C63.7165 146.314 63.3932 146.606 62.845 146.606H62.1986V144.98H62.845ZM65.1742 148.795H66.0995V146.894C66.0995 146.4 66.3657 146.127 66.822 146.127C66.9551 146.127 67.0818 146.146 67.1579 146.178V145.363C67.0882 145.344 66.9931 145.329 66.8917 145.329C66.4956 145.329 66.2199 145.573 66.1185 145.991H66.0995V145.398H65.1742V148.795ZM68.9832 148.865C70.0099 148.865 70.6658 148.206 70.6658 147.097V147.091C70.6658 145.991 69.9972 145.329 68.98 145.329C67.9659 145.329 67.3005 145.997 67.3005 147.091V147.097C67.3005 148.203 67.9501 148.865 68.9832 148.865ZM68.9863 148.139C68.53 148.139 68.2416 147.762 68.2416 147.097V147.091C68.2416 146.435 68.5332 146.054 68.98 146.054C69.43 146.054 69.7247 146.435 69.7247 147.091V147.097C69.7247 147.759 69.4363 148.139 68.9863 148.139ZM71.3915 148.795H72.3168V146.096H72.9696V145.398H72.2947V145.161C72.2947 144.917 72.4309 144.787 72.7383 144.787C72.8239 144.787 72.9126 144.79 72.976 144.803V144.191C72.8682 144.169 72.6813 144.153 72.5101 144.153C71.7084 144.153 71.3915 144.46 71.3915 145.126V145.398H70.9289V146.096H71.3915V148.795ZM73.9393 144.961C74.2182 144.961 74.4337 144.742 74.4337 144.479C74.4337 144.216 74.2182 143.998 73.9393 143.998C73.6604 143.998 73.445 144.216 73.445 144.479C73.445 144.742 73.6604 144.961 73.9393 144.961ZM73.4767 148.795H74.402V145.398H73.4767V148.795ZM75.0453 148.795H75.9706V144.223H75.0453V148.795ZM78.1413 148.865C79.1109 148.865 79.5799 148.292 79.6845 147.791L79.694 147.756H78.8448L78.8384 147.775C78.7719 147.965 78.5405 148.174 78.1603 148.174C77.6881 148.174 77.3934 147.857 77.3839 147.316H79.7225V147.03C79.7225 146.004 79.0983 145.329 78.1032 145.329C77.1082 145.329 76.4713 146.019 76.4713 147.1V147.103C76.4713 148.19 77.1019 148.865 78.1413 148.865ZM78.1191 146.019C78.5025 146.019 78.7782 146.263 78.8353 146.732H77.3934C77.4536 146.273 77.7388 146.019 78.1191 146.019Z" fill="#413D4A"/>
<circle cx="35.3438" cy="146.581" r="10.8165" fill="#FFB901" fill-opacity="0.1"/>
<path d="M172.712 149.285L175.957 146.581L172.712 143.877" stroke="#FFB901" stroke-width="1.08165" stroke-linecap="round" stroke-linejoin="round"/>
<path d="M35.2742 147.273C35.2634 147.273 35.2471 147.273 35.2363 147.273C35.2201 147.273 35.1985 147.273 35.1822 147.273C33.9546 147.235 33.0352 146.278 33.0352 145.099C33.0352 143.898 34.014 142.919 35.2147 142.919C36.4153 142.919 37.3942 143.898 37.3942 145.099C37.3888 146.283 36.464 147.235 35.2904 147.273C35.2796 147.273 35.2796 147.273 35.2742 147.273ZM35.2093 143.725C34.4521 143.725 33.841 144.342 33.841 145.094C33.841 145.834 34.4197 146.435 35.1552 146.462C35.1714 146.456 35.2255 146.456 35.2796 146.462C36.0043 146.424 36.5721 145.829 36.5776 145.094C36.5776 144.342 35.9664 143.725 35.2093 143.725Z" fill="#FFB901"/>
<path d="M35.2086 152.26C33.7538 152.26 32.3639 151.719 31.2877 150.735C31.1903 150.648 31.1471 150.518 31.1579 150.394C31.2282 149.75 31.6284 149.15 32.2936 148.706C33.9053 147.636 36.5174 147.636 38.1237 148.706C38.7889 149.155 39.1891 149.75 39.2594 150.394C39.2756 150.524 39.227 150.648 39.1296 150.735C38.0534 151.719 36.6635 152.26 35.2086 152.26ZM32.007 150.286C32.9047 151.037 34.0351 151.448 35.2086 151.448C36.3822 151.448 37.5126 151.037 38.4103 150.286C38.313 149.956 38.0534 149.637 37.6694 149.377C36.339 148.49 34.0837 148.49 32.7425 149.377C32.3585 149.637 32.1043 149.956 32.007 150.286Z" fill="#FFB901"/>
<path d="M35.2084 152.26C32.0013 152.26 29.3945 149.653 29.3945 146.446C29.3945 143.239 32.0013 140.632 35.2084 140.632C38.4155 140.632 41.0223 143.239 41.0223 146.446C41.0223 149.653 38.4155 152.26 35.2084 152.26ZM35.2084 141.443C32.4502 141.443 30.2058 143.687 30.2058 146.446C30.2058 149.204 32.4502 151.448 35.2084 151.448C37.9666 151.448 40.211 149.204 40.211 146.446C40.211 143.687 37.9666 141.443 35.2084 141.443Z" fill="#FFB901"/>
<path d="M100.517 72.7065C100.472 72.7065 100.404 72.7065 100.359 72.7065C100.291 72.7065 100.2 72.7065 100.132 72.7065C94.9932 72.548 91.1445 68.5409 91.1445 63.6055C91.1445 58.5796 95.2422 54.4819 100.268 54.4819C105.294 54.4819 109.392 58.5796 109.392 63.6055C109.369 68.5635 105.498 72.548 100.585 72.7065C100.54 72.7065 100.54 72.7065 100.517 72.7065ZM100.245 57.8552C97.076 57.8552 94.5178 60.436 94.5178 63.5829C94.5178 66.6844 96.9402 69.1974 100.019 69.3106C100.087 69.2879 100.313 69.2879 100.54 69.3106C103.573 69.1521 105.951 66.6618 105.973 63.5829C105.973 60.436 103.415 57.8552 100.245 57.8552Z" fill="#292D32"/>
<path d="M100.247 93.5801C94.1568 93.5801 88.3385 91.3162 83.8333 87.1958C83.4258 86.8336 83.2447 86.2903 83.29 85.7696C83.5843 83.0755 85.2596 80.5626 88.0442 78.7062C94.7907 74.2236 105.725 74.2236 112.449 78.7062C115.234 80.5852 116.909 83.0755 117.203 85.7696C117.271 86.3129 117.068 86.8336 116.66 87.1958C112.155 91.3162 106.337 93.5801 100.247 93.5801ZM86.8443 85.3168C90.6024 88.4636 95.334 90.1842 100.247 90.1842C105.159 90.1842 109.891 88.4636 113.649 85.3168C113.242 83.9358 112.155 82.6001 110.548 81.5134C104.978 77.8006 95.5378 77.8006 89.9233 81.5134C88.3159 82.6001 87.2518 83.9358 86.8443 85.3168Z" fill="#292D32"/>
<path d="M100.243 93.5805C86.8183 93.5805 75.9062 82.6684 75.9062 69.2434C75.9062 55.8183 86.8183 44.9062 100.243 44.9062C113.668 44.9062 124.58 55.8183 124.58 69.2434C124.58 82.6684 113.668 93.5805 100.243 93.5805ZM100.243 48.3021C88.6974 48.3021 79.3021 57.6974 79.3021 69.2434C79.3021 80.7893 88.6974 90.1846 100.243 90.1846C111.789 90.1846 121.185 80.7893 121.185 69.2434C121.185 57.6974 111.789 48.3021 100.243 48.3021Z" fill="#292D32"/>
<path d="M65.4498 106.108C66.9376 106.108 67.7979 105.266 67.7979 103.821V99.1297H66.3624V103.807C66.3624 104.501 66.0392 104.867 65.4355 104.867C64.8699 104.867 64.5562 104.496 64.5324 103.964L64.5277 103.935H63.1349L63.1397 103.978C63.1729 105.266 64.0333 106.108 65.4498 106.108ZM71.2156 106.093C72.7557 106.093 73.7396 105.105 73.7396 103.441V103.431C73.7396 101.782 72.7367 100.789 71.2108 100.789C69.6898 100.789 68.6916 101.792 68.6916 103.431V103.441C68.6916 105.1 69.666 106.093 71.2156 106.093ZM71.2204 105.005C70.5359 105.005 70.1033 104.439 70.1033 103.441V103.431C70.1033 102.448 70.5406 101.877 71.2108 101.877C71.8858 101.877 72.3279 102.448 72.3279 103.431V103.441C72.3279 104.434 71.8953 105.005 71.2204 105.005ZM76.5536 106.093C77.8655 106.093 78.7829 105.437 78.7829 104.439V104.434C78.7829 103.683 78.3456 103.265 77.2809 103.042L76.4158 102.856C75.9024 102.747 75.7265 102.576 75.7265 102.314V102.31C75.7265 101.982 76.026 101.768 76.5061 101.768C77.0194 101.768 77.3189 102.043 77.3664 102.41L77.3712 102.448H78.6498V102.4C78.6166 101.506 77.8608 100.789 76.5061 100.789C75.2084 100.789 74.3718 101.416 74.3718 102.386V102.39C74.3718 103.151 74.8709 103.645 75.8596 103.855L76.7247 104.035C77.2238 104.144 77.3949 104.301 77.3949 104.572V104.577C77.3949 104.905 77.0765 105.109 76.5536 105.109C75.9975 105.109 75.698 104.876 75.6077 104.477L75.5982 104.434H74.2435L74.2482 104.477C74.3576 105.442 75.1419 106.093 76.5536 106.093ZM81.787 106.093C83.2416 106.093 83.945 105.233 84.1019 104.482L84.1162 104.43H82.8423L82.8328 104.458C82.7329 104.743 82.386 105.057 81.8156 105.057C81.1073 105.057 80.6652 104.582 80.651 103.769H84.1589V103.341C84.1589 101.801 83.2225 100.789 81.73 100.789C80.2374 100.789 79.282 101.825 79.282 103.446V103.45C79.282 105.081 80.2279 106.093 81.787 106.093ZM81.7538 101.825C82.3289 101.825 82.7425 102.191 82.828 102.894H80.6652C80.7556 102.205 81.1834 101.825 81.7538 101.825ZM84.8767 107.652H86.2647V105.119H86.2932C86.5689 105.723 87.144 106.093 87.8713 106.093C89.1452 106.093 89.9343 105.095 89.9343 103.441V103.436C89.9343 101.777 89.1452 100.789 87.8523 100.789C87.1298 100.789 86.5736 101.164 86.298 101.782H86.2647V100.893H84.8767V107.652ZM87.396 104.943C86.721 104.943 86.2599 104.363 86.2599 103.446V103.441C86.2599 102.519 86.721 101.939 87.396 101.939C88.0852 101.939 88.5225 102.505 88.5225 103.436V103.441C88.5225 104.368 88.0852 104.943 87.396 104.943ZM90.69 105.989H92.078V103.07C92.078 102.405 92.4725 101.939 93.0857 101.939C93.7179 101.939 94.0697 102.362 94.0697 103.075V105.989H95.4576V102.79C95.4576 101.559 94.7732 100.789 93.6704 100.789C92.9051 100.789 92.368 101.14 92.1065 101.773H92.078V99.1297H90.69V105.989ZM98.4 105.989H99.8355V103.888L100.477 103.094L102.44 105.989H104.156L101.523 102.158L103.98 99.1297H102.383L99.8687 102.267H99.8355V99.1297H98.4V105.989ZM106.628 106.093C108.083 106.093 108.786 105.233 108.943 104.482L108.957 104.43H107.683L107.674 104.458C107.574 104.743 107.227 105.057 106.657 105.057C105.948 105.057 105.506 104.582 105.492 103.769H109V103.341C109 101.801 108.063 100.789 106.571 100.789C105.078 100.789 104.123 101.825 104.123 103.446V103.45C104.123 105.081 105.069 106.093 106.628 106.093ZM106.595 101.825C107.17 101.825 107.583 102.191 107.669 102.894H105.506C105.597 102.205 106.024 101.825 106.595 101.825ZM109.765 105.989H111.153V104.301L111.51 103.907L112.969 105.989H114.571L112.551 103.084L114.476 100.893H112.902L111.182 102.932H111.153V99.1297H109.765V105.989ZM116.444 106.07C117.114 106.07 117.656 105.751 117.946 105.228H117.974V105.989H119.362V102.495C119.362 101.468 118.511 100.789 117.195 100.789C115.849 100.789 115.041 101.464 114.965 102.405L114.961 102.462H116.23L116.239 102.419C116.306 102.091 116.62 101.849 117.138 101.849C117.68 101.849 117.974 102.129 117.974 102.581V102.894L116.715 102.97C115.45 103.051 114.732 103.593 114.732 104.52V104.529C114.732 105.428 115.422 106.07 116.444 106.07ZM116.106 104.458V104.449C116.106 104.087 116.387 103.859 116.924 103.826L117.974 103.759V104.125C117.974 104.658 117.518 105.057 116.895 105.057C116.415 105.057 116.106 104.834 116.106 104.458ZM120.261 107.652H121.649V105.119H121.677C121.953 105.723 122.528 106.093 123.255 106.093C124.529 106.093 125.318 105.095 125.318 103.441V103.436C125.318 101.777 124.529 100.789 123.236 100.789C122.514 100.789 121.958 101.164 121.682 101.782H121.649V100.893H120.261V107.652ZM122.78 104.943C122.105 104.943 121.644 104.363 121.644 103.446V103.441C121.644 102.519 122.105 101.939 122.78 101.939C123.469 101.939 123.906 102.505 123.906 103.436V103.441C123.906 104.368 123.469 104.943 122.78 104.943ZM128.379 106.093C129.919 106.093 130.903 105.105 130.903 103.441V103.431C130.903 101.782 129.9 100.789 128.375 100.789C126.853 100.789 125.855 101.792 125.855 103.431V103.441C125.855 105.1 126.83 106.093 128.379 106.093ZM128.384 105.005C127.7 105.005 127.267 104.439 127.267 103.441V103.431C127.267 102.448 127.704 101.877 128.375 101.877C129.05 101.877 129.492 102.448 129.492 103.431V103.441C129.492 104.434 129.059 105.005 128.384 105.005ZM131.654 105.989H133.042V103.07C133.042 102.405 133.437 101.939 134.05 101.939C134.682 101.939 135.034 102.362 135.034 103.075V105.989H136.422V102.79C136.422 101.559 135.737 100.789 134.635 100.789C133.869 100.789 133.332 101.14 133.071 101.773H133.042V99.1297H131.654V105.989Z" fill="black"/>
<g filter="url(#filter1_d_206_2882)">
<rect x="0.191406" y="394.279" width="202.809" height="45.4293" fill="white"/>
<rect x="66.1719" y="429.973" width="72.4705" height="2.70412" rx="1.35206" fill="#1E272E"/>
<path d="M28.2224 406.182L24.68 403.349C23.9877 402.797 22.9061 402.792 22.2192 403.343L18.6768 406.182C18.1685 406.588 17.8602 407.399 17.9683 408.038L18.6498 412.115C18.8066 413.029 19.6557 413.749 20.5805 413.749H26.3133C27.2273 413.749 28.0926 413.013 28.2494 412.11L28.9309 408.032C29.0282 407.399 28.7199 406.588 28.2224 406.182ZM23.8525 411.585C23.8525 411.807 23.6686 411.991 23.4469 411.991C23.2252 411.991 23.0413 411.807 23.0413 411.585V409.963C23.0413 409.741 23.2252 409.557 23.4469 409.557C23.6686 409.557 23.8525 409.741 23.8525 409.963V411.585Z" fill="#E8E8E8"/>
<path d="M17.2 422.994H17.6753V421.259H19.7668V422.994H20.2421V419.183H19.7668V420.831H17.6753V419.183H17.2V422.994ZM22.0484 423.046C22.8063 423.046 23.3186 422.497 23.3186 421.62V421.615C23.3186 420.738 22.8036 420.194 22.0457 420.194C21.2878 420.194 20.7755 420.741 20.7755 421.615V421.62C20.7755 422.495 21.2852 423.046 22.0484 423.046ZM22.051 422.64C21.5651 422.64 21.2456 422.267 21.2456 421.62V421.615C21.2456 420.973 21.5678 420.601 22.0457 420.601C22.5316 420.601 22.8485 420.971 22.8485 421.615V421.62C22.8485 422.265 22.5343 422.64 22.051 422.64ZM23.7833 422.994H24.2428V421.272C24.2428 420.889 24.5069 420.601 24.8713 420.601C25.212 420.601 25.4338 420.82 25.4338 421.153V422.994H25.8933V421.248C25.8933 420.873 26.1494 420.601 26.5139 420.601C26.8756 420.601 27.0843 420.826 27.0843 421.203V422.994H27.5438V421.098C27.5438 420.551 27.1925 420.194 26.6485 420.194C26.263 420.194 25.9408 420.393 25.7877 420.723H25.7771C25.6583 420.387 25.381 420.194 25.006 420.194C24.6521 420.194 24.3775 420.377 24.2534 420.649H24.2428V420.247H23.7833V422.994ZM29.2602 423.046C29.8597 423.046 30.3086 422.687 30.3984 422.233L30.4037 422.207H29.9521L29.9442 422.23C29.865 422.466 29.6194 422.64 29.2708 422.64C28.7823 422.64 28.4707 422.31 28.4601 421.745H30.438V421.576C30.438 420.752 29.9812 420.194 29.2312 420.194C28.4812 420.194 27.9953 420.778 27.9953 421.628V421.631C27.9953 422.495 28.4707 423.046 29.2602 423.046ZM29.2286 420.601C29.6299 420.601 29.9257 420.852 29.9706 421.385H28.468C28.5182 420.873 28.8298 420.601 29.2286 420.601Z" fill="#333333"/>
<path d="M67.715 423.057C68.5864 423.057 69.1225 422.629 69.1225 421.953V421.951C69.1225 421.37 68.795 421.053 68.0134 420.881L67.5908 420.789C67.0944 420.68 66.8646 420.485 66.8646 420.173V420.171C66.8646 419.804 67.1974 419.561 67.707 419.558C68.1903 419.558 68.5151 419.788 68.5732 420.176L68.5785 420.213H69.0538L69.0512 420.173C69.0089 419.55 68.4649 419.12 67.7202 419.12C66.9359 419.12 66.3814 419.558 66.3787 420.184V420.187C66.3787 420.744 66.7273 421.079 67.472 421.243L67.8945 421.335C68.4174 421.451 68.6366 421.639 68.6366 421.974V421.977C68.6366 422.37 68.2906 422.619 67.7414 422.619C67.1895 422.619 66.8197 422.384 66.7643 422.001L66.759 421.964H66.2837L66.2863 422.001C66.3338 422.653 66.891 423.057 67.715 423.057ZM70.4112 423.046C70.7782 423.046 71.1083 422.848 71.2694 422.547H71.28V422.994H71.7395V421.095C71.7395 420.546 71.3328 420.194 70.6832 420.194C70.0362 420.194 69.6427 420.559 69.6031 421.01L69.6005 421.04H70.0441L70.0494 421.016C70.1022 420.77 70.324 420.601 70.6779 420.601C71.0608 420.601 71.28 420.804 71.28 421.14V421.37L70.493 421.414C69.8619 421.451 69.4975 421.745 69.4975 422.212V422.217C69.4975 422.716 69.8645 423.046 70.4112 423.046ZM69.9675 422.217V422.212C69.9675 421.956 70.1788 421.792 70.5458 421.771L71.28 421.726V421.951C71.28 422.349 70.9472 422.648 70.5141 422.648C70.1841 422.648 69.9675 422.481 69.9675 422.217ZM73.0968 422.994H73.5669L74.5756 420.247H74.0976L73.3371 422.505H73.3265L72.5686 420.247H72.0854L73.0968 422.994ZM75.1962 419.783C75.3573 419.783 75.484 419.653 75.484 419.495C75.484 419.334 75.3573 419.207 75.1962 419.207C75.0377 419.207 74.9083 419.334 74.9083 419.495C74.9083 419.653 75.0377 419.783 75.1962 419.783ZM74.9664 422.994H75.4259V420.247H74.9664V422.994ZM76.0518 422.994H76.5113V421.378C76.5113 420.91 76.7938 420.601 77.2269 420.601C77.6494 420.601 77.8581 420.847 77.8581 421.293V422.994H78.3176V421.211C78.3176 420.585 77.969 420.194 77.3669 420.194C76.9496 420.194 76.6697 420.382 76.5218 420.638H76.5113V420.247H76.0518V422.994ZM80.0657 423.971C80.8104 423.971 81.2778 423.553 81.2778 422.917V420.247H80.8183V420.712H80.8078C80.6388 420.406 80.3324 420.194 79.9443 420.194C79.2471 420.194 78.7691 420.749 78.7691 421.602V421.605C78.7691 422.463 79.2418 423.02 79.9337 423.02C80.3272 423.02 80.644 422.825 80.8078 422.521H80.8183V422.872C80.8183 423.297 80.5437 423.564 80.0604 423.564C79.6855 423.564 79.424 423.443 79.3369 423.245L79.3263 423.221H78.8642L78.8695 423.245C78.9593 423.651 79.3871 423.971 80.0657 423.971ZM80.034 422.613C79.5455 422.613 79.2392 422.228 79.2392 421.605V421.602C79.2392 420.992 79.5455 420.601 80.034 420.601C80.4988 420.601 80.8183 420.997 80.8183 421.602V421.605C80.8183 422.215 80.5014 422.613 80.034 422.613ZM82.8464 423.046C83.4591 423.046 83.9133 422.708 83.9133 422.228V422.225C83.9133 421.834 83.7126 421.615 83.158 421.481L82.7223 421.375C82.4186 421.301 82.2945 421.172 82.2945 420.984V420.981C82.2945 420.738 82.5005 420.577 82.8332 420.577C83.1739 420.577 83.3772 420.754 83.4142 421.021L83.4168 421.04H83.8552L83.8526 421.005C83.8182 420.546 83.4353 420.194 82.8332 420.194C82.2391 420.194 81.8245 420.53 81.8245 421.003V421.005C81.8245 421.401 82.0753 421.642 82.5929 421.766L83.0286 421.871C83.3402 421.948 83.4432 422.059 83.4432 422.257V422.26C83.4432 422.508 83.2214 422.664 82.8491 422.664C82.4741 422.664 82.2707 422.502 82.2153 422.228L82.21 422.201H81.7505L81.7532 422.225C81.8086 422.716 82.1994 423.046 82.8464 423.046Z" fill="#718096"/>
<path d="M80.2333 414.154H71.0393C69.9198 414.154 69.0112 413.246 69.0112 412.126V402.932C69.0112 402.71 69.1951 402.526 69.4168 402.526C69.6386 402.526 69.8225 402.71 69.8225 402.932V412.126C69.8225 412.797 70.3687 413.343 71.0393 413.343H80.2333C80.4551 413.343 80.639 413.527 80.639 413.748C80.639 413.97 80.4551 414.154 80.2333 414.154Z" fill="#E8E8E8"/>
<path d="M71.0393 411.45C70.9474 411.45 70.85 411.417 70.7743 411.353C70.6067 411.206 70.585 410.952 70.731 410.779L73.2134 407.88C73.4838 407.567 73.8732 407.377 74.2843 407.361C74.6953 407.35 75.1009 407.502 75.3929 407.794L75.9067 408.308C76.0419 408.443 76.215 408.508 76.4097 408.508C76.599 408.502 76.7721 408.416 76.8964 408.27L79.3788 405.371C79.5248 405.203 79.779 405.182 79.9521 405.328C80.1198 405.474 80.1414 405.728 79.9954 405.901L77.513 408.8C77.2426 409.113 76.8532 409.303 76.4421 409.319C76.0257 409.33 75.6255 409.178 75.3335 408.886L74.8251 408.373C74.6899 408.237 74.5114 408.167 74.3221 408.172C74.1328 408.178 73.9598 408.264 73.8354 408.41L71.353 411.309C71.2665 411.401 71.1529 411.45 71.0393 411.45Z" fill="#E8E8E8"/>
<path d="M116.732 422.994H118.013C119.146 422.994 119.812 422.289 119.812 421.087V421.082C119.812 419.885 119.141 419.183 118.013 419.183H116.732V422.994ZM117.208 422.566V419.611H117.982C118.845 419.611 119.326 420.136 119.326 421.087V421.092C119.326 422.038 118.845 422.566 117.982 422.566H117.208ZM120.591 419.783C120.752 419.783 120.878 419.653 120.878 419.495C120.878 419.334 120.752 419.207 120.591 419.207C120.432 419.207 120.303 419.334 120.303 419.495C120.303 419.653 120.432 419.783 120.591 419.783ZM120.361 422.994H120.82V420.247H120.361V422.994ZM122.421 423.046C123.033 423.046 123.487 422.708 123.487 422.228V422.225C123.487 421.834 123.287 421.615 122.732 421.481L122.296 421.375C121.993 421.301 121.869 421.172 121.869 420.984V420.981C121.869 420.738 122.075 420.577 122.407 420.577C122.748 420.577 122.951 420.754 122.988 421.021L122.991 421.04H123.429L123.427 421.005C123.392 420.546 123.009 420.194 122.407 420.194C121.813 420.194 121.399 420.53 121.399 421.003V421.005C121.399 421.401 121.65 421.642 122.167 421.766L122.603 421.871C122.914 421.948 123.017 422.059 123.017 422.257V422.26C123.017 422.508 122.796 422.664 122.423 422.664C122.048 422.664 121.845 422.502 121.789 422.228L121.784 422.201H121.325L121.327 422.225C121.383 422.716 121.774 423.046 122.421 423.046ZM125.104 423.046C125.724 423.046 126.176 422.642 126.25 422.12L126.252 422.101H125.801L125.795 422.122C125.719 422.429 125.479 422.64 125.104 422.64C124.628 422.64 124.301 422.262 124.301 421.623V421.62C124.301 420.997 124.62 420.601 125.098 420.601C125.502 420.601 125.724 420.844 125.793 421.119L125.798 421.14H126.247L126.244 421.119C126.186 420.649 125.782 420.194 125.098 420.194C124.335 420.194 123.831 420.749 123.831 421.615V421.618C123.831 422.492 124.325 423.046 125.104 423.046ZM127.813 423.046C128.571 423.046 129.083 422.497 129.083 421.62V421.615C129.083 420.738 128.568 420.194 127.81 420.194C127.052 420.194 126.54 420.741 126.54 421.615V421.62C126.54 422.495 127.05 423.046 127.813 423.046ZM127.816 422.64C127.33 422.64 127.01 422.267 127.01 421.62V421.615C127.01 420.973 127.332 420.601 127.81 420.601C128.296 420.601 128.613 420.971 128.613 421.615V421.62C128.613 422.265 128.299 422.64 127.816 422.64ZM130.485 423.046C130.903 423.046 131.183 422.859 131.33 422.603H131.341V422.994H131.801V420.247H131.341V421.863C131.341 422.331 131.058 422.64 130.625 422.64C130.203 422.64 129.994 422.394 129.994 421.948V420.247H129.535V422.03C129.535 422.656 129.883 423.046 130.485 423.046ZM132.4 422.994H132.859V421.378C132.859 420.91 133.142 420.601 133.575 420.601C133.998 420.601 134.206 420.847 134.206 421.293V422.994H134.666V421.211C134.666 420.585 134.317 420.194 133.715 420.194C133.298 420.194 133.018 420.382 132.87 420.638H132.859V420.247H132.4V422.994ZM136.145 423.046C136.234 423.046 136.332 423.036 136.39 423.028V422.656C136.351 422.658 136.298 422.666 136.242 422.666C135.997 422.666 135.867 422.584 135.867 422.291V420.628H136.39V420.247H135.867V419.505H135.392V420.247H134.991V420.628H135.392V422.294C135.392 422.819 135.64 423.046 136.145 423.046Z" fill="#718096"/>
<path d="M116.732 422.994H118.013C119.146 422.994 119.812 422.289 119.812 421.087V421.082C119.812 419.885 119.141 419.183 118.013 419.183H116.732V422.994ZM117.208 422.566V419.611H117.982C118.845 419.611 119.326 420.136 119.326 421.087V421.092C119.326 422.038 118.845 422.566 117.982 422.566H117.208ZM120.591 419.783C120.752 419.783 120.878 419.653 120.878 419.495C120.878 419.334 120.752 419.207 120.591 419.207C120.432 419.207 120.303 419.334 120.303 419.495C120.303 419.653 120.432 419.783 120.591 419.783ZM120.361 422.994H120.82V420.247H120.361V422.994ZM122.421 423.046C123.033 423.046 123.487 422.708 123.487 422.228V422.225C123.487 421.834 123.287 421.615 122.732 421.481L122.296 421.375C121.993 421.301 121.869 421.172 121.869 420.984V420.981C121.869 420.738 122.075 420.577 122.407 420.577C122.748 420.577 122.951 420.754 122.988 421.021L122.991 421.04H123.429L123.427 421.005C123.392 420.546 123.009 420.194 122.407 420.194C121.813 420.194 121.399 420.53 121.399 421.003V421.005C121.399 421.401 121.65 421.642 122.167 421.766L122.603 421.871C122.914 421.948 123.017 422.059 123.017 422.257V422.26C123.017 422.508 122.796 422.664 122.423 422.664C122.048 422.664 121.845 422.502 121.789 422.228L121.784 422.201H121.325L121.327 422.225C121.383 422.716 121.774 423.046 122.421 423.046ZM125.104 423.046C125.724 423.046 126.176 422.642 126.25 422.12L126.252 422.101H125.801L125.795 422.122C125.719 422.429 125.479 422.64 125.104 422.64C124.628 422.64 124.301 422.262 124.301 421.623V421.62C124.301 420.997 124.62 420.601 125.098 420.601C125.502 420.601 125.724 420.844 125.793 421.119L125.798 421.14H126.247L126.244 421.119C126.186 420.649 125.782 420.194 125.098 420.194C124.335 420.194 123.831 420.749 123.831 421.615V421.618C123.831 422.492 124.325 423.046 125.104 423.046ZM127.813 423.046C128.571 423.046 129.083 422.497 129.083 421.62V421.615C129.083 420.738 128.568 420.194 127.81 420.194C127.052 420.194 126.54 420.741 126.54 421.615V421.62C126.54 422.495 127.05 423.046 127.813 423.046ZM127.816 422.64C127.33 422.64 127.01 422.267 127.01 421.62V421.615C127.01 420.973 127.332 420.601 127.81 420.601C128.296 420.601 128.613 420.971 128.613 421.615V421.62C128.613 422.265 128.299 422.64 127.816 422.64ZM130.485 423.046C130.903 423.046 131.183 422.859 131.33 422.603H131.341V422.994H131.801V420.247H131.341V421.863C131.341 422.331 131.058 422.64 130.625 422.64C130.203 422.64 129.994 422.394 129.994 421.948V420.247H129.535V422.03C129.535 422.656 129.883 423.046 130.485 423.046ZM132.4 422.994H132.859V421.378C132.859 420.91 133.142 420.601 133.575 420.601C133.998 420.601 134.206 420.847 134.206 421.293V422.994H134.666V421.211C134.666 420.585 134.317 420.194 133.715 420.194C133.298 420.194 133.018 420.382 132.87 420.638H132.859V420.247H132.4V422.994ZM136.145 423.046C136.234 423.046 136.332 423.036 136.39 423.028V422.656C136.351 422.658 136.298 422.666 136.242 422.666C135.997 422.666 135.867 422.584 135.867 422.291V420.628H136.39V420.247H135.867V419.505H135.392V420.247H134.991V420.628H135.392V422.294C135.392 422.819 135.64 423.046 136.145 423.046Z" fill="#718096"/>
<path d="M128.248 402.932H124.159C122.115 402.932 121.606 403.478 121.606 405.658V411.748C121.606 413.186 122.396 413.527 123.353 412.499L123.359 412.494C123.802 412.023 124.478 412.061 124.862 412.575L125.408 413.305C125.847 413.884 126.555 413.884 126.993 413.305L127.539 412.575C127.929 412.056 128.605 412.018 129.048 412.494C130.011 413.521 130.795 413.181 130.795 411.742V405.658C130.8 403.478 130.292 402.932 128.248 402.932ZM124.581 405.636C124.878 405.636 125.122 405.88 125.122 406.177C125.122 406.475 124.884 406.718 124.581 406.718C124.278 406.718 124.04 406.475 124.04 406.177C124.04 405.88 124.278 405.636 124.581 405.636ZM127.826 409.422C127.523 409.422 127.285 409.179 127.285 408.881C127.285 408.584 127.528 408.34 127.826 408.34C128.123 408.34 128.367 408.584 128.367 408.881C128.367 409.179 128.129 409.422 127.826 409.422ZM128.313 405.955L124.673 409.595C124.592 409.676 124.489 409.714 124.386 409.714C124.284 409.714 124.181 409.676 124.1 409.595C123.943 409.438 123.943 409.179 124.1 409.022L127.739 405.382C127.896 405.225 128.156 405.225 128.313 405.382C128.47 405.539 128.47 405.798 128.313 405.955Z" fill="#E8E8E8"/>
<path d="M176.804 408.54C176.787 408.54 176.777 408.54 176.76 408.54C176.733 408.535 176.695 408.535 176.663 408.54C175.095 408.492 173.91 407.259 173.91 405.739C173.91 404.192 175.17 402.932 176.717 402.932C178.264 402.932 179.524 404.192 179.524 405.739C179.519 407.259 178.329 408.492 176.82 408.54C176.814 408.54 176.809 408.54 176.804 408.54ZM176.717 403.743C175.619 403.743 174.721 404.641 174.721 405.739C174.721 406.821 175.565 407.691 176.641 407.729C176.668 407.724 176.744 407.724 176.814 407.729C177.874 407.681 178.707 406.81 178.713 405.739C178.713 404.641 177.815 403.743 176.717 403.743Z" fill="#FFB901"/>
<path d="M176.808 414.452C175.748 414.452 174.683 414.181 173.877 413.64C173.125 413.143 172.714 412.461 172.714 411.72C172.714 410.979 173.125 410.293 173.877 409.79C175.5 408.713 178.128 408.713 179.74 409.79C180.486 410.287 180.902 410.969 180.902 411.71C180.902 412.45 180.491 413.137 179.74 413.64C178.928 414.181 177.868 414.452 176.808 414.452ZM174.326 410.471C173.807 410.817 173.526 411.261 173.526 411.726C173.526 412.185 173.812 412.629 174.326 412.97C175.673 413.873 177.944 413.873 179.291 412.97C179.81 412.624 180.091 412.18 180.091 411.715C180.091 411.255 179.805 410.812 179.291 410.471C177.944 409.573 175.673 409.573 174.326 410.471Z" fill="#FFB901"/>
<path d="M166.451 422.994H167.288L167.575 422.069H168.922L169.21 422.994H170.047L168.719 419.183H167.781L166.451 422.994ZM168.241 419.922H168.257L168.737 421.473H167.76L168.241 419.922ZM171.56 423.052C172.316 423.052 172.804 422.582 172.841 421.964V421.948H172.123L172.12 421.972C172.067 422.257 171.875 422.447 171.566 422.447C171.185 422.447 170.948 422.133 170.948 421.578V421.576C170.948 421.034 171.185 420.709 171.563 420.709C171.883 420.709 172.07 420.915 172.118 421.185L172.123 421.209H172.838V421.19C172.809 420.577 172.321 420.105 171.552 420.105C170.705 420.105 170.163 420.667 170.163 421.573V421.576C170.163 422.489 170.697 423.052 171.56 423.052ZM174.507 423.052C175.263 423.052 175.751 422.582 175.788 421.964V421.948H175.07L175.067 421.972C175.014 422.257 174.822 422.447 174.513 422.447C174.132 422.447 173.895 422.133 173.895 421.578V421.576C173.895 421.034 174.132 420.709 174.51 420.709C174.83 420.709 175.017 420.915 175.065 421.185L175.07 421.209H175.786V421.19C175.756 420.577 175.268 420.105 174.5 420.105C173.652 420.105 173.11 420.667 173.11 421.573V421.576C173.11 422.489 173.644 423.052 174.507 423.052ZM177.46 423.052C178.315 423.052 178.862 422.502 178.862 421.578V421.573C178.862 420.657 178.305 420.105 177.457 420.105C176.612 420.105 176.058 420.662 176.058 421.573V421.578C176.058 422.5 176.599 423.052 177.46 423.052ZM177.462 422.447C177.082 422.447 176.842 422.133 176.842 421.578V421.573C176.842 421.026 177.085 420.709 177.457 420.709C177.832 420.709 178.078 421.026 178.078 421.573V421.578C178.078 422.13 177.837 422.447 177.462 422.447ZM180.225 423.052C180.652 423.052 180.943 422.851 181.088 422.526H181.104V422.994H181.875V420.163H181.104V421.789C181.104 422.159 180.885 422.413 180.539 422.413C180.193 422.413 180.019 422.199 180.019 421.829V420.163H179.248V421.99C179.248 422.653 179.601 423.052 180.225 423.052ZM182.377 422.994H183.148V421.367C183.148 420.997 183.367 420.744 183.713 420.744C184.059 420.744 184.233 420.955 184.233 421.325V422.994H185.004V421.166C185.004 420.503 184.651 420.105 184.027 420.105C183.6 420.105 183.309 420.303 183.164 420.628H183.148V420.163H182.377V422.994ZM186.618 423.052C186.779 423.052 186.903 423.036 186.99 423.023V422.458C186.943 422.463 186.893 422.471 186.824 422.471C186.591 422.471 186.473 422.381 186.473 422.117V420.744H186.99V420.163H186.473V419.471H185.694V420.163H185.3V420.744H185.694V422.201C185.694 422.809 185.989 423.052 186.618 423.052Z" fill="black"/>
</g>
<g filter="url(#filter2_d_206_2882)">
<rect x="11.5469" y="168.214" width="176.85" height="32.4495" rx="2.1633" fill="white"/>
</g>
<path d="M50.8666 186.653H51.8236V185.253L52.2514 184.723L53.5602 186.653H54.7041L52.9486 184.099L54.5869 182.081H53.5221L51.8458 184.172H51.8236V182.081H50.8666V186.653ZM56.4058 186.653H57.3628V184.945L58.9568 182.081H57.9206L56.897 184.033H56.8748L55.8481 182.081H54.815L56.4058 184.945V186.653ZM61.0451 186.733C62.151 186.733 62.9528 186.039 63.0415 185.066L63.0447 185.031H62.113L62.1067 185.063C61.9831 185.604 61.5965 185.921 61.0451 185.921C60.3131 185.921 59.8441 185.326 59.8441 184.362V184.359C59.8441 183.402 60.3131 182.813 61.0451 182.813C61.6155 182.813 61.9894 183.142 62.0972 183.646L62.1098 183.7H63.0415L63.0383 183.671C62.9496 182.702 62.1542 182.001 61.0451 182.001C59.711 182.001 58.8681 182.889 58.8681 184.362V184.365C58.8681 185.839 59.7078 186.733 61.0451 186.733Z" fill="#413D4A"/>
<circle cx="35.3438" cy="184.439" r="10.8165" fill="#FFB901" fill-opacity="0.1"/>
<path d="M172.712 187.144L175.957 184.439L172.712 181.735" stroke="#FFB901" stroke-width="1.08165" stroke-linecap="round" stroke-linejoin="round"/>
<path d="M34.8464 183.358C34.8384 183.358 34.8263 183.358 34.8183 183.358C34.8062 183.358 34.7901 183.358 34.778 183.358C33.8641 183.33 33.1797 182.616 33.1797 181.737C33.1797 180.842 33.9084 180.113 34.8022 180.113C35.6959 180.113 36.4246 180.842 36.4246 181.737C36.4206 182.62 35.7322 183.33 34.8585 183.358C34.8505 183.358 34.8505 183.358 34.8464 183.358ZM34.7981 180.713C34.2345 180.713 33.7796 181.173 33.7796 181.733C33.7796 182.285 34.2103 182.733 34.7579 182.753C34.77 182.749 34.8102 182.749 34.8505 182.753C35.39 182.725 35.8127 182.281 35.8167 181.733C35.8167 181.173 35.3618 180.713 34.7981 180.713Z" fill="#FFB901"/>
<path d="M34.803 187.684C33.6382 187.684 32.5255 187.214 31.6638 186.359C31.5859 186.284 31.5512 186.171 31.5599 186.063C31.6162 185.503 31.9366 184.982 32.4692 184.596C33.7595 183.666 35.8508 183.666 37.1368 184.596C37.6693 184.986 37.9897 185.503 38.046 186.063C38.059 186.176 38.02 186.284 37.9421 186.359C37.0805 187.214 35.9677 187.684 34.803 187.684ZM32.2397 185.969C32.9584 186.622 33.8634 186.979 34.803 186.979C35.7425 186.979 36.6475 186.622 37.3662 185.969C37.2883 185.682 37.0805 185.405 36.773 185.179C35.7079 184.408 33.9023 184.408 32.8285 185.179C32.5211 185.405 32.3176 185.682 32.2397 185.969Z" fill="#FFB901"/>
<path d="M34.6676 189.036C31.7579 189.036 29.3945 186.673 29.3945 183.763C29.3945 180.854 31.7579 178.49 34.6676 178.49C37.5772 178.49 39.9406 180.854 39.9406 183.763C39.9406 186.673 37.5772 189.036 34.6676 189.036ZM34.6676 179.301C32.2068 179.301 30.2058 181.303 30.2058 183.763C30.2058 186.224 32.2068 188.225 34.6676 188.225C37.1283 188.225 39.1294 186.224 39.1294 183.763C39.1294 181.303 37.1283 179.301 34.6676 179.301Z" fill="#FFB901"/>
<path d="M39.6222 190.139C39.5789 190.139 39.5357 190.134 39.4978 190.129C39.2436 190.096 38.7839 189.923 38.5243 189.15C38.3891 188.744 38.4378 188.338 38.6595 188.03C38.8813 187.722 39.2544 187.549 39.6817 187.549C40.2333 187.549 40.666 187.76 40.8607 188.133C41.0554 188.506 41.0013 188.982 40.693 189.442C40.309 190.02 39.8926 190.139 39.6222 190.139ZM39.2977 188.895C39.3896 189.177 39.5194 189.317 39.606 189.328C39.6925 189.339 39.8548 189.236 40.0224 188.993C40.1793 188.76 40.1901 188.593 40.1522 188.517C40.1144 188.441 39.9629 188.36 39.6817 188.36C39.514 188.36 39.3896 188.414 39.3193 188.506C39.2544 188.598 39.2436 188.739 39.2977 188.895Z" fill="#FFB901"/>
<g filter="url(#filter3_d_206_2882)">
<rect x="11.5469" y="281.787" width="176.85" height="32.4495" rx="2.1633" fill="white"/>
</g>
<path d="M50.8666 300.226H51.8236V298.784H52.7046C53.6679 298.784 54.3112 298.163 54.3112 297.222V297.216C54.3112 296.274 53.6679 295.653 52.7046 295.653H50.8666V300.226ZM52.4701 296.411C53.0183 296.411 53.3415 296.699 53.3415 297.219V297.225C53.3415 297.745 53.0183 298.036 52.4701 298.036H51.8236V296.411H52.4701ZM55.5882 300.28C56.0351 300.28 56.3963 300.068 56.5896 299.719H56.6086V300.226H57.5339V297.897C57.5339 297.212 56.9667 296.759 56.0889 296.759C55.1921 296.759 54.6534 297.209 54.6027 297.837L54.5996 297.875H55.4456L55.452 297.846C55.4963 297.628 55.7055 297.466 56.0509 297.466C56.4122 297.466 56.6086 297.653 56.6086 297.954V298.163L55.7689 298.214C54.9259 298.268 54.4474 298.629 54.4474 299.247V299.253C54.4474 299.852 54.9069 300.28 55.5882 300.28ZM55.3633 299.206V299.199C55.3633 298.959 55.5502 298.806 55.9083 298.784L56.6086 298.74V298.984C56.6086 299.339 56.3044 299.605 55.8893 299.605C55.5692 299.605 55.3633 299.456 55.3633 299.206ZM59.5304 300.296C60.405 300.296 61.0166 299.858 61.0166 299.193V299.19C61.0166 298.689 60.725 298.41 60.0152 298.261L59.4385 298.138C59.0962 298.065 58.979 297.951 58.979 297.777V297.773C58.979 297.555 59.1786 297.412 59.4987 297.412C59.8409 297.412 60.0405 297.596 60.0722 297.84L60.0754 297.865H60.9278V297.834C60.9057 297.238 60.4018 296.759 59.4987 296.759C58.6336 296.759 58.0758 297.178 58.0758 297.824V297.827C58.0758 298.334 58.4086 298.664 59.0677 298.803L59.6444 298.924C59.9772 298.997 60.0912 299.101 60.0912 299.282V299.285C60.0912 299.504 59.8789 299.64 59.5304 299.64C59.1596 299.64 58.96 299.485 58.8997 299.218L58.8934 299.19H57.9903L57.9934 299.218C58.0663 299.862 58.5892 300.296 59.5304 300.296ZM62.8704 300.296C63.745 300.296 64.3566 299.858 64.3566 299.193V299.19C64.3566 298.689 64.065 298.41 63.3552 298.261L62.7785 298.138C62.4362 298.065 62.319 297.951 62.319 297.777V297.773C62.319 297.555 62.5186 297.412 62.8387 297.412C63.1809 297.412 63.3806 297.596 63.4122 297.84L63.4154 297.865H64.2678V297.834C64.2457 297.238 63.7418 296.759 62.8387 296.759C61.9736 296.759 61.4158 297.178 61.4158 297.824V297.827C61.4158 298.334 61.7486 298.664 62.4077 298.803L62.9844 298.924C63.3172 298.997 63.4313 299.101 63.4313 299.282V299.285C63.4313 299.504 63.2189 299.64 62.8704 299.64C62.4996 299.64 62.3 299.485 62.2398 299.218L62.2334 299.19H61.3303L61.3335 299.218C61.4063 299.862 61.9292 300.296 62.8704 300.296ZM65.4562 300.226H66.429L67.0406 297.824H67.0596L67.6744 300.226H68.6599L69.5599 296.829H68.6473L68.1307 299.348H68.1117L67.5065 296.829H66.6192L66.0171 299.348H65.9981L65.4847 296.829H64.553L65.4562 300.226ZM71.4295 300.296C72.4563 300.296 73.1122 299.637 73.1122 298.528V298.521C73.1122 297.422 72.4436 296.759 71.4264 296.759C70.4123 296.759 69.7469 297.428 69.7469 298.521V298.528C69.7469 299.633 70.3965 300.296 71.4295 300.296ZM71.4327 299.57C70.9764 299.57 70.688 299.193 70.688 298.528V298.521C70.688 297.865 70.9796 297.485 71.4264 297.485C71.8764 297.485 72.1711 297.865 72.1711 298.521V298.528C72.1711 299.19 71.8827 299.57 71.4327 299.57ZM73.5907 300.226H74.5161V298.325C74.5161 297.83 74.7822 297.558 75.2386 297.558C75.3717 297.558 75.4984 297.577 75.5745 297.609V296.794C75.5047 296.775 75.4097 296.759 75.3083 296.759C74.9122 296.759 74.6365 297.003 74.5351 297.422H74.5161V296.829H73.5907V300.226ZM77.0987 300.296C77.5899 300.296 77.9638 300.049 78.1444 299.646H78.1634V300.226H79.0888V295.653H78.1634V297.418H78.1444C77.9606 297.006 77.5804 296.759 77.0987 296.759C76.2431 296.759 75.7171 297.418 75.7171 298.524V298.528C75.7171 299.63 76.2431 300.296 77.0987 300.296ZM77.4093 299.529C76.9466 299.529 76.6582 299.145 76.6582 298.528V298.524C76.6582 297.903 76.9498 297.526 77.4093 297.526C77.8561 297.526 78.1666 297.913 78.1666 298.524V298.528C78.1666 299.142 77.8592 299.529 77.4093 299.529Z" fill="#413D4A"/>
<circle cx="35.3438" cy="298.012" r="10.8165" fill="#FFB901" fill-opacity="0.1"/>
<path d="M172.712 300.716L175.957 298.012L172.712 295.308" stroke="#FFB901" stroke-width="1.08165" stroke-linecap="round" stroke-linejoin="round"/>
<path d="M35.4244 292.604C34.2118 292.604 33.22 293.595 33.22 294.808V295.91H32.2556C31.572 295.91 31.0156 296.466 31.0156 297.15V302.386C31.0156 303.069 31.572 303.626 32.2556 303.626H38.5933C39.2769 303.626 39.8332 303.069 39.8332 302.386V297.15C39.8332 296.466 39.2769 295.91 38.5933 295.91H37.6288V294.808C37.6288 293.595 36.637 292.604 35.4244 292.604ZM35.4244 293.43C36.1903 293.43 36.8022 294.042 36.8022 294.808V295.91H34.0467V294.808C34.0467 294.042 34.6586 293.43 35.4244 293.43ZM33.4956 299.217C33.8001 299.217 34.0467 299.463 34.0467 299.768C34.0467 300.072 33.8001 300.319 33.4956 300.319C33.1911 300.319 32.9445 300.072 32.9445 299.768C32.9445 299.463 33.1911 299.217 33.4956 299.217ZM35.4244 299.217C35.7289 299.217 35.9755 299.463 35.9755 299.768C35.9755 300.072 35.7289 300.319 35.4244 300.319C35.1199 300.319 34.8733 300.072 34.8733 299.768C34.8733 299.463 35.1199 299.217 35.4244 299.217ZM37.3533 299.217C37.6578 299.217 37.9044 299.463 37.9044 299.768C37.9044 300.072 37.6578 300.319 37.3533 300.319C37.0488 300.319 36.8022 300.072 36.8022 299.768C36.8022 299.463 37.0488 299.217 37.3533 299.217Z" fill="#FFB901"/>
<g filter="url(#filter4_d_206_2882)">
<rect x="11.5469" y="206.072" width="176.85" height="32.4495" rx="2.1633" fill="white"/>
</g>
<path d="M50.8666 224.511H51.8204V221.517H51.8394L53.9119 224.511H54.7422V219.939H53.7883V222.911H53.7693L51.7032 219.939H50.8666V224.511ZM56.9731 224.581C57.9427 224.581 58.4117 224.007 58.5163 223.507L58.5258 223.472H57.6765L57.6702 223.491C57.6037 223.681 57.3723 223.89 56.9921 223.89C56.5199 223.89 56.2252 223.573 56.2157 223.031H58.5543V222.746C58.5543 221.719 57.9301 221.044 56.935 221.044C55.94 221.044 55.303 221.735 55.303 222.816V222.819C55.303 223.906 55.9337 224.581 56.9731 224.581ZM56.9509 221.735C57.3343 221.735 57.61 221.979 57.667 222.448H56.2252C56.2854 221.989 56.5706 221.735 56.9509 221.735ZM58.7508 224.511H59.7237L60.3606 223.332H60.3796L61.0261 224.511H62.0306L60.9785 222.794L62.0401 221.114H61.0324L60.4303 222.261H60.4113L59.7997 221.114H58.7571L59.8156 222.819L58.7508 224.511ZM63.7608 224.581C63.9541 224.581 64.1031 224.562 64.2076 224.546V223.868C64.1506 223.874 64.0904 223.884 64.008 223.884C63.7291 223.884 63.5865 223.776 63.5865 223.459V221.811H64.2076V221.114H63.5865V220.284H62.6517V221.114H62.1795V221.811H62.6517V223.561C62.6517 224.289 63.0066 224.581 63.7608 224.581ZM67.5635 224.581C68.5902 224.581 69.2462 223.922 69.2462 222.813V222.806C69.2462 221.707 68.5775 221.044 67.5603 221.044C66.5463 221.044 65.8808 221.713 65.8808 222.806V222.813C65.8808 223.919 66.5304 224.581 67.5635 224.581ZM67.5667 223.855C67.1103 223.855 66.822 223.478 66.822 222.813V222.806C66.822 222.15 67.1135 221.77 67.5603 221.77C68.0103 221.77 68.305 222.15 68.305 222.806V222.813C68.305 223.475 68.0166 223.855 67.5667 223.855ZM69.9719 224.511H70.8972V221.811H71.55V221.114H70.875V220.877C70.875 220.633 71.0113 220.503 71.3186 220.503C71.4042 220.503 71.4929 220.506 71.5563 220.518V219.907C71.4486 219.885 71.2616 219.869 71.0905 219.869C70.2887 219.869 69.9719 220.176 69.9719 220.842V221.114H69.5092V221.811H69.9719V224.511ZM73.3562 224.511H74.2816V223.386L74.5192 223.123L75.4921 224.511H76.56L75.2132 222.575L76.4966 221.114H75.4477L74.3006 222.474H74.2816V219.939H73.3562V224.511ZM77.2983 220.677C77.5772 220.677 77.7927 220.458 77.7927 220.195C77.7927 219.932 77.5772 219.714 77.2983 219.714C77.0195 219.714 76.804 219.932 76.804 220.195C76.804 220.458 77.0195 220.677 77.2983 220.677ZM76.8357 224.511H77.761V221.114H76.8357V224.511ZM78.3821 224.511H79.3074V222.559C79.3074 222.116 79.5704 221.811 79.9856 221.811C80.4007 221.811 80.6098 222.065 80.6098 222.508V224.511H81.5352V222.318C81.5352 221.523 81.1105 221.044 80.3627 221.044C79.8493 221.044 79.5007 221.282 79.3264 221.672H79.3074V221.114H78.3821V224.511Z" fill="#413D4A"/>
<circle cx="35.3438" cy="222.297" r="10.8165" fill="#FFB901" fill-opacity="0.1"/>
<path d="M172.712 225.001L175.957 222.297L172.712 219.593" stroke="#FFB901" stroke-width="1.08165" stroke-linecap="round" stroke-linejoin="round"/>
<path d="M33.8485 222.255C33.833 222.255 33.8226 222.255 33.8071 222.255C33.7812 222.25 33.745 222.25 33.714 222.255C32.2133 222.208 31.0801 221.028 31.0801 219.574C31.0801 218.094 32.2858 216.889 33.7657 216.889C35.2457 216.889 36.4514 218.094 36.4514 219.574C36.4462 221.028 35.3078 222.208 33.864 222.255C33.8589 222.255 33.8537 222.255 33.8485 222.255ZM33.7657 217.665C32.7153 217.665 31.8563 218.524 31.8563 219.574C31.8563 220.609 32.6635 221.442 33.6933 221.479C33.7243 221.473 33.7916 221.473 33.8589 221.479C34.8731 221.432 35.67 220.599 35.6752 219.574C35.6752 218.524 34.8162 217.665 33.7657 217.665Z" fill="#FFB901"/>
<path d="M37.6669 222.322C37.6514 222.322 37.6359 222.322 37.6203 222.317C37.4082 222.337 37.1908 222.187 37.1701 221.975C37.1494 221.763 37.2788 221.571 37.491 221.546C37.5531 221.54 37.6203 221.54 37.6772 221.54C38.4327 221.499 39.0227 220.878 39.0227 220.117C39.0227 219.331 38.3862 218.694 37.5996 218.694C37.3875 218.7 37.2115 218.524 37.2115 218.311C37.2115 218.099 37.3875 217.923 37.5996 217.923C38.8105 217.923 39.7989 218.912 39.7989 220.123C39.7989 221.313 38.8674 222.275 37.6824 222.322C37.6772 222.322 37.6721 222.322 37.6669 222.322Z" fill="#FFB901"/>
<path d="M33.8528 227.911C32.8385 227.911 31.8191 227.652 31.0481 227.134C30.3288 226.658 29.9355 226.006 29.9355 225.297C29.9355 224.588 30.3288 223.931 31.0481 223.45C32.6005 222.42 35.1154 222.42 36.6574 223.45C37.3715 223.926 37.77 224.578 37.77 225.287C37.77 225.996 37.3767 226.653 36.6574 227.134C35.8812 227.652 34.867 227.911 33.8528 227.911ZM31.4776 224.102C30.9808 224.433 30.7117 224.858 30.7117 225.303C30.7117 225.742 30.986 226.167 31.4776 226.493C32.7661 227.357 34.9394 227.357 36.2279 226.493C36.7247 226.162 36.9938 225.737 36.9938 225.292C36.9938 224.852 36.7195 224.428 36.2279 224.102C34.9394 223.243 32.7661 223.243 31.4776 224.102Z" fill="#FFB901"/>
<path d="M38.5981 226.979C38.417 226.979 38.2566 226.855 38.2204 226.669C38.179 226.457 38.3135 226.255 38.5205 226.208C38.8465 226.141 39.1466 226.012 39.3795 225.831C39.6745 225.608 39.8349 225.329 39.8349 225.034C39.8349 224.739 39.6745 224.459 39.3847 224.242C39.157 224.066 38.8724 223.942 38.536 223.864C38.329 223.818 38.1945 223.611 38.2411 223.398C38.2876 223.191 38.4946 223.057 38.7068 223.103C39.1518 223.202 39.5399 223.378 39.8556 223.621C40.3368 223.983 40.6111 224.495 40.6111 225.034C40.6111 225.572 40.3316 226.084 39.8504 226.451C39.5296 226.7 39.1259 226.881 38.6809 226.969C38.6499 226.979 38.624 226.979 38.5981 226.979Z" fill="#FFB901"/>
<g filter="url(#filter5_d_206_2882)">
<rect x="11.5469" y="243.93" width="176.85" height="32.4495" rx="2.1633" fill="white"/>
</g>
<path d="M50.8666 262.369H52.8915C53.8675 262.369 54.4728 261.868 54.4728 261.066V261.06C54.4728 260.461 54.0133 260.011 53.3764 259.963V259.944C53.8802 259.878 54.2605 259.45 54.2605 258.949V258.943C54.2605 258.24 53.7186 257.796 52.8567 257.796H50.8666V262.369ZM52.6095 258.506C53.0563 258.506 53.3193 258.715 53.3193 259.079V259.086C53.3193 259.482 53.0309 259.707 52.4922 259.707H51.8236V258.506H52.6095ZM52.6063 260.356C53.1926 260.356 53.4968 260.581 53.4968 261V261.006C53.4968 261.431 53.1957 261.656 52.6475 261.656H51.8236V260.356H52.6063ZM56.2062 262.369H57.3723L58.9029 257.796H57.8413L56.7988 261.389H56.7798L55.734 257.796H54.6756L56.2062 262.369ZM59.3719 262.369H60.3257V259.374H60.3448L62.4172 262.369H63.2475V257.796H62.2936V260.768H62.2746L60.2085 257.796H59.3719V262.369Z" fill="#413D4A"/>
<circle cx="35.3438" cy="260.154" r="10.8165" fill="#FFB901" fill-opacity="0.1"/>
<path d="M172.712 262.858L175.957 260.154L172.712 257.45" stroke="#FFB901" stroke-width="1.08165" stroke-linecap="round" stroke-linejoin="round"/>
<path d="M35.4239 254.747C34.2745 254.724 33.1404 255.014 32.1426 255.585C32.0961 255.614 32.0626 255.659 32.0491 255.712C32.0356 255.764 32.0432 255.82 32.0704 255.867C32.0976 255.914 32.1421 255.949 32.1944 255.964C32.2468 255.978 32.3028 255.972 32.3506 255.946H32.3485C33.2461 255.432 34.2622 255.162 35.2964 255.162C36.3305 255.162 37.3467 255.432 38.2442 255.946C38.2759 255.964 38.3117 255.973 38.3482 255.973C38.3939 255.973 38.4383 255.958 38.4746 255.93C38.5108 255.902 38.5369 255.863 38.5487 255.819C38.5606 255.775 38.5575 255.728 38.5401 255.686C38.5226 255.644 38.4917 255.608 38.4521 255.585C37.5289 255.057 36.4876 254.769 35.4239 254.747ZM35.3276 256.092C34.2287 256.085 33.1582 256.441 32.2823 257.105C31.4064 257.768 30.774 258.702 30.4832 259.762C30.4695 259.815 30.4772 259.871 30.5046 259.919C30.5319 259.966 30.5768 260 30.6295 260.015C30.6822 260.029 30.7385 260.023 30.7862 259.996C30.8339 259.969 30.8692 259.925 30.8845 259.872C31.1501 258.905 31.7267 258.051 32.5253 257.443C33.3239 256.835 34.3003 256.506 35.304 256.508C36.3077 256.51 37.283 256.841 38.0797 257.452C38.8763 258.063 39.45 258.918 39.7125 259.887C39.7243 259.931 39.7503 259.97 39.7863 259.998C39.8224 260.025 39.8666 260.041 39.9121 260.041C39.9308 260.041 39.9493 260.038 39.9672 260.032C40.0204 260.018 40.0657 259.983 40.0932 259.935C40.1207 259.888 40.1281 259.831 40.1138 259.778C39.8286 258.725 39.2061 257.794 38.3417 257.128C37.4773 256.463 36.4186 256.099 35.3276 256.092ZM35.2009 257.554C34.3746 257.576 33.5834 257.893 32.9704 258.448C32.6035 258.784 32.3074 259.19 32.0997 259.643C31.8921 260.095 31.7769 260.584 31.761 261.082C31.657 264.185 34.1526 265.678 34.2566 265.74C34.2883 265.758 34.3241 265.768 34.3605 265.768C34.4063 265.768 34.4507 265.753 34.487 265.725C34.5232 265.697 34.5493 265.658 34.5611 265.614C34.573 265.57 34.5699 265.523 34.5525 265.481C34.535 265.438 34.5041 265.403 34.4645 265.38C34.4406 265.367 32.073 263.946 32.1769 261.096C32.1906 260.655 32.2925 260.22 32.4766 259.818C32.6607 259.416 32.9234 259.055 33.249 258.757C33.5548 258.48 33.9135 258.268 34.3035 258.134C34.6935 258 35.1067 257.947 35.5179 257.977C36.2501 258.033 36.9395 258.344 37.4662 258.855C37.993 259.367 38.3238 260.047 38.4012 260.777C38.4229 261.008 38.4201 261.24 38.3928 261.47C38.3838 261.548 38.3564 261.624 38.3129 261.691C38.2694 261.757 38.2109 261.812 38.1422 261.852C38.0756 261.891 38.0008 261.914 37.9238 261.92C37.8468 261.925 37.7696 261.912 37.6983 261.882L37.6589 261.866C37.5578 261.822 37.474 261.746 37.4203 261.65C37.3665 261.554 37.3458 261.442 37.3614 261.333C37.3709 261.252 37.3758 261.171 37.376 261.089C37.376 260.796 37.314 260.506 37.1942 260.239C37.0744 259.971 36.8995 259.732 36.6809 259.537C36.4622 259.342 36.2049 259.196 35.9256 259.107C35.6463 259.018 35.3515 258.99 35.0604 259.023C34.0746 259.127 33.2863 259.922 33.2291 260.863C33.0992 262.968 34.7672 264.936 37.0267 265.352C37.0805 265.361 37.1356 265.348 37.1801 265.317C37.2247 265.285 37.2551 265.238 37.2649 265.184C37.2747 265.13 37.263 265.075 37.2325 265.03C37.2019 264.985 37.1548 264.953 37.1014 264.943V264.936C34.8065 264.52 33.5411 262.545 33.644 260.881C33.6898 260.141 34.3179 259.516 35.1061 259.425C35.3399 259.398 35.5768 259.421 35.8011 259.492C36.0253 259.564 36.2315 259.683 36.4058 259.841C36.5812 259.998 36.7213 260.191 36.8168 260.406C36.9124 260.621 36.9612 260.854 36.9601 261.089C36.9599 261.155 36.9561 261.22 36.9487 261.286C36.9216 261.485 36.9609 261.687 37.0605 261.861C37.1601 262.036 37.3145 262.173 37.4997 262.25L37.5382 262.267C37.6686 262.322 37.81 262.346 37.9512 262.336C38.0924 262.327 38.2295 262.285 38.3514 262.213C38.4756 262.141 38.5813 262.041 38.6601 261.921C38.739 261.801 38.7888 261.664 38.8057 261.522C38.8369 261.262 38.84 260.999 38.8151 260.739C38.7282 259.91 38.3535 259.139 37.7564 258.558C37.1592 257.978 36.3774 257.625 35.547 257.562C35.4318 257.554 35.3163 257.551 35.2009 257.554ZM35.2903 260.881C35.2362 260.883 35.1848 260.905 35.1471 260.944C35.1095 260.983 35.0884 261.035 35.0884 261.089C35.0884 262.808 36.6086 264.104 38.6237 264.104C38.6789 264.104 38.7318 264.082 38.7708 264.043C38.8098 264.004 38.8317 263.952 38.8317 263.896C38.8317 263.841 38.8098 263.788 38.7708 263.749C38.7318 263.71 38.6789 263.688 38.6237 263.688C36.8166 263.688 35.5043 262.596 35.5043 261.089C35.5043 261.061 35.4988 261.034 35.4879 261.008C35.4771 260.982 35.4612 260.959 35.4413 260.94C35.4213 260.92 35.3977 260.905 35.3717 260.895C35.3458 260.885 35.3181 260.88 35.2903 260.881Z" fill="#FFB901"/>
</g>
<rect x="1.54347" y="1.91066" width="200.105" height="436.445" rx="6.76031" stroke="#979797" stroke-width="2.70412"/>
<defs>
<filter id="filter0_d_206_2882" x="0.730383" y="124.948" width="198.483" height="54.0827" filterUnits="userSpaceOnUse" color-interpolation-filters="sRGB">
<feFlood flood-opacity="0" result="BackgroundImageFix"/>
<feColorMatrix in="SourceAlpha" type="matrix" values="0 0 0 0 0 0 0 0 0 0 0 0 0 0 0 0 0 0 127 0" result="hardAlpha"/>
<feOffset dy="5.40825"/>
<feGaussianBlur stdDeviation="5.40825"/>
<feColorMatrix type="matrix" values="0 0 0 0 0.91669 0 0 0 0 0.926166 0 0 0 0 0.954597 0 0 0 0.7 0"/>
<feBlend mode="normal" in2="BackgroundImageFix" result="effect1_dropShadow_206_2882"/>
<feBlend mode="normal" in="SourceGraphic" in2="effect1_dropShadow_206_2882" result="shape"/>
</filter>
<filter id="filter1_d_206_2882" x="-10.6251" y="382.921" width="224.442" height="67.0622" filterUnits="userSpaceOnUse" color-interpolation-filters="sRGB">
<feFlood flood-opacity="0" result="BackgroundImageFix"/>
<feColorMatrix in="SourceAlpha" type="matrix" values="0 0 0 0 0 0 0 0 0 0 0 0 0 0 0 0 0 0 127 0" result="hardAlpha"/>
<feOffset dy="-0.540825"/>
<feGaussianBlur stdDeviation="5.40825"/>
<feComposite in2="hardAlpha" operator="out"/>
<feColorMatrix type="matrix" values="0 0 0 0 0 0 0 0 0 0 0 0 0 0 0 0 0 0 0.15 0"/>
<feBlend mode="normal" in2="BackgroundImageFix" result="effect1_dropShadow_206_2882"/>
<feBlend mode="normal" in="SourceGraphic" in2="effect1_dropShadow_206_2882" result="shape"/>
</filter>
<filter id="filter2_d_206_2882" x="0.730383" y="162.806" width="198.483" height="54.0827" filterUnits="userSpaceOnUse" color-interpolation-filters="sRGB">
<feFlood flood-opacity="0" result="BackgroundImageFix"/>
<feColorMatrix in="SourceAlpha" type="matrix" values="0 0 0 0 0 0 0 0 0 0 0 0 0 0 0 0 0 0 127 0" result="hardAlpha"/>
<feOffset dy="5.40825"/>
<feGaussianBlur stdDeviation="5.40825"/>
<feColorMatrix type="matrix" values="0 0 0 0 0.91669 0 0 0 0 0.926166 0 0 0 0 0.954597 0 0 0 0.7 0"/>
<feBlend mode="normal" in2="BackgroundImageFix" result="effect1_dropShadow_206_2882"/>
<feBlend mode="normal" in="SourceGraphic" in2="effect1_dropShadow_206_2882" result="shape"/>
</filter>
<filter id="filter3_d_206_2882" x="0.730383" y="276.379" width="198.483" height="54.0827" filterUnits="userSpaceOnUse" color-interpolation-filters="sRGB">
<feFlood flood-opacity="0" result="BackgroundImageFix"/>
<feColorMatrix in="SourceAlpha" type="matrix" values="0 0 0 0 0 0 0 0 0 0 0 0 0 0 0 0 0 0 127 0" result="hardAlpha"/>
<feOffset dy="5.40825"/>
<feGaussianBlur stdDeviation="5.40825"/>
<feColorMatrix type="matrix" values="0 0 0 0 0.91669 0 0 0 0 0.926166 0 0 0 0 0.954597 0 0 0 0.7 0"/>
<feBlend mode="normal" in2="BackgroundImageFix" result="effect1_dropShadow_206_2882"/>
<feBlend mode="normal" in="SourceGraphic" in2="effect1_dropShadow_206_2882" result="shape"/>
</filter>
<filter id="filter4_d_206_2882" x="0.730383" y="200.664" width="198.483" height="54.0827" filterUnits="userSpaceOnUse" color-interpolation-filters="sRGB">
<feFlood flood-opacity="0" result="BackgroundImageFix"/>
<feColorMatrix in="SourceAlpha" type="matrix" values="0 0 0 0 0 0 0 0 0 0 0 0 0 0 0 0 0 0 127 0" result="hardAlpha"/>
<feOffset dy="5.40825"/>
<feGaussianBlur stdDeviation="5.40825"/>
<feColorMatrix type="matrix" values="0 0 0 0 0.91669 0 0 0 0 0.926166 0 0 0 0 0.954597 0 0 0 0.7 0"/>
<feBlend mode="normal" in2="BackgroundImageFix" result="effect1_dropShadow_206_2882"/>
<feBlend mode="normal" in="SourceGraphic" in2="effect1_dropShadow_206_2882" result="shape"/>
</filter>
<filter id="filter5_d_206_2882" x="0.730383" y="238.521" width="198.483" height="54.0827" filterUnits="userSpaceOnUse" color-interpolation-filters="sRGB">
<feFlood flood-opacity="0" result="BackgroundImageFix"/>
<feColorMatrix in="SourceAlpha" type="matrix" values="0 0 0 0 0 0 0 0 0 0 0 0 0 0 0 0 0 0 127 0" result="hardAlpha"/>
<feOffset dy="5.40825"/>
<feGaussianBlur stdDeviation="5.40825"/>
<feColorMatrix type="matrix" values="0 0 0 0 0.91669 0 0 0 0 0.926166 0 0 0 0 0.954597 0 0 0 0.7 0"/>
<feBlend mode="normal" in2="BackgroundImageFix" result="effect1_dropShadow_206_2882"/>
<feBlend mode="normal" in="SourceGraphic" in2="effect1_dropShadow_206_2882" result="shape"/>
</filter>
<clipPath id="clip0_206_2882">
<rect x="0.191406" y="0.558594" width="202.809" height="439.15" rx="8.11237" fill="white"/>
</clipPath>
</defs>
</svg>
