<svg width="59" height="59" viewBox="0 0 59 59" fill="none" xmlns="http://www.w3.org/2000/svg">
<circle cx="29.5" cy="29.5" r="29.5" fill="#131212"/>
<path d="M36.2498 17.4998C37.906 17.5047 39.4929 18.1648 40.664 19.336C41.8352 20.5071 42.4953 22.094 42.5002 23.7502V36.2498C42.4953 37.906 41.8352 39.4929 40.664 40.664C39.4929 41.8352 37.906 42.4953 36.2498 42.5002H23.7502C22.094 42.4953 20.5071 41.8352 19.336 40.664C18.1648 39.4929 17.5047 37.906 17.4998 36.2498V23.7502C17.5047 22.094 18.1648 20.5071 19.336 19.336C20.5071 18.1648 22.094 17.5047 23.7502 17.4998H36.2498ZM36.2498 15H23.7502C18.9375 15 15 18.9375 15 23.7502V36.2498C15 41.0625 18.9375 45 23.7502 45H36.2498C41.0625 45 45 41.0625 45 36.2498V23.7502C45 18.9375 41.0625 15 36.2498 15Z" fill="white"/>
<path d="M38.1248 23.7502C37.7539 23.7502 37.3914 23.6403 37.0831 23.4343C36.7747 23.2282 36.5344 22.9354 36.3925 22.5928C36.2506 22.2502 36.2135 21.8732 36.2858 21.5095C36.3582 21.1457 36.5367 20.8116 36.799 20.5494C37.0612 20.2872 37.3953 20.1086 37.759 20.0363C38.1227 19.9639 38.4997 20.0011 38.8423 20.143C39.1849 20.2849 39.4778 20.5252 39.6838 20.8336C39.8898 21.1419 39.9998 21.5044 39.9998 21.8752C40.0003 22.1216 39.9522 22.3657 39.8581 22.5934C39.7641 22.8211 39.626 23.028 39.4518 23.2023C39.2776 23.3765 39.0707 23.5146 38.8429 23.6086C38.6152 23.7026 38.3712 23.7508 38.1248 23.7502ZM30 24.9998C30.989 24.9998 31.9557 25.2931 32.778 25.8425C33.6003 26.3919 34.2412 27.1728 34.6196 28.0865C34.9981 29.0002 35.0971 30.0056 34.9041 30.9755C34.7112 31.9455 34.235 32.8364 33.5357 33.5357C32.8364 34.235 31.9454 34.7112 30.9755 34.9042C30.0055 35.0971 29.0002 34.9981 28.0865 34.6196C27.1728 34.2412 26.3919 33.6003 25.8425 32.778C25.293 31.9557 24.9998 30.989 24.9998 30C25.0012 28.6743 25.5285 27.4033 26.4659 26.4659C27.4033 25.5285 28.6743 25.0012 30 24.9998ZM30 22.5C28.5166 22.5 27.0666 22.9399 25.8332 23.764C24.5999 24.5881 23.6386 25.7594 23.0709 27.1299C22.5032 28.5003 22.3547 30.0083 22.6441 31.4632C22.9335 32.9181 23.6478 34.2544 24.6967 35.3033C25.7456 36.3522 27.082 37.0665 28.5368 37.3559C29.9917 37.6453 31.4997 37.4968 32.8701 36.9291C34.2406 36.3615 35.4119 35.4002 36.236 34.1668C37.0601 32.9334 37.5 31.4834 37.5 30C37.5 28.0109 36.7098 26.1032 35.3033 24.6967C33.8968 23.2902 31.9891 22.5 30 22.5Z" fill="white"/>
</svg>
