<svg width="510" height="408" viewBox="0 0 510 408" fill="none" xmlns="http://www.w3.org/2000/svg">
<rect x="0.709473" y="59.8623" width="507.448" height="348.123" fill="#282828"/>
<path d="M484.253 164.176C501.417 164.176 510 172.759 510 189.923V259.727C510 276.892 501.417 285.475 484.253 285.475H417.882C400.717 285.475 392.134 276.892 392.134 259.727V189.923C392.134 149.872 396.33 114.97 404.722 85.2176C413.495 55.0837 430.469 28.7642 455.644 6.25912C464.036 -0.988282 471.093 -1.94189 476.814 3.3983L502.562 27.4291C508.283 32.7693 506.948 39.2538 498.557 46.8827C485.588 58.3259 474.907 74.9187 466.516 96.6609C458.505 118.022 454.5 140.527 454.5 164.176H484.253ZM295.439 164.176C312.604 164.176 321.186 172.759 321.186 189.923V259.727C321.186 276.892 312.604 285.475 295.439 285.475H229.068C211.903 285.475 203.321 276.892 203.321 259.727V189.923C203.321 149.872 207.516 114.97 215.908 85.2176C224.681 55.0837 241.655 28.7642 266.831 6.25912C275.222 -0.988282 282.279 -1.94189 288.001 3.3983L313.748 27.4291C319.47 32.7693 318.135 39.2538 309.743 46.8827C296.774 58.3259 286.093 74.9187 277.702 96.6609C269.691 118.022 265.686 140.527 265.686 164.176H295.439Z" fill="white" fill-opacity="0.1"/>
</svg>
