<svg width="202" height="436" viewBox="0 0 202 436" fill="none" xmlns="http://www.w3.org/2000/svg">
<g clip-path="url(#clip0_206_2821)">
<rect x="0.648438" y="0.65332" width="201.053" height="435.347" rx="8.04212" fill="#FBFBFC"/>
<path d="M23.7023 27.9966H15.6602" stroke="#413D4A" stroke-width="1.60842" stroke-linecap="round"/>
<path d="M18.3399 24.2437L15.123 27.9966L18.3399 31.7496" stroke="#413D4A" stroke-width="1.60842" stroke-linecap="round" stroke-linejoin="round"/>
<g filter="url(#filter0_d_206_2821)">
<path d="M0.648438 98.2312C0.648438 89.3481 7.8496 82.147 16.7327 82.147H185.617C194.5 82.147 201.701 89.3481 201.701 98.2312V436H0.648438V98.2312Z" fill="white"/>
</g>
<line x1="16.1973" y1="69.8159" x2="96.6185" y2="69.8159" stroke="#413D4A" stroke-width="2.14457" stroke-linecap="round"/>
<line x1="106.27" y1="69.8159" x2="186.691" y2="69.8159" stroke="#C4C4C4" stroke-width="2.14457" stroke-linecap="round"/>
<path d="M42.5952 60.1953H43.5439V58.766H44.4172C45.3722 58.766 46.0099 58.1502 46.0099 57.2172V57.2109C46.0099 56.2779 45.3722 55.6622 44.4172 55.6622H42.5952V60.1953ZM44.1847 56.413C44.7282 56.413 45.0486 56.6989 45.0486 57.2141V57.2204C45.0486 57.7356 44.7282 58.0246 44.1847 58.0246H43.5439V56.413H44.1847ZM47.9136 60.2644C48.8749 60.2644 49.3399 59.6958 49.4435 59.1995L49.453 59.1649H48.611L48.6048 59.1838C48.5388 59.3723 48.3095 59.5796 47.9325 59.5796C47.4644 59.5796 47.1723 59.2654 47.1628 58.7283H49.4812V58.4455C49.4812 57.4277 48.8624 56.7586 47.8759 56.7586C46.8895 56.7586 46.2581 57.4434 46.2581 58.5146V58.5178C46.2581 59.5953 46.8833 60.2644 47.9136 60.2644ZM47.8917 57.4434C48.2718 57.4434 48.5451 57.6853 48.6016 58.1502H47.1723C47.232 57.6947 47.5147 57.4434 47.8917 57.4434ZM49.9556 60.1953H50.8729V58.3104C50.8729 57.8204 51.1368 57.5502 51.5891 57.5502C51.7211 57.5502 51.8467 57.5691 51.9221 57.6005V56.7931C51.853 56.7743 51.7588 56.7586 51.6583 56.7586C51.2656 56.7586 50.9923 57.0005 50.8917 57.4151H50.8729V56.8277H49.9556V60.1953ZM53.6845 60.2644C54.5515 60.2644 55.1578 59.8309 55.1578 59.1712V59.1681C55.1578 58.6717 54.8688 58.3953 54.1651 58.2476L53.5934 58.1251C53.2541 58.0528 53.1379 57.9397 53.1379 57.767V57.7638C53.1379 57.5471 53.3358 57.4057 53.6531 57.4057C53.9924 57.4057 54.1903 57.5879 54.2217 57.8298L54.2248 57.8549H55.0699V57.8235C55.0479 57.2329 54.5484 56.7586 53.6531 56.7586C52.7955 56.7586 52.2426 57.1732 52.2426 57.8141V57.8172C52.2426 58.3199 52.5724 58.6466 53.2258 58.7848L53.7976 58.9042C54.1274 58.9764 54.2405 59.0801 54.2405 59.2592V59.2623C54.2405 59.4791 54.0301 59.6141 53.6845 59.6141C53.3169 59.6141 53.119 59.4602 53.0593 59.1963L53.0531 59.1681H52.1577L52.1609 59.1963C52.2331 59.834 52.7515 60.2644 53.6845 60.2644ZM57.1558 60.2644C58.1736 60.2644 58.8239 59.611 58.8239 58.5115V58.5052C58.8239 57.4151 58.1611 56.7586 57.1527 56.7586C56.1474 56.7586 55.4877 57.4214 55.4877 58.5052V58.5115C55.4877 59.6079 56.1317 60.2644 57.1558 60.2644ZM57.1589 59.545C56.7066 59.545 56.4207 59.1712 56.4207 58.5115V58.5052C56.4207 57.8549 56.7097 57.478 57.1527 57.478C57.5987 57.478 57.8909 57.8549 57.8909 58.5052V58.5115C57.8909 59.1681 57.605 59.545 57.1589 59.545ZM59.2983 60.1953H60.2156V58.2602C60.2156 57.8204 60.4763 57.5188 60.8878 57.5188C61.2994 57.5188 61.5067 57.7701 61.5067 58.2099V60.1953H62.424V58.0214C62.424 57.2329 62.0031 56.7586 61.2617 56.7586C60.7528 56.7586 60.4072 56.9942 60.2344 57.3806H60.2156V56.8277H59.2983V60.1953ZM64.0073 60.2487C64.4503 60.2487 64.8084 60.0382 65 59.6927H65.0189V60.1953H65.9362V57.8863C65.9362 57.2078 65.3738 56.7586 64.5037 56.7586C63.6146 56.7586 63.0806 57.2046 63.0303 57.8267L63.0272 57.8644H63.8659L63.8722 57.8361C63.9162 57.6193 64.1235 57.4591 64.466 57.4591C64.8241 57.4591 65.0189 57.6445 65.0189 57.9429V58.1502L64.1864 58.2005C63.3507 58.2539 62.8764 58.612 62.8764 59.2246V59.2309C62.8764 59.8246 63.3319 60.2487 64.0073 60.2487ZM63.7843 59.1838V59.1775C63.7843 58.9387 63.9696 58.7879 64.3246 58.766L65.0189 58.722V58.9639C65.0189 59.3157 64.7173 59.5796 64.3057 59.5796C63.9885 59.5796 63.7843 59.4319 63.7843 59.1838ZM66.5519 60.1953H67.4692V55.6622H66.5519V60.1953Z" fill="black"/>
<path d="M131.046 60.1953H131.611V58.5775H132.661C133.512 58.5775 134.115 57.9774 134.115 57.1167V57.1104C134.115 56.2496 133.512 55.6622 132.661 55.6622H131.046V60.1953ZM132.516 56.1648C133.163 56.1648 133.537 56.5198 133.537 57.1167V57.123C133.537 57.7198 133.163 58.0748 132.516 58.0748H131.611V56.1648H132.516ZM134.681 60.1953H135.227V58.1785C135.227 57.6822 135.504 57.3869 135.928 57.3869C136.06 57.3869 136.176 57.4026 136.22 57.4183V56.8874C136.176 56.8811 136.094 56.8654 136 56.8654C135.632 56.8654 135.35 57.1041 135.24 57.4811H135.227V56.9282H134.681V60.1953ZM137.863 60.2581C138.764 60.2581 139.374 59.6047 139.374 58.5618V58.5555C139.374 57.5125 138.761 56.8654 137.86 56.8654C136.958 56.8654 136.349 57.5157 136.349 58.5555V58.5618C136.349 59.6016 136.955 60.2581 137.863 60.2581ZM137.866 59.7744C137.288 59.7744 136.908 59.3314 136.908 58.5618V58.5555C136.908 57.7921 137.291 57.3492 137.86 57.3492C138.438 57.3492 138.815 57.789 138.815 58.5555V58.5618C138.815 59.3283 138.441 59.7744 137.866 59.7744ZM140.103 60.1953H140.649V57.3806H141.315V56.9282H140.643V56.5292C140.643 56.2057 140.794 56.0517 141.095 56.0517C141.18 56.0517 141.265 56.0549 141.331 56.0643V55.6214C141.249 55.6088 141.121 55.5994 140.998 55.5994C140.395 55.5994 140.103 55.8978 140.103 56.5261V56.9282H139.647V57.3806H140.103V60.1953ZM142.911 60.2581C143.624 60.2581 144.158 59.8309 144.265 59.2906L144.271 59.2592H143.734L143.725 59.2874C143.631 59.567 143.338 59.7744 142.924 59.7744C142.343 59.7744 141.972 59.3817 141.959 58.7094H144.312V58.5084C144.312 57.5282 143.769 56.8654 142.877 56.8654C141.984 56.8654 141.406 57.5596 141.406 58.5712V58.5743C141.406 59.6016 141.972 60.2581 142.911 60.2581ZM142.873 57.3492C143.351 57.3492 143.703 57.6476 143.756 58.2822H141.969C142.028 57.6727 142.399 57.3492 142.873 57.3492ZM146.024 60.2581C146.753 60.2581 147.293 59.856 147.293 59.2843V59.2811C147.293 58.8162 147.055 58.5555 146.395 58.3953L145.877 58.2696C145.515 58.1816 145.368 58.0277 145.368 57.8047V57.8015C145.368 57.5125 145.613 57.3209 146.009 57.3209C146.414 57.3209 146.656 57.5314 146.7 57.8486L146.703 57.8706H147.224L147.221 57.8298C147.18 57.2832 146.725 56.8654 146.009 56.8654C145.302 56.8654 144.809 57.2643 144.809 57.8267V57.8298C144.809 58.301 145.107 58.5869 145.723 58.7345L146.241 58.8602C146.612 58.9513 146.734 59.0832 146.734 59.3188V59.322C146.734 59.6173 146.47 59.8026 146.027 59.8026C145.581 59.8026 145.34 59.611 145.274 59.2843L145.267 59.2529H144.721L144.724 59.2811C144.79 59.8655 145.255 60.2581 146.024 60.2581ZM149.021 60.2581C149.75 60.2581 150.29 59.856 150.29 59.2843V59.2811C150.29 58.8162 150.052 58.5555 149.392 58.3953L148.874 58.2696C148.512 58.1816 148.365 58.0277 148.365 57.8047V57.8015C148.365 57.5125 148.61 57.3209 149.006 57.3209C149.411 57.3209 149.653 57.5314 149.697 57.8486L149.7 57.8706H150.221L150.218 57.8298C150.177 57.2832 149.722 56.8654 149.006 56.8654C148.299 56.8654 147.806 57.2643 147.806 57.8267V57.8298C147.806 58.301 148.104 58.5869 148.72 58.7345L149.238 58.8602C149.609 58.9513 149.731 59.0832 149.731 59.3188V59.322C149.731 59.6173 149.467 59.8026 149.024 59.8026C148.578 59.8026 148.336 59.611 148.27 59.2843L148.264 59.2529H147.718L147.721 59.2811C147.787 59.8655 148.252 60.2581 149.021 60.2581ZM151.167 56.3753C151.359 56.3753 151.509 56.2214 151.509 56.0329C151.509 55.8413 151.359 55.6905 151.167 55.6905C150.978 55.6905 150.824 55.8413 150.824 56.0329C150.824 56.2214 150.978 56.3753 151.167 56.3753ZM150.894 60.1953H151.44V56.9282H150.894V60.1953ZM153.539 60.2581C154.44 60.2581 155.05 59.6047 155.05 58.5618V58.5555C155.05 57.5125 154.437 56.8654 153.536 56.8654C152.634 56.8654 152.025 57.5157 152.025 58.5555V58.5618C152.025 59.6016 152.631 60.2581 153.539 60.2581ZM153.542 59.7744C152.964 59.7744 152.584 59.3314 152.584 58.5618V58.5555C152.584 57.7921 152.967 57.3492 153.536 57.3492C154.114 57.3492 154.491 57.789 154.491 58.5555V58.5618C154.491 59.3283 154.117 59.7744 153.542 59.7744ZM155.603 60.1953H156.149V58.2727C156.149 57.7167 156.485 57.3492 157.001 57.3492C157.503 57.3492 157.751 57.6413 157.751 58.1722V60.1953H158.298V58.0748C158.298 57.3303 157.883 56.8654 157.167 56.8654C156.671 56.8654 156.338 57.0884 156.162 57.3931H156.149V56.9282H155.603V60.1953ZM159.95 60.2581C160.387 60.2581 160.78 60.0225 160.971 59.6644H160.984V60.1953H161.531V57.9366C161.531 57.2832 161.047 56.8654 160.274 56.8654C159.504 56.8654 159.036 57.2989 158.989 57.8361L158.986 57.8706H159.514L159.52 57.8424C159.583 57.5502 159.847 57.3492 160.268 57.3492C160.723 57.3492 160.984 57.591 160.984 57.99V58.2633L160.048 58.3167C159.297 58.3607 158.863 58.7094 158.863 59.2654V59.2717C158.863 59.8655 159.3 60.2581 159.95 60.2581ZM159.423 59.2717V59.2654C159.423 58.9607 159.674 58.766 160.111 58.7408L160.984 58.6874V58.9544C160.984 59.4288 160.588 59.7838 160.073 59.7838C159.68 59.7838 159.423 59.5859 159.423 59.2717ZM162.253 60.1953H162.8V55.6622H162.253V60.1953Z" fill="black"/>
<g filter="url(#filter1_i_206_2821)">
<path fill-rule="evenodd" clip-rule="evenodd" d="M13.5156 381.314C13.5156 378.945 15.4359 377.024 17.8048 377.024H184.545C186.913 377.024 188.834 378.945 188.834 381.314V399.542C188.834 401.911 186.913 403.831 184.545 403.831H17.8047C15.4359 403.831 13.5156 401.911 13.5156 399.542V381.314Z" fill="#413D4A"/>
</g>
<path d="M94.7845 393.158C96.1186 393.158 96.9175 392.513 96.9175 391.498V391.494C96.9175 390.662 96.4191 390.211 95.3123 389.991L94.7515 389.878C94.1431 389.757 93.8719 389.563 93.8719 389.229V389.225C93.8719 388.848 94.2127 388.588 94.7808 388.584C95.3269 388.584 95.7081 388.837 95.7631 389.251L95.7667 389.295H96.8113L96.8076 389.225C96.7563 388.298 96.0049 387.686 94.7808 387.686C93.608 387.686 92.7651 388.324 92.7651 389.291V389.295C92.7651 390.09 93.2928 390.589 94.3374 390.798L94.8944 390.908C95.5505 391.043 95.8107 391.223 95.8107 391.582V391.586C95.8107 391.989 95.4259 392.256 94.8138 392.256C94.2091 392.256 93.7729 392 93.7033 391.589L93.696 391.549H92.6514L92.6551 391.608C92.7174 392.583 93.5274 393.158 94.7845 393.158ZM98.6731 393.129C99.1899 393.129 99.6077 392.883 99.8312 392.48H99.8532V393.066H100.923V390.373C100.923 389.581 100.267 389.057 99.2522 389.057C98.215 389.057 97.5919 389.577 97.5333 390.303L97.5296 390.347H98.5082L98.5155 390.314C98.5668 390.061 98.8087 389.874 99.2082 389.874C99.626 389.874 99.8532 390.09 99.8532 390.439V390.68L98.882 390.739C97.9071 390.801 97.3537 391.219 97.3537 391.934V391.941C97.3537 392.634 97.8851 393.129 98.6731 393.129ZM98.4129 391.886V391.879C98.4129 391.6 98.6291 391.424 99.0433 391.399L99.8532 391.348V391.63C99.8532 392.04 99.5014 392.348 99.0213 392.348C98.6511 392.348 98.4129 392.176 98.4129 391.886ZM102.631 393.066H103.837L105.186 389.137H104.068L103.258 392.121H103.236L102.415 389.137H101.272L102.631 393.066ZM107.209 393.147C108.33 393.147 108.873 392.484 108.994 391.905L109.005 391.864H108.023L108.015 391.886C107.938 392.106 107.671 392.348 107.231 392.348C106.685 392.348 106.344 391.982 106.333 391.355H109.038V391.025C109.038 389.838 108.316 389.057 107.165 389.057C106.014 389.057 105.277 389.856 105.277 391.106V391.109C105.277 392.366 106.007 393.147 107.209 393.147ZM107.183 389.856C107.627 389.856 107.946 390.138 108.012 390.68H106.344C106.414 390.149 106.743 389.856 107.183 389.856Z" fill="white"/>
<rect x="65.5234" y="425.277" width="71.8429" height="2.68071" rx="1.34035" fill="#1E272E"/>
<g filter="url(#filter2_i_206_2821)">
<path fill-rule="evenodd" clip-rule="evenodd" d="M15.123 152.918C15.123 151.733 16.0832 150.773 17.2676 150.773H185.616C186.8 150.773 187.761 151.733 187.761 152.918V175.436C187.761 176.62 186.8 177.58 185.616 177.58H17.2676C16.0832 177.58 15.123 176.62 15.123 175.436V152.918Z" fill="#F2F2F2"/>
</g>
<path fill-rule="evenodd" clip-rule="evenodd" d="M15.123 152.918C15.123 151.733 16.0832 150.773 17.2676 150.773H185.616C186.8 150.773 187.761 151.733 187.761 152.918V175.436C187.761 176.62 186.8 177.58 185.616 177.58H17.2676C16.0832 177.58 15.123 176.62 15.123 175.436V152.918Z" stroke="#979797" stroke-width="0.268071"/>
<path opacity="0.6" d="M21.4593 166.424H24.2678V165.915H22.0248V164.357H24.1516V163.854H22.0248V162.4H24.2678V161.891H21.4593V166.424ZM24.9306 166.424H25.4773V164.501C25.4773 163.945 25.8134 163.578 26.3286 163.578C26.8312 163.578 27.0794 163.87 27.0794 164.401V166.424H27.626V164.303C27.626 163.559 27.2113 163.094 26.4951 163.094C25.9987 163.094 25.6657 163.317 25.4898 163.622H25.4773V163.157H24.9306V166.424ZM29.3852 166.487C29.492 166.487 29.6083 166.474 29.6774 166.465V166.022C29.6303 166.025 29.5674 166.034 29.5015 166.034C29.2093 166.034 29.0554 165.937 29.0554 165.588V163.609H29.6774V163.157H29.0554V162.274H28.4899V163.157H28.0124V163.609H28.4899V165.591C28.4899 166.216 28.7852 166.487 29.3852 166.487ZM31.5151 166.487C32.2282 166.487 32.7623 166.059 32.8691 165.519L32.8754 165.488H32.3382L32.3288 165.516C32.2345 165.796 31.9424 166.003 31.5277 166.003C30.9465 166.003 30.5758 165.61 30.5633 164.938H32.9162V164.737C32.9162 163.757 32.3727 163.094 31.4806 163.094C30.5884 163.094 30.0104 163.788 30.0104 164.8V164.803C30.0104 165.83 30.5758 166.487 31.5151 166.487ZM31.4774 163.578C31.9549 163.578 32.3068 163.876 32.3602 164.511H30.5727C30.6324 163.901 31.0031 163.578 31.4774 163.578ZM33.4691 166.424H34.0157V164.407C34.0157 163.911 34.2922 163.615 34.7163 163.615C34.8482 163.615 34.9644 163.631 35.0084 163.647V163.116C34.9644 163.11 34.8828 163.094 34.7885 163.094C34.421 163.094 34.1382 163.333 34.0283 163.71H34.0157V163.157H33.4691V166.424ZM36.8587 166.424H37.4242V164.806H38.4734C39.3248 164.806 39.9279 164.206 39.9279 163.345V163.339C39.9279 162.478 39.3248 161.891 38.4734 161.891H36.8587V166.424ZM38.3289 162.393C38.9761 162.393 39.3499 162.748 39.3499 163.345V163.351C39.3499 163.948 38.9761 164.303 38.3289 164.303H37.4242V162.393H38.3289ZM40.5217 166.424H41.0683V164.517C41.0683 163.961 41.4044 163.578 41.9102 163.578C42.4191 163.578 42.7207 163.926 42.7207 164.517V166.424H43.2673V164.423C43.2673 163.631 42.7929 163.094 42.0987 163.094C41.6118 163.094 41.2568 163.311 41.0808 163.678H41.0683V161.891H40.5217V166.424ZM45.3155 166.487C46.2171 166.487 46.8266 165.833 46.8266 164.79V164.784C46.8266 163.741 46.214 163.094 45.3124 163.094C44.4108 163.094 43.8013 163.744 43.8013 164.784V164.79C43.8013 165.83 44.4076 166.487 45.3155 166.487ZM45.3187 166.003C44.7406 166.003 44.3605 165.56 44.3605 164.79V164.784C44.3605 164.021 44.7438 163.578 45.3124 163.578C45.8904 163.578 46.2674 164.017 46.2674 164.784V164.79C46.2674 165.557 45.8936 166.003 45.3187 166.003ZM47.3795 166.424H47.9261V164.501C47.9261 163.945 48.2622 163.578 48.7774 163.578C49.28 163.578 49.5282 163.87 49.5282 164.401V166.424H50.0748V164.303C50.0748 163.559 49.6602 163.094 48.9439 163.094C48.4476 163.094 48.1146 163.317 47.9386 163.622H47.9261V163.157H47.3795V166.424ZM52.1168 166.487C52.8299 166.487 53.3639 166.059 53.4707 165.519L53.477 165.488H52.9398L52.9304 165.516C52.8362 165.796 52.544 166.003 52.1293 166.003C51.5482 166.003 51.1775 165.61 51.1649 164.938H53.5179V164.737C53.5179 163.757 52.9744 163.094 52.0822 163.094C51.19 163.094 50.612 163.788 50.612 164.8V164.803C50.612 165.83 51.1775 166.487 52.1168 166.487ZM52.0791 163.578C52.5566 163.578 52.9084 163.876 52.9618 164.511H51.1743C51.234 163.901 51.6047 163.578 52.0791 163.578ZM55.475 166.424H56.0342V162.846H56.0499L58.5442 166.424H59.0939V161.891H58.5348V165.469H58.5191L56.0247 161.891H55.475V166.424ZM61.0039 166.487C61.5003 166.487 61.8333 166.264 62.0092 165.959H62.0218V166.424H62.5684V163.157H62.0218V165.079C62.0218 165.635 61.6856 166.003 61.1704 166.003C60.6678 166.003 60.4196 165.711 60.4196 165.18V163.157H59.873V165.277C59.873 166.022 60.2877 166.487 61.0039 166.487ZM63.2815 166.424H63.8281V164.376C63.8281 163.92 64.1423 163.578 64.5758 163.578C64.981 163.578 65.2449 163.838 65.2449 164.234V166.424H65.7915V164.347C65.7915 163.901 66.0962 163.578 66.5298 163.578C66.9601 163.578 67.2083 163.845 67.2083 164.294V166.424H67.7549V164.168C67.7549 163.518 67.3371 163.094 66.69 163.094C66.2313 163.094 65.8481 163.329 65.6659 163.722H65.6533C65.5119 163.323 65.1821 163.094 64.736 163.094C64.315 163.094 63.9883 163.311 63.8407 163.634H63.8281V163.157H63.2815V166.424ZM70.0765 166.487C70.9121 166.487 71.465 165.821 71.465 164.79V164.787C71.465 163.757 70.9058 163.094 70.0859 163.094C69.6241 163.094 69.244 163.326 69.0398 163.703H69.0272V161.891H68.4806V166.424H69.0272V165.871H69.0398C69.244 166.251 69.6084 166.487 70.0765 166.487ZM69.9696 166.003C69.4168 166.003 69.0241 165.522 69.0241 164.79V164.787C69.0241 164.058 69.4199 163.578 69.9696 163.578C70.5477 163.578 70.9058 164.043 70.9058 164.787V164.79C70.9058 165.541 70.5477 166.003 69.9696 166.003ZM73.3593 166.487C74.0724 166.487 74.6064 166.059 74.7132 165.519L74.7195 165.488H74.1823L74.1729 165.516C74.0787 165.796 73.7865 166.003 73.3718 166.003C72.7907 166.003 72.42 165.61 72.4074 164.938H74.7604V164.737C74.7604 163.757 74.2169 163.094 73.3247 163.094C72.4325 163.094 71.8545 163.788 71.8545 164.8V164.803C71.8545 165.83 72.42 166.487 73.3593 166.487ZM73.3216 163.578C73.7991 163.578 74.1509 163.876 74.2043 164.511H72.4168C72.4765 163.901 72.8472 163.578 73.3216 163.578ZM75.3133 166.424H75.8599V164.407C75.8599 163.911 76.1363 163.615 76.5604 163.615C76.6924 163.615 76.8086 163.631 76.8526 163.647V163.116C76.8086 163.11 76.7269 163.094 76.6327 163.094C76.2651 163.094 75.9824 163.333 75.8724 163.71H75.8599V163.157H75.3133V166.424Z" fill="#484848"/>
<path opacity="0.7" d="M15.5 146.586H16.4487V145.157H17.3221C18.2771 145.157 18.9148 144.541 18.9148 143.608V143.602C18.9148 142.669 18.2771 142.053 17.3221 142.053H15.5V146.586ZM17.0896 142.804C17.6331 142.804 17.9535 143.09 17.9535 143.605V143.611C17.9535 144.127 17.6331 144.416 17.0896 144.416H16.4487V142.804H17.0896ZM19.4206 146.586H20.3379V144.658C20.3379 144.218 20.5986 143.91 21.0038 143.91C21.4217 143.91 21.6541 144.189 21.6541 144.661V146.586H22.5714V144.472C22.5714 143.659 22.1191 143.15 21.3902 143.15C20.8845 143.15 20.5295 143.382 20.3567 143.8H20.3379V142.053H19.4206V146.586ZM24.7076 146.656C25.7254 146.656 26.3757 146.002 26.3757 144.903V144.896C26.3757 143.806 25.7129 143.15 24.7045 143.15C23.6992 143.15 23.0395 143.813 23.0395 144.896V144.903C23.0395 145.999 23.6835 146.656 24.7076 146.656ZM24.7108 145.936C24.2584 145.936 23.9725 145.562 23.9725 144.903V144.896C23.9725 144.246 24.2615 143.869 24.7045 143.869C25.1506 143.869 25.4427 144.246 25.4427 144.896V144.903C25.4427 145.559 25.1568 145.936 24.7108 145.936ZM26.8501 146.586H27.7674V144.651C27.7674 144.211 28.0281 143.91 28.4397 143.91C28.8512 143.91 29.0585 144.161 29.0585 144.601V146.586H29.9758V144.413C29.9758 143.624 29.5549 143.15 28.8135 143.15C28.3046 143.15 27.959 143.385 27.7862 143.772H27.7674V143.219H26.8501V146.586ZM32.09 146.656C33.0513 146.656 33.5163 146.087 33.6199 145.591L33.6293 145.556H32.7874L32.7812 145.575C32.7152 145.763 32.4859 145.971 32.1089 145.971C31.6408 145.971 31.3487 145.657 31.3392 145.119H33.6576V144.837C33.6576 143.819 33.0388 143.15 32.0523 143.15C31.0659 143.15 30.4345 143.835 30.4345 144.906V144.909C30.4345 145.986 31.0596 146.656 32.09 146.656ZM32.068 143.835C32.4482 143.835 32.7215 144.076 32.778 144.541H31.3487C31.4083 144.086 31.6911 143.835 32.068 143.835ZM35.4859 146.586H36.4315V143.618H36.4504L38.5049 146.586H39.3279V142.053H38.3824V145H38.3635L36.3153 142.053H35.4859V146.586ZM41.1531 146.656C41.662 146.656 42.0076 146.417 42.1804 146.03H42.1992V146.586H43.1165V143.219H42.1992V145.154C42.1992 145.594 41.9385 145.895 41.527 145.895C41.1154 145.895 40.9081 145.641 40.9081 145.201V143.219H39.9908V145.393C39.9908 146.181 40.4117 146.656 41.1531 146.656ZM43.7134 146.586H44.6307V144.554C44.6307 144.174 44.8663 143.91 45.215 143.91C45.5543 143.91 45.7585 144.124 45.7585 144.485V146.586H46.6412V144.538C46.6412 144.164 46.8706 143.91 47.2193 143.91C47.5743 143.91 47.769 144.124 47.769 144.513V146.586H48.6863V144.284C48.6863 143.605 48.2434 143.15 47.5837 143.15C47.0905 143.15 46.6884 143.42 46.5376 143.844H46.5187C46.4056 143.401 46.0632 143.15 45.592 143.15C45.1396 143.15 44.7878 143.401 44.6496 143.784H44.6307V143.219H43.7134V146.586ZM51.2623 146.656C52.1105 146.656 52.6351 145.996 52.6351 144.903V144.899C52.6351 143.803 52.1105 143.15 51.2655 143.15C50.7848 143.15 50.411 143.395 50.2256 143.803H50.2068V142.053H49.2895V146.586H50.2068V146.012H50.2256C50.4078 146.411 50.7785 146.656 51.2623 146.656ZM50.9576 145.895C50.5115 145.895 50.2068 145.512 50.2068 144.903V144.899C50.2068 144.293 50.5147 143.91 50.9576 143.91C51.4131 143.91 51.7021 144.284 51.7021 144.899V144.903C51.7021 145.515 51.4131 145.895 50.9576 145.895ZM54.6394 146.656C55.6007 146.656 56.0656 146.087 56.1693 145.591L56.1787 145.556H55.3368L55.3305 145.575C55.2645 145.763 55.0352 145.971 54.6582 145.971C54.1902 145.971 53.898 145.657 53.8886 145.119H56.207V144.837C56.207 143.819 55.5881 143.15 54.6017 143.15C53.6153 143.15 52.9838 143.835 52.9838 144.906V144.909C52.9838 145.986 53.609 146.656 54.6394 146.656ZM54.6174 143.835C54.9975 143.835 55.2708 144.076 55.3274 144.541H53.898C53.9577 144.086 54.2404 143.835 54.6174 143.835ZM56.6813 146.586H57.5986V144.702C57.5986 144.211 57.8625 143.941 58.3149 143.941C58.4468 143.941 58.5725 143.96 58.6479 143.992V143.184C58.5788 143.165 58.4845 143.15 58.384 143.15C57.9913 143.15 57.718 143.392 57.6175 143.806H57.5986V143.219H56.6813V146.586Z" fill="#413D4A"/>
<g filter="url(#filter3_i_206_2821)">
<path fill-rule="evenodd" clip-rule="evenodd" d="M15.123 105.201C15.123 104.017 16.0832 103.056 17.2676 103.056H185.616C186.8 103.056 187.761 104.017 187.761 105.201V127.719C187.761 128.903 186.8 129.863 185.616 129.863H17.2676C16.0832 129.863 15.123 128.903 15.123 127.719V105.201Z" fill="#F2F2F2"/>
</g>
<path fill-rule="evenodd" clip-rule="evenodd" d="M15.123 105.201C15.123 104.017 16.0832 103.056 17.2676 103.056H185.616C186.8 103.056 187.761 104.017 187.761 105.201V127.719C187.761 128.903 186.8 129.863 185.616 129.863H17.2676C16.0832 129.863 15.123 128.903 15.123 127.719V105.201Z" stroke="#979797" stroke-width="0.268071"/>
<path opacity="0.6" d="M21.4593 118.707H24.2678V118.198H22.0248V116.64H24.1516V116.137H22.0248V114.683H24.2678V114.174H21.4593V118.707ZM24.9306 118.707H25.4773V116.784C25.4773 116.228 25.8134 115.861 26.3286 115.861C26.8312 115.861 27.0794 116.153 27.0794 116.684V118.707H27.626V116.587C27.626 115.842 27.2113 115.377 26.4951 115.377C25.9987 115.377 25.6657 115.6 25.4898 115.905H25.4773V115.44H24.9306V118.707ZM29.3852 118.77C29.492 118.77 29.6083 118.757 29.6774 118.748V118.305C29.6303 118.308 29.5674 118.317 29.5015 118.317C29.2093 118.317 29.0554 118.22 29.0554 117.871V115.892H29.6774V115.44H29.0554V114.557H28.4899V115.44H28.0124V115.892H28.4899V117.875C28.4899 118.5 28.7852 118.77 29.3852 118.77ZM31.5151 118.77C32.2282 118.77 32.7623 118.343 32.8691 117.802L32.8754 117.771H32.3382L32.3288 117.799C32.2345 118.079 31.9424 118.286 31.5277 118.286C30.9465 118.286 30.5758 117.893 30.5633 117.221H32.9162V117.02C32.9162 116.04 32.3727 115.377 31.4806 115.377C30.5884 115.377 30.0104 116.071 30.0104 117.083V117.086C30.0104 118.113 30.5758 118.77 31.5151 118.77ZM31.4774 115.861C31.9549 115.861 32.3068 116.159 32.3602 116.794H30.5727C30.6324 116.184 31.0031 115.861 31.4774 115.861ZM33.4691 118.707H34.0157V116.69C34.0157 116.194 34.2922 115.899 34.7163 115.899C34.8482 115.899 34.9644 115.914 35.0084 115.93V115.399C34.9644 115.393 34.8828 115.377 34.7885 115.377C34.421 115.377 34.1382 115.616 34.0283 115.993H34.0157V115.44H33.4691V118.707ZM36.8587 118.707H37.4179V115.129H37.4336L39.9279 118.707H40.4777V114.174H39.9185V117.752H39.9028L37.4085 114.174H36.8587V118.707ZM42.1332 118.77C42.5699 118.77 42.9626 118.534 43.1542 118.176H43.1668V118.707H43.7134V116.448C43.7134 115.795 43.2296 115.377 42.4568 115.377C41.6871 115.377 41.2191 115.811 41.172 116.348L41.1688 116.382H41.6966L41.7029 116.354C41.7657 116.062 42.0296 115.861 42.4505 115.861C42.906 115.861 43.1668 116.103 43.1668 116.502V116.775L42.2306 116.828C41.4798 116.872 41.0463 117.221 41.0463 117.777V117.783C41.0463 118.377 41.483 118.77 42.1332 118.77ZM41.6055 117.783V117.777C41.6055 117.472 41.8568 117.278 42.2934 117.253L43.1668 117.199V117.466C43.1668 117.941 42.771 118.296 42.2558 118.296C41.8631 118.296 41.6055 118.098 41.6055 117.783ZM44.4076 118.707H44.9543V116.659C44.9543 116.203 45.2684 115.861 45.7019 115.861C46.1072 115.861 46.3711 116.122 46.3711 116.517V118.707H46.9177V116.631C46.9177 116.184 47.2224 115.861 47.6559 115.861C48.0863 115.861 48.3345 116.128 48.3345 116.577V118.707H48.8811V116.451C48.8811 115.801 48.4633 115.377 47.8161 115.377C47.3575 115.377 46.9742 115.613 46.792 116.005H46.7794C46.6381 115.606 46.3082 115.377 45.8621 115.377C45.4412 115.377 45.1145 115.594 44.9668 115.917H44.9543V115.44H44.4076V118.707ZM50.923 118.77C51.6361 118.77 52.1702 118.343 52.277 117.802L52.2833 117.771H51.7461L51.7367 117.799C51.6424 118.079 51.3503 118.286 50.9356 118.286C50.3544 118.286 49.9837 117.893 49.9712 117.221H52.3241V117.02C52.3241 116.04 51.7806 115.377 50.8885 115.377C49.9963 115.377 49.4183 116.071 49.4183 117.083V117.086C49.4183 118.113 49.9837 118.77 50.923 118.77ZM50.8853 115.861C51.3628 115.861 51.7147 116.159 51.7681 116.794H49.9806C50.0403 116.184 50.411 115.861 50.8853 115.861Z" fill="#484848"/>
<path opacity="0.7" d="M15.5 98.8696H16.4487V97.0853H18.2928V96.3345H16.4487V95.1187H18.4687V94.3365H15.5V98.8696ZM20.0991 98.9387C20.608 98.9387 20.9536 98.7 21.1264 98.3136H21.1452V98.8696H22.0625V95.502H21.1452V97.4371C21.1452 97.8769 20.8845 98.1785 20.4729 98.1785C20.0614 98.1785 19.8541 97.9241 19.8541 97.4842V95.502H18.9368V97.6759C18.9368 98.4644 19.3577 98.9387 20.0991 98.9387ZM22.6814 98.8696H23.5987V94.3365H22.6814V98.8696ZM24.2395 98.8696H25.1568V94.3365H24.2395V98.8696ZM27.1297 98.8696H28.0753V95.901H28.0941L30.1486 98.8696H30.9717V94.3365H30.0261V97.2832H30.0072L27.959 94.3365H27.1297V98.8696ZM32.5832 98.923C33.0262 98.923 33.3843 98.7126 33.5759 98.367H33.5948V98.8696H34.5121V96.5607C34.5121 95.8821 33.9498 95.4329 33.0796 95.4329C32.1906 95.4329 31.6565 95.879 31.6063 96.501L31.6031 96.5387H32.4419L32.4482 96.5104C32.4921 96.2936 32.6995 96.1334 33.0419 96.1334C33.4 96.1334 33.5948 96.3188 33.5948 96.6172V96.8245L32.7623 96.8748C31.9267 96.9282 31.4523 97.2863 31.4523 97.8989V97.9052C31.4523 98.4989 31.9078 98.923 32.5832 98.923ZM32.3602 97.8581V97.8518C32.3602 97.613 32.5455 97.4623 32.9005 97.4403L33.5948 97.3963V97.6382C33.5948 97.99 33.2932 98.2539 32.8817 98.2539C32.5644 98.2539 32.3602 98.1063 32.3602 97.8581ZM35.1058 98.8696H36.0231V96.8371C36.0231 96.457 36.2587 96.1931 36.6074 96.1931C36.9467 96.1931 37.1509 96.4067 37.1509 96.768V98.8696H38.0337V96.8214C38.0337 96.4476 38.263 96.1931 38.6117 96.1931C38.9667 96.1931 39.1614 96.4067 39.1614 96.7963V98.8696H40.0787V96.5669C40.0787 95.8884 39.6358 95.4329 38.9761 95.4329C38.4829 95.4329 38.0808 95.703 37.93 96.1271H37.9111C37.7981 95.6842 37.4556 95.4329 36.9844 95.4329C36.532 95.4329 36.1802 95.6842 36.042 96.0675H36.0231V95.502H35.1058V98.8696ZM42.1929 98.9387C43.1542 98.9387 43.6192 98.3701 43.7228 97.8738L43.7323 97.8392H42.8903L42.8841 97.8581C42.8181 98.0466 42.5888 98.2539 42.2118 98.2539C41.7437 98.2539 41.4516 97.9398 41.4421 97.4026H43.7605V97.1198C43.7605 96.102 43.1417 95.4329 42.1552 95.4329C41.1688 95.4329 40.5374 96.1177 40.5374 97.189V97.1921C40.5374 98.2696 41.1625 98.9387 42.1929 98.9387ZM42.171 96.1177C42.5511 96.1177 42.8244 96.3596 42.8809 96.8245H41.4516C41.5113 96.369 41.794 96.1177 42.171 96.1177Z" fill="#413D4A"/>
<path opacity="0.7" d="M15.5 194.303H16.4456V191.334H16.4644L18.519 194.303H19.342V189.77H18.3964V192.716H18.3776L16.3294 189.77H15.5V194.303ZM20.9536 194.356C21.3965 194.356 21.7547 194.146 21.9463 193.8H21.9651V194.303H22.8824V191.994C22.8824 191.315 22.3201 190.866 21.4499 190.866C20.5609 190.866 20.0269 191.312 19.9766 191.934L19.9734 191.972H20.8122L20.8185 191.944C20.8625 191.727 21.0698 191.567 21.4122 191.567C21.7704 191.567 21.9651 191.752 21.9651 192.05V192.258L21.1326 192.308C20.297 192.361 19.8227 192.719 19.8227 193.332V193.338C19.8227 193.932 20.2782 194.356 20.9536 194.356ZM20.7305 193.291V193.285C20.7305 193.046 20.9159 192.895 21.2709 192.873L21.9651 192.829V193.071C21.9651 193.423 21.6636 193.687 21.252 193.687C20.9347 193.687 20.7305 193.539 20.7305 193.291ZM24.8144 194.372C25.0061 194.372 25.1537 194.353 25.2574 194.337V193.665C25.2008 193.671 25.1411 193.681 25.0595 193.681C24.783 193.681 24.6416 193.574 24.6416 193.26V191.626H25.2574V190.935H24.6416V190.112H23.7149V190.935H23.2468V191.626H23.7149V193.36C23.7149 194.083 24.0668 194.372 24.8144 194.372ZM26.2406 190.502C26.5171 190.502 26.7307 190.285 26.7307 190.024C26.7307 189.763 26.5171 189.547 26.2406 189.547C25.9642 189.547 25.7506 189.763 25.7506 190.024C25.7506 190.285 25.9642 190.502 26.2406 190.502ZM25.782 194.303H26.6993V190.935H25.782V194.303ZM28.8606 194.372C29.8785 194.372 30.5287 193.718 30.5287 192.619V192.613C30.5287 191.523 29.8659 190.866 28.8575 190.866C27.8522 190.866 27.1925 191.529 27.1925 192.613V192.619C27.1925 193.715 27.8365 194.372 28.8606 194.372ZM28.8638 193.652C28.4114 193.652 28.1255 193.279 28.1255 192.619V192.613C28.1255 191.962 28.4145 191.585 28.8575 191.585C29.3036 191.585 29.5957 191.962 29.5957 192.613V192.619C29.5957 193.275 29.3098 193.652 28.8638 193.652ZM31.0031 194.303H31.9204V192.368C31.9204 191.928 32.1811 191.626 32.5927 191.626C33.0042 191.626 33.2115 191.878 33.2115 192.317V194.303H34.1288V192.129C34.1288 191.34 33.7079 190.866 32.9665 190.866C32.4576 190.866 32.112 191.102 31.9392 191.488H31.9204V190.935H31.0031V194.303ZM35.7121 194.356C36.1551 194.356 36.5132 194.146 36.7048 193.8H36.7237V194.303H37.641V191.994C37.641 191.315 37.0787 190.866 36.2085 190.866C35.3194 190.866 34.7854 191.312 34.7351 191.934L34.732 191.972H35.5708L35.577 191.944C35.621 191.727 35.8284 191.567 36.1708 191.567C36.5289 191.567 36.7237 191.752 36.7237 192.05V192.258L35.8912 192.308C35.0556 192.361 34.5812 192.719 34.5812 193.332V193.338C34.5812 193.932 35.0367 194.356 35.7121 194.356ZM35.4891 193.291V193.285C35.4891 193.046 35.6744 192.895 36.0294 192.873L36.7237 192.829V193.071C36.7237 193.423 36.4221 193.687 36.0106 193.687C35.6933 193.687 35.4891 193.539 35.4891 193.291ZM38.2567 194.303H39.174V189.77H38.2567V194.303ZM40.2704 190.502C40.5468 190.502 40.7604 190.285 40.7604 190.024C40.7604 189.763 40.5468 189.547 40.2704 189.547C39.9939 189.547 39.7803 189.763 39.7803 190.024C39.7803 190.285 39.9939 190.502 40.2704 190.502ZM39.8117 194.303H40.729V190.935H39.8117V194.303ZM42.683 194.372C42.8746 194.372 43.0223 194.353 43.126 194.337V193.665C43.0694 193.671 43.0097 193.681 42.928 193.681C42.6516 193.681 42.5102 193.574 42.5102 193.26V191.626H43.126V190.935H42.5102V190.112H41.5835V190.935H41.1154V191.626H41.5835V193.36C41.5835 194.083 41.9353 194.372 42.683 194.372ZM44.1595 195.412C44.9072 195.412 45.3595 195.157 45.6234 194.362L46.7795 190.935H45.8119L45.0988 193.568H45.0737L44.3637 190.935H43.3553L44.5459 194.303L44.5051 194.413C44.4234 194.642 44.2726 194.721 43.9993 194.721C43.8642 194.721 43.7574 194.702 43.6914 194.689V195.371C43.7982 195.39 43.9804 195.412 44.1595 195.412Z" fill="#413D4A"/>
<g filter="url(#filter4_i_206_2821)">
<path fill-rule="evenodd" clip-rule="evenodd" d="M15.123 200.634C15.123 199.449 16.0832 198.489 17.2676 198.489H185.616C186.8 198.489 187.761 199.449 187.761 200.634V223.152C187.761 224.336 186.8 225.296 185.616 225.296H17.2676C16.0832 225.296 15.123 224.336 15.123 223.152V200.634Z" fill="#F2F2F2"/>
</g>
<path fill-rule="evenodd" clip-rule="evenodd" d="M15.123 200.634C15.123 199.449 16.0832 198.489 17.2676 198.489H185.616C186.8 198.489 187.761 199.449 187.761 200.634V223.152C187.761 224.336 186.8 225.296 185.616 225.296H17.2676C16.0832 225.296 15.123 224.336 15.123 223.152V200.634Z" stroke="#979797" stroke-width="0.268071"/>
<path opacity="0.6" d="M22.9421 214.215C23.9788 214.215 24.6165 213.706 24.6165 212.902V212.899C24.6165 212.208 24.227 211.831 23.2971 211.626L22.7945 211.517C22.2039 211.388 21.9306 211.155 21.9306 210.785V210.781C21.9306 210.345 22.3264 210.056 22.9327 210.053C23.5076 210.053 23.894 210.326 23.9631 210.788L23.9694 210.832H24.5348L24.5317 210.785C24.4814 210.043 23.8343 209.531 22.9484 209.531C22.0154 209.531 21.3557 210.053 21.3525 210.797V210.8C21.3525 211.463 21.7672 211.862 22.6531 212.057L23.1557 212.167C23.7777 212.305 24.0385 212.528 24.0385 212.927V212.93C24.0385 213.398 23.6269 213.694 22.9735 213.694C22.317 213.694 21.8771 213.414 21.8112 212.958L21.8049 212.914H21.2394L21.2426 212.958C21.2991 213.734 21.962 214.215 22.9421 214.215ZM26.5391 214.202C27.2522 214.202 27.7862 213.775 27.893 213.235L27.8993 213.203H27.3621L27.3527 213.232C27.2585 213.511 26.9663 213.719 26.5516 213.719C25.9705 213.719 25.5998 213.326 25.5872 212.654H27.9402V212.453C27.9402 211.473 27.3967 210.81 26.5045 210.81C25.6123 210.81 25.0343 211.504 25.0343 212.516V212.519C25.0343 213.546 25.5998 214.202 26.5391 214.202ZM26.5014 211.293C26.9789 211.293 27.3307 211.592 27.3841 212.227H25.5966C25.6563 211.617 26.027 211.293 26.5014 211.293ZM28.5213 214.14H29.0679V209.607H28.5213V214.14ZM31.1507 214.202C31.8638 214.202 32.3979 213.775 32.5047 213.235L32.511 213.203H31.9738L31.9644 213.232C31.8701 213.511 31.578 213.719 31.1633 213.719C30.5821 213.719 30.2114 213.326 30.1989 212.654H32.5518V212.453C32.5518 211.473 32.0083 210.81 31.1162 210.81C30.224 210.81 29.646 211.504 29.646 212.516V212.519C29.646 213.546 30.2114 214.202 31.1507 214.202ZM31.113 211.293C31.5905 211.293 31.9424 211.592 31.9958 212.227H30.2083C30.268 211.617 30.6387 211.293 31.113 211.293ZM34.4587 214.202C35.1969 214.202 35.7341 213.722 35.8221 213.1L35.8252 213.078H35.288L35.2817 213.103C35.1906 213.467 34.9048 213.719 34.4587 213.719C33.8932 213.719 33.5037 213.269 33.5037 212.509V212.506C33.5037 211.765 33.8838 211.293 34.4524 211.293C34.933 211.293 35.1969 211.583 35.2786 211.909L35.2849 211.934H35.8189L35.8158 211.909C35.7467 211.35 35.266 210.81 34.4524 210.81C33.5445 210.81 32.9445 211.469 32.9445 212.5V212.503C32.9445 213.543 33.5319 214.202 34.4587 214.202ZM37.3896 214.202C37.4965 214.202 37.6127 214.19 37.6818 214.18V213.738C37.6347 213.741 37.5718 213.75 37.5059 213.75C37.2137 213.75 37.0598 213.653 37.0598 213.304V211.325H37.6818V210.873H37.0598V209.99H36.4943V210.873H36.0168V211.325H36.4943V213.307C36.4943 213.932 36.7896 214.202 37.3896 214.202ZM39.6735 214.14H40.2327V210.562H40.2484L42.7427 214.14H43.2924V209.607H42.7333V213.185H42.7175L40.2232 209.607H39.6735V214.14ZM44.948 214.202C45.3846 214.202 45.7773 213.967 45.9689 213.609H45.9815V214.14H46.5281V211.881C46.5281 211.228 46.0443 210.81 45.2715 210.81C44.5019 210.81 44.0338 211.243 43.9867 211.78L43.9836 211.815H44.5113L44.5176 211.787C44.5804 211.495 44.8443 211.293 45.2653 211.293C45.7208 211.293 45.9815 211.535 45.9815 211.934V212.208L45.0454 212.261C44.2946 212.305 43.861 212.654 43.861 213.21V213.216C43.861 213.81 44.2977 214.202 44.948 214.202ZM44.4202 213.216V213.21C44.4202 212.905 44.6715 212.71 45.1082 212.685L45.9815 212.632V212.899C45.9815 213.373 45.5857 213.728 45.0705 213.728C44.6778 213.728 44.4202 213.53 44.4202 213.216ZM48.2842 214.202C48.391 214.202 48.5072 214.19 48.5764 214.18V213.738C48.5292 213.741 48.4664 213.75 48.4004 213.75C48.1083 213.75 47.9543 213.653 47.9543 213.304V211.325H48.5764V210.873H47.9543V209.99H47.3889V210.873H46.9114V211.325H47.3889V213.307C47.3889 213.932 47.6842 214.202 48.2842 214.202ZM49.4717 210.32C49.6633 210.32 49.8141 210.166 49.8141 209.977C49.8141 209.786 49.6633 209.635 49.4717 209.635C49.2832 209.635 49.1293 209.786 49.1293 209.977C49.1293 210.166 49.2832 210.32 49.4717 210.32ZM49.1984 214.14H49.745V210.873H49.1984V214.14ZM51.8435 214.202C52.7451 214.202 53.3545 213.549 53.3545 212.506V212.5C53.3545 211.457 52.7419 210.81 51.8403 210.81C50.9387 210.81 50.3293 211.46 50.3293 212.5V212.506C50.3293 213.546 50.9356 214.202 51.8435 214.202ZM51.8466 213.719C51.2686 213.719 50.8885 213.276 50.8885 212.506V212.5C50.8885 211.736 51.2717 211.293 51.8403 211.293C52.4184 211.293 52.7953 211.733 52.7953 212.5V212.506C52.7953 213.273 52.4215 213.719 51.8466 213.719ZM53.9074 214.14H54.454V212.217C54.454 211.661 54.7902 211.293 55.3053 211.293C55.808 211.293 56.0562 211.586 56.0562 212.117V214.14H56.6028V212.019C56.6028 211.275 56.1881 210.81 55.4718 210.81C54.9755 210.81 54.6425 211.033 54.4666 211.337H54.454V210.873H53.9074V214.14ZM58.2552 214.202C58.6918 214.202 59.0845 213.967 59.2761 213.609H59.2887V214.14H59.8353V211.881C59.8353 211.228 59.3515 210.81 58.5787 210.81C57.8091 210.81 57.341 211.243 57.2939 211.78L57.2907 211.815H57.8185L57.8248 211.787C57.8876 211.495 58.1515 211.293 58.5725 211.293C59.028 211.293 59.2887 211.535 59.2887 211.934V212.208L58.3526 212.261C57.6018 212.305 57.1682 212.654 57.1682 213.21V213.216C57.1682 213.81 57.6049 214.202 58.2552 214.202ZM57.7274 213.216V213.21C57.7274 212.905 57.9787 212.71 58.4154 212.685L59.2887 212.632V212.899C59.2887 213.373 58.8929 213.728 58.3777 213.728C57.985 213.728 57.7274 213.53 57.7274 213.216ZM60.5579 214.14H61.1045V209.607H60.5579V214.14ZM62.1506 210.32C62.3422 210.32 62.493 210.166 62.493 209.977C62.493 209.786 62.3422 209.635 62.1506 209.635C61.9621 209.635 61.8082 209.786 61.8082 209.977C61.8082 210.166 61.9621 210.32 62.1506 210.32ZM61.8773 214.14H62.4239V210.873H61.8773V214.14ZM64.2302 214.202C64.337 214.202 64.4533 214.19 64.5224 214.18V213.738C64.4752 213.741 64.4124 213.75 64.3464 213.75C64.0543 213.75 63.9004 213.653 63.9004 213.304V211.325H64.5224V210.873H63.9004V209.99H63.3349V210.873H62.8574V211.325H63.3349V213.307C63.3349 213.932 63.6302 214.202 64.2302 214.202ZM65.424 215.239C66.0146 215.239 66.3004 214.969 66.5329 214.344L67.8083 210.873H67.2334L66.3287 213.593H66.3161L65.4145 210.873H64.8302L66.0428 214.143L65.9769 214.328C65.8449 214.699 65.6533 214.787 65.3077 214.787C65.2418 214.787 65.1789 214.777 65.1318 214.768V215.214C65.2009 215.227 65.3172 215.239 65.424 215.239Z" fill="#484848"/>
<path d="M181.862 210.82L178.914 213.501L175.965 210.82" stroke="#888888" stroke-width="0.536141" stroke-linecap="round" stroke-linejoin="round"/>
<g filter="url(#filter5_i_206_2821)">
<path fill-rule="evenodd" clip-rule="evenodd" d="M15.6621 248.351C15.6621 247.166 16.6223 246.206 17.8067 246.206H185.619C186.803 246.206 187.763 247.166 187.763 248.351V270.869C187.763 272.053 186.803 273.013 185.619 273.013H17.8067C16.6223 273.013 15.6621 272.053 15.6621 270.869V248.351Z" fill="#F2F2F2"/>
</g>
<path fill-rule="evenodd" clip-rule="evenodd" d="M15.6621 248.351C15.6621 247.166 16.6223 246.206 17.8067 246.206H185.619C186.803 246.206 187.763 247.166 187.763 248.351V270.869C187.763 272.053 186.803 273.013 185.619 273.013H17.8067C16.6223 273.013 15.6621 272.053 15.6621 270.869V248.351Z" stroke="#979797" stroke-width="0.268071"/>
<path opacity="0.6" d="M23.4812 261.932C24.5178 261.932 25.1556 261.423 25.1556 260.619V260.616C25.1556 259.925 24.766 259.548 23.8361 259.344L23.3335 259.234C22.7429 259.105 22.4696 258.873 22.4696 258.502V258.499C22.4696 258.062 22.8654 257.773 23.4717 257.77C24.0466 257.77 24.433 258.043 24.5021 258.505L24.5084 258.549H25.0739L25.0707 258.502C25.0205 257.76 24.3733 257.248 23.4874 257.248C22.5544 257.248 21.8947 257.77 21.8916 258.514V258.518C21.8916 259.18 22.3063 259.579 23.1921 259.774L23.6948 259.884C24.3168 260.022 24.5775 260.245 24.5775 260.644V260.647C24.5775 261.116 24.166 261.411 23.5126 261.411C22.856 261.411 22.4162 261.131 22.3502 260.676L22.344 260.632H21.7785L21.7816 260.676C21.8382 261.452 22.501 261.932 23.4812 261.932ZM27.0781 261.92C27.7912 261.92 28.3253 261.493 28.4321 260.952L28.4384 260.921H27.9012L27.8918 260.949C27.7975 261.229 27.5054 261.436 27.0907 261.436C26.5095 261.436 26.1388 261.043 26.1263 260.371H28.4792V260.17C28.4792 259.19 27.9357 258.527 27.0436 258.527C26.1514 258.527 25.5734 259.221 25.5734 260.233V260.236C25.5734 261.263 26.1388 261.92 27.0781 261.92ZM27.0404 259.011C27.5179 259.011 27.8698 259.309 27.9232 259.944H26.1357C26.1954 259.334 26.5661 259.011 27.0404 259.011ZM29.0604 261.857H29.607V257.324H29.0604V261.857ZM31.6898 261.92C32.4029 261.92 32.9369 261.493 33.0437 260.952L33.05 260.921H32.5128L32.5034 260.949C32.4092 261.229 32.117 261.436 31.7023 261.436C31.1212 261.436 30.7505 261.043 30.7379 260.371H33.0909V260.17C33.0909 259.19 32.5474 258.527 31.6552 258.527C30.7631 258.527 30.185 259.221 30.185 260.233V260.236C30.185 261.263 30.7505 261.92 31.6898 261.92ZM31.6521 259.011C32.1296 259.011 32.4814 259.309 32.5348 259.944H30.7473C30.807 259.334 31.1777 259.011 31.6521 259.011ZM34.9977 261.92C35.736 261.92 36.2732 261.439 36.3611 260.817L36.3643 260.795H35.8271L35.8208 260.82C35.7297 261.185 35.4438 261.436 34.9977 261.436C34.4323 261.436 34.0427 260.987 34.0427 260.227V260.223C34.0427 259.482 34.4228 259.011 34.9914 259.011C35.4721 259.011 35.736 259.3 35.8176 259.627L35.8239 259.652H36.358L36.3548 259.627C36.2857 259.067 35.8051 258.527 34.9914 258.527C34.0836 258.527 33.4835 259.187 33.4835 260.217V260.22C33.4835 261.26 34.071 261.92 34.9977 261.92ZM37.9287 261.92C38.0355 261.92 38.1517 261.907 38.2209 261.898V261.455C38.1737 261.458 38.1109 261.467 38.0449 261.467C37.7528 261.467 37.5989 261.37 37.5989 261.021V259.042H38.2209V258.59H37.5989V257.707H37.0334V258.59H36.5559V259.042H37.0334V261.024C37.0334 261.65 37.3287 261.92 37.9287 261.92ZM40.2125 261.857H42.9645V261.348H40.778V257.324H40.2125V261.857ZM44.7614 261.92C45.663 261.92 46.2724 261.266 46.2724 260.223V260.217C46.2724 259.174 45.6598 258.527 44.7582 258.527C43.8566 258.527 43.2472 259.177 43.2472 260.217V260.223C43.2472 261.263 43.8535 261.92 44.7614 261.92ZM44.7645 261.436C44.1865 261.436 43.8064 260.993 43.8064 260.223V260.217C43.8064 259.454 44.1896 259.011 44.7582 259.011C45.3363 259.011 45.7132 259.451 45.7132 260.217V260.223C45.7132 260.99 45.3394 261.436 44.7645 261.436ZM48.1793 261.92C48.9175 261.92 49.4547 261.439 49.5427 260.817L49.5458 260.795H49.0086L49.0023 260.82C48.9112 261.185 48.6254 261.436 48.1793 261.436C47.6138 261.436 47.2243 260.987 47.2243 260.227V260.223C47.2243 259.482 47.6044 259.011 48.173 259.011C48.6536 259.011 48.9175 259.3 48.9992 259.627L49.0055 259.652H49.5395L49.5364 259.627C49.4673 259.067 48.9866 258.527 48.173 258.527C47.2651 258.527 46.6651 259.187 46.6651 260.217V260.22C46.6651 261.26 47.2525 261.92 48.1793 261.92ZM51.0034 261.92C51.4401 261.92 51.8328 261.684 52.0244 261.326H52.037V261.857H52.5836V259.598C52.5836 258.945 52.0998 258.527 51.327 258.527C50.5573 258.527 50.0893 258.961 50.0421 259.498L50.039 259.532H50.5668L50.5731 259.504C50.6359 259.212 50.8998 259.011 51.3207 259.011C51.7762 259.011 52.037 259.253 52.037 259.652V259.925L51.1008 259.978C50.35 260.022 49.9165 260.371 49.9165 260.927V260.933C49.9165 261.527 50.3532 261.92 51.0034 261.92ZM50.4757 260.933V260.927C50.4757 260.622 50.727 260.428 51.1636 260.402L52.037 260.349V260.616C52.037 261.09 51.6411 261.445 51.1259 261.445C50.7333 261.445 50.4757 261.247 50.4757 260.933ZM54.3397 261.92C54.4465 261.92 54.5627 261.907 54.6318 261.898V261.455C54.5847 261.458 54.5219 261.467 54.4559 261.467C54.1637 261.467 54.0098 261.37 54.0098 261.021V259.042H54.6318V258.59H54.0098V257.707H53.4443V258.59H52.9668V259.042H53.4443V261.024C53.4443 261.65 53.7396 261.92 54.3397 261.92ZM55.5271 258.037C55.7188 258.037 55.8695 257.883 55.8695 257.695C55.8695 257.503 55.7188 257.352 55.5271 257.352C55.3386 257.352 55.1847 257.503 55.1847 257.695C55.1847 257.883 55.3386 258.037 55.5271 258.037ZM55.2538 261.857H55.8004V258.59H55.2538V261.857ZM57.8989 261.92C58.8005 261.92 59.41 261.266 59.41 260.223V260.217C59.41 259.174 58.7974 258.527 57.8958 258.527C56.9942 258.527 56.3847 259.177 56.3847 260.217V260.223C56.3847 261.263 56.991 261.92 57.8989 261.92ZM57.9021 261.436C57.324 261.436 56.9439 260.993 56.9439 260.223V260.217C56.9439 259.454 57.3272 259.011 57.8958 259.011C58.4738 259.011 58.8508 259.451 58.8508 260.217V260.223C58.8508 260.99 58.4769 261.436 57.9021 261.436ZM59.9629 261.857H60.5095V259.934C60.5095 259.378 60.8456 259.011 61.3608 259.011C61.8634 259.011 62.1116 259.303 62.1116 259.834V261.857H62.6582V259.736C62.6582 258.992 62.2435 258.527 61.5273 258.527C61.0309 258.527 60.698 258.75 60.522 259.055H60.5095V258.59H59.9629V261.857Z" fill="#484848"/>
<path d="M182.401 258.538L179.453 261.219L176.504 258.538" stroke="#888888" stroke-width="0.536141" stroke-linecap="round" stroke-linejoin="round"/>
<path opacity="0.7" d="M16.0391 242.019H18.9701V241.237H16.9878V237.486H16.0391V242.019ZM20.9492 242.088C21.967 242.088 22.6173 241.435 22.6173 240.335V240.329C22.6173 239.239 21.9544 238.583 20.946 238.583C19.9408 238.583 19.2811 239.245 19.2811 240.329V240.335C19.2811 241.432 19.9251 242.088 20.9492 242.088ZM20.9523 241.369C20.4999 241.369 20.2141 240.995 20.2141 240.335V240.329C20.2141 239.679 20.5031 239.302 20.946 239.302C21.3921 239.302 21.6843 239.679 21.6843 240.329V240.335C21.6843 240.992 21.3984 241.369 20.9523 241.369ZM24.631 242.088C25.5294 242.088 26.1106 241.529 26.1546 240.794V240.775H25.3001L25.2969 240.804C25.2341 241.143 25.0048 241.369 24.6372 241.369C24.1849 241.369 23.9021 240.995 23.9021 240.335V240.332C23.9021 239.688 24.1849 239.302 24.6341 239.302C25.0142 239.302 25.2373 239.547 25.2938 239.867L25.3001 239.896H26.1514V239.874C26.1169 239.145 25.5357 238.583 24.6215 238.583C23.6131 238.583 22.9691 239.252 22.9691 240.329V240.332C22.9691 241.419 23.6037 242.088 24.631 242.088ZM27.5996 242.073C28.0426 242.073 28.4007 241.862 28.5923 241.517H28.6112V242.019H29.5285V239.71C29.5285 239.032 28.9662 238.583 28.096 238.583C27.2069 238.583 26.6729 239.029 26.6226 239.651L26.6195 239.688H27.4583L27.4645 239.66C27.5085 239.443 27.7159 239.283 28.0583 239.283C28.4164 239.283 28.6112 239.468 28.6112 239.767V239.974L27.7787 240.024C26.9431 240.078 26.4687 240.436 26.4687 241.049V241.055C26.4687 241.649 26.9242 242.073 27.5996 242.073ZM27.3766 241.008V241.001C27.3766 240.763 27.5619 240.612 27.9169 240.59L28.6112 240.546V240.788C28.6112 241.14 28.3096 241.404 27.8981 241.404C27.5808 241.404 27.3766 241.256 27.3766 241.008ZM31.4605 242.088C31.6521 242.088 31.7998 242.07 31.9034 242.054V241.382C31.8469 241.388 31.7872 241.397 31.7055 241.397C31.4291 241.397 31.2877 241.29 31.2877 240.976V239.343H31.9034V238.652H31.2877V237.829H30.361V238.652H29.8929V239.343H30.361V241.077C30.361 241.799 30.7128 242.088 31.4605 242.088ZM32.8867 238.218C33.1631 238.218 33.3768 238.001 33.3768 237.741C33.3768 237.48 33.1631 237.263 32.8867 237.263C32.6102 237.263 32.3966 237.48 32.3966 237.741C32.3966 238.001 32.6102 238.218 32.8867 238.218ZM32.428 242.019H33.3453V238.652H32.428V242.019ZM35.5067 242.088C36.5245 242.088 37.1748 241.435 37.1748 240.335V240.329C37.1748 239.239 36.5119 238.583 35.5035 238.583C34.4983 238.583 33.8386 239.245 33.8386 240.329V240.335C33.8386 241.432 34.4826 242.088 35.5067 242.088ZM35.5098 241.369C35.0574 241.369 34.7716 240.995 34.7716 240.335V240.329C34.7716 239.679 35.0606 239.302 35.5035 239.302C35.9496 239.302 36.2418 239.679 36.2418 240.329V240.335C36.2418 240.992 35.9559 241.369 35.5098 241.369ZM37.6491 242.019H38.5664V240.084C38.5664 239.644 38.8272 239.343 39.2387 239.343C39.6502 239.343 39.8576 239.594 39.8576 240.034V242.019H40.7749V239.845C40.7749 239.057 40.3539 238.583 39.6125 238.583C39.1036 238.583 38.7581 238.818 38.5853 239.205H38.5664V238.652H37.6491V242.019Z" fill="#413D4A"/>
<g filter="url(#filter6_i_206_2821)">
<path fill-rule="evenodd" clip-rule="evenodd" d="M15.123 296.067C15.123 294.882 16.0832 293.922 17.2676 293.922H185.616C186.8 293.922 187.761 294.882 187.761 296.067V318.585C187.761 319.769 186.8 320.729 185.616 320.729H17.2676C16.0832 320.729 15.123 319.769 15.123 318.585V296.067Z" fill="#F2F2F2"/>
</g>
<path fill-rule="evenodd" clip-rule="evenodd" d="M15.123 296.067C15.123 294.882 16.0832 293.922 17.2676 293.922H185.616C186.8 293.922 187.761 294.882 187.761 296.067V318.585C187.761 319.769 186.8 320.729 185.616 320.729H17.2676C16.0832 320.729 15.123 319.769 15.123 318.585V296.067Z" stroke="#979797" stroke-width="0.268071"/>
<path opacity="0.7" d="M15.5 289.735H17.231C18.5912 289.735 19.3923 288.89 19.3923 287.452V287.445C19.3923 286.01 18.5881 285.202 17.231 285.202H15.5V289.735ZM16.4487 288.95V285.984H17.1179C17.9504 285.984 18.4247 286.503 18.4247 287.448V287.455C18.4247 288.435 17.9661 288.95 17.1179 288.95H16.4487ZM20.9096 289.789C21.3525 289.789 21.7107 289.578 21.9023 289.233H21.9212V289.735H22.8385V287.426C22.8385 286.748 22.2761 286.299 21.406 286.299C20.5169 286.299 19.9829 286.745 19.9326 287.367L19.9295 287.404H20.7682L20.7745 287.376C20.8185 287.159 21.0258 286.999 21.3683 286.999C21.7264 286.999 21.9212 287.184 21.9212 287.483V287.69L21.0887 287.741C20.253 287.794 19.7787 288.152 19.7787 288.765V288.771C19.7787 289.365 20.2342 289.789 20.9096 289.789ZM20.6866 288.724V288.718C20.6866 288.479 20.8719 288.328 21.2269 288.306L21.9212 288.262V288.504C21.9212 288.856 21.6196 289.12 21.208 289.12C20.8908 289.12 20.6866 288.972 20.6866 288.724ZM24.7704 289.804C24.9621 289.804 25.1097 289.786 25.2134 289.77V289.098C25.1568 289.104 25.0972 289.113 25.0155 289.113C24.739 289.113 24.5977 289.007 24.5977 288.692V287.059H25.2134V286.368H24.5977V285.545H23.6709V286.368H23.2029V287.059H23.6709V288.793C23.6709 289.515 24.0228 289.804 24.7704 289.804ZM27.2019 289.804C28.1632 289.804 28.6282 289.236 28.7318 288.74L28.7412 288.705H27.8993L27.8931 288.724C27.8271 288.912 27.5978 289.12 27.2208 289.12C26.7527 289.12 26.4606 288.805 26.4511 288.268H28.7695V287.986C28.7695 286.968 28.1507 286.299 27.1642 286.299C26.1778 286.299 25.5464 286.983 25.5464 288.055V288.058C25.5464 289.135 26.1715 289.804 27.2019 289.804ZM27.1799 286.983C27.5601 286.983 27.8334 287.225 27.8899 287.69H26.4606C26.5202 287.235 26.803 286.983 27.1799 286.983ZM32.6429 289.814C33.9906 289.814 34.8294 288.912 34.8294 287.47V287.464C34.8294 286.025 33.9875 285.124 32.6429 285.124C31.3015 285.124 30.4565 286.022 30.4565 287.464V287.47C30.4565 288.912 31.2952 289.814 32.6429 289.814ZM32.6429 289.01C31.8984 289.01 31.424 288.419 31.424 287.47V287.464C31.424 286.515 31.9015 285.928 32.6429 285.928C33.3875 285.928 33.8618 286.519 33.8618 287.464V287.47C33.8618 288.41 33.3969 289.01 32.6429 289.01ZM35.6085 289.735H36.5258V287.059H37.1729V286.368H36.5038V286.132C36.5038 285.89 36.6389 285.761 36.9436 285.761C37.0284 285.761 37.1164 285.765 37.1792 285.777V285.171C37.0724 285.149 36.887 285.133 36.7174 285.133C35.9226 285.133 35.6085 285.438 35.6085 286.098V286.368H35.1498V287.059H35.6085V289.735ZM39.0107 289.735H41.018C41.9856 289.735 42.5856 289.239 42.5856 288.444V288.438C42.5856 287.844 42.1301 287.398 41.4987 287.351V287.332C41.9982 287.266 42.3752 286.842 42.3752 286.346V286.339C42.3752 285.642 41.838 285.202 40.9835 285.202H39.0107V289.735ZM40.7385 285.906C41.1814 285.906 41.4421 286.113 41.4421 286.475V286.481C41.4421 286.873 41.1563 287.097 40.6222 287.097H39.9594V285.906H40.7385ZM40.7353 287.741C41.3165 287.741 41.6181 287.964 41.6181 288.378V288.385C41.6181 288.805 41.3196 289.029 40.7762 289.029H39.9594V287.741H40.7353ZM43.5249 285.934C43.8014 285.934 44.015 285.717 44.015 285.457C44.015 285.196 43.8014 284.979 43.5249 284.979C43.2485 284.979 43.0349 285.196 43.0349 285.457C43.0349 285.717 43.2485 285.934 43.5249 285.934ZM43.0663 289.735H43.9836V286.368H43.0663V289.735ZM44.5993 289.735H45.5166V287.85C45.5166 287.36 45.7805 287.09 46.2329 287.09C46.3648 287.09 46.4905 287.109 46.5658 287.141V286.333C46.4967 286.314 46.4025 286.299 46.302 286.299C45.9093 286.299 45.636 286.54 45.5355 286.955H45.5166V286.368H44.5993V289.735ZM48.4067 289.804C48.5984 289.804 48.746 289.786 48.8497 289.77V289.098C48.7931 289.104 48.7335 289.113 48.6518 289.113C48.3753 289.113 48.234 289.007 48.234 288.692V287.059H48.8497V286.368H48.234V285.545H47.3072V286.368H46.8392V287.059H47.3072V288.793C47.3072 289.515 47.6591 289.804 48.4067 289.804ZM49.3774 289.735H50.2948V287.806C50.2948 287.367 50.5555 287.059 50.9607 287.059C51.3786 287.059 51.611 287.338 51.611 287.81V289.735H52.5283V287.621C52.5283 286.808 52.076 286.299 51.3471 286.299C50.8414 286.299 50.4864 286.531 50.3136 286.949H50.2948V285.202H49.3774V289.735Z" fill="#413D4A"/>
<path opacity="0.6" d="M21.3347 309.648C22.3714 309.648 23.0091 309.139 23.0091 308.335V308.332C23.0091 307.641 22.6195 307.264 21.6897 307.06L21.187 306.95C20.5964 306.821 20.3231 306.588 20.3231 306.218V306.215C20.3231 305.778 20.719 305.489 21.3253 305.486C21.9001 305.486 22.2865 305.759 22.3557 306.221L22.3619 306.265H22.9274L22.9243 306.218C22.874 305.476 22.2269 304.964 21.341 304.964C20.4079 304.964 19.7482 305.486 19.7451 306.23V306.233C19.7451 306.896 20.1598 307.295 21.0457 307.49L21.5483 307.6C22.1703 307.738 22.431 307.961 22.431 308.36V308.363C22.431 308.831 22.0195 309.127 21.3661 309.127C20.7095 309.127 20.2697 308.847 20.2038 308.392L20.1975 308.348H19.632L19.6352 308.392C19.6917 309.168 20.3545 309.648 21.3347 309.648ZM24.9316 309.636C25.6448 309.636 26.1788 309.208 26.2856 308.668L26.2919 308.637H25.7547L25.7453 308.665C25.651 308.944 25.3589 309.152 24.9442 309.152C24.363 309.152 23.9923 308.759 23.9798 308.087H26.3327V307.886C26.3327 306.906 25.7893 306.243 24.8971 306.243C24.0049 306.243 23.4269 306.937 23.4269 307.949V307.952C23.4269 308.979 23.9923 309.636 24.9316 309.636ZM24.8939 306.727C25.3714 306.727 25.7233 307.025 25.7767 307.66H23.9892C24.0489 307.05 24.4196 306.727 24.8939 306.727ZM26.9139 309.573H27.4605V305.04H26.9139V309.573ZM29.5433 309.636C30.2564 309.636 30.7905 309.208 30.8973 308.668L30.9035 308.637H30.3664L30.3569 308.665C30.2627 308.944 29.9705 309.152 29.5559 309.152C28.9747 309.152 28.604 308.759 28.5914 308.087H30.9444V307.886C30.9444 306.906 30.4009 306.243 29.5087 306.243C28.6166 306.243 28.0385 306.937 28.0385 307.949V307.952C28.0385 308.979 28.604 309.636 29.5433 309.636ZM29.5056 306.727C29.9831 306.727 30.3349 307.025 30.3883 307.66H28.6009C28.6605 307.05 29.0312 306.727 29.5056 306.727ZM32.8512 309.636C33.5895 309.636 34.1267 309.155 34.2146 308.533L34.2178 308.511H33.6806L33.6743 308.536C33.5832 308.9 33.2973 309.152 32.8512 309.152C32.2858 309.152 31.8962 308.703 31.8962 307.942V307.939C31.8962 307.198 32.2764 306.727 32.845 306.727C33.3256 306.727 33.5895 307.016 33.6712 307.342L33.6774 307.367H34.2115L34.2084 307.342C34.1392 306.783 33.6586 306.243 32.845 306.243C31.9371 306.243 31.3371 306.903 31.3371 307.933V307.936C31.3371 308.976 31.9245 309.636 32.8512 309.636ZM35.7822 309.636C35.889 309.636 36.0053 309.623 36.0744 309.614V309.171C36.0273 309.174 35.9644 309.183 35.8985 309.183C35.6063 309.183 35.4524 309.086 35.4524 308.737V306.758H36.0744V306.306H35.4524V305.423H34.8869V306.306H34.4094V306.758H34.8869V308.74C34.8869 309.365 35.1822 309.636 35.7822 309.636ZM38.0661 309.573H39.5897C40.9373 309.573 41.729 308.734 41.729 307.305V307.298C41.729 305.875 40.9311 305.04 39.5897 305.04H38.0661V309.573ZM38.6315 309.064V305.549H39.552C40.5792 305.549 41.151 306.174 41.151 307.305V307.311C41.151 308.436 40.5792 309.064 39.552 309.064H38.6315ZM43.3029 309.636C43.7395 309.636 44.1322 309.4 44.3238 309.042H44.3364V309.573H44.883V307.314C44.883 306.661 44.3992 306.243 43.6264 306.243C42.8568 306.243 42.3887 306.676 42.3416 307.214L42.3384 307.248H42.8662L42.8725 307.22C42.9353 306.928 43.1992 306.727 43.6201 306.727C44.0757 306.727 44.3364 306.968 44.3364 307.367V307.641L43.4002 307.694C42.6494 307.738 42.2159 308.087 42.2159 308.643V308.649C42.2159 309.243 42.6526 309.636 43.3029 309.636ZM42.7751 308.649V308.643C42.7751 308.338 43.0264 308.143 43.4631 308.118L44.3364 308.065V308.332C44.3364 308.806 43.9406 309.161 43.4254 309.161C43.0327 309.161 42.7751 308.963 42.7751 308.649ZM46.6391 309.636C46.7459 309.636 46.8621 309.623 46.9312 309.614V309.171C46.8841 309.174 46.8213 309.183 46.7553 309.183C46.4632 309.183 46.3092 309.086 46.3092 308.737V306.758H46.9312V306.306H46.3092V305.423H45.7438V306.306H45.2663V306.758H45.7438V308.74C45.7438 309.365 46.0391 309.636 46.6391 309.636ZM48.769 309.636C49.4821 309.636 50.0161 309.208 50.123 308.668L50.1292 308.637H49.592L49.5826 308.665C49.4884 308.944 49.1962 309.152 48.7816 309.152C48.2004 309.152 47.8297 308.759 47.8171 308.087H50.1701V307.886C50.1701 306.906 49.6266 306.243 48.7344 306.243C47.8423 306.243 47.2642 306.937 47.2642 307.949V307.952C47.2642 308.979 47.8297 309.636 48.769 309.636ZM48.7313 306.727C49.2088 306.727 49.5606 307.025 49.614 307.66H47.8266C47.8862 307.05 48.2569 306.727 48.7313 306.727ZM54.0435 309.648C55.3283 309.648 56.1294 308.747 56.1294 307.308V307.301C56.1294 305.866 55.3252 304.964 54.0435 304.964C52.7586 304.964 51.9513 305.866 51.9513 307.301V307.308C51.9513 308.747 52.7555 309.648 54.0435 309.648ZM54.0435 309.127C53.1136 309.127 52.5293 308.423 52.5293 307.308V307.301C52.5293 306.186 53.1168 305.486 54.0435 305.486C54.9671 305.486 55.5514 306.189 55.5514 307.301V307.308C55.5514 308.414 54.9765 309.127 54.0435 309.127ZM56.9242 309.573H57.4708V306.758H58.1368V306.306H57.4645V305.907C57.4645 305.583 57.6153 305.429 57.9169 305.429C58.0017 305.429 58.0865 305.432 58.1525 305.442V304.999C58.0708 304.986 57.942 304.977 57.8195 304.977C57.2164 304.977 56.9242 305.275 56.9242 305.904V306.306H56.4687V306.758H56.9242V309.573ZM60.1065 309.573H61.8186C62.783 309.573 63.3548 309.098 63.3548 308.3V308.294C63.3548 307.694 62.9589 307.254 62.3055 307.179V307.166C62.7736 307.1 63.1254 306.645 63.1254 306.177V306.171C63.1254 305.492 62.6008 305.04 61.8249 305.04H60.1065V309.573ZM61.6961 305.539C62.2427 305.539 62.5537 305.784 62.5537 306.23V306.237C62.5537 306.727 62.1893 306.994 61.5201 306.994H60.672V305.539H61.6961ZM61.6804 307.481C62.4029 307.481 62.7736 307.748 62.7736 308.272V308.278C62.7736 308.8 62.4123 309.073 61.7338 309.073H60.672V307.481H61.6804ZM64.2187 305.753C64.4103 305.753 64.5611 305.599 64.5611 305.41C64.5611 305.219 64.4103 305.068 64.2187 305.068C64.0302 305.068 63.8762 305.219 63.8762 305.41C63.8762 305.599 64.0302 305.753 64.2187 305.753ZM63.9453 309.573H64.492V306.306H63.9453V309.573ZM65.2365 309.573H65.7831V307.556C65.7831 307.06 66.0595 306.764 66.4836 306.764C66.6156 306.764 66.7318 306.78 66.7758 306.796V306.265C66.7318 306.259 66.6501 306.243 66.5559 306.243C66.1883 306.243 65.9056 306.482 65.7957 306.859H65.7831V306.306H65.2365V309.573ZM68.4408 309.636C68.5476 309.636 68.6638 309.623 68.7329 309.614V309.171C68.6858 309.174 68.623 309.183 68.557 309.183C68.2648 309.183 68.1109 309.086 68.1109 308.737V306.758H68.7329V306.306H68.1109V305.423H67.5454V306.306H67.0679V306.758H67.5454V308.74C67.5454 309.365 67.8407 309.636 68.4408 309.636ZM69.3486 309.573H69.8953V307.666C69.8953 307.11 70.2314 306.727 70.7372 306.727C71.2461 306.727 71.5477 307.075 71.5477 307.666V309.573H72.0943V307.572C72.0943 306.78 71.6199 306.243 70.9257 306.243C70.4387 306.243 70.0837 306.46 69.9078 306.827H69.8953V305.04H69.3486V309.573Z" fill="#484848"/>
<path d="M83.372 30.6353H84.2265V26.1744H84.2558L86.0778 30.6353H86.7731L88.5952 26.1744H88.6245V30.6353H89.479V24.5911H88.3983L86.438 29.4164H86.4129L84.4568 24.5911H83.372V30.6353ZM91.0036 32.1055C91.8665 32.1055 92.3272 31.7536 92.6539 30.8405L94.2959 26.2288H93.3409L92.2309 29.8143H92.2016L91.0916 26.2288H90.1114L91.7157 30.6394L91.6403 30.8489C91.4895 31.2761 91.2549 31.3892 90.8277 31.3892C90.7062 31.3892 90.6015 31.3724 90.5303 31.3557V32.0636C90.6392 32.0845 90.8277 32.1055 91.0036 32.1055ZM96.675 30.6353H97.6132V28.5703H98.9243C100.11 28.5703 100.931 27.7619 100.931 26.5807V26.5723C100.931 25.3869 100.11 24.5911 98.9243 24.5911H96.675V30.6353ZM98.6897 25.3827C99.5065 25.3827 99.9756 25.8225 99.9756 26.5765V26.5849C99.9756 27.343 99.5065 27.7828 98.6897 27.7828H97.6132V25.3827H98.6897ZM101.643 30.6353H102.547V28.009C102.547 27.3514 102.908 26.9702 103.49 26.9702C103.666 26.9702 103.825 26.9912 103.896 27.0205V26.1786C103.825 26.166 103.712 26.1451 103.582 26.1451C103.079 26.1451 102.711 26.4676 102.568 26.9828H102.547V26.2288H101.643V30.6353ZM106.158 30.7232C107.419 30.7232 108.248 29.852 108.248 28.432V28.4237C108.248 27.0121 107.41 26.1451 106.154 26.1451C104.901 26.1451 104.068 27.0163 104.068 28.4237V28.432C104.068 29.8478 104.893 30.7232 106.158 30.7232ZM106.162 29.9651C105.454 29.9651 104.994 29.408 104.994 28.432V28.4237C104.994 27.4603 105.458 26.9032 106.154 26.9032C106.862 26.9032 107.322 27.4603 107.322 28.4237V28.432C107.322 29.4038 106.87 29.9651 106.162 29.9651ZM109.211 30.6353H110.12V26.9493H111V26.2288H110.104V25.7765C110.104 25.3869 110.296 25.1901 110.703 25.1901C110.816 25.1901 110.929 25.1984 111.017 25.211V24.5408C110.895 24.5199 110.694 24.5031 110.51 24.5031C109.614 24.5031 109.211 24.9052 109.211 25.7597V26.2288H108.604V26.9493H109.211V30.6353ZM112.202 25.5503C112.5 25.5503 112.73 25.3157 112.73 25.0309C112.73 24.7419 112.5 24.5073 112.202 24.5073C111.909 24.5073 111.674 24.7419 111.674 25.0309C111.674 25.3157 111.909 25.5503 112.202 25.5503ZM111.75 30.6353H112.655V26.2288H111.75V30.6353ZM113.622 30.6353H114.527V24.5911H113.622V30.6353ZM117.337 30.7232C118.405 30.7232 119.084 30.0865 119.226 29.387L119.235 29.341H118.376L118.364 29.3745C118.25 29.7054 117.894 29.9818 117.358 29.9818C116.638 29.9818 116.181 29.496 116.165 28.6624H119.285V28.3567C119.285 27.0331 118.527 26.1451 117.291 26.1451C116.056 26.1451 115.26 27.0666 115.26 28.4446V28.4488C115.26 29.8394 116.043 30.7232 117.337 30.7232ZM117.295 26.8865C117.886 26.8865 118.313 27.2592 118.389 28.0216H116.177C116.257 27.2844 116.709 26.8865 117.295 26.8865Z" fill="#979797"/>
</g>
<rect x="1.98879" y="1.99367" width="198.372" height="432.666" rx="6.70177" stroke="black" stroke-width="2.68071"/>
<defs>
<filter id="filter0_d_206_2821" x="-20.7972" y="58.5568" width="243.944" height="396.744" filterUnits="userSpaceOnUse" color-interpolation-filters="sRGB">
<feFlood flood-opacity="0" result="BackgroundImageFix"/>
<feColorMatrix in="SourceAlpha" type="matrix" values="0 0 0 0 0 0 0 0 0 0 0 0 0 0 0 0 0 0 127 0" result="hardAlpha"/>
<feOffset dy="-2.14457"/>
<feGaussianBlur stdDeviation="10.7228"/>
<feComposite in2="hardAlpha" operator="out"/>
<feColorMatrix type="matrix" values="0 0 0 0 0 0 0 0 0 0 0 0 0 0 0 0 0 0 0.15 0"/>
<feBlend mode="normal" in2="BackgroundImageFix" result="effect1_dropShadow_206_2821"/>
<feBlend mode="normal" in="SourceGraphic" in2="effect1_dropShadow_206_2821" result="shape"/>
</filter>
<filter id="filter1_i_206_2821" x="13.5156" y="377.024" width="175.318" height="26.8071" filterUnits="userSpaceOnUse" color-interpolation-filters="sRGB">
<feFlood flood-opacity="0" result="BackgroundImageFix"/>
<feBlend mode="normal" in="SourceGraphic" in2="BackgroundImageFix" result="shape"/>
<feColorMatrix in="SourceAlpha" type="matrix" values="0 0 0 0 0 0 0 0 0 0 0 0 0 0 0 0 0 0 127 0" result="hardAlpha"/>
<feOffset/>
<feGaussianBlur stdDeviation="0.268071"/>
<feComposite in2="hardAlpha" operator="arithmetic" k2="-1" k3="1"/>
<feColorMatrix type="matrix" values="0 0 0 0 0 0 0 0 0 0 0 0 0 0 0 0 0 0 0.1 0"/>
<feBlend mode="normal" in2="shape" result="effect1_innerShadow_206_2821"/>
</filter>
<filter id="filter2_i_206_2821" x="14.9888" y="150.639" width="172.906" height="27.0752" filterUnits="userSpaceOnUse" color-interpolation-filters="sRGB">
<feFlood flood-opacity="0" result="BackgroundImageFix"/>
<feBlend mode="normal" in="SourceGraphic" in2="BackgroundImageFix" result="shape"/>
<feColorMatrix in="SourceAlpha" type="matrix" values="0 0 0 0 0 0 0 0 0 0 0 0 0 0 0 0 0 0 127 0" result="hardAlpha"/>
<feOffset/>
<feGaussianBlur stdDeviation="0.268071"/>
<feComposite in2="hardAlpha" operator="arithmetic" k2="-1" k3="1"/>
<feColorMatrix type="matrix" values="0 0 0 0 0 0 0 0 0 0 0 0 0 0 0 0 0 0 0.1 0"/>
<feBlend mode="normal" in2="shape" result="effect1_innerShadow_206_2821"/>
</filter>
<filter id="filter3_i_206_2821" x="14.9888" y="102.922" width="172.906" height="27.0752" filterUnits="userSpaceOnUse" color-interpolation-filters="sRGB">
<feFlood flood-opacity="0" result="BackgroundImageFix"/>
<feBlend mode="normal" in="SourceGraphic" in2="BackgroundImageFix" result="shape"/>
<feColorMatrix in="SourceAlpha" type="matrix" values="0 0 0 0 0 0 0 0 0 0 0 0 0 0 0 0 0 0 127 0" result="hardAlpha"/>
<feOffset/>
<feGaussianBlur stdDeviation="0.268071"/>
<feComposite in2="hardAlpha" operator="arithmetic" k2="-1" k3="1"/>
<feColorMatrix type="matrix" values="0 0 0 0 0 0 0 0 0 0 0 0 0 0 0 0 0 0 0.1 0"/>
<feBlend mode="normal" in2="shape" result="effect1_innerShadow_206_2821"/>
</filter>
<filter id="filter4_i_206_2821" x="14.9888" y="198.355" width="172.906" height="27.0752" filterUnits="userSpaceOnUse" color-interpolation-filters="sRGB">
<feFlood flood-opacity="0" result="BackgroundImageFix"/>
<feBlend mode="normal" in="SourceGraphic" in2="BackgroundImageFix" result="shape"/>
<feColorMatrix in="SourceAlpha" type="matrix" values="0 0 0 0 0 0 0 0 0 0 0 0 0 0 0 0 0 0 127 0" result="hardAlpha"/>
<feOffset/>
<feGaussianBlur stdDeviation="0.268071"/>
<feComposite in2="hardAlpha" operator="arithmetic" k2="-1" k3="1"/>
<feColorMatrix type="matrix" values="0 0 0 0 0 0 0 0 0 0 0 0 0 0 0 0 0 0 0.1 0"/>
<feBlend mode="normal" in2="shape" result="effect1_innerShadow_206_2821"/>
</filter>
<filter id="filter5_i_206_2821" x="15.5278" y="246.072" width="172.37" height="27.0752" filterUnits="userSpaceOnUse" color-interpolation-filters="sRGB">
<feFlood flood-opacity="0" result="BackgroundImageFix"/>
<feBlend mode="normal" in="SourceGraphic" in2="BackgroundImageFix" result="shape"/>
<feColorMatrix in="SourceAlpha" type="matrix" values="0 0 0 0 0 0 0 0 0 0 0 0 0 0 0 0 0 0 127 0" result="hardAlpha"/>
<feOffset/>
<feGaussianBlur stdDeviation="0.268071"/>
<feComposite in2="hardAlpha" operator="arithmetic" k2="-1" k3="1"/>
<feColorMatrix type="matrix" values="0 0 0 0 0 0 0 0 0 0 0 0 0 0 0 0 0 0 0.1 0"/>
<feBlend mode="normal" in2="shape" result="effect1_innerShadow_206_2821"/>
</filter>
<filter id="filter6_i_206_2821" x="14.9888" y="293.788" width="172.906" height="27.0752" filterUnits="userSpaceOnUse" color-interpolation-filters="sRGB">
<feFlood flood-opacity="0" result="BackgroundImageFix"/>
<feBlend mode="normal" in="SourceGraphic" in2="BackgroundImageFix" result="shape"/>
<feColorMatrix in="SourceAlpha" type="matrix" values="0 0 0 0 0 0 0 0 0 0 0 0 0 0 0 0 0 0 127 0" result="hardAlpha"/>
<feOffset/>
<feGaussianBlur stdDeviation="0.268071"/>
<feComposite in2="hardAlpha" operator="arithmetic" k2="-1" k3="1"/>
<feColorMatrix type="matrix" values="0 0 0 0 0 0 0 0 0 0 0 0 0 0 0 0 0 0 0.1 0"/>
<feBlend mode="normal" in2="shape" result="effect1_innerShadow_206_2821"/>
</filter>
<clipPath id="clip0_206_2821">
<rect x="0.648438" y="0.65332" width="201.053" height="435.347" rx="8.04212" fill="white"/>
</clipPath>
</defs>
</svg>
