<svg width="202" height="436" viewBox="0 0 202 436" fill="none" xmlns="http://www.w3.org/2000/svg">
<g clip-path="url(#clip0_206_2860)">
<rect x="0.947266" y="0.65332" width="201.053" height="435.347" rx="8.04212" fill="#FBFBFC"/>
<path d="M24.0011 27.9966H15.959" stroke="#413D4A" stroke-width="1.60842" stroke-linecap="round"/>
<path d="M18.6387 24.2437L15.4219 27.9966L18.6387 31.7496" stroke="#413D4A" stroke-width="1.60842" stroke-linecap="round" stroke-linejoin="round"/>
<path d="M94.2918 30.6353H95.2301V28.1053H97.827V27.3137H95.2301V25.3995H98.0657V24.5911H94.2918V30.6353ZM98.0155 30.6353H98.9998L99.5569 29.0017H101.886L102.439 30.6353H103.423L101.228 24.5911H100.214L98.0155 30.6353ZM100.713 25.5922H100.73L101.63 28.2477H99.8082L100.713 25.5922ZM106.489 30.7358C106.883 30.7358 107.243 30.6771 107.565 30.5599L108.081 31.2761H109.057L108.261 30.1745C108.939 29.6426 109.321 28.7546 109.321 27.6153V27.6069C109.321 25.6927 108.231 24.4906 106.489 24.4906C104.751 24.4906 103.658 25.6885 103.658 27.6069V27.6153C103.658 29.5378 104.747 30.7358 106.489 30.7358ZM106.489 29.9064C105.341 29.9064 104.617 29.0226 104.617 27.6153V27.6069C104.617 26.1995 105.346 25.3199 106.489 25.3199C107.637 25.3199 108.357 26.2037 108.357 27.6069V27.6153C108.357 28.4027 108.131 29.031 107.725 29.4289L107.26 28.7839H106.288L107.042 29.831C106.87 29.8813 106.686 29.9064 106.489 29.9064Z" fill="#979797"/>
<rect x="17.5674" y="55.3399" width="168.348" height="168.348" rx="4.82527" fill="#E9E9E9" stroke="#888888" stroke-width="1.07228" stroke-dasharray="5.36 5.36"/>
<path d="M97.7563 113.114C95.8042 113.114 94.2246 111.534 94.2246 109.582C94.2246 107.63 95.8042 106.05 97.7563 106.05C99.7083 106.05 101.288 107.63 101.288 109.582C101.288 111.534 99.7083 113.114 97.7563 113.114ZM97.7563 107.977C96.8702 107.977 96.151 108.696 96.151 109.582C96.151 110.468 96.8702 111.187 97.7563 111.187C98.6424 111.187 99.3616 110.468 99.3616 109.582C99.3616 108.696 98.6424 107.977 97.7563 107.977Z" fill="#979797"/>
<path d="M105.461 128.523H97.7556C90.7822 128.523 87.8027 125.544 87.8027 118.57V110.865C87.8027 103.892 90.7822 100.912 97.7556 100.912H102.893C103.419 100.912 103.856 101.349 103.856 101.875C103.856 102.402 103.419 102.838 102.893 102.838H97.7556C91.8353 102.838 89.7291 104.945 89.7291 110.865V118.57C89.7291 124.491 91.8353 126.597 97.7556 126.597H105.461C111.381 126.597 113.488 124.491 113.488 118.57V112.149C113.488 111.623 113.924 111.186 114.451 111.186C114.977 111.186 115.414 111.623 115.414 112.149V118.57C115.414 125.544 112.435 128.523 105.461 128.523Z" fill="#979797"/>
<path d="M113.486 106.691H106.422C105.896 106.691 105.459 106.254 105.459 105.727C105.459 105.201 105.896 104.764 106.422 104.764H113.486C114.012 104.764 114.449 105.201 114.449 105.727C114.449 106.254 114.012 106.691 113.486 106.691Z" fill="#979797"/>
<path d="M109.955 110.224C109.429 110.224 108.992 109.787 108.992 109.261V102.198C108.992 101.671 109.429 101.234 109.955 101.234C110.482 101.234 110.919 101.671 110.919 102.198V109.261C110.919 109.787 110.482 110.224 109.955 110.224Z" fill="#979797"/>
<path d="M89.6259 124.608C89.3177 124.608 89.0095 124.453 88.8297 124.184C88.5343 123.747 88.6499 123.143 89.0865 122.848L95.4179 118.597C96.8048 117.673 98.7184 117.775 99.9769 118.841L100.401 119.214C101.043 119.766 102.134 119.766 102.764 119.214L108.106 114.629C109.48 113.46 111.612 113.46 112.986 114.629L115.08 116.427C115.478 116.774 115.529 117.377 115.182 117.788C114.836 118.186 114.232 118.238 113.821 117.891L111.728 116.093C111.086 115.541 109.994 115.541 109.365 116.093L104.022 120.678C102.661 121.846 100.516 121.846 99.1422 120.678L98.7184 120.305C98.1276 119.804 97.1516 119.753 96.4966 120.203L90.1781 124.453C89.9983 124.556 89.8057 124.608 89.6259 124.608Z" fill="#979797"/>
<path d="M43.4241 150.891C44.7545 150.891 45.5608 150.103 45.5608 148.945V145.515H44.7435V148.879C44.7435 149.649 44.2671 150.166 43.4241 150.166C42.5812 150.166 42.101 149.649 42.101 148.879V145.515H41.2801V148.945C41.2801 150.103 42.0974 150.891 43.4241 150.891ZM46.4404 152.086H47.2321V150.155H47.2504C47.4776 150.602 47.9211 150.88 48.4672 150.88C49.4348 150.88 50.0688 150.107 50.0688 148.879V148.876C50.0688 147.644 49.4384 146.875 48.4562 146.875C47.9064 146.875 47.4813 147.153 47.2504 147.611H47.2321V146.948H46.4404V152.086ZM48.251 150.199C47.6536 150.199 47.2284 149.678 47.2284 148.879V148.876C47.2284 148.073 47.6499 147.553 48.251 147.553C48.8703 147.553 49.2625 148.055 49.2625 148.876V148.879C49.2625 149.693 48.874 150.199 48.251 150.199ZM50.7139 150.803H51.5055V145.515H50.7139V150.803ZM53.9757 150.88C55.0789 150.88 55.8046 150.118 55.8046 148.876V148.868C55.8046 147.633 55.0716 146.875 53.9721 146.875C52.8762 146.875 52.1469 147.637 52.1469 148.868V148.876C52.1469 150.114 52.8689 150.88 53.9757 150.88ZM53.9794 150.217C53.36 150.217 52.9569 149.73 52.9569 148.876V148.868C52.9569 148.025 53.3637 147.538 53.9721 147.538C54.5915 147.538 54.9946 148.025 54.9946 148.868V148.876C54.9946 149.726 54.5988 150.217 53.9794 150.217ZM57.5491 150.873C58.0586 150.873 58.5057 150.609 58.7293 150.195H58.7439V150.803H59.5392V148.146C59.5392 147.373 58.9418 146.875 57.9999 146.875C57.0507 146.875 56.4753 147.384 56.4203 148.047L56.4166 148.088H57.1643L57.1716 148.055C57.2376 147.747 57.5198 147.531 57.9779 147.531C58.4691 147.531 58.7439 147.787 58.7439 148.212V148.502L57.6957 148.564C56.7831 148.619 56.2627 149.03 56.2627 149.7V149.708C56.2627 150.4 56.7795 150.873 57.5491 150.873ZM57.0617 149.689V149.682C57.0617 149.356 57.3256 149.147 57.802 149.118L58.7439 149.059V149.359C58.7439 149.862 58.3225 150.239 57.7654 150.239C57.3402 150.239 57.0617 150.026 57.0617 149.689ZM61.7493 150.88C62.3027 150.88 62.7278 150.602 62.9587 150.151H62.9734V150.803H63.7687V145.515H62.9734V147.604H62.9587C62.7278 147.149 62.288 146.875 61.7419 146.875C60.7744 146.875 60.1366 147.644 60.1366 148.872V148.876C60.1366 150.103 60.767 150.88 61.7493 150.88ZM61.9582 150.199C61.3314 150.199 60.9466 149.697 60.9466 148.876V148.872C60.9466 148.058 61.3351 147.553 61.9582 147.553C62.5519 147.553 62.977 148.073 62.977 148.872V148.876C62.977 149.678 62.5556 150.199 61.9582 150.199ZM67.2395 150.873C67.7489 150.873 68.196 150.609 68.4196 150.195H68.4343V150.803H69.2296V148.146C69.2296 147.373 68.6322 146.875 67.6903 146.875C66.741 146.875 66.1656 147.384 66.1106 148.047L66.107 148.088H66.8546L66.862 148.055C66.9279 147.747 67.2101 147.531 67.6683 147.531C68.1594 147.531 68.4343 147.787 68.4343 148.212V148.502L67.3861 148.564C66.4735 148.619 65.953 149.03 65.953 149.7V149.708C65.953 150.4 66.4698 150.873 67.2395 150.873ZM66.752 149.689V149.682C66.752 149.356 67.0159 149.147 67.4924 149.118L68.4343 149.059V149.359C68.4343 149.862 68.0128 150.239 67.4557 150.239C67.0306 150.239 66.752 150.026 66.752 149.689ZM73.1805 150.88C74.1077 150.88 74.7528 150.287 74.8371 149.513L74.8407 149.488H74.0784L74.0747 149.517C73.9795 149.935 73.6679 150.217 73.1805 150.217C72.5684 150.217 72.1616 149.722 72.1616 148.879V148.876C72.1616 148.051 72.5611 147.538 73.1768 147.538C73.6936 147.538 73.9868 147.857 74.0711 148.234L74.0784 148.264H74.8334L74.8297 148.238C74.7638 147.512 74.1627 146.875 73.1695 146.875C72.07 146.875 71.3516 147.648 71.3516 148.868V148.872C71.3516 150.107 72.0553 150.88 73.1805 150.88ZM75.4308 150.803H76.2224V145.515H75.4308V150.803ZM78.6817 150.88C79.6163 150.88 80.21 150.323 80.3346 149.711L80.3419 149.671H79.5906L79.5796 149.7C79.4807 149.99 79.1691 150.232 78.7 150.232C78.0696 150.232 77.6701 149.807 77.6555 149.077H80.3859V148.81C80.3859 147.652 79.7225 146.875 78.6414 146.875C77.5602 146.875 76.8638 147.681 76.8638 148.887V148.89C76.8638 150.107 77.5492 150.88 78.6817 150.88ZM78.645 147.523C79.1618 147.523 79.5356 147.849 79.6016 148.516H77.6665C77.7361 147.871 78.1319 147.523 78.645 147.523ZM82.1341 150.873C82.6436 150.873 83.0907 150.609 83.3143 150.195H83.3289V150.803H84.1242V148.146C84.1242 147.373 83.5268 146.875 82.5849 146.875C81.6357 146.875 81.0603 147.384 81.0053 148.047L81.0016 148.088H81.7493L81.7566 148.055C81.8226 147.747 82.1048 147.531 82.5629 147.531C83.0541 147.531 83.3289 147.787 83.3289 148.212V148.502L82.2807 148.564C81.3681 148.619 80.8477 149.03 80.8477 149.7V149.708C80.8477 150.4 81.3645 150.873 82.1341 150.873ZM81.6467 149.689V149.682C81.6467 149.356 81.9106 149.147 82.387 149.118L83.3289 149.059V149.359C83.3289 149.862 82.9075 150.239 82.3504 150.239C81.9252 150.239 81.6467 150.026 81.6467 149.689ZM84.8939 150.803H85.6856V148.505C85.6856 147.93 86.0007 147.597 86.5102 147.597C86.6641 147.597 86.8034 147.615 86.8657 147.641V146.904C86.8034 146.893 86.7044 146.875 86.5908 146.875C86.151 146.875 85.8285 147.157 85.7039 147.608H85.6856V146.948H84.8939V150.803ZM88.8815 152.086H89.6731V150.155H89.6914C89.9187 150.602 90.3621 150.88 90.9082 150.88C91.8758 150.88 92.5098 150.107 92.5098 148.879V148.876C92.5098 147.644 91.8794 146.875 90.8972 146.875C90.3475 146.875 89.9223 147.153 89.6914 147.611H89.6731V146.948H88.8815V152.086ZM90.692 150.199C90.0946 150.199 89.6694 149.678 89.6694 148.879V148.876C89.6694 148.073 90.0909 147.553 90.692 147.553C91.3114 147.553 91.7035 148.055 91.7035 148.876V148.879C91.7035 149.693 91.315 150.199 90.692 150.199ZM93.5544 146.354C93.8146 146.354 94.0162 146.149 94.0162 145.9C94.0162 145.647 93.8146 145.442 93.5544 145.442C93.2978 145.442 93.0926 145.647 93.0926 145.9C93.0926 146.149 93.2978 146.354 93.5544 146.354ZM93.1585 150.803H93.9502V146.948H93.1585V150.803ZM96.4241 150.88C97.3513 150.88 97.9964 150.287 98.0807 149.513L98.0843 149.488H97.322L97.3183 149.517C97.2231 149.935 96.9115 150.217 96.4241 150.217C95.812 150.217 95.4052 149.722 95.4052 148.879V148.876C95.4052 148.051 95.8047 147.538 96.4204 147.538C96.9372 147.538 97.2304 147.857 97.3147 148.234L97.322 148.264H98.077L98.0733 148.238C98.0074 147.512 97.4063 146.875 96.4131 146.875C95.3136 146.875 94.5952 147.648 94.5952 148.868V148.872C94.5952 150.107 95.2989 150.88 96.4241 150.88ZM99.9975 150.88C100.159 150.88 100.309 150.862 100.401 150.847V150.235C100.342 150.243 100.272 150.25 100.188 150.25C99.8546 150.25 99.6786 150.133 99.6786 149.741V147.578H100.401V146.948H99.6786V145.944H98.8687V146.948H98.3152V147.578H98.8687V149.788C98.8687 150.558 99.2352 150.88 99.9975 150.88ZM102.369 150.88C102.955 150.88 103.347 150.613 103.549 150.224H103.567V150.803H104.363V146.948H103.567V149.198C103.567 149.799 103.208 150.199 102.651 150.199C102.101 150.199 101.83 149.876 101.83 149.293V146.948H101.038V149.447C101.038 150.334 101.522 150.88 102.369 150.88ZM105.147 150.803H105.938V148.505C105.938 147.93 106.254 147.597 106.763 147.597C106.917 147.597 107.056 147.615 107.119 147.641V146.904C107.056 146.893 106.957 146.875 106.844 146.875C106.404 146.875 106.081 147.157 105.957 147.608H105.938V146.948H105.147V150.803ZM109.087 150.88C110.021 150.88 110.615 150.323 110.74 149.711L110.747 149.671H109.996L109.985 149.7C109.886 149.99 109.574 150.232 109.105 150.232C108.475 150.232 108.075 149.807 108.061 149.077H110.791V148.81C110.791 147.652 110.128 146.875 109.046 146.875C107.965 146.875 107.269 147.681 107.269 148.887V148.89C107.269 150.107 107.954 150.88 109.087 150.88ZM109.05 147.523C109.567 147.523 109.941 147.849 110.007 148.516H108.072C108.141 147.871 108.537 147.523 109.05 147.523ZM114.588 150.88C115.691 150.88 116.417 150.118 116.417 148.876V148.868C116.417 147.633 115.684 146.875 114.584 146.875C113.488 146.875 112.759 147.637 112.759 148.868V148.876C112.759 150.114 113.481 150.88 114.588 150.88ZM114.592 150.217C113.972 150.217 113.569 149.73 113.569 148.876V148.868C113.569 148.025 113.976 147.538 114.584 147.538C115.204 147.538 115.607 148.025 115.607 148.868V148.876C115.607 149.726 115.211 150.217 114.592 150.217ZM117.26 150.803H118.055V147.578H118.825V146.948H118.04V146.552C118.04 146.211 118.209 146.039 118.565 146.039C118.663 146.039 118.762 146.046 118.839 146.057V145.471C118.733 145.453 118.557 145.438 118.396 145.438C117.612 145.438 117.26 145.79 117.26 146.537V146.948H116.728V147.578H117.26V150.803ZM121.427 152.09C122.182 152.09 122.585 151.782 122.871 150.983L124.308 146.948H123.472L122.501 150.085H122.475L121.504 146.948H120.646L122.05 150.807L121.984 150.99C121.852 151.364 121.647 151.463 121.273 151.463C121.167 151.463 121.075 151.449 121.013 151.434V152.053C121.108 152.072 121.273 152.09 121.427 152.09ZM126.279 150.88C127.383 150.88 128.108 150.118 128.108 148.876V148.868C128.108 147.633 127.375 146.875 126.276 146.875C125.18 146.875 124.451 147.637 124.451 148.868V148.876C124.451 150.114 125.173 150.88 126.279 150.88ZM126.283 150.217C125.664 150.217 125.261 149.73 125.261 148.876V148.868C125.261 148.025 125.667 147.538 126.276 147.538C126.895 147.538 127.298 148.025 127.298 148.868V148.876C127.298 149.726 126.902 150.217 126.283 150.217ZM130.032 150.88C130.619 150.88 131.011 150.613 131.213 150.224H131.231V150.803H132.026V146.948H131.231V149.198C131.231 149.799 130.872 150.199 130.315 150.199C129.765 150.199 129.494 149.876 129.494 149.293V146.948H128.702V149.447C128.702 150.334 129.186 150.88 130.032 150.88ZM132.81 150.803H133.602V148.505C133.602 147.93 133.917 147.597 134.427 147.597C134.581 147.597 134.72 147.615 134.782 147.641V146.904C134.72 146.893 134.621 146.875 134.507 146.875C134.068 146.875 133.745 147.157 133.62 147.608H133.602V146.948H132.81V150.803ZM136.717 150.88C137.626 150.88 138.286 150.397 138.286 149.693V149.689C138.286 149.136 137.986 148.824 137.198 148.641L136.571 148.498C136.157 148.399 135.999 148.238 135.999 148V147.996C135.999 147.688 136.267 147.487 136.692 147.487C137.139 147.487 137.403 147.721 137.45 148.058L137.454 148.084H138.198L138.194 148.04C138.154 147.384 137.604 146.875 136.692 146.875C135.805 146.875 135.204 147.347 135.204 148.036V148.04C135.204 148.601 135.567 148.953 136.3 149.121L136.93 149.264C137.344 149.363 137.483 149.506 137.483 149.755V149.759C137.483 150.07 137.198 150.268 136.721 150.268C136.234 150.268 135.97 150.059 135.896 149.704L135.889 149.667H135.105L135.108 149.7C135.189 150.404 135.754 150.88 136.717 150.88ZM140.547 150.88C141.482 150.88 142.076 150.323 142.2 149.711L142.208 149.671H141.456L141.445 149.7C141.346 149.99 141.035 150.232 140.566 150.232C139.935 150.232 139.536 149.807 139.521 149.077H142.252V148.81C142.252 147.652 141.588 146.875 140.507 146.875C139.426 146.875 138.729 147.681 138.729 148.887V148.89C138.729 150.107 139.415 150.88 140.547 150.88ZM140.511 147.523C141.027 147.523 141.401 147.849 141.467 148.516H139.532C139.602 147.871 139.998 147.523 140.511 147.523ZM142.897 150.803H143.688V145.515H142.897V150.803ZM144.733 150.803H145.528V147.578H146.298V146.948H145.513V146.552C145.513 146.211 145.682 146.039 146.038 146.039C146.137 146.039 146.235 146.046 146.312 146.057V145.471C146.206 145.453 146.03 145.438 145.869 145.438C145.085 145.438 144.733 145.79 144.733 146.537V146.948H144.201V147.578H144.733V150.803ZM148.475 150.803H149.266V148.571C149.266 147.97 149.629 147.553 150.175 147.553C150.732 147.553 151.055 147.934 151.055 148.571V150.803H151.847V148.421C151.847 147.49 151.304 146.875 150.48 146.875C149.904 146.875 149.49 147.135 149.285 147.582H149.266V145.515H148.475V150.803ZM154.262 150.88C155.196 150.88 155.79 150.323 155.915 149.711L155.922 149.671H155.171L155.16 149.7C155.061 149.99 154.749 150.232 154.28 150.232C153.65 150.232 153.25 149.807 153.236 149.077H155.966V148.81C155.966 147.652 155.303 146.875 154.222 146.875C153.14 146.875 152.444 147.681 152.444 148.887V148.89C152.444 150.107 153.129 150.88 154.262 150.88ZM154.225 147.523C154.742 147.523 155.116 147.849 155.182 148.516H153.247C153.316 147.871 153.712 147.523 154.225 147.523ZM156.582 150.803H157.374V148.505C157.374 147.93 157.689 147.597 158.198 147.597C158.352 147.597 158.491 147.615 158.554 147.641V146.904C158.491 146.893 158.392 146.875 158.279 146.875C157.839 146.875 157.516 147.157 157.392 147.608H157.374V146.948H156.582V150.803ZM160.522 150.88C161.456 150.88 162.05 150.323 162.175 149.711L162.182 149.671H161.431L161.42 149.7C161.321 149.99 161.009 150.232 160.54 150.232C159.91 150.232 159.51 149.807 159.496 149.077H162.226V148.81C162.226 147.652 161.563 146.875 160.481 146.875C159.4 146.875 158.704 147.681 158.704 148.887V148.89C158.704 150.107 159.389 150.88 160.522 150.88ZM160.485 147.523C161.002 147.523 161.376 147.849 161.442 148.516H159.507C159.576 147.871 159.972 147.523 160.485 147.523Z" fill="black"/>
<g filter="url(#filter0_i_206_2860)">
<path fill-rule="evenodd" clip-rule="evenodd" d="M13.8125 348.073C13.8125 345.704 15.7328 343.784 18.1016 343.784H184.842C187.21 343.784 189.131 345.704 189.131 348.073V366.302C189.131 368.67 187.21 370.591 184.842 370.591H18.1016C15.7328 370.591 13.8125 368.67 13.8125 366.302V348.073Z" fill="#D8D8D8"/>
</g>
<path d="M81.2032 359.917C82.5666 359.917 83.4169 359.129 83.4169 357.957V354.537H82.31V357.858C82.31 358.543 81.9142 358.979 81.2032 358.979C80.4922 358.979 80.0927 358.543 80.0927 357.858V354.537H78.9859V357.957C78.9859 359.133 79.8471 359.917 81.2032 359.917ZM84.2085 361.108H85.2787V359.155H85.3007C85.5133 359.62 85.9567 359.906 86.5175 359.906C87.4997 359.906 88.1081 359.137 88.1081 357.861V357.858C88.1081 356.578 87.4997 355.816 86.5028 355.816C85.9457 355.816 85.5169 356.106 85.3044 356.582H85.2787V355.897H84.2085V361.108ZM86.151 359.019C85.6306 359.019 85.275 358.572 85.275 357.865V357.861C85.275 357.15 85.6306 356.703 86.151 356.703C86.6824 356.703 87.0196 357.139 87.0196 357.858V357.861C87.0196 358.576 86.6824 359.019 86.151 359.019ZM88.6909 359.826H89.761V354.537H88.6909V359.826ZM92.2862 359.906C93.4737 359.906 94.2324 359.144 94.2324 357.861V357.854C94.2324 356.582 93.4591 355.816 92.2826 355.816C91.1098 355.816 90.3401 356.589 90.3401 357.854V357.861C90.3401 359.14 91.0914 359.906 92.2862 359.906ZM92.2899 359.067C91.7621 359.067 91.4286 358.631 91.4286 357.861V357.854C91.4286 357.095 91.7658 356.655 92.2826 356.655C92.803 356.655 93.1439 357.095 93.1439 357.854V357.861C93.1439 358.627 92.8103 359.067 92.2899 359.067ZM95.9549 359.888C96.4717 359.888 96.8895 359.642 97.1131 359.239H97.1351V359.826H98.2053V357.132C98.2053 356.34 97.5492 355.816 96.534 355.816C95.4968 355.816 94.8738 356.337 94.8151 357.062L94.8114 357.106H95.79L95.7973 357.073C95.8487 356.82 96.0905 356.633 96.49 356.633C96.9078 356.633 97.1351 356.85 97.1351 357.198V357.44L96.1638 357.498C95.1889 357.561 94.6355 357.979 94.6355 358.693V358.701C94.6355 359.393 95.167 359.888 95.9549 359.888ZM95.6947 358.646V358.638C95.6947 358.36 95.911 358.184 96.3251 358.158L97.1351 358.107V358.389C97.1351 358.799 96.7832 359.107 96.3031 359.107C95.9329 359.107 95.6947 358.935 95.6947 358.646ZM100.353 359.906C100.921 359.906 101.354 359.62 101.562 359.155H101.584V359.826H102.655V354.537H101.584V356.578H101.562C101.35 356.102 100.91 355.816 100.353 355.816C99.3634 355.816 98.755 356.578 98.755 357.858V357.861C98.755 359.137 99.3634 359.906 100.353 359.906ZM100.712 359.019C100.177 359.019 99.8435 358.576 99.8435 357.861V357.858C99.8435 357.139 100.181 356.703 100.712 356.703C101.229 356.703 101.588 357.15 101.588 357.858V357.861C101.588 358.572 101.233 359.019 100.712 359.019ZM104.949 359.826H106.056V358.158H107.075C108.189 358.158 108.933 357.44 108.933 356.351V356.344C108.933 355.255 108.189 354.537 107.075 354.537H104.949V359.826ZM106.803 355.413C107.437 355.413 107.811 355.747 107.811 356.348V356.355C107.811 356.956 107.437 357.293 106.803 357.293H106.056V355.413H106.803ZM109.523 359.826H110.593V357.575C110.593 357.062 110.897 356.703 111.37 356.703C111.857 356.703 112.129 357.029 112.129 357.579V359.826H113.199V357.359C113.199 356.41 112.671 355.816 111.821 355.816C111.231 355.816 110.817 356.087 110.615 356.575H110.593V354.537H109.523V359.826ZM115.691 359.906C116.879 359.906 117.637 359.144 117.637 357.861V357.854C117.637 356.582 116.864 355.816 115.687 355.816C114.515 355.816 113.745 356.589 113.745 357.854V357.861C113.745 359.14 114.496 359.906 115.691 359.906ZM115.695 359.067C115.167 359.067 114.833 358.631 114.833 357.861V357.854C114.833 357.095 115.171 356.655 115.687 356.655C116.208 356.655 116.549 357.095 116.549 357.854V357.861C116.549 358.627 116.215 359.067 115.695 359.067ZM119.752 359.906C119.976 359.906 120.148 359.884 120.269 359.866V359.082C120.203 359.089 120.133 359.1 120.038 359.1C119.715 359.1 119.55 358.975 119.55 358.609V356.703H120.269V355.897H119.55V354.937H118.469V355.897H117.923V356.703H118.469V358.726C118.469 359.569 118.88 359.906 119.752 359.906ZM122.603 359.906C123.791 359.906 124.549 359.144 124.549 357.861V357.854C124.549 356.582 123.776 355.816 122.6 355.816C121.427 355.816 120.657 356.589 120.657 357.854V357.861C120.657 359.14 121.409 359.906 122.603 359.906ZM122.607 359.067C122.079 359.067 121.746 358.631 121.746 357.861V357.854C121.746 357.095 122.083 356.655 122.6 356.655C123.12 356.655 123.461 357.095 123.461 357.854V357.861C123.461 358.627 123.127 359.067 122.607 359.067Z" fill="black"/>
<g filter="url(#filter1_d_206_2860)">
<rect x="0.947266" y="390.964" width="201.053" height="45.0359" fill="white"/>
<rect x="66.3564" y="426.349" width="71.8429" height="2.68071" rx="1.34035" fill="#1E272E"/>
<path d="M28.7355 402.764L25.2237 399.955C24.5375 399.408 23.4652 399.403 22.7843 399.949L19.2726 402.764C18.7686 403.166 18.463 403.971 18.5702 404.603L19.2458 408.646C19.4012 409.552 20.243 410.265 21.1598 410.265H26.8429C27.749 410.265 28.6068 409.536 28.7623 408.64L29.4378 404.598C29.5343 403.971 29.2287 403.166 28.7355 402.764ZM24.4034 408.12C24.4034 408.34 24.2211 408.522 24.0013 408.522C23.7815 408.522 23.5992 408.34 23.5992 408.12V406.512C23.5992 406.292 23.7815 406.11 24.0013 406.11C24.2211 406.11 24.4034 406.292 24.4034 406.512V408.12Z" fill="black"/>
<path d="M17.2874 419.482H18.078V417.89H19.7796V419.482H20.5702V415.704H19.7796V417.238H18.078V415.704H17.2874V419.482ZM22.4211 419.54C23.2693 419.54 23.8112 418.995 23.8112 418.079V418.074C23.8112 417.165 23.2588 416.618 22.4185 416.618C21.5807 416.618 21.031 417.17 21.031 418.074V418.079C21.031 418.992 21.5677 419.54 22.4211 419.54ZM22.4237 418.94C22.0467 418.94 21.8085 418.629 21.8085 418.079V418.074C21.8085 417.532 22.0493 417.217 22.4185 417.217C22.7902 417.217 23.0337 417.532 23.0337 418.074V418.079C23.0337 418.626 22.7954 418.94 22.4237 418.94ZM24.2065 419.482H24.9709V417.788C24.9709 417.471 25.1672 417.252 25.4578 417.252C25.7405 417.252 25.9107 417.43 25.9107 417.731V419.482H26.6463V417.775C26.6463 417.464 26.8374 417.252 27.128 417.252C27.4238 417.252 27.5862 417.43 27.5862 417.754V419.482H28.3506V417.563C28.3506 416.998 27.9815 416.618 27.4317 416.618C27.0207 416.618 26.6856 416.843 26.5599 417.197H26.5442C26.45 416.827 26.1646 416.618 25.772 416.618C25.395 416.618 25.1018 416.827 24.9866 417.147H24.9709V416.676H24.2065V419.482ZM30.1124 419.54C30.9135 419.54 31.3009 419.066 31.3873 418.652L31.3952 418.623H30.6936L30.6883 418.639C30.6334 418.796 30.4423 418.969 30.1281 418.969C29.738 418.969 29.4946 418.707 29.4867 418.259H31.4187V418.024C31.4187 417.176 30.903 416.618 30.081 416.618C29.259 416.618 28.7328 417.189 28.7328 418.081V418.084C28.7328 418.982 29.2537 419.54 30.1124 419.54ZM30.0941 417.189C30.4108 417.189 30.6386 417.39 30.6857 417.778H29.4946C29.5443 417.398 29.7799 417.189 30.0941 417.189Z" fill="#333333"/>
<path d="M67.8859 419.545C68.7498 419.545 69.2813 419.121 69.2813 418.45V418.448C69.2813 417.872 68.9567 417.558 68.1818 417.388L67.7629 417.296C67.2707 417.189 67.043 416.995 67.043 416.686V416.683C67.043 416.32 67.3728 416.079 67.8781 416.076C68.3572 416.076 68.6792 416.304 68.7368 416.689L68.742 416.725H69.2132L69.2106 416.686C69.1687 416.068 68.6294 415.642 67.8912 415.642C67.1137 415.642 66.5639 416.076 66.5613 416.697V416.699C66.5613 417.252 66.9069 417.584 67.6451 417.746L68.064 417.838C68.5823 417.953 68.7996 418.139 68.7996 418.471V418.474C68.7996 418.864 68.4566 419.11 67.9121 419.11C67.365 419.11 66.9985 418.877 66.9435 418.498L66.9383 418.461H66.4671L66.4697 418.498C66.5168 419.144 67.0692 419.545 67.8859 419.545ZM70.5588 419.534C70.9227 419.534 71.2499 419.338 71.4096 419.04H71.4201V419.482H71.8756V417.6C71.8756 417.055 71.4724 416.707 70.8284 416.707C70.1871 416.707 69.797 417.068 69.7577 417.516L69.7551 417.545H70.1949L70.2001 417.521C70.2525 417.278 70.4724 417.11 70.8232 417.11C71.2028 417.11 71.4201 417.312 71.4201 417.644V417.872L70.64 417.916C70.0143 417.953 69.653 418.244 69.653 418.707V418.712C69.653 419.207 70.0169 419.534 70.5588 419.534ZM70.119 418.712V418.707C70.119 418.453 70.3284 418.291 70.6923 418.27L71.4201 418.225V418.448C71.4201 418.843 71.0902 419.139 70.6609 419.139C70.3337 419.139 70.119 418.974 70.119 418.712ZM73.2212 419.482H73.6872L74.6872 416.759H74.2134L73.4594 418.998H73.4489L72.6976 416.759H72.2185L73.2212 419.482ZM75.3024 416.299C75.4621 416.299 75.5877 416.17 75.5877 416.013C75.5877 415.854 75.4621 415.728 75.3024 415.728C75.1453 415.728 75.017 415.854 75.017 416.013C75.017 416.17 75.1453 416.299 75.3024 416.299ZM75.0746 419.482H75.5301V416.759H75.0746V419.482ZM76.1506 419.482H76.6061V417.88C76.6061 417.416 76.8862 417.11 77.3155 417.11C77.7344 417.11 77.9412 417.354 77.9412 417.796V419.482H78.3967V417.715C78.3967 417.094 78.0512 416.707 77.4543 416.707C77.0407 416.707 76.7632 416.893 76.6166 417.147H76.6061V416.759H76.1506V419.482ZM80.1298 420.451C80.868 420.451 81.3314 420.037 81.3314 419.406V416.759H80.8759V417.22H80.8654C80.6978 416.916 80.3942 416.707 80.0093 416.707C79.3182 416.707 78.8444 417.257 78.8444 418.102V418.105C78.8444 418.956 79.313 419.508 79.9989 419.508C80.3889 419.508 80.7031 419.314 80.8654 419.013H80.8759V419.362C80.8759 419.783 80.6036 420.047 80.1245 420.047C79.7528 420.047 79.4936 419.927 79.4072 419.731L79.3968 419.707H78.9386L78.9439 419.731C79.0329 420.134 79.457 420.451 80.1298 420.451ZM80.0983 419.105C79.614 419.105 79.3104 418.723 79.3104 418.105V418.102C79.3104 417.498 79.614 417.11 80.0983 417.11C80.5591 417.11 80.8759 417.503 80.8759 418.102V418.105C80.8759 418.71 80.5617 419.105 80.0983 419.105ZM82.8864 419.534C83.4937 419.534 83.944 419.199 83.944 418.723V418.72C83.944 418.333 83.745 418.115 83.1953 417.982L82.7633 417.877C82.4623 417.804 82.3392 417.676 82.3392 417.49V417.487C82.3392 417.246 82.5434 417.087 82.8733 417.087C83.211 417.087 83.4126 417.262 83.4492 417.526L83.4518 417.545H83.8864L83.8838 417.511C83.8498 417.055 83.4702 416.707 82.8733 416.707C82.2843 416.707 81.8733 417.039 81.8733 417.508V417.511C81.8733 417.903 82.122 418.142 82.6351 418.265L83.067 418.369C83.3759 418.445 83.478 418.555 83.478 418.752V418.754C83.478 419 83.2581 419.155 82.889 419.155C82.5173 419.155 82.3157 418.995 82.2607 418.723L82.2555 418.697H81.8L81.8026 418.72C81.8576 419.207 82.245 419.534 82.8864 419.534Z" fill="#718096"/>
<path d="M80.2963 410.667H71.1819C70.0721 410.667 69.1714 409.766 69.1714 408.657V399.542C69.1714 399.322 69.3537 399.14 69.5735 399.14C69.7933 399.14 69.9756 399.322 69.9756 399.542V408.657C69.9756 409.321 70.5171 409.863 71.1819 409.863H80.2963C80.5161 409.863 80.6984 410.045 80.6984 410.265C80.6984 410.485 80.5161 410.667 80.2963 410.667Z" fill="#E8E8E8"/>
<path d="M71.1818 407.986C71.0907 407.986 70.9941 407.954 70.9191 407.89C70.7529 407.745 70.7314 407.493 70.8762 407.322L73.3371 404.448C73.6052 404.137 73.9912 403.949 74.3986 403.933C74.8061 403.922 75.2082 404.072 75.4977 404.362L76.0071 404.871C76.1411 405.005 76.3127 405.07 76.5057 405.07C76.6933 405.064 76.8649 404.979 76.9882 404.834L79.4491 401.96C79.5939 401.794 79.8458 401.772 80.0174 401.917C80.1836 402.062 80.2051 402.314 80.0603 402.486L77.5994 405.359C77.3313 405.67 76.9453 405.858 76.5378 405.874C76.125 405.885 75.7283 405.735 75.4388 405.445L74.9348 404.936C74.8007 404.802 74.6238 404.732 74.4362 404.737C74.2485 404.743 74.077 404.828 73.9536 404.973L71.4928 407.847C71.407 407.938 71.2944 407.986 71.1818 407.986Z" fill="#E8E8E8"/>
<path d="M116.479 419.482H117.749C118.872 419.482 119.532 418.783 119.532 417.592V417.587C119.532 416.401 118.867 415.704 117.749 415.704H116.479V419.482ZM116.95 419.058V416.128H117.717C118.573 416.128 119.05 416.649 119.05 417.592V417.597C119.05 418.534 118.573 419.058 117.717 419.058H116.95ZM120.304 416.299C120.464 416.299 120.589 416.17 120.589 416.013C120.589 415.854 120.464 415.728 120.304 415.728C120.147 415.728 120.019 415.854 120.019 416.013C120.019 416.17 120.147 416.299 120.304 416.299ZM120.076 419.482H120.532V416.759H120.076V419.482ZM122.118 419.534C122.725 419.534 123.176 419.199 123.176 418.723V418.72C123.176 418.333 122.977 418.115 122.427 417.982L121.995 417.877C121.694 417.804 121.571 417.676 121.571 417.49V417.487C121.571 417.246 121.775 417.087 122.105 417.087C122.443 417.087 122.644 417.262 122.681 417.526L122.684 417.545H123.118L123.115 417.511C123.081 417.055 122.702 416.707 122.105 416.707C121.516 416.707 121.105 417.039 121.105 417.508V417.511C121.105 417.903 121.354 418.142 121.867 418.265L122.299 418.369C122.608 418.445 122.71 418.555 122.71 418.752V418.754C122.71 419 122.49 419.155 122.121 419.155C121.749 419.155 121.547 418.995 121.492 418.723L121.487 418.697H121.032L121.034 418.72C121.089 419.207 121.477 419.534 122.118 419.534ZM124.778 419.534C125.393 419.534 125.841 419.134 125.914 418.615L125.917 418.597H125.469L125.464 418.618C125.388 418.922 125.15 419.131 124.778 419.131C124.307 419.131 123.982 418.757 123.982 418.123V418.121C123.982 417.503 124.299 417.11 124.773 417.11C125.173 417.11 125.393 417.351 125.461 417.623L125.466 417.644H125.911L125.909 417.623C125.851 417.157 125.451 416.707 124.773 416.707C124.016 416.707 123.516 417.257 123.516 418.115V418.118C123.516 418.985 124.006 419.534 124.778 419.534ZM127.464 419.534C128.215 419.534 128.723 418.99 128.723 418.121V418.115C128.723 417.246 128.212 416.707 127.461 416.707C126.71 416.707 126.202 417.249 126.202 418.115V418.121C126.202 418.987 126.707 419.534 127.464 419.534ZM127.466 419.131C126.985 419.131 126.668 418.762 126.668 418.121V418.115C126.668 417.479 126.987 417.11 127.461 417.11C127.943 417.11 128.257 417.477 128.257 418.115V418.121C128.257 418.759 127.945 419.131 127.466 419.131ZM130.113 419.534C130.527 419.534 130.804 419.348 130.951 419.094H130.961V419.482H131.417V416.759H130.961V418.361C130.961 418.825 130.681 419.131 130.252 419.131C129.833 419.131 129.626 418.888 129.626 418.445V416.759H129.171V418.526C129.171 419.147 129.516 419.534 130.113 419.534ZM132.011 419.482H132.467V417.88C132.467 417.416 132.747 417.11 133.176 417.11C133.595 417.11 133.802 417.354 133.802 417.796V419.482H134.257V417.715C134.257 417.094 133.912 416.707 133.315 416.707C132.901 416.707 132.624 416.893 132.477 417.147H132.467V416.759H132.011V419.482ZM135.723 419.534C135.812 419.534 135.909 419.524 135.967 419.516V419.147C135.927 419.149 135.875 419.157 135.82 419.157C135.577 419.157 135.448 419.076 135.448 418.786V417.136H135.967V416.759H135.448V416.024H134.977V416.759H134.579V417.136H134.977V418.788C134.977 419.309 135.223 419.534 135.723 419.534Z" fill="#718096"/>
<path d="M116.479 419.482H117.749C118.872 419.482 119.532 418.783 119.532 417.592V417.587C119.532 416.401 118.867 415.704 117.749 415.704H116.479V419.482ZM116.95 419.058V416.128H117.717C118.573 416.128 119.05 416.649 119.05 417.592V417.597C119.05 418.534 118.573 419.058 117.717 419.058H116.95ZM120.304 416.299C120.464 416.299 120.589 416.17 120.589 416.013C120.589 415.854 120.464 415.728 120.304 415.728C120.147 415.728 120.019 415.854 120.019 416.013C120.019 416.17 120.147 416.299 120.304 416.299ZM120.076 419.482H120.532V416.759H120.076V419.482ZM122.118 419.534C122.725 419.534 123.176 419.199 123.176 418.723V418.72C123.176 418.333 122.977 418.115 122.427 417.982L121.995 417.877C121.694 417.804 121.571 417.676 121.571 417.49V417.487C121.571 417.246 121.775 417.087 122.105 417.087C122.443 417.087 122.644 417.262 122.681 417.526L122.684 417.545H123.118L123.115 417.511C123.081 417.055 122.702 416.707 122.105 416.707C121.516 416.707 121.105 417.039 121.105 417.508V417.511C121.105 417.903 121.354 418.142 121.867 418.265L122.299 418.369C122.608 418.445 122.71 418.555 122.71 418.752V418.754C122.71 419 122.49 419.155 122.121 419.155C121.749 419.155 121.547 418.995 121.492 418.723L121.487 418.697H121.032L121.034 418.72C121.089 419.207 121.477 419.534 122.118 419.534ZM124.778 419.534C125.393 419.534 125.841 419.134 125.914 418.615L125.917 418.597H125.469L125.464 418.618C125.388 418.922 125.15 419.131 124.778 419.131C124.307 419.131 123.982 418.757 123.982 418.123V418.121C123.982 417.503 124.299 417.11 124.773 417.11C125.173 417.11 125.393 417.351 125.461 417.623L125.466 417.644H125.911L125.909 417.623C125.851 417.157 125.451 416.707 124.773 416.707C124.016 416.707 123.516 417.257 123.516 418.115V418.118C123.516 418.985 124.006 419.534 124.778 419.534ZM127.464 419.534C128.215 419.534 128.723 418.99 128.723 418.121V418.115C128.723 417.246 128.212 416.707 127.461 416.707C126.71 416.707 126.202 417.249 126.202 418.115V418.121C126.202 418.987 126.707 419.534 127.464 419.534ZM127.466 419.131C126.985 419.131 126.668 418.762 126.668 418.121V418.115C126.668 417.479 126.987 417.11 127.461 417.11C127.943 417.11 128.257 417.477 128.257 418.115V418.121C128.257 418.759 127.945 419.131 127.466 419.131ZM130.113 419.534C130.527 419.534 130.804 419.348 130.951 419.094H130.961V419.482H131.417V416.759H130.961V418.361C130.961 418.825 130.681 419.131 130.252 419.131C129.833 419.131 129.626 418.888 129.626 418.445V416.759H129.171V418.526C129.171 419.147 129.516 419.534 130.113 419.534ZM132.011 419.482H132.467V417.88C132.467 417.416 132.747 417.11 133.176 417.11C133.595 417.11 133.802 417.354 133.802 417.796V419.482H134.257V417.715C134.257 417.094 133.912 416.707 133.315 416.707C132.901 416.707 132.624 416.893 132.477 417.147H132.467V416.759H132.011V419.482ZM135.723 419.534C135.812 419.534 135.909 419.524 135.967 419.516V419.147C135.927 419.149 135.875 419.157 135.82 419.157C135.577 419.157 135.448 419.076 135.448 418.786V417.136H135.967V416.759H135.448V416.024H134.977V416.759H134.579V417.136H134.977V418.788C134.977 419.309 135.223 419.534 135.723 419.534Z" fill="#718096"/>
<path d="M127.895 399.542H123.842C121.815 399.542 121.311 400.083 121.311 402.244V408.281C121.311 409.707 122.094 410.045 123.043 409.026L123.048 409.021C123.488 408.555 124.158 408.592 124.539 409.101L125.08 409.825C125.514 410.399 126.217 410.399 126.651 409.825L127.193 409.101C127.579 408.587 128.249 408.549 128.688 409.021C129.643 410.04 130.42 409.702 130.42 408.276V402.244C130.425 400.083 129.921 399.542 127.895 399.542ZM124.26 402.223C124.555 402.223 124.796 402.464 124.796 402.759C124.796 403.054 124.56 403.295 124.26 403.295C123.96 403.295 123.724 403.054 123.724 402.759C123.724 402.464 123.96 402.223 124.26 402.223ZM127.477 405.976C127.176 405.976 126.941 405.734 126.941 405.44C126.941 405.145 127.182 404.903 127.477 404.903C127.772 404.903 128.013 405.145 128.013 405.44C128.013 405.734 127.777 405.976 127.477 405.976ZM127.959 402.539L124.351 406.147C124.271 406.228 124.169 406.265 124.067 406.265C123.965 406.265 123.863 406.228 123.783 406.147C123.627 405.992 123.627 405.734 123.783 405.579L127.391 401.971C127.546 401.815 127.804 401.815 127.959 401.971C128.115 402.126 128.115 402.384 127.959 402.539Z" fill="#E8E8E8"/>
<path d="M176.03 405.102C176.014 405.102 176.003 405.102 175.987 405.102C175.96 405.096 175.923 405.096 175.891 405.102C174.336 405.054 173.162 403.831 173.162 402.325C173.162 400.791 174.411 399.542 175.944 399.542C177.478 399.542 178.727 400.791 178.727 402.325C178.721 403.831 177.542 405.054 176.046 405.102C176.041 405.102 176.035 405.102 176.03 405.102ZM175.944 400.346C174.856 400.346 173.966 401.236 173.966 402.325C173.966 403.397 174.802 404.26 175.869 404.298C175.896 404.292 175.971 404.292 176.041 404.298C177.092 404.249 177.917 403.386 177.923 402.325C177.923 401.236 177.033 400.346 175.944 400.346Z" fill="#E8E8E8"/>
<path d="M176.035 410.962C174.984 410.962 173.928 410.694 173.129 410.158C172.384 409.664 171.977 408.989 171.977 408.254C171.977 407.52 172.384 406.839 173.129 406.34C174.738 405.273 177.343 405.273 178.941 406.34C179.681 406.833 180.094 407.509 180.094 408.244C180.094 408.978 179.686 409.659 178.941 410.158C178.137 410.694 177.086 410.962 176.035 410.962ZM173.574 407.016C173.06 407.359 172.781 407.799 172.781 408.26C172.781 408.715 173.065 409.155 173.574 409.493C174.909 410.388 177.161 410.388 178.496 409.493C179.011 409.15 179.29 408.71 179.29 408.249C179.29 407.793 179.005 407.354 178.496 407.016C177.161 406.126 174.909 406.126 173.574 407.016Z" fill="#E8E8E8"/>
<path d="M165.767 419.482H166.597L166.882 418.566H168.217L168.502 419.482H169.332L168.015 415.704H167.086L165.767 419.482ZM167.542 416.437H167.557L168.034 417.974H167.065L167.542 416.437ZM170.832 419.54C171.581 419.54 172.065 419.074 172.102 418.461V418.445H171.39L171.387 418.469C171.335 418.752 171.144 418.94 170.837 418.94C170.461 418.94 170.225 418.629 170.225 418.079V418.076C170.225 417.539 170.461 417.217 170.835 417.217C171.152 417.217 171.338 417.422 171.385 417.689L171.39 417.712H172.099V417.694C172.071 417.087 171.586 416.618 170.824 416.618C169.984 416.618 169.447 417.176 169.447 418.074V418.076C169.447 418.982 169.976 419.54 170.832 419.54ZM173.754 419.54C174.503 419.54 174.987 419.074 175.023 418.461V418.445H174.311L174.309 418.469C174.256 418.752 174.065 418.94 173.759 418.94C173.382 418.94 173.146 418.629 173.146 418.079V418.076C173.146 417.539 173.382 417.217 173.756 417.217C174.073 417.217 174.259 417.422 174.306 417.689L174.311 417.712H175.021V417.694C174.992 417.087 174.508 416.618 173.746 416.618C172.906 416.618 172.369 417.176 172.369 418.074V418.076C172.369 418.982 172.898 419.54 173.754 419.54ZM176.681 419.54C177.529 419.54 178.071 418.995 178.071 418.079V418.074C178.071 417.165 177.518 416.618 176.678 416.618C175.84 416.618 175.291 417.17 175.291 418.074V418.079C175.291 418.992 175.827 419.54 176.681 419.54ZM176.683 418.94C176.306 418.94 176.068 418.629 176.068 418.079V418.074C176.068 417.532 176.309 417.217 176.678 417.217C177.05 417.217 177.293 417.532 177.293 418.074V418.079C177.293 418.626 177.055 418.94 176.683 418.94ZM179.422 419.54C179.846 419.54 180.134 419.341 180.278 419.019H180.293V419.482H181.058V416.676H180.293V418.288C180.293 418.655 180.076 418.906 179.733 418.906C179.39 418.906 179.217 418.694 179.217 418.327V416.676H178.453V418.487C178.453 419.144 178.804 419.54 179.422 419.54ZM181.555 419.482H182.32V417.869C182.32 417.503 182.537 417.252 182.88 417.252C183.223 417.252 183.395 417.461 183.395 417.827V419.482H184.16V417.67C184.16 417.013 183.809 416.618 183.191 416.618C182.767 416.618 182.479 416.814 182.335 417.136H182.32V416.676H181.555V419.482ZM185.759 419.54C185.919 419.54 186.042 419.524 186.129 419.511V418.951C186.081 418.956 186.032 418.964 185.964 418.964C185.733 418.964 185.615 418.875 185.615 418.613V417.252H186.129V416.676H185.615V415.99H184.843V416.676H184.453V417.252H184.843V418.697C184.843 419.299 185.136 419.54 185.759 419.54Z" fill="#D8D8D8"/>
</g>
</g>
<rect x="2.28762" y="1.99367" width="198.372" height="432.666" rx="6.70177" stroke="black" stroke-width="2.68071"/>
<defs>
<filter id="filter0_i_206_2860" x="13.8125" y="343.784" width="175.318" height="26.8071" filterUnits="userSpaceOnUse" color-interpolation-filters="sRGB">
<feFlood flood-opacity="0" result="BackgroundImageFix"/>
<feBlend mode="normal" in="SourceGraphic" in2="BackgroundImageFix" result="shape"/>
<feColorMatrix in="SourceAlpha" type="matrix" values="0 0 0 0 0 0 0 0 0 0 0 0 0 0 0 0 0 0 127 0" result="hardAlpha"/>
<feOffset/>
<feGaussianBlur stdDeviation="0.268071"/>
<feComposite in2="hardAlpha" operator="arithmetic" k2="-1" k3="1"/>
<feColorMatrix type="matrix" values="0 0 0 0 0 0 0 0 0 0 0 0 0 0 0 0 0 0 0.1 0"/>
<feBlend mode="normal" in2="shape" result="effect1_innerShadow_206_2860"/>
</filter>
<filter id="filter1_d_206_2860" x="-9.77556" y="379.705" width="222.498" height="66.4813" filterUnits="userSpaceOnUse" color-interpolation-filters="sRGB">
<feFlood flood-opacity="0" result="BackgroundImageFix"/>
<feColorMatrix in="SourceAlpha" type="matrix" values="0 0 0 0 0 0 0 0 0 0 0 0 0 0 0 0 0 0 127 0" result="hardAlpha"/>
<feOffset dy="-0.536141"/>
<feGaussianBlur stdDeviation="5.36141"/>
<feComposite in2="hardAlpha" operator="out"/>
<feColorMatrix type="matrix" values="0 0 0 0 0 0 0 0 0 0 0 0 0 0 0 0 0 0 0.15 0"/>
<feBlend mode="normal" in2="BackgroundImageFix" result="effect1_dropShadow_206_2860"/>
<feBlend mode="normal" in="SourceGraphic" in2="effect1_dropShadow_206_2860" result="shape"/>
</filter>
<clipPath id="clip0_206_2860">
<rect x="0.947266" y="0.65332" width="201.053" height="435.347" rx="8.04212" fill="white"/>
</clipPath>
</defs>
</svg>
