<svg width="202" height="436" viewBox="0 0 202 436" fill="none" xmlns="http://www.w3.org/2000/svg">
<g clip-path="url(#clip0_206_2711)">
<rect x="0.296875" width="201.053" height="435.347" rx="8.04212" fill="white"/>
<path d="M29.7863 34.8491H21.7441" stroke="black" stroke-width="1.60842" stroke-linecap="round"/>
<path d="M24.4239 31.0962L21.207 34.8492L24.4239 38.6022" stroke="black" stroke-width="1.60842" stroke-linecap="round" stroke-linejoin="round"/>
<rect x="153.098" y="20.9092" width="27.8793" height="27.8793" rx="13.9397" fill="#D9D9D9"/>
<path d="M80.2498 54.3596L78.3433 58.6755L76.4518 54.3596H75.6411L77.9529 59.6138H78.696L81.0004 54.3596H80.2498ZM82.6384 55.5981C82.0004 55.5981 81.4074 55.7782 80.9946 56.1085L81.2948 56.6489C81.6026 56.3862 82.0829 56.2211 82.5558 56.2211C83.2689 56.2211 83.6217 56.5738 83.6217 57.1818V57.3244H82.4808C81.2948 57.3244 80.882 57.8499 80.882 58.4879C80.882 59.1784 81.4524 59.6588 82.3531 59.6588C82.9761 59.6588 83.419 59.4486 83.6592 59.0884V59.6138H84.3422V57.2119C84.3422 56.1235 83.7267 55.5981 82.6384 55.5981ZM82.4732 59.1034C81.9253 59.1034 81.595 58.8557 81.595 58.4578C81.595 58.1201 81.7977 57.8424 82.5108 57.8424H83.6217V58.3978C83.4415 58.8557 83.0137 59.1034 82.4732 59.1034ZM88.588 55.6356V57.6922C88.588 58.5479 88.1077 59.0133 87.3571 59.0133C86.674 59.0133 86.2837 58.623 86.2837 57.8424V55.6356H85.5631V57.9249C85.5631 59.0959 86.2462 59.6588 87.2745 59.6588C87.8374 59.6588 88.3328 59.4261 88.6256 59.0133V59.6138H89.3086V55.6356H88.588ZM90.6053 59.6138H91.3259V54.0443H90.6053V59.6138ZM94.7336 58.8632C94.5834 58.9833 94.3808 59.0508 94.1706 59.0508C93.7728 59.0508 93.5476 58.8106 93.5476 58.3828V56.2286H94.6885V55.6356H93.5476V54.7649H92.827V55.6356H92.1515V56.2286H92.827V58.4128C92.827 59.216 93.2849 59.6588 94.088 59.6588C94.4108 59.6588 94.7411 59.5687 94.9587 59.3811L94.7336 58.8632ZM99.3318 59.6738C100.72 59.6738 101.366 58.9833 101.366 58.1801C101.366 56.2511 98.1834 57.0542 98.1834 55.7707C98.1834 55.3128 98.5662 54.9375 99.4594 54.9375C99.9248 54.9375 100.443 55.0727 100.901 55.3654L101.148 54.7649C100.713 54.4647 100.075 54.2995 99.4594 54.2995C98.0783 54.2995 97.4478 54.9901 97.4478 55.8007C97.4478 57.7523 100.63 56.9416 100.63 58.2252C100.63 58.683 100.24 59.0358 99.3318 59.0358C98.6563 59.0358 97.9883 58.7806 97.598 58.4278L97.3202 59.0133C97.7406 59.4036 98.5287 59.6738 99.3318 59.6738ZM103.731 55.5981C103.093 55.5981 102.5 55.7782 102.087 56.1085L102.387 56.6489C102.695 56.3862 103.176 56.2211 103.648 56.2211C104.362 56.2211 104.714 56.5738 104.714 57.1818V57.3244H103.573C102.387 57.3244 101.975 57.8499 101.975 58.4879C101.975 59.1784 102.545 59.6588 103.446 59.6588C104.069 59.6588 104.512 59.4486 104.752 59.0884V59.6138H105.435V57.2119C105.435 56.1235 104.819 55.5981 103.731 55.5981ZM103.566 59.1034C103.018 59.1034 102.688 58.8557 102.688 58.4578C102.688 58.1201 102.89 57.8424 103.603 57.8424H104.714V58.3978C104.534 58.8557 104.106 59.1034 103.566 59.1034ZM109.435 55.6356L108.039 58.8256L106.673 55.6356H105.922L107.663 59.6138H108.399L110.14 55.6356H109.435ZM111.098 54.87C111.383 54.87 111.586 54.6598 111.586 54.3896C111.586 54.1344 111.376 53.9317 111.098 53.9317C110.82 53.9317 110.61 54.1419 110.61 54.4046C110.61 54.6673 110.82 54.87 111.098 54.87ZM110.738 59.6138H111.458V55.6356H110.738V59.6138ZM114.883 55.5981C114.253 55.5981 113.742 55.8308 113.45 56.2361V55.6356H112.759V59.6138H113.48V57.5646C113.48 56.7015 113.975 56.2436 114.741 56.2436C115.424 56.2436 115.814 56.6264 115.814 57.407V59.6138H116.535V57.3244C116.535 56.1535 115.852 55.5981 114.883 55.5981ZM120.938 55.6356V56.2511C120.6 55.8157 120.059 55.5981 119.466 55.5981C118.318 55.5981 117.447 56.3712 117.447 57.5196C117.447 58.668 118.318 59.4486 119.466 59.4486C120.037 59.4486 120.555 59.246 120.9 58.8331V59.1484C120.9 60.0491 120.472 60.4845 119.534 60.4845C118.948 60.4845 118.371 60.2818 118.003 59.9666L117.657 60.522C118.093 60.9123 118.828 61.115 119.556 61.115C120.908 61.115 121.621 60.477 121.621 59.0733V55.6356H120.938ZM119.549 58.8181C118.746 58.8181 118.175 58.2852 118.175 57.5196C118.175 56.7465 118.746 56.2286 119.549 56.2286C120.345 56.2286 120.915 56.7465 120.915 57.5196C120.915 58.2852 120.345 58.8181 119.549 58.8181ZM124.063 59.6588C125.122 59.6588 125.782 59.2009 125.782 58.4804C125.782 56.9341 123.26 57.6997 123.26 56.7615C123.26 56.4462 123.568 56.2136 124.198 56.2136C124.589 56.2136 124.987 56.2961 125.347 56.5288L125.655 55.9584C125.309 55.7332 124.724 55.5981 124.206 55.5981C123.185 55.5981 122.547 56.0785 122.547 56.7915C122.547 58.3753 125.062 57.6022 125.062 58.4954C125.062 58.8331 124.784 59.0358 124.116 59.0358C123.598 59.0358 123.057 58.8632 122.72 58.623L122.419 59.1934C122.75 59.4561 123.403 59.6588 124.063 59.6588Z" fill="#A3A7A5"/>
<path d="M71.4436 67.5791V73.5035L66.5926 67.5791H64.7247V77.3369H66.955V71.4126L71.82 77.3369H73.6739V67.5791H71.4436ZM75.4111 67.5791V69.3913H77.3626V77.3369H79.6208V67.5791H75.4111ZM81.3577 67.5791V69.3913H83.3093V77.3369H85.5675V67.5791H81.3577ZM89.0469 74.7441C88.2802 74.7441 87.6947 75.2738 87.6947 76.0823C87.6947 76.6539 87.9875 77.086 88.4475 77.2672L87.8341 79.4836H89.2142L90.0087 77.4763C90.3293 76.7096 90.3851 76.4448 90.3851 76.0823C90.3851 75.2878 89.8275 74.7441 89.0469 74.7441ZM95.2322 71.2453H94.4376L94.591 69.3913H98.6613V67.5791H92.7091L92.2073 73.0714H94.7025C96.4728 73.0714 96.9746 73.5732 96.9746 74.3399C96.9746 75.1344 96.2777 75.6084 95.1485 75.6084C94.1309 75.6084 93.1133 75.2878 92.3745 74.7302L91.4824 76.4587C92.4303 77.1278 93.8521 77.5042 95.2043 77.5042C97.9922 77.5042 99.2607 75.9987 99.2607 74.2702C99.2607 72.5417 98.1177 71.2453 95.2322 71.2453ZM103.691 75.4969L105.936 73.378C107.302 72.1095 107.567 71.2453 107.567 70.2974C107.567 68.527 106.117 67.4119 103.942 67.4119C102.186 67.4119 100.82 68.1228 100.067 69.224L101.712 70.2834C102.186 69.6283 102.897 69.3077 103.733 69.3077C104.765 69.3077 105.294 69.7537 105.294 70.5204C105.294 70.9944 105.141 71.4962 104.277 72.3186L100.513 75.8732V77.3369H107.887V75.4969H103.691ZM108.861 67.5791V69.3913H110.812V77.3369H113.071V67.5791H108.861ZM116.536 77.4484C117.289 77.4484 117.888 76.8769 117.888 76.0823C117.888 75.2738 117.289 74.7441 116.536 74.7441C115.783 74.7441 115.184 75.2738 115.184 76.0823C115.184 76.8769 115.783 77.4484 116.536 77.4484ZM123.395 77.5042C125.806 77.5042 127.577 75.6781 127.577 72.458C127.577 69.238 125.806 67.4119 123.395 67.4119C120.997 67.4119 119.213 69.238 119.213 72.458C119.213 75.6781 120.997 77.5042 123.395 77.5042ZM123.395 75.5945C122.279 75.5945 121.499 74.6744 121.499 72.458C121.499 70.2416 122.279 69.3216 123.395 69.3216C124.524 69.3216 125.304 70.2416 125.304 72.458C125.304 74.6744 124.524 75.5945 123.395 75.5945ZM133.344 77.5042C135.755 77.5042 137.525 75.6781 137.525 72.458C137.525 69.238 135.755 67.4119 133.344 67.4119C130.946 67.4119 129.162 69.238 129.162 72.458C129.162 75.6781 130.946 77.5042 133.344 77.5042ZM133.344 75.5945C132.228 75.5945 131.448 74.6744 131.448 72.458C131.448 70.2416 132.228 69.3216 133.344 69.3216C134.473 69.3216 135.253 70.2416 135.253 72.458C135.253 74.6744 134.473 75.5945 133.344 75.5945Z" fill="#333333"/>
<path d="M26.6853 103.077V106.635L23.788 103.077H22.9849V108.331H23.9531V104.773L26.8504 108.331H27.6536V103.077H26.6853ZM30.0147 107.505L31.4184 106.169C32.1464 105.486 32.289 105.021 32.289 104.511C32.289 103.58 31.5535 103.002 30.4126 103.002C29.5494 103.002 28.8213 103.325 28.416 103.873L29.099 104.398C29.3917 104.023 29.8196 103.85 30.33 103.85C30.9755 103.85 31.3058 104.128 31.3058 104.608C31.3058 104.901 31.2157 105.209 30.7053 105.696L28.6186 107.678V108.331H32.4917V107.505H30.0147ZM34.6987 105.111H34.1958L34.3084 103.895H36.5677V103.077H33.4827L33.2125 105.937H34.481C35.5694 105.937 35.8921 106.252 35.8921 106.755C35.8921 107.25 35.4793 107.558 34.7813 107.558C34.1883 107.558 33.6178 107.355 33.235 107.04L32.8222 107.798C33.3026 108.181 34.0532 108.406 34.7963 108.406C36.2074 108.406 36.8754 107.641 36.8754 106.717C36.8754 105.787 36.2524 105.111 34.6987 105.111ZM38.0312 107.138C37.686 107.138 37.4233 107.385 37.4233 107.761C37.4233 108.031 37.5659 108.226 37.776 108.316L37.4758 109.464H38.0838L38.4666 108.406C38.6017 108.061 38.6392 107.926 38.6392 107.761C38.6392 107.393 38.384 107.138 38.0312 107.138ZM41.3746 108.406C42.6281 108.406 43.5738 107.43 43.5738 105.704C43.5738 103.978 42.6281 103.002 41.3746 103.002C40.1286 103.002 39.1828 103.978 39.1828 105.704C39.1828 107.43 40.1286 108.406 41.3746 108.406ZM41.3746 107.558C40.6615 107.558 40.1661 106.972 40.1661 105.704C40.1661 104.435 40.6615 103.85 41.3746 103.85C42.0951 103.85 42.5905 104.435 42.5905 105.704C42.5905 106.972 42.0951 107.558 41.3746 107.558ZM46.425 108.406C47.6785 108.406 48.6242 107.43 48.6242 105.704C48.6242 103.978 47.6785 103.002 46.425 103.002C45.179 103.002 44.2332 103.978 44.2332 105.704C44.2332 107.43 45.179 108.406 46.425 108.406ZM46.425 107.558C45.7119 107.558 45.2165 106.972 45.2165 105.704C45.2165 104.435 45.7119 103.85 46.425 103.85C47.1455 103.85 47.6409 104.435 47.6409 105.704C47.6409 106.972 47.1455 107.558 46.425 107.558ZM51.4754 108.406C52.7289 108.406 53.6746 107.43 53.6746 105.704C53.6746 103.978 52.7289 103.002 51.4754 103.002C50.2294 103.002 49.2836 103.978 49.2836 105.704C49.2836 107.43 50.2294 108.406 51.4754 108.406ZM51.4754 107.558C50.7623 107.558 50.2669 106.972 50.2669 105.704C50.2669 104.435 50.7623 103.85 51.4754 103.85C52.196 103.85 52.6913 104.435 52.6913 105.704C52.6913 106.972 52.196 107.558 51.4754 107.558ZM54.8315 108.384C55.1693 108.384 55.447 108.121 55.447 107.761C55.447 107.385 55.1693 107.138 54.8315 107.138C54.4938 107.138 54.2161 107.385 54.2161 107.761C54.2161 108.121 54.4938 108.384 54.8315 108.384ZM58.1824 108.406C59.4359 108.406 60.3816 107.43 60.3816 105.704C60.3816 103.978 59.4359 103.002 58.1824 103.002C56.9364 103.002 55.9906 103.978 55.9906 105.704C55.9906 107.43 56.9364 108.406 58.1824 108.406ZM58.1824 107.558C57.4693 107.558 56.9739 106.972 56.9739 105.704C56.9739 104.435 57.4693 103.85 58.1824 103.85C58.903 103.85 59.3984 104.435 59.3984 105.704C59.3984 106.972 58.903 107.558 58.1824 107.558ZM63.2328 108.406C64.4863 108.406 65.432 107.43 65.432 105.704C65.432 103.978 64.4863 103.002 63.2328 103.002C61.9868 103.002 61.041 103.978 61.041 105.704C61.041 107.43 61.9868 108.406 63.2328 108.406ZM63.2328 107.558C62.5197 107.558 62.0243 106.972 62.0243 105.704C62.0243 104.435 62.5197 103.85 63.2328 103.85C63.9534 103.85 64.4488 104.435 64.4488 105.704C64.4488 106.972 63.9534 107.558 63.2328 107.558Z" fill="#333333"/>
<path d="M119.36 103.077V103.895H120.471V108.331H121.447V103.077H119.36ZM124.681 108.406C125.935 108.406 126.88 107.43 126.88 105.704C126.88 103.977 125.935 103.002 124.681 103.002C123.435 103.002 122.489 103.977 122.489 105.704C122.489 107.43 123.435 108.406 124.681 108.406ZM124.681 107.558C123.968 107.558 123.473 106.972 123.473 105.704C123.473 104.435 123.968 103.85 124.681 103.85C125.402 103.85 125.897 104.435 125.897 105.704C125.897 106.972 125.402 107.558 124.681 107.558ZM128.711 105.906C129.461 105.906 129.972 105.336 129.972 104.465C129.972 103.595 129.461 103.024 128.711 103.024C127.96 103.024 127.457 103.602 127.457 104.465C127.457 105.328 127.96 105.906 128.711 105.906ZM128.275 108.331H129.011L132.599 103.077H131.863L128.275 108.331ZM128.711 105.381C128.32 105.381 128.065 105.043 128.065 104.465C128.065 103.887 128.32 103.55 128.711 103.55C129.116 103.55 129.356 103.88 129.356 104.465C129.356 105.051 129.116 105.381 128.711 105.381ZM132.156 108.383C132.907 108.383 133.417 107.805 133.417 106.942C133.417 106.079 132.907 105.501 132.156 105.501C131.405 105.501 130.902 106.079 130.902 106.942C130.902 107.805 131.405 108.383 132.156 108.383ZM132.156 107.858C131.758 107.858 131.51 107.528 131.51 106.942C131.51 106.357 131.758 106.026 132.156 106.026C132.554 106.026 132.801 106.364 132.801 106.942C132.801 107.52 132.554 107.858 132.156 107.858ZM138.609 103.077H136.447V108.331H137.423V106.815H138.609C139.99 106.815 140.846 106.102 140.846 104.946C140.846 103.782 139.99 103.077 138.609 103.077ZM138.564 105.989H137.423V103.902H138.564C139.42 103.902 139.862 104.285 139.862 104.946C139.862 105.606 139.42 105.989 138.564 105.989ZM145.483 106.349C145.483 105.096 144.628 104.278 143.457 104.278C142.263 104.278 141.385 105.133 141.385 106.327C141.385 107.52 142.256 108.383 143.599 108.383C144.29 108.383 144.853 108.158 145.213 107.73L144.71 107.152C144.425 107.445 144.072 107.588 143.622 107.588C142.924 107.588 142.436 107.212 142.323 106.627H145.468C145.476 106.537 145.483 106.424 145.483 106.349ZM143.457 105.028C144.072 105.028 144.515 105.426 144.59 106.004H142.316C142.406 105.418 142.849 105.028 143.457 105.028ZM147.278 104.908V104.323H146.385V108.331H147.323V106.387C147.323 105.569 147.773 105.148 148.486 105.148C148.554 105.148 148.621 105.156 148.704 105.171V104.278C148.036 104.278 147.548 104.488 147.278 104.908ZM155.634 108.331H156.655L154.283 103.077H153.322L150.958 108.331H151.964L152.482 107.115H155.109L155.634 108.331ZM152.812 106.349L153.795 104.052L154.786 106.349H152.812ZM159.507 104.278C158.922 104.278 158.434 104.473 158.126 104.841V104.323H157.233V108.331H158.171V106.304C158.171 105.501 158.622 105.096 159.29 105.096C159.89 105.096 160.243 105.441 160.243 106.154V108.331H161.181V106.034C161.181 104.826 160.468 104.278 159.507 104.278ZM164.646 104.278C164.06 104.278 163.572 104.473 163.265 104.841V104.323H162.372V108.331H163.31V106.304C163.31 105.501 163.76 105.096 164.428 105.096C165.029 105.096 165.381 105.441 165.381 106.154V108.331H166.32V106.034C166.32 104.826 165.607 104.278 164.646 104.278ZM170.452 104.323V106.349C170.452 107.152 170.009 107.558 169.356 107.558C168.763 107.558 168.418 107.212 168.418 106.484V104.323H167.48V106.612C167.48 107.82 168.178 108.383 169.206 108.383C169.724 108.383 170.197 108.188 170.497 107.82V108.331H171.39V104.323H170.452ZM177.678 104.278C177.04 104.278 176.5 104.533 176.177 104.946C175.899 104.495 175.411 104.278 174.826 104.278C174.278 104.278 173.812 104.473 173.512 104.833V104.323H172.619V108.331H173.557V106.297C173.557 105.501 173.978 105.096 174.601 105.096C175.171 105.096 175.501 105.441 175.501 106.154V108.331H176.439V106.297C176.439 105.501 176.867 105.096 177.483 105.096C178.053 105.096 178.384 105.441 178.384 106.154V108.331H179.322V106.034C179.322 104.826 178.646 104.278 177.678 104.278Z" fill="#333333"/>
<path d="M24.2176 97.7399C25.0312 97.7399 25.6407 97.2749 25.7663 96.5775L25.7695 96.5524H25.2228L25.2166 96.5744C25.072 97.0299 24.7202 97.2749 24.2176 97.2749C23.5139 97.2749 23.0552 96.7377 23.0552 95.9053V95.9021C23.0552 95.0665 23.5107 94.5356 24.2176 94.5356C24.7265 94.5356 25.0783 94.7869 25.2071 95.2079L25.2228 95.2581H25.7695L25.7632 95.233C25.6407 94.5419 25.0281 94.0706 24.2176 94.0706C23.1652 94.0706 22.4961 94.7775 22.4961 95.9021V95.9053C22.4961 97.0268 23.1683 97.7399 24.2176 97.7399ZM26.0208 97.6802H26.5957L26.9475 96.7032H28.3988L28.7507 97.6802H29.3256L27.9622 94.1303H27.3842L26.0208 97.6802ZM27.6669 94.7021H27.6795L28.2481 96.2822H27.0983L27.6669 94.7021ZM31 97.7399C31.8764 97.7399 32.4105 97.3346 32.4105 96.6906V96.6875C32.4105 96.1409 32.0838 95.8456 31.3141 95.6885L30.9057 95.6037C30.4345 95.5094 30.2177 95.3398 30.2177 95.0665V95.0633C30.2177 94.7429 30.5225 94.5293 30.9937 94.5293C31.4429 94.5293 31.7476 94.7304 31.801 95.0728L31.8073 95.1042H32.3414L32.3382 95.0665C32.3005 94.4759 31.7665 94.0706 31.0031 94.0706C30.2209 94.0706 29.6649 94.4853 29.6617 95.0822V95.0853C29.6617 95.61 30.0136 95.9272 30.7424 96.0749L31.1508 96.1597C31.6503 96.2634 31.8544 96.4236 31.8544 96.7189V96.722C31.8544 97.0645 31.534 97.2812 31.0251 97.2812C30.5162 97.2812 30.1675 97.0739 30.1141 96.7377L30.1109 96.7063H29.5738L29.5769 96.7409C29.6209 97.3629 30.1738 97.7399 31 97.7399ZM32.9508 97.6802H33.4974V96.0937H35.4483V97.6802H35.9949V94.1303H35.4483V95.6414H33.4974V94.1303H32.9508V97.6802ZM36.7206 97.6802H38.1908C38.9855 97.6802 39.4599 97.3032 39.4599 96.6781V96.6749C39.4599 96.2037 39.1206 95.8581 38.5897 95.8047V95.7953C38.9793 95.7419 39.2746 95.3932 39.2746 95.0194V95.0162C39.2746 94.4822 38.841 94.1303 38.1876 94.1303H36.7206V97.6802ZM38.0557 94.5607C38.4829 94.5607 38.7279 94.7461 38.7279 95.0791V95.0822C38.7279 95.4435 38.4452 95.6445 37.93 95.6445H37.2672V94.5607H38.0557ZM38.0494 96.056C38.6086 96.056 38.9007 96.2571 38.9007 96.6498V96.6529C38.9007 97.0425 38.6149 97.2498 38.0871 97.2498H37.2672V96.056H38.0494ZM39.6987 97.6802H40.2735L40.6254 96.7032H42.0767L42.4286 97.6802H43.0035L41.6401 94.1303H41.062L39.6987 97.6802ZM41.3448 94.7021H41.3573L41.9259 96.2822H40.7762L41.3448 94.7021ZM44.9009 97.7399C45.7145 97.7399 46.324 97.2749 46.4496 96.5775L46.4528 96.5524H45.9062L45.8999 96.5744C45.7554 97.0299 45.4035 97.2749 44.9009 97.2749C44.1972 97.2749 43.7386 96.7377 43.7386 95.9053V95.9021C43.7386 95.0665 44.1941 94.5356 44.9009 94.5356C45.4098 94.5356 45.7617 94.7869 45.8905 95.2079L45.9062 95.2581H46.4528L46.4465 95.233C46.324 94.5419 45.7114 94.0706 44.9009 94.0706C43.8485 94.0706 43.1794 94.7775 43.1794 95.9021V95.9053C43.1794 97.0268 43.8517 97.7399 44.9009 97.7399ZM46.9994 97.6802H47.546V96.477L47.9324 96.0592L49.189 97.6802H49.8707L48.3219 95.6979L49.745 94.1303H49.0885L47.5617 95.8424H47.546V94.1303H46.9994V97.6802Z" fill="#828282"/>
<path d="M155.13 97.6802H155.676V94.1303H155.13V97.6802ZM156.399 97.6802H156.942V94.9974H156.955L158.912 97.6802H159.421V94.1303H158.878V96.81H158.868L156.911 94.1303H156.399V97.6802ZM161.061 97.6802H161.608V94.5827H162.757V94.1303H159.911V94.5827H161.061V97.6802ZM163.247 97.6802H165.597V97.2278H163.794V96.0906H165.503V95.6508H163.794V94.5827H165.597V94.1303H163.247V97.6802ZM166.213 97.6802H166.76V96.3042H167.583L168.352 97.6802H168.987L168.145 96.2257C168.594 96.0812 168.874 95.6979 168.874 95.2141V95.2079C168.874 94.5513 168.396 94.1303 167.649 94.1303H166.213V97.6802ZM166.76 95.8707V94.5701H167.576C168.032 94.5701 168.311 94.812 168.311 95.2141V95.2204C168.311 95.6351 168.051 95.8707 167.595 95.8707H166.76ZM169.461 97.6802H171.811V97.2278H170.008V96.0906H171.717V95.6508H170.008V94.5827H171.811V94.1303H169.461V97.6802ZM173.674 97.7399C174.55 97.7399 175.084 97.3346 175.084 96.6906V96.6875C175.084 96.1409 174.758 95.8456 173.988 95.6885L173.58 95.6037C173.108 95.5094 172.892 95.3398 172.892 95.0665V95.0633C172.892 94.7429 173.196 94.5293 173.668 94.5293C174.117 94.5293 174.422 94.7304 174.475 95.0728L174.481 95.1042H175.015L175.012 95.0665C174.974 94.4759 174.44 94.0706 173.677 94.0706C172.895 94.0706 172.339 94.4853 172.336 95.0822V95.0853C172.336 95.61 172.687 95.9272 173.416 96.0749L173.825 96.1597C174.324 96.2634 174.528 96.4236 174.528 96.7189V96.722C174.528 97.0645 174.208 97.2812 173.699 97.2812C173.19 97.2812 172.841 97.0739 172.788 96.7377L172.785 96.7063H172.248L172.251 96.7409C172.295 97.3629 172.848 97.7399 173.674 97.7399ZM176.542 97.6802H177.089V94.5827H178.238V94.1303H175.392V94.5827H176.542V97.6802Z" fill="#828282"/>
<rect x="105.112" y="122.508" width="74.5236" height="25.1986" rx="2.41264" fill="#FDFDFF" stroke="#413D4A" stroke-width="0.536141"/>
<path d="M125.287 137.819H126.075L127.215 133.831H127.233L128.369 137.819H129.157L130.587 132.53H129.733L128.747 136.675H128.728L127.611 132.53H126.834L125.716 136.675H125.701L124.715 132.53H123.861L125.287 137.819ZM131.572 133.37C131.833 133.37 132.034 133.164 132.034 132.915C132.034 132.662 131.833 132.457 131.572 132.457C131.316 132.457 131.111 132.662 131.111 132.915C131.111 133.164 131.316 133.37 131.572 133.37ZM131.177 137.819H131.968V133.963H131.177V137.819ZM134.138 137.896C134.299 137.896 134.449 137.877 134.541 137.863V137.251C134.482 137.258 134.413 137.265 134.329 137.265C133.995 137.265 133.819 137.148 133.819 136.756V134.594H134.541V133.963H133.819V132.959H133.009V133.963H132.456V134.594H133.009V136.804C133.009 137.573 133.376 137.896 134.138 137.896ZM135.226 137.819H136.018V135.587C136.018 134.986 136.381 134.568 136.927 134.568C137.484 134.568 137.807 134.949 137.807 135.587V137.819H138.598V135.437C138.598 134.506 138.056 133.89 137.231 133.89C136.656 133.89 136.242 134.15 136.036 134.597H136.018V132.53H135.226V137.819ZM140.808 137.896C141.362 137.896 141.787 137.617 142.018 137.166H142.032V137.819H142.828V132.53H142.032V134.619H142.018C141.787 134.165 141.347 133.89 140.801 133.89C139.833 133.89 139.196 134.66 139.196 135.887V135.891C139.196 137.119 139.826 137.896 140.808 137.896ZM141.017 137.214C140.39 137.214 140.006 136.712 140.006 135.891V135.887C140.006 135.074 140.394 134.568 141.017 134.568C141.611 134.568 142.036 135.088 142.036 135.887V135.891C142.036 136.694 141.615 137.214 141.017 137.214ZM143.641 137.819H144.433V135.521C144.433 134.945 144.748 134.612 145.258 134.612C145.412 134.612 145.551 134.63 145.613 134.656V133.919C145.551 133.908 145.452 133.89 145.338 133.89C144.898 133.89 144.576 134.172 144.451 134.623H144.433V133.963H143.641V137.819ZM147.156 137.888C147.666 137.888 148.113 137.625 148.336 137.21H148.351V137.819H149.146V135.162C149.146 134.388 148.549 133.89 147.607 133.89C146.658 133.89 146.082 134.399 146.027 135.063L146.024 135.103H146.771L146.779 135.07C146.845 134.762 147.127 134.546 147.585 134.546C148.076 134.546 148.351 134.803 148.351 135.228V135.517L147.303 135.58C146.39 135.634 145.87 136.045 145.87 136.716V136.723C145.87 137.416 146.386 137.888 147.156 137.888ZM146.669 136.705V136.697C146.669 136.371 146.933 136.162 147.409 136.133L148.351 136.074V136.375C148.351 136.877 147.929 137.254 147.372 137.254C146.947 137.254 146.669 137.042 146.669 136.705ZM150.667 137.819H151.485L152.287 134.931H152.305L153.115 137.819H153.94L154.996 133.963H154.211L153.508 136.998H153.489L152.683 133.963H151.921L151.118 136.998H151.103L150.4 133.963H149.608L150.667 137.819ZM156.517 137.888C157.026 137.888 157.473 137.625 157.697 137.21H157.711V137.819H158.507V135.162C158.507 134.388 157.909 133.89 156.967 133.89C156.018 133.89 155.443 134.399 155.388 135.063L155.384 135.103H156.132L156.139 135.07C156.205 134.762 156.487 134.546 156.945 134.546C157.437 134.546 157.711 134.803 157.711 135.228V135.517L156.663 135.58C155.751 135.634 155.23 136.045 155.23 136.716V136.723C155.23 137.416 155.747 137.888 156.517 137.888ZM156.029 136.705V136.697C156.029 136.371 156.293 136.162 156.769 136.133L157.711 136.074V136.375C157.711 136.877 157.29 137.254 156.733 137.254C156.308 137.254 156.029 137.042 156.029 136.705ZM159.306 137.819H160.097V132.53H159.306V137.819Z" fill="#413D4A"/>
<rect x="22.2793" y="122.24" width="75.0598" height="25.7348" rx="2.68071" fill="#413D4A"/>
<path d="M41.6773 137.819H42.5386L43.0261 136.389H45.0638L45.5476 137.819H46.4089L44.4884 132.53H43.6015L41.6773 137.819ZM44.0376 133.406H44.0523L44.8402 135.73H43.246L44.0376 133.406ZM48.2377 137.896C48.7911 137.896 49.2163 137.617 49.4472 137.166H49.4618V137.819H50.2572V132.53H49.4618V134.619H49.4472C49.2163 134.165 48.7765 133.89 48.2304 133.89C47.2628 133.89 46.6251 134.66 46.6251 135.887V135.891C46.6251 137.119 47.2555 137.896 48.2377 137.896ZM48.4466 137.214C47.8199 137.214 47.4351 136.712 47.4351 135.891V135.887C47.4351 135.074 47.8236 134.568 48.4466 134.568C49.0404 134.568 49.4655 135.088 49.4655 135.887V135.891C49.4655 136.694 49.044 137.214 48.4466 137.214ZM52.5111 137.896C53.0646 137.896 53.4897 137.617 53.7206 137.166H53.7353V137.819H54.5306V132.53H53.7353V134.619H53.7206C53.4897 134.165 53.0499 133.89 52.5038 133.89C51.5362 133.89 50.8985 134.66 50.8985 135.887V135.891C50.8985 137.119 51.5289 137.896 52.5111 137.896ZM52.7201 137.214C52.0933 137.214 51.7085 136.712 51.7085 135.891V135.887C51.7085 135.074 52.097 134.568 52.7201 134.568C53.3138 134.568 53.7389 135.088 53.7389 135.887V135.891C53.7389 136.694 53.3175 137.214 52.7201 137.214ZM56.9642 137.819H57.7851V135.605H60.0574V134.912H57.7851V133.238H60.2663V132.53H56.9642V137.819ZM62.1978 137.896C62.7842 137.896 63.1764 137.628 63.378 137.24H63.3963V137.819H64.1916V133.963H63.3963V136.214C63.3963 136.815 63.0371 137.214 62.48 137.214C61.9303 137.214 61.6591 136.892 61.6591 136.309V133.963H60.8674V136.463C60.8674 137.35 61.3512 137.896 62.1978 137.896ZM64.9759 137.819H65.7676V135.572C65.7676 134.971 66.1267 134.568 66.6838 134.568C67.2336 134.568 67.5048 134.894 67.5048 135.473V137.819H68.3001V135.323C68.3001 134.436 67.8126 133.89 66.966 133.89C66.3833 133.89 65.9875 134.154 65.7859 134.546H65.7676V133.963H64.9759V137.819ZM70.5064 137.896C71.0599 137.896 71.485 137.617 71.7159 137.166H71.7306V137.819H72.5259V132.53H71.7306V134.619H71.7159C71.485 134.165 71.0452 133.89 70.4991 133.89C69.5315 133.89 68.8938 134.66 68.8938 135.887V135.891C68.8938 137.119 69.5242 137.896 70.5064 137.896ZM70.7153 137.214C70.0886 137.214 69.7038 136.712 69.7038 135.891V135.887C69.7038 135.074 70.0923 134.568 70.7153 134.568C71.3091 134.568 71.7342 135.088 71.7342 135.887V135.891C71.7342 136.694 71.3127 137.214 70.7153 137.214ZM74.7835 137.896C75.6924 137.896 76.3522 137.412 76.3522 136.708V136.705C76.3522 136.151 76.0516 135.84 75.2636 135.656L74.6369 135.514C74.2228 135.415 74.0652 135.253 74.0652 135.015V135.011C74.0652 134.704 74.3327 134.502 74.7579 134.502C75.205 134.502 75.4689 134.737 75.5165 135.074L75.5202 135.099H76.2642L76.2605 135.055C76.2202 134.399 75.6705 133.89 74.7579 133.89C73.8709 133.89 73.2699 134.363 73.2699 135.052V135.055C73.2699 135.616 73.6327 135.968 74.3657 136.137L74.9961 136.28C75.4102 136.378 75.5495 136.521 75.5495 136.771V136.774C75.5495 137.086 75.2636 137.284 74.7872 137.284C74.2997 137.284 74.0359 137.075 73.9626 136.719L73.9552 136.683H73.1709L73.1746 136.716C73.2552 137.419 73.8196 137.896 74.7835 137.896Z" fill="white"/>
<rect x="13.166" y="203.198" width="175.318" height="32.1685" rx="2.14457" fill="#F0F0F0"/>
<path d="M51.8555 221.529H52.8514L53.1938 220.43H54.7959L55.1384 221.529H56.1342L54.554 216.996H53.4388L51.8555 221.529ZM53.9854 217.876H54.0043L54.576 219.72H53.4137L53.9854 217.876ZM57.6421 221.598C58.129 221.598 58.4997 221.353 58.6788 220.954H58.6976V221.529H59.6149V216.996H58.6976V218.746H58.6788C58.4966 218.337 58.1196 218.092 57.6421 218.092C56.7939 218.092 56.2724 218.746 56.2724 219.842V219.845C56.2724 220.938 56.7939 221.598 57.6421 221.598ZM57.95 220.838C57.4913 220.838 57.2054 220.458 57.2054 219.845V219.842C57.2054 219.226 57.4944 218.853 57.95 218.853C58.3929 218.853 58.7008 219.236 58.7008 219.842V219.845C58.7008 220.455 58.396 220.838 57.95 220.838ZM61.4747 221.598C61.9616 221.598 62.3323 221.353 62.5113 220.954H62.5302V221.529H63.4475V216.996H62.5302V218.746H62.5113C62.3291 218.337 61.9522 218.092 61.4747 218.092C60.6265 218.092 60.105 218.746 60.105 219.842V219.845C60.105 220.938 60.6265 221.598 61.4747 221.598ZM61.7825 220.838C61.3239 220.838 61.038 220.458 61.038 219.845V219.842C61.038 219.226 61.327 218.853 61.7825 218.853C62.2255 218.853 62.5333 219.236 62.5333 219.842V219.845C62.5333 220.455 62.2286 220.838 61.7825 220.838ZM66.3376 221.582C66.7806 221.582 67.1387 221.372 67.3303 221.026H67.3492V221.529H68.2665V219.22C68.2665 218.542 67.7042 218.092 66.834 218.092C65.945 218.092 65.4109 218.538 65.3606 219.16L65.3575 219.198H66.1963L66.2026 219.17C66.2465 218.953 66.4539 218.793 66.7963 218.793C67.1544 218.793 67.3492 218.978 67.3492 219.277V219.484L66.5167 219.534C65.6811 219.588 65.2067 219.946 65.2067 220.558V220.565C65.2067 221.158 65.6622 221.582 66.3376 221.582ZM66.1146 220.518V220.511C66.1146 220.272 66.2999 220.122 66.6549 220.1L67.3492 220.056V220.298C67.3492 220.649 67.0476 220.913 66.6361 220.913C66.3188 220.913 66.1146 220.766 66.1146 220.518ZM70.3995 221.598C71.298 221.598 71.8792 221.039 71.9231 220.304V220.285H71.0687L71.0655 220.313C71.0027 220.653 70.7734 220.879 70.4058 220.879C69.9534 220.879 69.6707 220.505 69.6707 219.845V219.842C69.6707 219.198 69.9534 218.812 70.4027 218.812C70.7828 218.812 71.0058 219.057 71.0624 219.377L71.0687 219.405H71.92V219.383C71.8854 218.655 71.3043 218.092 70.3901 218.092C69.3817 218.092 68.7377 218.761 68.7377 219.839V219.842C68.7377 220.929 69.3723 221.598 70.3995 221.598ZM73.9054 221.598C74.8039 221.598 75.385 221.039 75.429 220.304V220.285H74.5745L74.5714 220.313C74.5086 220.653 74.2792 220.879 73.9117 220.879C73.4593 220.879 73.1766 220.505 73.1766 219.845V219.842C73.1766 219.198 73.4593 218.812 73.9085 218.812C74.2887 218.812 74.5117 219.057 74.5682 219.377L74.5745 219.405H75.4259V219.383C75.3913 218.655 74.8101 218.092 73.896 218.092C72.8876 218.092 72.2436 218.761 72.2436 219.839V219.842C72.2436 220.929 72.8781 221.598 73.9054 221.598ZM77.4175 221.598C78.4354 221.598 79.0857 220.945 79.0857 219.845V219.839C79.0857 218.749 78.4228 218.092 77.4144 218.092C76.4091 218.092 75.7494 218.755 75.7494 219.839V219.845C75.7494 220.942 76.3934 221.598 77.4175 221.598ZM77.4207 220.879C76.9683 220.879 76.6824 220.505 76.6824 219.845V219.839C76.6824 219.189 76.9715 218.812 77.4144 218.812C77.8605 218.812 78.1526 219.189 78.1526 219.839V219.845C78.1526 220.502 77.8668 220.879 77.4207 220.879ZM80.7066 221.598C81.2156 221.598 81.5611 221.359 81.7339 220.973H81.7527V221.529H82.67V218.161H81.7527V220.097C81.7527 220.536 81.492 220.838 81.0805 220.838C80.6689 220.838 80.4616 220.583 80.4616 220.144V218.161H79.5443V220.335C79.5443 221.124 79.9653 221.598 80.7066 221.598ZM83.2669 221.529H84.1842V219.594C84.1842 219.154 84.445 218.853 84.8565 218.853C85.268 218.853 85.4754 219.104 85.4754 219.544V221.529H86.3927V219.355C86.3927 218.567 85.9717 218.092 85.2303 218.092C84.7214 218.092 84.3759 218.328 84.2031 218.714H84.1842V218.161H83.2669V221.529ZM88.3121 221.598C88.5037 221.598 88.6514 221.579 88.755 221.564V220.891C88.6985 220.898 88.6388 220.907 88.5571 220.907C88.2807 220.907 88.1393 220.8 88.1393 220.486V218.853H88.755V218.161H88.1393V217.338H87.2126V218.161H86.7445V218.853H87.2126V220.587C87.2126 221.309 87.5644 221.598 88.3121 221.598ZM90.2315 221.582C90.6745 221.582 91.0326 221.372 91.2242 221.026H91.2431V221.529H92.1604V219.22C92.1604 218.542 91.5981 218.092 90.7279 218.092C89.8388 218.092 89.3048 218.538 89.2545 219.16L89.2514 219.198H90.0902L90.0964 219.17C90.1404 218.953 90.3478 218.793 90.6902 218.793C91.0483 218.793 91.2431 218.978 91.2431 219.277V219.484L90.4106 219.534C89.575 219.588 89.1006 219.946 89.1006 220.558V220.565C89.1006 221.158 89.5561 221.582 90.2315 221.582ZM90.0085 220.518V220.511C90.0085 220.272 90.1938 220.122 90.5488 220.1L91.2431 220.056V220.298C91.2431 220.649 90.9415 220.913 90.53 220.913C90.2127 220.913 90.0085 220.766 90.0085 220.518ZM94.7489 221.598C95.5971 221.598 96.1217 220.938 96.1217 219.845V219.842C96.1217 218.746 95.5971 218.092 94.7521 218.092C94.2714 218.092 93.8976 218.337 93.7123 218.746H93.6934V216.996H92.7761V221.529H93.6934V220.954H93.7123C93.8945 221.353 94.2652 221.598 94.7489 221.598ZM94.4442 220.838C93.9981 220.838 93.6934 220.455 93.6934 219.845V219.842C93.6934 219.236 94.0013 218.853 94.4442 218.853C94.8997 218.853 95.1887 219.226 95.1887 219.842V219.845C95.1887 220.458 94.8997 220.838 94.4442 220.838ZM97.0705 217.728C97.3469 217.728 97.5605 217.511 97.5605 217.25C97.5605 216.99 97.3469 216.773 97.0705 216.773C96.794 216.773 96.5804 216.99 96.5804 217.25C96.5804 217.511 96.794 217.728 97.0705 217.728ZM96.6118 221.529H97.5291V218.161H96.6118V221.529ZM98.1668 221.529H99.0841V216.996H98.1668V221.529ZM100.181 217.728C100.457 217.728 100.671 217.511 100.671 217.25C100.671 216.99 100.457 216.773 100.181 216.773C99.9041 216.773 99.6904 216.99 99.6904 217.25C99.6904 217.511 99.9041 217.728 100.181 217.728ZM99.7219 221.529H100.639V218.161H99.7219V221.529ZM102.593 221.598C102.785 221.598 102.932 221.579 103.036 221.564V220.891C102.98 220.898 102.92 220.907 102.838 220.907C102.562 220.907 102.42 220.8 102.42 220.486V218.853H103.036V218.161H102.42V217.338H101.494V218.161H101.026V218.853H101.494V220.587C101.494 221.309 101.845 221.598 102.593 221.598ZM104.07 222.638C104.817 222.638 105.27 222.384 105.534 221.589L106.69 218.161H105.722L105.009 220.794H104.984L104.274 218.161H103.265L104.456 221.529L104.415 221.639C104.334 221.868 104.183 221.947 103.909 221.947C103.774 221.947 103.668 221.928 103.602 221.915V222.597C103.708 222.616 103.891 222.638 104.07 222.638ZM108.285 222.629H109.203V220.954H109.222C109.404 221.353 109.784 221.598 110.265 221.598C111.106 221.598 111.628 220.938 111.628 219.845V219.842C111.628 218.746 111.106 218.092 110.252 218.092C109.775 218.092 109.407 218.34 109.225 218.749H109.203V218.161H108.285V222.629ZM109.95 220.838C109.504 220.838 109.2 220.455 109.2 219.848V219.845C109.2 219.236 109.504 218.853 109.95 218.853C110.406 218.853 110.695 219.226 110.695 219.842V219.845C110.695 220.458 110.406 220.838 109.95 220.838ZM113.108 221.582C113.551 221.582 113.909 221.372 114.1 221.026H114.119V221.529H115.036V219.22C115.036 218.542 114.474 218.092 113.604 218.092C112.715 218.092 112.181 218.538 112.131 219.16L112.127 219.198H112.966L112.973 219.17C113.016 218.953 113.224 218.793 113.566 218.793C113.924 218.793 114.119 218.978 114.119 219.277V219.484L113.287 219.534C112.451 219.588 111.977 219.946 111.977 220.558V220.565C111.977 221.158 112.432 221.582 113.108 221.582ZM112.885 220.518V220.511C112.885 220.272 113.07 220.122 113.425 220.1L114.119 220.056V220.298C114.119 220.649 113.818 220.913 113.406 220.913C113.089 220.913 112.885 220.766 112.885 220.518ZM115.63 221.529H116.547V219.644C116.547 219.154 116.811 218.884 117.264 218.884C117.396 218.884 117.521 218.903 117.597 218.934V218.127C117.528 218.108 117.433 218.092 117.333 218.092C116.94 218.092 116.667 218.334 116.566 218.749H116.547V218.161H115.63V221.529ZM119.438 221.598C119.629 221.598 119.777 221.579 119.881 221.564V220.891C119.824 220.898 119.764 220.907 119.683 220.907C119.406 220.907 119.265 220.8 119.265 220.486V218.853H119.881V218.161H119.265V217.338H118.338V218.161H117.87V218.853H118.338V220.587C118.338 221.309 118.69 221.598 119.438 221.598ZM120.386 221.529H121.304V219.594C121.304 219.154 121.564 218.853 121.976 218.853C122.387 218.853 122.595 219.104 122.595 219.544V221.529H123.512V219.355C123.512 218.567 123.091 218.092 122.35 218.092C121.841 218.092 121.495 218.328 121.322 218.714H121.304V218.161H120.386V221.529ZM125.626 221.598C126.588 221.598 127.052 221.03 127.156 220.533L127.166 220.499H126.324L126.317 220.518C126.251 220.706 126.022 220.913 125.645 220.913C125.177 220.913 124.885 220.599 124.875 220.062H127.194V219.779C127.194 218.761 126.575 218.092 125.589 218.092C124.602 218.092 123.971 218.777 123.971 219.848V219.852C123.971 220.929 124.596 221.598 125.626 221.598ZM125.604 218.777C125.984 218.777 126.258 219.019 126.314 219.484H124.885C124.945 219.028 125.227 218.777 125.604 218.777ZM127.668 221.529H128.586V219.644C128.586 219.154 128.849 218.884 129.302 218.884C129.434 218.884 129.559 218.903 129.635 218.934V218.127C129.566 218.108 129.471 218.092 129.371 218.092C128.978 218.092 128.705 218.334 128.604 218.749H128.586V218.161H127.668V221.529Z" fill="#413D4A"/>
<circle cx="36.7541" cy="219.281" r="10.7228" fill="#979797" fill-opacity="0.1"/>
<path d="M172.935 221.962L176.152 219.282L172.935 216.601" stroke="#4A4A4A" stroke-width="1.07228" stroke-linecap="round" stroke-linejoin="round"/>
<rect x="13.166" y="246.625" width="175.318" height="32.1685" rx="2.14457" fill="#F0F0F0"/>
<path d="M51.8555 264.956H52.8514L53.1938 263.857H54.7959L55.1384 264.956H56.1342L54.554 260.423H53.4388L51.8555 264.956ZM53.9854 261.303H54.0043L54.576 263.147H53.4137L53.9854 261.303ZM57.9342 265.025C58.8327 265.025 59.4139 264.466 59.4579 263.731V263.712H58.6034L58.6002 263.74C58.5374 264.08 58.3081 264.306 57.9405 264.306C57.4882 264.306 57.2054 263.932 57.2054 263.272V263.269C57.2054 262.625 57.4882 262.239 57.9374 262.239C58.3175 262.239 58.5406 262.484 58.5971 262.804L58.6034 262.832H59.4547V262.81C59.4202 262.082 58.839 261.519 57.9248 261.519C56.9164 261.519 56.2724 262.188 56.2724 263.266V263.269C56.2724 264.356 56.907 265.025 57.9342 265.025ZM61.4401 265.025C62.3386 265.025 62.9197 264.466 62.9637 263.731V263.712H62.1092L62.1061 263.74C62.0433 264.08 61.8139 264.306 61.4464 264.306C60.994 264.306 60.7113 263.932 60.7113 263.272V263.269C60.7113 262.625 60.994 262.239 61.4433 262.239C61.8234 262.239 62.0464 262.484 62.103 262.804L62.1092 262.832H62.9606V262.81C62.926 262.082 62.3448 261.519 61.4307 261.519C60.4223 261.519 59.7783 262.188 59.7783 263.266V263.269C59.7783 264.356 60.4129 265.025 61.4401 265.025ZM63.4067 264.956H64.324V263.071C64.324 262.581 64.5878 262.311 65.0402 262.311C65.1722 262.311 65.2978 262.33 65.3732 262.361V261.554C65.3041 261.535 65.2099 261.519 65.1093 261.519C64.7166 261.519 64.4433 261.761 64.3428 262.176H64.324V261.588H63.4067V264.956ZM66.8968 265.025C67.4057 265.025 67.7513 264.786 67.9241 264.4H67.9429V264.956H68.8602V261.588H67.9429V263.524C67.9429 263.963 67.6822 264.265 67.2706 264.265C66.8591 264.265 66.6518 264.01 66.6518 263.571V261.588H65.7345V263.762C65.7345 264.551 66.1554 265.025 66.8968 265.025ZM70.9901 265.025C71.9514 265.025 72.4163 264.457 72.52 263.96L72.5294 263.926H71.6875L71.6812 263.945C71.6153 264.133 71.386 264.34 71.009 264.34C70.5409 264.34 70.2487 264.026 70.2393 263.489H72.5577V263.206C72.5577 262.188 71.9388 261.519 70.9524 261.519C69.966 261.519 69.3346 262.204 69.3346 263.275V263.279C69.3346 264.356 69.9597 265.025 70.9901 265.025ZM70.9681 262.204C71.3483 262.204 71.6216 262.446 71.6781 262.911H70.2487C70.3084 262.455 70.5912 262.204 70.9681 262.204ZM74.2792 265.025C74.7662 265.025 75.1368 264.78 75.3159 264.381H75.3348V264.956H76.2521V260.423H75.3348V262.173H75.3159C75.1337 261.764 74.7567 261.519 74.2792 261.519C73.431 261.519 72.9096 262.173 72.9096 263.269V263.272C72.9096 264.365 73.431 265.025 74.2792 265.025ZM74.5871 264.265C74.1284 264.265 73.8426 263.885 73.8426 263.272V263.269C73.8426 262.653 74.1316 262.28 74.5871 262.28C75.03 262.28 75.3379 262.663 75.3379 263.269V263.272C75.3379 263.882 75.0332 264.265 74.5871 264.265ZM78.2186 264.956H79.1673V260.423H78.2186V264.956ZM79.8427 264.956H80.76V263.021C80.76 262.581 81.0208 262.28 81.4323 262.28C81.8438 262.28 82.0512 262.531 82.0512 262.971V264.956H82.9685V262.782C82.9685 261.994 82.5475 261.519 81.8061 261.519C81.2972 261.519 80.9517 261.755 80.7789 262.141H80.76V261.588H79.8427V264.956ZM84.8879 265.025C85.0795 265.025 85.2272 265.006 85.3309 264.991V264.318C85.2743 264.325 85.2146 264.334 85.1329 264.334C84.8565 264.334 84.7151 264.227 84.7151 263.913V262.28H85.3309V261.588H84.7151V260.765H83.7884V261.588H83.3203V262.28H83.7884V264.014C83.7884 264.736 84.1402 265.025 84.8879 265.025ZM87.3194 265.025C88.2807 265.025 88.7456 264.457 88.8493 263.96L88.8587 263.926H88.0168L88.0105 263.945C87.9445 264.133 87.7152 264.34 87.3382 264.34C86.8702 264.34 86.578 264.026 86.5686 263.489H88.887V263.206C88.887 262.188 88.2681 261.519 87.2817 261.519C86.2953 261.519 85.6639 262.204 85.6639 263.275V263.279C85.6639 264.356 86.289 265.025 87.3194 265.025ZM87.2974 262.204C87.6775 262.204 87.9508 262.446 88.0074 262.911H86.578C86.6377 262.455 86.9204 262.204 87.2974 262.204ZM89.3613 264.956H90.2786V263.071C90.2786 262.581 90.5425 262.311 90.9949 262.311C91.1268 262.311 91.2525 262.33 91.3279 262.361V261.554C91.2588 261.535 91.1645 261.519 91.064 261.519C90.6713 261.519 90.398 261.761 90.2975 262.176H90.2786V261.588H89.3613V264.956ZM93.1248 265.025C94.0861 265.025 94.551 264.457 94.6547 263.96L94.6641 263.926H93.8222L93.8159 263.945C93.75 264.133 93.5206 264.34 93.1437 264.34C92.6756 264.34 92.3834 264.026 92.374 263.489H94.6924V263.206C94.6924 262.188 94.0735 261.519 93.0871 261.519C92.1007 261.519 91.4693 262.204 91.4693 263.275V263.279C91.4693 264.356 92.0944 265.025 93.1248 265.025ZM93.1028 262.204C93.4829 262.204 93.7562 262.446 93.8128 262.911H92.3834C92.4431 262.455 92.7258 262.204 93.1028 262.204ZM96.5521 265.025C97.4192 265.025 98.0255 264.592 98.0255 263.932V263.929C98.0255 263.432 97.7365 263.156 97.0328 263.008L96.461 262.886C96.1217 262.814 96.0055 262.7 96.0055 262.528V262.525C96.0055 262.308 96.2034 262.166 96.5207 262.166C96.86 262.166 97.0579 262.349 97.0893 262.591L97.0925 262.616H97.9375V262.584C97.9155 261.994 97.416 261.519 96.5207 261.519C95.6631 261.519 95.1102 261.934 95.1102 262.575V262.578C95.1102 263.081 95.4401 263.407 96.0935 263.546L96.6652 263.665C96.9951 263.737 97.1082 263.841 97.1082 264.02V264.023C97.1082 264.24 96.8977 264.375 96.5521 264.375C96.1846 264.375 95.9867 264.221 95.927 263.957L95.9207 263.929H95.0254L95.0285 263.957C95.1008 264.595 95.6191 265.025 96.5521 265.025ZM99.8161 265.025C100.008 265.025 100.155 265.006 100.259 264.991V264.318C100.202 264.325 100.143 264.334 100.061 264.334C99.7847 264.334 99.6433 264.227 99.6433 263.913V262.28H100.259V261.588H99.6433V260.765H98.7166V261.588H98.2485V262.28H98.7166V264.014C98.7166 264.736 99.0684 265.025 99.8161 265.025Z" fill="#413D4A"/>
<circle cx="36.7541" cy="262.709" r="10.7228" fill="#979797" fill-opacity="0.1"/>
<path d="M172.935 265.39L176.152 262.709L172.935 260.028" stroke="#4A4A4A" stroke-width="1.07228" stroke-linecap="round" stroke-linejoin="round"/>
<rect x="13.166" y="290.052" width="175.318" height="32.1685" rx="2.14457" fill="#F0F0F0"/>
<path d="M53.8001 308.462C54.9436 308.462 55.6284 307.909 55.6284 307.039V307.036C55.6284 306.323 55.2012 305.937 54.2525 305.748L53.7718 305.651C53.2503 305.547 53.0179 305.381 53.0179 305.095V305.092C53.0179 304.768 53.31 304.545 53.797 304.542C54.265 304.542 54.5917 304.759 54.6389 305.114L54.642 305.151H55.5373L55.5342 305.092C55.4902 304.297 54.8462 303.772 53.797 303.772C52.7917 303.772 52.0692 304.319 52.0692 305.148V305.151C52.0692 305.833 52.5215 306.26 53.4168 306.439L53.8943 306.533C54.4567 306.65 54.6797 306.804 54.6797 307.112V307.115C54.6797 307.46 54.3499 307.69 53.8252 307.69C53.3069 307.69 52.9331 307.47 52.8734 307.118L52.8671 307.083H51.9718L51.9749 307.133C52.0283 307.969 52.7226 308.462 53.8001 308.462ZM57.6641 308.453C58.6254 308.453 59.0903 307.884 59.194 307.388L59.2034 307.353H58.3615L58.3552 307.372C58.2892 307.561 58.0599 307.768 57.6829 307.768C57.2149 307.768 56.9227 307.454 56.9133 306.917H59.2317V306.634C59.2317 305.616 58.6128 304.947 57.6264 304.947C56.64 304.947 56.0085 305.632 56.0085 306.703V306.706C56.0085 307.784 56.6337 308.453 57.6641 308.453ZM57.6421 305.632C58.0222 305.632 58.2955 305.874 58.3521 306.339H56.9227C56.9824 305.883 57.2651 305.632 57.6421 305.632ZM61.0443 308.453C61.2359 308.453 61.3836 308.434 61.4872 308.418V307.746C61.4307 307.752 61.371 307.762 61.2893 307.762C61.0129 307.762 60.8715 307.655 60.8715 307.341V305.707H61.4872V305.016H60.8715V304.193H59.9448V305.016H59.4767V305.707H59.9448V307.441C59.9448 308.164 60.2966 308.453 61.0443 308.453ZM63.3313 308.453C63.5229 308.453 63.6705 308.434 63.7742 308.418V307.746C63.7177 307.752 63.658 307.762 63.5763 307.762C63.2999 307.762 63.1585 307.655 63.1585 307.341V305.707H63.7742V305.016H63.1585V304.193H62.2318V305.016H61.7637V305.707H62.2318V307.441C62.2318 308.164 62.5836 308.453 63.3313 308.453ZM64.7575 304.583C65.0339 304.583 65.2476 304.366 65.2476 304.105C65.2476 303.844 65.0339 303.628 64.7575 303.628C64.481 303.628 64.2674 303.844 64.2674 304.105C64.2674 304.366 64.481 304.583 64.7575 304.583ZM64.2988 308.384H65.2161V305.016H64.2988V308.384ZM65.8319 308.384H66.7492V306.449C66.7492 306.009 67.0099 305.707 67.4214 305.707C67.833 305.707 68.0403 305.959 68.0403 306.398V308.384H68.9576V306.21C68.9576 305.421 68.5367 304.947 67.7953 304.947C67.2864 304.947 66.9408 305.183 66.768 305.569H66.7492V305.016H65.8319V308.384ZM71.1126 309.552C72.1242 309.552 72.7556 309.04 72.7556 308.29V305.016H71.8383V305.591H71.8195C71.6373 305.198 71.2697 304.947 70.7954 304.947C69.944 304.947 69.4163 305.585 69.4163 306.659V306.662C69.4163 307.708 69.9377 308.337 70.7797 308.337C71.2666 308.337 71.6436 308.114 71.8195 307.762H71.8383V308.277C71.8383 308.654 71.587 308.899 71.1126 308.899C70.7294 308.899 70.4844 308.754 70.4121 308.588L70.4027 308.566H69.5105L69.5136 308.594C69.6016 309.135 70.1859 309.552 71.1126 309.552ZM71.0969 307.664C70.6383 307.664 70.3493 307.291 70.3493 306.684V306.681C70.3493 306.078 70.6414 305.707 71.0969 305.707C71.543 305.707 71.8415 306.081 71.8415 306.681V306.684C71.8415 307.287 71.5462 307.664 71.0969 307.664ZM74.7442 308.453C75.6112 308.453 76.2175 308.019 76.2175 307.36V307.357C76.2175 306.86 75.9285 306.584 75.2248 306.436L74.6531 306.314C74.3138 306.241 74.1976 306.128 74.1976 305.955V305.952C74.1976 305.736 74.3955 305.594 74.7127 305.594C75.052 305.594 75.2499 305.776 75.2814 306.018L75.2845 306.043H76.1295V306.012C76.1076 305.421 75.6081 304.947 74.7127 304.947C73.8551 304.947 73.3022 305.362 73.3022 306.003V306.006C73.3022 306.508 73.6321 306.835 74.2855 306.973L74.8573 307.093C75.1871 307.165 75.3002 307.269 75.3002 307.448V307.451C75.3002 307.668 75.0897 307.803 74.7442 307.803C74.3766 307.803 74.1787 307.649 74.119 307.385L74.1127 307.357H73.2174L73.2206 307.385C73.2928 308.023 73.8112 308.453 74.7442 308.453Z" fill="#413D4A"/>
<circle cx="36.7541" cy="306.136" r="10.7228" fill="#979797" fill-opacity="0.1"/>
<path d="M172.935 308.817L176.152 306.136L172.935 303.456" stroke="#4A4A4A" stroke-width="1.07228" stroke-linecap="round" stroke-linejoin="round"/>
<rect x="13.166" y="333.48" width="175.318" height="32.1685" rx="2.14457" fill="#F0F0F0"/>
<path d="M52.1446 351.811H55.0755V351.029H53.0933V347.278H52.1446V351.811ZM57.0421 351.88C58.0034 351.88 58.4683 351.312 58.572 350.815L58.5814 350.781H57.7395L57.7332 350.799C57.6672 350.988 57.4379 351.195 57.0609 351.195C56.5928 351.195 56.3007 350.881 56.2913 350.344H58.6097V350.061C58.6097 349.043 57.9908 348.374 57.0044 348.374C56.018 348.374 55.3865 349.059 55.3865 350.13V350.133C55.3865 351.211 56.0117 351.88 57.0421 351.88ZM57.0201 349.059C57.4002 349.059 57.6735 349.301 57.7301 349.766H56.3007C56.3604 349.31 56.6431 349.059 57.0201 349.059ZM60.0861 351.864C60.5291 351.864 60.8872 351.654 61.0788 351.308H61.0977V351.811H62.015V349.502C62.015 348.824 61.4527 348.374 60.5825 348.374C59.6935 348.374 59.1594 348.82 59.1092 349.442L59.106 349.48H59.9448L59.9511 349.452C59.995 349.235 60.2024 349.075 60.5448 349.075C60.9029 349.075 61.0977 349.26 61.0977 349.559V349.766L60.2652 349.816C59.4296 349.87 58.9552 350.228 58.9552 350.84V350.847C58.9552 351.44 59.4107 351.864 60.0861 351.864ZM59.8631 350.799V350.793C59.8631 350.554 60.0484 350.404 60.4034 350.382L61.0977 350.338V350.58C61.0977 350.931 60.7961 351.195 60.3846 351.195C60.0673 351.195 59.8631 351.048 59.8631 350.799ZM62.6087 351.811H63.526V349.926C63.526 349.436 63.7899 349.166 64.2423 349.166C64.3742 349.166 64.4999 349.185 64.5753 349.216V348.409C64.5062 348.39 64.4119 348.374 64.3114 348.374C63.9187 348.374 63.6454 348.616 63.5449 349.031H63.526V348.443H62.6087V351.811ZM64.9523 351.811H65.8696V349.876C65.8696 349.436 66.1303 349.135 66.5418 349.135C66.9534 349.135 67.1607 349.386 67.1607 349.826V351.811H68.078V349.637C68.078 348.849 67.657 348.374 66.9157 348.374C66.4067 348.374 66.0612 348.61 65.8884 348.996H65.8696V348.443H64.9523V351.811ZM69.9346 351.811H70.8519V349.779C70.8519 349.398 71.0875 349.135 71.4362 349.135C71.7755 349.135 71.9797 349.348 71.9797 349.709V351.811H72.8624V349.763C72.8624 349.389 73.0918 349.135 73.4405 349.135C73.7954 349.135 73.9902 349.348 73.9902 349.738V351.811H74.9075V349.508C74.9075 348.83 74.4646 348.374 73.8049 348.374C73.3117 348.374 72.9096 348.644 72.7588 349.069H72.7399C72.6268 348.626 72.2844 348.374 71.8132 348.374C71.3608 348.374 71.009 348.626 70.8708 349.009H70.8519V348.443H69.9346V351.811ZM77.0343 351.88C78.0521 351.88 78.7024 351.227 78.7024 350.127V350.121C78.7024 349.031 78.0395 348.374 77.0311 348.374C76.0259 348.374 75.3662 349.037 75.3662 350.121V350.127C75.3662 351.224 76.0102 351.88 77.0343 351.88ZM77.0374 351.161C76.5851 351.161 76.2992 350.787 76.2992 350.127V350.121C76.2992 349.471 76.5882 349.094 77.0311 349.094C77.4772 349.094 77.7694 349.471 77.7694 350.121V350.127C77.7694 350.784 77.4835 351.161 77.0374 351.161ZM79.1768 351.811H80.0941V349.926C80.0941 349.436 80.3579 349.166 80.8103 349.166C80.9422 349.166 81.0679 349.185 81.1433 349.216V348.409C81.0742 348.39 80.9799 348.374 80.8794 348.374C80.4867 348.374 80.2134 348.616 80.1129 349.031H80.0941V348.443H79.1768V351.811ZM82.9402 351.88C83.9015 351.88 84.3664 351.312 84.4701 350.815L84.4795 350.781H83.6376L83.6313 350.799C83.5654 350.988 83.336 351.195 82.9591 351.195C82.491 351.195 82.1988 350.881 82.1894 350.344H84.5078V350.061C84.5078 349.043 83.8889 348.374 82.9025 348.374C81.9161 348.374 81.2847 349.059 81.2847 350.13V350.133C81.2847 351.211 81.9098 351.88 82.9402 351.88ZM82.9182 349.059C83.2983 349.059 83.5716 349.301 83.6282 349.766H82.1988C82.2585 349.31 82.5412 349.059 82.9182 349.059Z" fill="#413D4A"/>
<circle cx="36.7541" cy="349.564" r="10.7228" fill="#979797" fill-opacity="0.1"/>
<path d="M172.935 352.245L176.152 349.564L172.935 346.883" stroke="#4A4A4A" stroke-width="1.07228" stroke-linecap="round" stroke-linejoin="round"/>
<path d="M38.8821 174.885H41.8131V174.102H39.8308V170.351H38.8821V174.885ZM43.7922 174.954C44.81 174.954 45.4603 174.3 45.4603 173.201V173.194C45.4603 172.104 44.7975 171.448 43.7891 171.448C42.7838 171.448 42.1241 172.111 42.1241 173.194V173.201C42.1241 174.297 42.7681 174.954 43.7922 174.954ZM43.7954 174.234C43.343 174.234 43.0571 173.86 43.0571 173.201V173.194C43.0571 172.544 43.3461 172.167 43.7891 172.167C44.2352 172.167 44.5273 172.544 44.5273 173.194V173.201C44.5273 173.857 44.2414 174.234 43.7954 174.234ZM45.9347 174.885H46.852V173C46.852 172.51 47.1159 172.239 47.5682 172.239C47.7002 172.239 47.8258 172.258 47.9012 172.29V171.482C47.8321 171.463 47.7379 171.448 47.6374 171.448C47.2447 171.448 46.9714 171.69 46.8708 172.104H46.852V171.517H45.9347V174.885ZM49.6981 174.954C50.6594 174.954 51.1244 174.385 51.228 173.889L51.2375 173.854H50.3956L50.3893 173.873C50.3233 174.061 50.094 174.269 49.717 174.269C49.2489 174.269 48.9568 173.955 48.9473 173.417H51.2657V173.135C51.2657 172.117 50.6469 171.448 49.6605 171.448C48.674 171.448 48.0426 172.133 48.0426 173.204V173.207C48.0426 174.285 48.6678 174.954 49.6981 174.954ZM49.6762 172.133C50.0563 172.133 50.3296 172.375 50.3861 172.839H48.9568C49.0165 172.384 49.2992 172.133 49.6762 172.133ZM51.7401 174.885H52.6574V172.852C52.6574 172.472 52.893 172.208 53.2417 172.208C53.581 172.208 53.7852 172.422 53.7852 172.783V174.885H54.6679V172.836C54.6679 172.462 54.8973 172.208 55.246 172.208C55.6009 172.208 55.7957 172.422 55.7957 172.811V174.885H56.713V172.582C56.713 171.903 56.2701 171.448 55.6104 171.448C55.1172 171.448 54.715 171.718 54.5643 172.142H54.5454C54.4323 171.699 54.0899 171.448 53.6187 171.448C53.1663 171.448 52.8145 171.699 52.6762 172.082H52.6574V171.517H51.7401V174.885ZM58.6481 174.885H59.5969V170.351H58.6481V174.885ZM60.2723 175.984H61.1896V174.31H61.2084C61.3906 174.709 61.7708 174.954 62.2514 174.954C63.0933 174.954 63.6148 174.294 63.6148 173.201V173.198C63.6148 172.101 63.0933 171.448 62.2388 171.448C61.7613 171.448 61.3938 171.696 61.2116 172.104H61.1896V171.517H60.2723V175.984ZM61.9372 174.193C61.4912 174.193 61.1864 173.81 61.1864 173.204V173.201C61.1864 172.591 61.4912 172.208 61.9372 172.208C62.3928 172.208 62.6818 172.582 62.6818 173.198V173.201C62.6818 173.813 62.3928 174.193 61.9372 174.193ZM65.4777 174.954C66.3447 174.954 66.951 174.52 66.951 173.86V173.857C66.951 173.361 66.662 173.084 65.9583 172.937L65.3866 172.814C65.0473 172.742 64.9311 172.629 64.9311 172.456V172.453C64.9311 172.236 65.129 172.095 65.4463 172.095C65.7855 172.095 65.9834 172.277 66.0149 172.519L66.018 172.544H66.863V172.513C66.8411 171.922 66.3416 171.448 65.4463 171.448C64.5886 171.448 64.0357 171.862 64.0357 172.503V172.506C64.0357 173.009 64.3656 173.336 65.019 173.474L65.5908 173.593C65.9206 173.666 66.0337 173.769 66.0337 173.948V173.952C66.0337 174.168 65.8232 174.303 65.4777 174.303C65.1101 174.303 64.9122 174.149 64.8525 173.886L64.8462 173.857H63.9509L63.9541 173.886C64.0263 174.523 64.5447 174.954 65.4777 174.954ZM68.55 174.954C69.0589 174.954 69.4045 174.715 69.5773 174.328H69.5961V174.885H70.5134V171.517H69.5961V173.452C69.5961 173.892 69.3354 174.193 68.9238 174.193C68.5123 174.193 68.305 173.939 68.305 173.499V171.517H67.3877V173.691C67.3877 174.479 67.8086 174.954 68.55 174.954ZM71.1103 174.885H72.0276V172.852C72.0276 172.472 72.2632 172.208 72.6119 172.208C72.9512 172.208 73.1554 172.422 73.1554 172.783V174.885H74.0381V172.836C74.0381 172.462 74.2674 172.208 74.6162 172.208C74.9711 172.208 75.1659 172.422 75.1659 172.811V174.885H76.0832V172.582C76.0832 171.903 75.6403 171.448 74.9806 171.448C74.4874 171.448 74.0852 171.718 73.9345 172.142H73.9156C73.8025 171.699 73.4601 171.448 72.9889 171.448C72.5365 171.448 72.1847 171.699 72.0464 172.082H72.0276V171.517H71.1103V174.885Z" fill="#333333"/>
<path d="M135.734 174.885H136.299V172.821H138.787V174.885H139.353V170.352H138.787V172.312H136.299V170.352H135.734V174.885ZM140.455 171.065C140.647 171.065 140.798 170.911 140.798 170.722C140.798 170.531 140.647 170.38 140.455 170.38C140.267 170.38 140.113 170.531 140.113 170.722C140.113 170.911 140.267 171.065 140.455 171.065ZM140.182 174.885H140.729V171.618H140.182V174.885ZM142.632 174.948C143.361 174.948 143.902 174.545 143.902 173.974V173.971C143.902 173.506 143.663 173.245 143.003 173.085L142.485 172.959C142.124 172.871 141.976 172.717 141.976 172.494V172.491C141.976 172.202 142.221 172.01 142.617 172.01C143.022 172.01 143.264 172.221 143.308 172.538L143.311 172.56H143.832L143.829 172.519C143.788 171.973 143.333 171.555 142.617 171.555C141.91 171.555 141.417 171.954 141.417 172.516V172.519C141.417 172.99 141.715 173.276 142.331 173.424L142.849 173.55C143.22 173.641 143.342 173.773 143.342 174.008V174.011C143.342 174.307 143.079 174.492 142.636 174.492C142.189 174.492 141.948 174.3 141.882 173.974L141.875 173.942H141.329L141.332 173.971C141.398 174.555 141.863 174.948 142.632 174.948ZM145.532 174.948C145.639 174.948 145.755 174.935 145.824 174.926V174.483C145.777 174.486 145.714 174.495 145.648 174.495C145.356 174.495 145.202 174.398 145.202 174.049V172.07H145.824V171.618H145.202V170.735H144.637V171.618H144.159V172.07H144.637V174.052C144.637 174.677 144.932 174.948 145.532 174.948ZM147.671 174.948C148.573 174.948 149.182 174.294 149.182 173.251V173.245C149.182 172.202 148.57 171.555 147.668 171.555C146.767 171.555 146.157 172.205 146.157 173.245V173.251C146.157 174.291 146.763 174.948 147.671 174.948ZM147.674 174.464C147.096 174.464 146.716 174.021 146.716 173.251V173.245C146.716 172.482 147.1 172.039 147.668 172.039C148.246 172.039 148.623 172.478 148.623 173.245V173.251C148.623 174.018 148.249 174.464 147.674 174.464ZM149.735 174.885H150.282V172.868C150.282 172.372 150.558 172.076 150.982 172.076C151.114 172.076 151.231 172.092 151.275 172.108V171.577C151.231 171.571 151.149 171.555 151.055 171.555C150.687 171.555 150.404 171.794 150.294 172.171H150.282V171.618H149.735V174.885ZM152.129 175.984C152.72 175.984 153.006 175.714 153.238 175.089L154.513 171.618H153.939L153.034 174.338H153.021L152.12 171.618H151.535L152.748 174.888L152.682 175.073C152.55 175.444 152.358 175.532 152.013 175.532C151.947 175.532 151.884 175.522 151.837 175.513V175.959C151.906 175.972 152.022 175.984 152.129 175.984Z" fill="#828282"/>
<rect x="15.3105" y="181.216" width="85.7826" height="1.07228" fill="#4A4A4A"/>
<g filter="url(#filter0_d_206_2711)">
<rect x="0.296875" y="390.311" width="201.053" height="45.0359" fill="white"/>
<rect x="65.7061" y="425.696" width="71.8429" height="2.68071" rx="1.34035" fill="#1E272E"/>
<path d="M28.0851 402.111L24.5733 399.302C23.8871 398.755 22.8148 398.75 22.1339 399.297L18.6222 402.111C18.1182 402.513 17.8126 403.318 17.9198 403.95L18.5954 407.993C18.7508 408.899 19.5926 409.612 20.5094 409.612H26.1925C27.0986 409.612 27.9564 408.883 28.1119 407.987L28.7874 403.945C28.8839 403.318 28.5783 402.513 28.0851 402.111ZM23.753 407.467C23.753 407.687 23.5708 407.87 23.3509 407.87C23.1311 407.87 22.9488 407.687 22.9488 407.467V405.859C22.9488 405.639 23.1311 405.457 23.3509 405.457C23.5708 405.457 23.753 405.639 23.753 405.859V407.467Z" fill="black"/>
<path d="M16.637 418.829H17.4276V417.237H19.1293V418.829H19.9198V415.051H19.1293V416.585H17.4276V415.051H16.637V418.829ZM21.7707 418.886C22.6189 418.886 23.1608 418.342 23.1608 417.425V417.42C23.1608 416.512 22.6084 415.965 21.7681 415.965C20.9303 415.965 20.3806 416.517 20.3806 417.42V417.425C20.3806 418.339 20.9173 418.886 21.7707 418.886ZM21.7733 418.287C21.3963 418.287 21.1581 417.975 21.1581 417.425V417.42C21.1581 416.878 21.3989 416.564 21.7681 416.564C22.1398 416.564 22.3833 416.878 22.3833 417.42V417.425C22.3833 417.973 22.145 418.287 21.7733 418.287ZM23.5561 418.829H24.3205V417.135C24.3205 416.818 24.5168 416.598 24.8074 416.598C25.0902 416.598 25.2603 416.776 25.2603 417.077V418.829H25.9959V417.122C25.9959 416.81 26.187 416.598 26.4776 416.598C26.7735 416.598 26.9358 416.776 26.9358 417.101V418.829H27.7002V416.91C27.7002 416.344 27.3311 415.965 26.7813 415.965C26.3703 415.965 26.0352 416.19 25.9096 416.543H25.8938C25.7996 416.174 25.5143 415.965 25.1216 415.965C24.7446 415.965 24.4514 416.174 24.3362 416.493H24.3205V416.022H23.5561V418.829ZM29.462 418.886C30.2631 418.886 30.6505 418.412 30.7369 417.999L30.7448 417.97H30.0432L30.0379 417.986C29.983 418.143 29.7919 418.316 29.4777 418.316C29.0877 418.316 28.8442 418.054 28.8363 417.606H30.7683V417.37C30.7683 416.522 30.2526 415.965 29.4306 415.965C28.6086 415.965 28.0824 416.535 28.0824 417.428V417.431C28.0824 418.329 28.6033 418.886 29.462 418.886ZM29.4437 416.535C29.7605 416.535 29.9882 416.737 30.0353 417.124H28.8442C28.8939 416.745 29.1295 416.535 29.4437 416.535Z" fill="#333333"/>
<path d="M67.2356 418.891C68.0995 418.891 68.6309 418.467 68.6309 417.797V417.795C68.6309 417.219 68.3063 416.904 67.5314 416.734L67.1125 416.643C66.6204 416.535 66.3926 416.342 66.3926 416.033V416.03C66.3926 415.666 66.7224 415.425 67.2277 415.423C67.7068 415.423 68.0288 415.651 68.0864 416.035L68.0916 416.072H68.5628L68.5602 416.033C68.5183 415.415 67.979 414.988 67.2408 414.988C66.4633 414.988 65.9135 415.423 65.9109 416.043V416.046C65.9109 416.598 66.2565 416.931 66.9947 417.093L67.4136 417.185C67.9319 417.3 68.1492 417.486 68.1492 417.818V417.821C68.1492 418.211 67.8063 418.457 67.2617 418.457C66.7146 418.457 66.3481 418.224 66.2931 417.844L66.2879 417.808H65.8167L65.8193 417.844C65.8664 418.491 66.4188 418.891 67.2356 418.891ZM69.9084 418.881C70.2723 418.881 70.5995 418.685 70.7592 418.386H70.7697V418.829H71.2252V416.946C71.2252 416.402 70.822 416.054 70.178 416.054C69.5367 416.054 69.1466 416.415 69.1073 416.863L69.1047 416.891H69.5445L69.5498 416.868C69.6021 416.624 69.822 416.457 70.1728 416.457C70.5524 416.457 70.7697 416.658 70.7697 416.991V417.219L69.9896 417.263C69.3639 417.3 69.0026 417.59 69.0026 418.054V418.059C69.0026 418.554 69.3665 418.881 69.9084 418.881ZM69.4686 418.059V418.054C69.4686 417.8 69.678 417.637 70.0419 417.617L70.7697 417.572V417.795C70.7697 418.19 70.4398 418.486 70.0105 418.486C69.6833 418.486 69.4686 418.321 69.4686 418.059ZM72.5708 418.829H73.0368L74.0368 416.106H73.563L72.809 418.344H72.7985L72.0472 416.106H71.5681L72.5708 418.829ZM74.652 415.645C74.8117 415.645 74.9373 415.517 74.9373 415.36C74.9373 415.2 74.8117 415.075 74.652 415.075C74.4949 415.075 74.3667 415.2 74.3667 415.36C74.3667 415.517 74.4949 415.645 74.652 415.645ZM74.4242 418.829H74.8798V416.106H74.4242V418.829ZM75.5002 418.829H75.9557V417.226C75.9557 416.763 76.2358 416.457 76.6651 416.457C77.084 416.457 77.2908 416.7 77.2908 417.143V418.829H77.7463V417.062C77.7463 416.441 77.4008 416.054 76.8039 416.054C76.3903 416.054 76.1128 416.24 75.9662 416.493H75.9557V416.106H75.5002V418.829ZM79.4794 419.797C80.2176 419.797 80.681 419.384 80.681 418.753V416.106H80.2255V416.567H80.215C80.0474 416.263 79.7438 416.054 79.3589 416.054C78.6678 416.054 78.194 416.603 78.194 417.449V417.452C78.194 418.302 78.6626 418.855 79.3485 418.855C79.7385 418.855 80.0527 418.661 80.215 418.36H80.2255V418.708C80.2255 419.13 79.9532 419.394 79.4741 419.394C79.1024 419.394 78.8432 419.274 78.7568 419.077L78.7464 419.054H78.2882L78.2935 419.077C78.3825 419.48 78.8066 419.797 79.4794 419.797ZM79.448 418.452C78.9636 418.452 78.66 418.069 78.66 417.452V417.449C78.66 416.844 78.9636 416.457 79.448 416.457C79.9087 416.457 80.2255 416.849 80.2255 417.449V417.452C80.2255 418.056 79.9113 418.452 79.448 418.452ZM82.236 418.881C82.8433 418.881 83.2936 418.546 83.2936 418.069V418.067C83.2936 417.679 83.0947 417.462 82.5449 417.329L82.113 417.224C81.8119 417.151 81.6889 417.022 81.6889 416.836V416.834C81.6889 416.593 81.893 416.433 82.2229 416.433C82.5606 416.433 82.7622 416.609 82.7988 416.873L82.8015 416.891H83.236L83.2334 416.857C83.1994 416.402 82.8198 416.054 82.2229 416.054C81.6339 416.054 81.2229 416.386 81.2229 416.855V416.857C81.2229 417.25 81.4716 417.488 81.9847 417.611L82.4166 417.716C82.7255 417.792 82.8276 417.902 82.8276 418.098V418.101C82.8276 418.347 82.6077 418.501 82.2386 418.501C81.8669 418.501 81.6653 418.342 81.6103 418.069L81.6051 418.043H81.1496L81.1522 418.067C81.2072 418.554 81.5946 418.881 82.236 418.881Z" fill="#718096"/>
<path d="M79.6459 410.014H70.5315C69.4217 410.014 68.521 409.113 68.521 408.004V398.889C68.521 398.669 68.7033 398.487 68.9231 398.487C69.1429 398.487 69.3252 398.669 69.3252 398.889V408.004C69.3252 408.668 69.8667 409.21 70.5315 409.21H79.6459C79.8657 409.21 80.048 409.392 80.048 409.612C80.048 409.832 79.8657 410.014 79.6459 410.014Z" fill="#E8E8E8"/>
<path d="M70.5314 407.333C70.4403 407.333 70.3438 407.301 70.2687 407.237C70.1025 407.092 70.081 406.84 70.2258 406.668L72.6867 403.795C72.9548 403.484 73.3408 403.296 73.7483 403.28C74.1557 403.269 74.5578 403.419 74.8473 403.709L75.3567 404.218C75.4907 404.352 75.6623 404.417 75.8553 404.417C76.0429 404.411 76.2145 404.326 76.3378 404.181L78.7987 401.307C78.9435 401.141 79.1954 401.119 79.367 401.264C79.5332 401.409 79.5547 401.661 79.4099 401.832L76.949 404.706C76.6809 405.017 76.2949 405.205 75.8875 405.221C75.4746 405.232 75.0779 405.081 74.7884 404.792L74.2844 404.283C74.1504 404.149 73.9734 404.079 73.7858 404.084C73.5981 404.09 73.4266 404.175 73.3033 404.32L70.8424 407.194C70.7566 407.285 70.644 407.333 70.5314 407.333Z" fill="#E8E8E8"/>
<path d="M115.829 418.829H117.098C118.221 418.829 118.881 418.13 118.881 416.939V416.933C118.881 415.747 118.216 415.051 117.098 415.051H115.829V418.829ZM116.3 418.405V415.475H117.067C117.923 415.475 118.4 415.996 118.4 416.939V416.944C118.4 417.881 117.923 418.405 117.067 418.405H116.3ZM119.653 415.645C119.813 415.645 119.939 415.517 119.939 415.36C119.939 415.2 119.813 415.075 119.653 415.075C119.496 415.075 119.368 415.2 119.368 415.36C119.368 415.517 119.496 415.645 119.653 415.645ZM119.426 418.829H119.881V416.106H119.426V418.829ZM121.468 418.881C122.075 418.881 122.525 418.546 122.525 418.069V418.067C122.525 417.679 122.326 417.462 121.777 417.329L121.345 417.224C121.044 417.151 120.921 417.022 120.921 416.836V416.834C120.921 416.593 121.125 416.433 121.455 416.433C121.792 416.433 121.994 416.609 122.03 416.873L122.033 416.891H122.468L122.465 416.857C122.431 416.402 122.051 416.054 121.455 416.054C120.866 416.054 120.455 416.386 120.455 416.855V416.857C120.455 417.25 120.703 417.488 121.216 417.611L121.648 417.716C121.957 417.792 122.059 417.902 122.059 418.098V418.101C122.059 418.347 121.839 418.501 121.47 418.501C121.099 418.501 120.897 418.342 120.842 418.069L120.837 418.043H120.381L120.384 418.067C120.439 418.554 120.826 418.881 121.468 418.881ZM124.127 418.881C124.743 418.881 125.19 418.48 125.264 417.962L125.266 417.944H124.819L124.813 417.965C124.737 418.268 124.499 418.478 124.127 418.478C123.656 418.478 123.332 418.103 123.332 417.47V417.467C123.332 416.849 123.648 416.457 124.122 416.457C124.523 416.457 124.743 416.698 124.811 416.97L124.816 416.991H125.261L125.258 416.97C125.201 416.504 124.8 416.054 124.122 416.054C123.366 416.054 122.866 416.603 122.866 417.462V417.465C122.866 418.331 123.355 418.881 124.127 418.881ZM126.813 418.881C127.565 418.881 128.073 418.336 128.073 417.467V417.462C128.073 416.593 127.562 416.054 126.811 416.054C126.059 416.054 125.552 416.596 125.552 417.462V417.467C125.552 418.334 126.057 418.881 126.813 418.881ZM126.816 418.478C126.334 418.478 126.018 418.109 126.018 417.467V417.462C126.018 416.826 126.337 416.457 126.811 416.457C127.292 416.457 127.607 416.823 127.607 417.462V417.467C127.607 418.106 127.295 418.478 126.816 418.478ZM129.463 418.881C129.876 418.881 130.154 418.695 130.3 418.441H130.311V418.829H130.766V416.106H130.311V417.708C130.311 418.172 130.031 418.478 129.601 418.478C129.183 418.478 128.976 418.234 128.976 417.792V416.106H128.52V417.873C128.52 418.494 128.866 418.881 129.463 418.881ZM131.361 418.829H131.816V417.226C131.816 416.763 132.096 416.457 132.526 416.457C132.944 416.457 133.151 416.7 133.151 417.143V418.829H133.607V417.062C133.607 416.441 133.261 416.054 132.664 416.054C132.251 416.054 131.973 416.24 131.827 416.493H131.816V416.106H131.361V418.829ZM135.073 418.881C135.162 418.881 135.259 418.87 135.316 418.863V418.494C135.277 418.496 135.225 418.504 135.17 418.504C134.926 418.504 134.798 418.423 134.798 418.132V416.483H135.316V416.106H134.798V415.37H134.327V416.106H133.929V416.483H134.327V418.135C134.327 418.656 134.573 418.881 135.073 418.881Z" fill="#718096"/>
<path d="M115.829 418.829H117.098C118.221 418.829 118.881 418.13 118.881 416.939V416.933C118.881 415.747 118.216 415.051 117.098 415.051H115.829V418.829ZM116.3 418.405V415.475H117.067C117.923 415.475 118.4 415.996 118.4 416.939V416.944C118.4 417.881 117.923 418.405 117.067 418.405H116.3ZM119.653 415.645C119.813 415.645 119.939 415.517 119.939 415.36C119.939 415.2 119.813 415.075 119.653 415.075C119.496 415.075 119.368 415.2 119.368 415.36C119.368 415.517 119.496 415.645 119.653 415.645ZM119.426 418.829H119.881V416.106H119.426V418.829ZM121.468 418.881C122.075 418.881 122.525 418.546 122.525 418.069V418.067C122.525 417.679 122.326 417.462 121.777 417.329L121.345 417.224C121.044 417.151 120.921 417.022 120.921 416.836V416.834C120.921 416.593 121.125 416.433 121.455 416.433C121.792 416.433 121.994 416.609 122.03 416.873L122.033 416.891H122.468L122.465 416.857C122.431 416.402 122.051 416.054 121.455 416.054C120.866 416.054 120.455 416.386 120.455 416.855V416.857C120.455 417.25 120.703 417.488 121.216 417.611L121.648 417.716C121.957 417.792 122.059 417.902 122.059 418.098V418.101C122.059 418.347 121.839 418.501 121.47 418.501C121.099 418.501 120.897 418.342 120.842 418.069L120.837 418.043H120.381L120.384 418.067C120.439 418.554 120.826 418.881 121.468 418.881ZM124.127 418.881C124.743 418.881 125.19 418.48 125.264 417.962L125.266 417.944H124.819L124.813 417.965C124.737 418.268 124.499 418.478 124.127 418.478C123.656 418.478 123.332 418.103 123.332 417.47V417.467C123.332 416.849 123.648 416.457 124.122 416.457C124.523 416.457 124.743 416.698 124.811 416.97L124.816 416.991H125.261L125.258 416.97C125.201 416.504 124.8 416.054 124.122 416.054C123.366 416.054 122.866 416.603 122.866 417.462V417.465C122.866 418.331 123.355 418.881 124.127 418.881ZM126.813 418.881C127.565 418.881 128.073 418.336 128.073 417.467V417.462C128.073 416.593 127.562 416.054 126.811 416.054C126.059 416.054 125.552 416.596 125.552 417.462V417.467C125.552 418.334 126.057 418.881 126.813 418.881ZM126.816 418.478C126.334 418.478 126.018 418.109 126.018 417.467V417.462C126.018 416.826 126.337 416.457 126.811 416.457C127.292 416.457 127.607 416.823 127.607 417.462V417.467C127.607 418.106 127.295 418.478 126.816 418.478ZM129.463 418.881C129.876 418.881 130.154 418.695 130.3 418.441H130.311V418.829H130.766V416.106H130.311V417.708C130.311 418.172 130.031 418.478 129.601 418.478C129.183 418.478 128.976 418.234 128.976 417.792V416.106H128.52V417.873C128.52 418.494 128.866 418.881 129.463 418.881ZM131.361 418.829H131.816V417.226C131.816 416.763 132.096 416.457 132.526 416.457C132.944 416.457 133.151 416.7 133.151 417.143V418.829H133.607V417.062C133.607 416.441 133.261 416.054 132.664 416.054C132.251 416.054 131.973 416.24 131.827 416.493H131.816V416.106H131.361V418.829ZM135.073 418.881C135.162 418.881 135.259 418.87 135.316 418.863V418.494C135.277 418.496 135.225 418.504 135.17 418.504C134.926 418.504 134.798 418.423 134.798 418.132V416.483H135.316V416.106H134.798V415.37H134.327V416.106H133.929V416.483H134.327V418.135C134.327 418.656 134.573 418.881 135.073 418.881Z" fill="#718096"/>
<path d="M127.244 398.889H123.191C121.165 398.889 120.661 399.431 120.661 401.591V407.628C120.661 409.054 121.443 409.392 122.392 408.373L122.398 408.368C122.837 407.902 123.508 407.939 123.888 408.449L124.43 409.172C124.864 409.746 125.566 409.746 126.001 409.172L126.542 408.449C126.928 407.934 127.598 407.896 128.038 408.368C128.992 409.387 129.77 409.049 129.77 407.623V401.591C129.775 399.431 129.271 398.889 127.244 398.889ZM123.609 401.57C123.904 401.57 124.146 401.811 124.146 402.106C124.146 402.401 123.91 402.642 123.609 402.642C123.309 402.642 123.073 402.401 123.073 402.106C123.073 401.811 123.309 401.57 123.609 401.57ZM126.826 405.323C126.526 405.323 126.29 405.082 126.29 404.787C126.29 404.492 126.531 404.251 126.826 404.251C127.121 404.251 127.362 404.492 127.362 404.787C127.362 405.082 127.127 405.323 126.826 405.323ZM127.309 401.886L123.701 405.494C123.62 405.575 123.518 405.612 123.416 405.612C123.315 405.612 123.213 405.575 123.132 405.494C122.977 405.339 122.977 405.082 123.132 404.926L126.74 401.318C126.896 401.162 127.153 401.162 127.309 401.318C127.464 401.473 127.464 401.731 127.309 401.886Z" fill="#E8E8E8"/>
<path d="M175.38 404.449C175.364 404.449 175.353 404.449 175.337 404.449C175.31 404.444 175.272 404.444 175.24 404.449C173.685 404.401 172.511 403.178 172.511 401.672C172.511 400.138 173.76 398.889 175.294 398.889C176.827 398.889 178.076 400.138 178.076 401.672C178.071 403.178 176.892 404.401 175.396 404.449C175.39 404.449 175.385 404.449 175.38 404.449ZM175.294 399.693C174.205 399.693 173.315 400.583 173.315 401.672C173.315 402.744 174.152 403.607 175.219 403.645C175.246 403.639 175.321 403.639 175.39 403.645C176.441 403.596 177.267 402.733 177.272 401.672C177.272 400.583 176.382 399.693 175.294 399.693Z" fill="#E8E8E8"/>
<path d="M175.385 410.309C174.334 410.309 173.278 410.041 172.479 409.505C171.734 409.011 171.326 408.336 171.326 407.601C171.326 406.867 171.734 406.186 172.479 405.687C174.087 404.62 176.693 404.62 178.291 405.687C179.031 406.181 179.443 406.856 179.443 407.591C179.443 408.325 179.036 409.006 178.291 409.505C177.486 410.041 176.436 410.309 175.385 410.309ZM172.924 406.363C172.409 406.706 172.13 407.146 172.13 407.607C172.13 408.063 172.415 408.502 172.924 408.84C174.259 409.735 176.511 409.735 177.846 408.84C178.36 408.497 178.639 408.057 178.639 407.596C178.639 407.14 178.355 406.701 177.846 406.363C176.511 405.473 174.259 405.473 172.924 406.363Z" fill="#E8E8E8"/>
<path d="M165.116 418.829H165.946L166.231 417.912H167.567L167.852 418.829H168.682L167.365 415.051H166.436L165.116 418.829ZM166.891 415.784H166.907L167.383 417.321H166.415L166.891 415.784ZM170.182 418.886C170.931 418.886 171.415 418.42 171.452 417.808V417.792H170.739L170.737 417.815C170.684 418.098 170.493 418.287 170.187 418.287C169.81 418.287 169.575 417.975 169.575 417.425V417.423C169.575 416.886 169.81 416.564 170.184 416.564C170.501 416.564 170.687 416.768 170.734 417.035L170.739 417.059H171.449V417.041C171.42 416.433 170.936 415.965 170.174 415.965C169.334 415.965 168.797 416.522 168.797 417.42V417.423C168.797 418.329 169.326 418.886 170.182 418.886ZM173.103 418.886C173.852 418.886 174.336 418.42 174.373 417.808V417.792H173.661L173.658 417.815C173.606 418.098 173.415 418.287 173.109 418.287C172.732 418.287 172.496 417.975 172.496 417.425V417.423C172.496 416.886 172.732 416.564 173.106 416.564C173.423 416.564 173.609 416.768 173.656 417.035L173.661 417.059H174.37V417.041C174.342 416.433 173.857 415.965 173.096 415.965C172.255 415.965 171.719 416.522 171.719 417.42V417.423C171.719 418.329 172.247 418.886 173.103 418.886ZM176.03 418.886C176.878 418.886 177.42 418.342 177.42 417.425V417.42C177.42 416.512 176.868 415.965 176.028 415.965C175.19 415.965 174.64 416.517 174.64 417.42V417.425C174.64 418.339 175.177 418.886 176.03 418.886ZM176.033 418.287C175.656 418.287 175.418 417.975 175.418 417.425V417.42C175.418 416.878 175.658 416.564 176.028 416.564C176.399 416.564 176.643 416.878 176.643 417.42V417.425C176.643 417.973 176.405 418.287 176.033 418.287ZM178.771 418.886C179.195 418.886 179.483 418.687 179.627 418.365H179.643V418.829H180.407V416.022H179.643V417.635C179.643 418.001 179.426 418.253 179.083 418.253C178.74 418.253 178.567 418.041 178.567 417.674V416.022H177.803V417.834C177.803 418.491 178.153 418.886 178.771 418.886ZM180.905 418.829H181.669V417.216C181.669 416.849 181.886 416.598 182.229 416.598C182.572 416.598 182.745 416.808 182.745 417.174V418.829H183.509V417.017C183.509 416.36 183.159 415.965 182.541 415.965C182.117 415.965 181.829 416.161 181.685 416.483H181.669V416.022H180.905V418.829ZM185.109 418.886C185.269 418.886 185.392 418.87 185.478 418.857V418.297C185.431 418.302 185.381 418.31 185.313 418.31C185.083 418.31 184.965 418.221 184.965 417.959V416.598H185.478V416.022H184.965V415.336H184.193V416.022H183.803V416.598H184.193V418.043C184.193 418.645 184.486 418.886 185.109 418.886Z" fill="#D8D8D8"/>
</g>
<g opacity="0.24" filter="url(#filter1_d_206_2711)">
<rect x="0.296875" width="201.053" height="435.347" fill="black"/>
</g>
<g filter="url(#filter2_d_206_2711)">
<path d="M0.298828 218.96C0.298828 211.753 0.298828 208.15 1.70129 205.398C2.93493 202.977 4.90339 201.008 7.32455 199.775C10.077 198.372 13.6802 198.372 20.8867 198.372H180.764C187.97 198.372 191.574 198.372 194.326 199.775C196.747 201.008 198.716 202.977 199.949 205.398C201.352 208.15 201.352 211.753 201.352 218.96V435.346H0.298828V218.96Z" fill="white"/>
</g>
<path fill-rule="evenodd" clip-rule="evenodd" d="M22.1444 228.128C27.1041 228.128 31.1248 224.108 31.1248 219.148C31.1248 214.188 27.1041 210.167 22.1444 210.167C17.1847 210.167 13.1641 214.188 13.1641 219.148C13.1641 224.108 17.1847 228.128 22.1444 228.128Z" fill="#D9D9D9"/>
<path fill-rule="evenodd" clip-rule="evenodd" d="M23.2695 221.344C23.2165 221.397 23.1449 221.427 23.07 221.427C22.9952 221.427 22.9235 221.397 22.8706 221.344L20.7544 219.216C20.7012 219.162 20.6715 219.09 20.6719 219.015C20.6716 218.939 20.7013 218.867 20.7544 218.814L22.8706 216.686C22.9231 216.632 22.995 216.602 23.07 216.602C23.1451 216.602 23.217 216.632 23.2695 216.686C23.3228 216.739 23.3527 216.811 23.3527 216.886C23.3527 216.961 23.3228 217.033 23.2695 217.087L21.3528 219.015L23.2695 220.945C23.3766 221.056 23.3766 221.232 23.2695 221.344Z" fill="black" stroke="black" stroke-width="1.60842"/>
<rect x="65.1719" y="426.768" width="71.8429" height="2.68071" rx="1.34035" fill="black"/>
<rect x="90.9062" y="201.589" width="19.8372" height="2.14456" rx="1.07228" fill="#D4D4D4"/>
<g filter="url(#filter3_i_206_2711)">
<path fill-rule="evenodd" clip-rule="evenodd" d="M13.7012 392.992C13.7012 390.623 15.6215 388.703 17.9903 388.703H184.194C186.563 388.703 188.483 390.623 188.483 392.992V411.221C188.483 413.589 186.563 415.51 184.194 415.51H17.9903C15.6215 415.51 13.7012 413.589 13.7012 411.221V392.992Z" fill="#413D4A"/>
</g>
<path d="M87.3081 404.745H88.415V403.077H89.4339C90.548 403.077 91.292 402.359 91.292 401.27V401.263C91.292 400.174 90.548 399.456 89.4339 399.456H87.3081V404.745ZM89.1626 400.332C89.7967 400.332 90.1705 400.665 90.1705 401.267V401.274C90.1705 401.875 89.7967 402.212 89.1626 402.212H88.415V400.332H89.1626ZM91.8564 404.745H92.9266V402.546C92.9266 401.974 93.2345 401.659 93.7623 401.659C93.9162 401.659 94.0628 401.681 94.1507 401.717V400.775C94.0701 400.753 93.9602 400.735 93.8429 400.735C93.3848 400.735 93.0659 401.017 92.9486 401.501H92.9266V400.816H91.8564V404.745ZM96.2618 404.825C97.4493 404.825 98.2079 404.063 98.2079 402.78V402.773C98.2079 401.501 97.4346 400.735 96.2581 400.735C95.0853 400.735 94.3157 401.508 94.3157 402.773V402.78C94.3157 404.059 95.067 404.825 96.2618 404.825ZM96.2655 403.986C95.7377 403.986 95.4042 403.55 95.4042 402.78V402.773C95.4042 402.014 95.7414 401.574 96.2581 401.574C96.7786 401.574 97.1194 402.014 97.1194 402.773V402.78C97.1194 403.546 96.7859 403.986 96.2655 403.986ZM100.557 404.825C101.605 404.825 102.283 404.173 102.335 403.315V403.293H101.338L101.334 403.326C101.261 403.722 100.993 403.986 100.565 403.986C100.037 403.986 99.7069 403.55 99.7069 402.78V402.777C99.7069 402.025 100.037 401.574 100.561 401.574C101.004 401.574 101.265 401.86 101.331 402.234L101.338 402.267H102.331V402.241C102.291 401.391 101.613 400.735 100.546 400.735C99.3697 400.735 98.6184 401.516 98.6184 402.773V402.777C98.6184 404.045 99.3588 404.825 100.557 404.825ZM104.64 404.825C105.762 404.825 106.304 404.162 106.425 403.583L106.436 403.542H105.454L105.446 403.564C105.369 403.784 105.102 404.026 104.662 404.026C104.116 404.026 103.775 403.66 103.764 403.033H106.469V402.703C106.469 401.516 105.747 400.735 104.596 400.735C103.445 400.735 102.709 401.534 102.709 402.784V402.788C102.709 404.045 103.438 404.825 104.64 404.825ZM104.614 401.534C105.058 401.534 105.377 401.816 105.443 402.359H103.775C103.845 401.827 104.175 401.534 104.614 401.534ZM108.811 404.825C109.932 404.825 110.475 404.162 110.596 403.583L110.607 403.542H109.624L109.617 403.564C109.54 403.784 109.273 404.026 108.833 404.026C108.287 404.026 107.946 403.66 107.935 403.033H110.64V402.703C110.64 401.516 109.918 400.735 108.767 400.735C107.616 400.735 106.879 401.534 106.879 402.784V402.788C106.879 404.045 107.609 404.825 108.811 404.825ZM108.785 401.534C109.229 401.534 109.548 401.816 109.614 402.359H107.946C108.016 401.827 108.345 401.534 108.785 401.534ZM112.648 404.825C113.216 404.825 113.649 404.539 113.858 404.074H113.88V404.745H114.95V399.456H113.88V401.497H113.858C113.645 401.021 113.205 400.735 112.648 400.735C111.659 400.735 111.05 401.497 111.05 402.777V402.78C111.05 404.056 111.659 404.825 112.648 404.825ZM113.007 403.938C112.472 403.938 112.139 403.495 112.139 402.78V402.777C112.139 402.058 112.476 401.622 113.007 401.622C113.524 401.622 113.883 402.069 113.883 402.777V402.78C113.883 403.491 113.528 403.938 113.007 403.938Z" fill="white"/>
<path d="M79.9598 311.437C81.6876 311.437 82.7505 310.589 82.7505 309.248V309.243C82.7505 308.091 82.1012 307.463 80.5515 307.122L79.7137 306.939C78.7294 306.725 78.2739 306.337 78.2739 305.719V305.714C78.2739 304.986 78.9336 304.505 79.9441 304.499C80.9022 304.499 81.5462 304.955 81.6614 305.724L81.6719 305.798H82.6143L82.6091 305.719C82.5253 304.484 81.4468 303.63 79.9703 303.63C78.4153 303.63 77.3158 304.499 77.3105 305.74V305.745C77.3105 306.85 78.0016 307.515 79.4781 307.84L80.3158 308.023C81.3525 308.253 81.7871 308.625 81.7871 309.29V309.295C81.7871 310.075 81.1012 310.568 80.0122 310.568C78.9179 310.568 78.1849 310.102 78.0749 309.342L78.0645 309.269H77.122L77.1273 309.342C77.2215 310.636 78.3263 311.437 79.9598 311.437ZM85.5725 311.416C86.3998 311.416 86.9548 311.044 87.248 310.536H87.2689V311.311H88.1799V305.866H87.2689V309.07C87.2689 309.997 86.7087 310.609 85.85 310.609C85.0123 310.609 84.5987 310.123 84.5987 309.238V305.866H83.6877V309.4C83.6877 310.641 84.3788 311.416 85.5725 311.416ZM91.6251 311.416C92.8555 311.416 93.7508 310.615 93.8974 309.578L93.9026 309.541H93.0073L92.9968 309.583C92.845 310.191 92.3685 310.609 91.6251 310.609C90.6826 310.609 90.0334 309.861 90.0334 308.594V308.588C90.0334 307.353 90.6669 306.567 91.6146 306.567C92.4157 306.567 92.8555 307.049 92.9916 307.594L93.0021 307.636H93.8922L93.8869 307.594C93.7717 306.662 92.9707 305.761 91.6146 305.761C90.1015 305.761 89.1014 306.861 89.1014 308.578V308.583C89.1014 310.316 90.0805 311.416 91.6251 311.416ZM96.997 311.416C98.2274 311.416 99.1227 310.615 99.2693 309.578L99.2745 309.541H98.3792L98.3687 309.583C98.2169 310.191 97.7404 310.609 96.997 310.609C96.0545 310.609 95.4053 309.861 95.4053 308.594V308.588C95.4053 307.353 96.0388 306.567 96.9865 306.567C97.7876 306.567 98.2274 307.049 98.3635 307.594L98.374 307.636H99.264L99.2588 307.594C99.1436 306.662 98.3425 305.761 96.9865 305.761C95.4734 305.761 94.4733 306.861 94.4733 308.578V308.583C94.4733 310.316 95.4524 311.416 96.997 311.416ZM102.353 311.416C103.542 311.416 104.432 310.704 104.61 309.803L104.62 309.751H103.725L103.709 309.798C103.552 310.264 103.065 310.609 102.374 310.609C101.405 310.609 100.788 309.955 100.767 308.835H104.688V308.499C104.688 306.866 103.782 305.761 102.296 305.761C100.809 305.761 99.8452 306.918 99.8452 308.604V308.609C99.8452 310.321 100.788 311.416 102.353 311.416ZM102.29 306.567C103.086 306.567 103.673 307.065 103.762 308.122H100.782C100.882 307.107 101.5 306.567 102.29 306.567ZM107.542 311.416C108.756 311.416 109.657 310.746 109.657 309.793V309.787C109.657 309.013 109.259 308.578 108.16 308.311L107.296 308.102C106.694 307.955 106.447 307.698 106.447 307.327V307.321C106.447 306.84 106.856 306.52 107.516 306.52C108.191 306.52 108.594 306.871 108.667 307.4L108.673 307.437H109.542L109.537 307.369C109.469 306.457 108.709 305.761 107.516 305.761C106.338 305.761 105.516 306.426 105.516 307.363V307.369C105.516 308.154 106.013 308.63 107.039 308.876L107.903 309.086C108.521 309.238 108.725 309.458 108.725 309.85V309.855C108.725 310.348 108.285 310.657 107.547 310.657C106.804 310.657 106.4 310.337 106.29 309.793L106.28 309.74H105.369L105.374 309.787C105.484 310.761 106.259 311.416 107.542 311.416ZM112.537 311.416C113.751 311.416 114.652 310.746 114.652 309.793V309.787C114.652 309.013 114.254 308.578 113.154 308.311L112.291 308.102C111.688 307.955 111.442 307.698 111.442 307.327V307.321C111.442 306.84 111.851 306.52 112.51 306.52C113.186 306.52 113.589 306.871 113.662 307.4L113.668 307.437H114.537L114.531 307.369C114.463 306.457 113.704 305.761 112.51 305.761C111.332 305.761 110.51 306.426 110.51 307.363V307.369C110.51 308.154 111.008 308.63 112.034 308.876L112.898 309.086C113.516 309.238 113.72 309.458 113.72 309.85V309.855C113.72 310.348 113.28 310.657 112.542 310.657C111.798 310.657 111.395 310.337 111.285 309.793L111.275 309.74H110.364L110.369 309.787C110.479 310.761 111.254 311.416 112.537 311.416ZM115.893 311.311H116.804V306.62H117.914V305.866H116.793V305.201C116.793 304.662 117.045 304.405 117.547 304.405C117.689 304.405 117.83 304.41 117.94 304.426V303.688C117.804 303.667 117.589 303.651 117.385 303.651C116.38 303.651 115.893 304.149 115.893 305.196V305.866H115.134V306.62H115.893V311.311ZM120.715 311.416C121.542 311.416 122.097 311.044 122.39 310.536H122.411V311.311H123.322V305.866H122.411V309.07C122.411 309.997 121.851 310.609 120.992 310.609C120.155 310.609 119.741 310.123 119.741 309.238V305.866H118.83V309.4C118.83 310.641 119.521 311.416 120.715 311.416ZM124.558 311.311H125.469V303.756H124.558V311.311Z" fill="#4A4A4A"/>
<path d="M37.8366 325.395H38.5906V322.794L40.7351 319.351H39.8765L38.2262 322.065H38.201L36.5507 319.351H35.6921L37.8366 322.794V325.395ZM42.3226 325.479C43.5247 325.479 44.3373 324.608 44.3373 323.217V323.209C44.3373 321.818 43.5206 320.955 42.3184 320.955C41.1163 320.955 40.3037 321.822 40.3037 323.209V323.217C40.3037 324.603 41.1121 325.479 42.3226 325.479ZM42.3268 324.834C41.5561 324.834 41.0493 324.243 41.0493 323.217V323.209C41.0493 322.191 41.5603 321.6 42.3184 321.6C43.0891 321.6 43.5918 322.187 43.5918 323.209V323.217C43.5918 324.239 43.0933 324.834 42.3268 324.834ZM46.5615 325.479C47.2233 325.479 47.6673 325.181 47.9018 324.775H47.9186V325.395H48.6474V321.039H47.9186V323.602C47.9186 324.344 47.4704 324.834 46.7835 324.834C46.1133 324.834 45.7824 324.444 45.7824 323.736V321.039H45.0536V323.866C45.0536 324.859 45.6065 325.479 46.5615 325.479ZM49.5982 325.395H50.327V322.706C50.327 322.044 50.6956 321.65 51.2611 321.65C51.437 321.65 51.592 321.671 51.6506 321.692V320.984C51.592 320.976 51.4831 320.955 51.3574 320.955C50.8674 320.955 50.4904 321.273 50.3438 321.776H50.327V321.039H49.5982V325.395ZM56.6728 325.496C58.3859 325.496 59.454 324.293 59.454 322.375V322.367C59.454 320.452 58.3817 319.25 56.6728 319.25C54.9596 319.25 53.8832 320.452 53.8832 322.367V322.375C53.8832 324.293 54.9554 325.496 56.6728 325.496ZM56.6728 324.8C55.4329 324.8 54.6539 323.862 54.6539 322.375V322.367C54.6539 320.88 55.4371 319.946 56.6728 319.946C57.9042 319.946 58.6833 320.884 58.6833 322.367V322.375C58.6833 323.849 57.9168 324.8 56.6728 324.8ZM61.5441 325.395H62.2981V320.029H64.2039V319.351H59.6383V320.029H61.5441V325.395ZM64.9997 325.395H65.7537V323.238H67.1527C68.2878 323.238 69.092 322.438 69.092 321.29V321.282C69.092 320.134 68.2878 319.351 67.1527 319.351H64.9997V325.395ZM66.96 320.021C67.8228 320.021 68.3213 320.494 68.3213 321.29V321.299C68.3213 322.094 67.8228 322.568 66.96 322.568H65.7537V320.021H66.96ZM72.8324 325.395H73.578L75.178 321.039H74.4199L73.2136 324.62H73.1968L71.9947 321.039H71.2282L72.8324 325.395ZM77.377 325.479C78.3279 325.479 79.0399 324.909 79.1823 324.189L79.1907 324.147H78.4745L78.4619 324.185C78.3362 324.557 77.9467 324.834 77.3938 324.834C76.6189 324.834 76.1246 324.31 76.1079 323.414H79.2452V323.146C79.2452 321.839 78.5205 320.955 77.331 320.955C76.1414 320.955 75.3707 321.881 75.3707 323.23V323.234C75.3707 324.603 76.1246 325.479 77.377 325.479ZM77.3268 321.6C77.9634 321.6 78.4326 321.998 78.5038 322.844H76.1205C76.2 322.032 76.6943 321.6 77.3268 321.6ZM79.9824 325.395H80.7112V322.706C80.7112 322.044 81.0798 321.65 81.6452 321.65C81.8212 321.65 81.9761 321.671 82.0348 321.692V320.984C81.9761 320.976 81.8672 320.955 81.7416 320.955C81.2515 320.955 80.8745 321.273 80.7279 321.776H80.7112V321.039H79.9824V325.395ZM83.04 320.302C83.2955 320.302 83.4966 320.096 83.4966 319.845C83.4966 319.59 83.2955 319.389 83.04 319.389C82.7887 319.389 82.5835 319.59 82.5835 319.845C82.5835 320.096 82.7887 320.302 83.04 320.302ZM82.6756 325.395H83.4044V321.039H82.6756V325.395ZM84.6317 325.395H85.3605V321.642H86.2485V321.039H85.3521V320.507C85.3521 320.075 85.5532 319.87 85.9553 319.87C86.0684 319.87 86.1815 319.874 86.2694 319.887V319.296C86.1605 319.28 85.9888 319.267 85.8255 319.267C85.0212 319.267 84.6317 319.665 84.6317 320.503V321.039H84.0244V321.642H84.6317V325.395ZM87.4129 320.302C87.6684 320.302 87.8695 320.096 87.8695 319.845C87.8695 319.59 87.6684 319.389 87.4129 319.389C87.1616 319.389 86.9564 319.59 86.9564 319.845C86.9564 320.096 87.1616 320.302 87.4129 320.302ZM87.0485 325.395H87.7773V321.039H87.0485V325.395ZM90.5753 325.479C91.5597 325.479 92.2759 324.838 92.3932 324.009L92.3974 323.979H91.6811L91.6727 324.013C91.5513 324.499 91.1701 324.834 90.5753 324.834C89.8214 324.834 89.302 324.235 89.302 323.221V323.217C89.302 322.228 89.8088 321.6 90.567 321.6C91.2078 321.6 91.5597 321.985 91.6686 322.421L91.6769 322.455H92.389L92.3848 322.421C92.2927 321.676 91.6518 320.955 90.567 320.955C89.3564 320.955 88.5564 321.835 88.5564 323.209V323.213C88.5564 324.599 89.3397 325.479 90.5753 325.479ZM94.3409 325.479C94.9231 325.479 95.4467 325.165 95.7022 324.687H95.7189V325.395H96.4478V322.383C96.4478 321.512 95.8027 320.955 94.7723 320.955C93.7461 320.955 93.122 321.533 93.0592 322.249L93.055 322.295H93.7587L93.767 322.258C93.8508 321.868 94.2027 321.6 94.7639 321.6C95.3713 321.6 95.7189 321.923 95.7189 322.455V322.819L94.4707 322.89C93.4697 322.949 92.8916 323.414 92.8916 324.155V324.164C92.8916 324.955 93.4738 325.479 94.3409 325.479ZM93.6372 324.164V324.155C93.6372 323.749 93.9723 323.489 94.5545 323.456L95.7189 323.384V323.741C95.7189 324.373 95.1912 324.846 94.5042 324.846C93.9807 324.846 93.6372 324.582 93.6372 324.164ZM98.7892 325.479C98.9316 325.479 99.0866 325.462 99.1787 325.449V324.859C99.1159 324.863 99.0321 324.876 98.9442 324.876C98.5546 324.876 98.3494 324.746 98.3494 324.281V321.642H99.1787V321.039H98.3494V319.862H97.5954V321.039H96.9588V321.642H97.5954V324.285C97.5954 325.119 97.9892 325.479 98.7892 325.479ZM100.372 320.302C100.628 320.302 100.829 320.096 100.829 319.845C100.829 319.59 100.628 319.389 100.372 319.389C100.121 319.389 99.9159 319.59 99.9159 319.845C99.9159 320.096 100.121 320.302 100.372 320.302ZM100.008 325.395H100.737V321.039H100.008V325.395ZM103.535 325.479C104.737 325.479 105.55 324.608 105.55 323.217V323.209C105.55 321.818 104.733 320.955 103.531 320.955C102.329 320.955 101.516 321.822 101.516 323.209V323.217C101.516 324.603 102.324 325.479 103.535 325.479ZM103.539 324.834C102.768 324.834 102.262 324.243 102.262 323.217V323.209C102.262 322.191 102.773 321.6 103.531 321.6C104.301 321.6 104.804 322.187 104.804 323.209V323.217C104.804 324.239 104.306 324.834 103.539 324.834ZM106.287 325.395H107.016V322.832C107.016 322.09 107.464 321.6 108.151 321.6C108.821 321.6 109.152 321.99 109.152 322.698V325.395H109.881V322.568C109.881 321.575 109.328 320.955 108.373 320.955C107.711 320.955 107.267 321.252 107.032 321.659H107.016V321.039H106.287V325.395ZM113.433 325.395H114.174L115.154 322.023H115.171L116.155 325.395H116.897L118.111 321.039H117.391L116.52 324.582H116.503L115.514 321.039H114.811L113.826 324.582H113.81L112.938 321.039H112.214L113.433 325.395ZM119.9 325.479C120.482 325.479 121.006 325.165 121.261 324.687H121.278V325.395H122.007V322.383C122.007 321.512 121.362 320.955 120.331 320.955C119.305 320.955 118.681 321.533 118.618 322.249L118.614 322.295H119.318L119.326 322.258C119.41 321.868 119.762 321.6 120.323 321.6C120.93 321.6 121.278 321.923 121.278 322.455V322.819L120.03 322.89C119.029 322.949 118.45 323.414 118.45 324.155V324.164C118.45 324.955 119.033 325.479 119.9 325.479ZM119.196 324.164V324.155C119.196 323.749 119.531 323.489 120.113 323.456L121.278 323.384V323.741C121.278 324.373 120.75 324.846 120.063 324.846C119.54 324.846 119.196 324.582 119.196 324.164ZM124.478 325.479C125.45 325.479 126.17 324.943 126.17 324.18V324.176C126.17 323.556 125.852 323.209 124.972 322.995L124.281 322.827C123.799 322.71 123.602 322.505 123.602 322.207V322.203C123.602 321.818 123.929 321.562 124.457 321.562C124.997 321.562 125.32 321.843 125.378 322.266L125.383 322.295H126.078L126.074 322.241C126.019 321.512 125.412 320.955 124.457 320.955C123.515 320.955 122.857 321.487 122.857 322.237V322.241C122.857 322.869 123.255 323.25 124.076 323.447L124.767 323.615C125.261 323.736 125.425 323.912 125.425 324.226V324.231C125.425 324.624 125.073 324.871 124.482 324.871C123.887 324.871 123.565 324.616 123.477 324.18L123.468 324.138H122.74L122.744 324.176C122.832 324.955 123.452 325.479 124.478 325.479ZM130.233 325.479C131.205 325.479 131.925 324.943 131.925 324.18V324.176C131.925 323.556 131.607 323.209 130.727 322.995L130.036 322.827C129.554 322.71 129.358 322.505 129.358 322.207V322.203C129.358 321.818 129.684 321.562 130.212 321.562C130.752 321.562 131.075 321.843 131.134 322.266L131.138 322.295H131.833L131.829 322.241C131.774 321.512 131.167 320.955 130.212 320.955C129.27 320.955 128.612 321.487 128.612 322.237V322.241C128.612 322.869 129.01 323.25 129.831 323.447L130.522 323.615C131.016 323.736 131.18 323.912 131.18 324.226V324.231C131.18 324.624 130.828 324.871 130.237 324.871C129.642 324.871 129.32 324.616 129.232 324.18L129.224 324.138H128.495L128.499 324.176C128.587 324.955 129.207 325.479 130.233 325.479ZM134.17 325.479C134.832 325.479 135.276 325.181 135.511 324.775H135.527V325.395H136.256V321.039H135.527V323.602C135.527 324.344 135.079 324.834 134.392 324.834C133.722 324.834 133.391 324.444 133.391 323.736V321.039H132.662V323.866C132.662 324.859 133.215 325.479 134.17 325.479ZM139.012 325.479C139.997 325.479 140.713 324.838 140.83 324.009L140.834 323.979H140.118L140.11 324.013C139.988 324.499 139.607 324.834 139.012 324.834C138.258 324.834 137.739 324.235 137.739 323.221V323.217C137.739 322.228 138.246 321.6 139.004 321.6C139.645 321.6 139.997 321.985 140.106 322.421L140.114 322.455H140.826L140.822 322.421C140.73 321.676 140.089 320.955 139.004 320.955C137.793 320.955 136.993 321.835 136.993 323.209V323.213C136.993 324.599 137.777 325.479 139.012 325.479ZM143.31 325.479C144.294 325.479 145.01 324.838 145.128 324.009L145.132 323.979H144.416L144.407 324.013C144.286 324.499 143.905 324.834 143.31 324.834C142.556 324.834 142.037 324.235 142.037 323.221V323.217C142.037 322.228 142.543 321.6 143.301 321.6C143.942 321.6 144.294 321.985 144.403 322.421L144.411 322.455H145.124L145.119 322.421C145.027 321.676 144.386 320.955 143.301 320.955C142.091 320.955 141.291 321.835 141.291 323.209V323.213C141.291 324.599 142.074 325.479 143.31 325.479ZM147.595 325.479C148.546 325.479 149.258 324.909 149.4 324.189L149.408 324.147H148.692L148.68 324.185C148.554 324.557 148.164 324.834 147.612 324.834C146.837 324.834 146.342 324.31 146.326 323.414H149.463V323.146C149.463 321.839 148.738 320.955 147.549 320.955C146.359 320.955 145.588 321.881 145.588 323.23V323.234C145.588 324.603 146.342 325.479 147.595 325.479ZM147.545 321.6C148.181 321.6 148.65 321.998 148.722 322.844H146.338C146.418 322.032 146.912 321.6 147.545 321.6ZM151.746 325.479C152.717 325.479 153.438 324.943 153.438 324.18V324.176C153.438 323.556 153.12 323.209 152.24 322.995L151.549 322.827C151.067 322.71 150.87 322.505 150.87 322.207V322.203C150.87 321.818 151.197 321.562 151.725 321.562C152.265 321.562 152.588 321.843 152.646 322.266L152.65 322.295H153.346L153.342 322.241C153.287 321.512 152.68 320.955 151.725 320.955C150.782 320.955 150.125 321.487 150.125 322.237V322.241C150.125 322.869 150.523 323.25 151.344 323.447L152.035 323.615C152.529 323.736 152.692 323.912 152.692 324.226V324.231C152.692 324.624 152.34 324.871 151.75 324.871C151.155 324.871 150.833 324.616 150.745 324.18L150.736 324.138H150.007L150.012 324.176C150.1 324.955 150.719 325.479 151.746 325.479ZM155.742 325.479C156.713 325.479 157.434 324.943 157.434 324.18V324.176C157.434 323.556 157.115 323.209 156.236 322.995L155.545 322.827C155.063 322.71 154.866 322.505 154.866 322.207V322.203C154.866 321.818 155.193 321.562 155.721 321.562C156.261 321.562 156.584 321.843 156.642 322.266L156.646 322.295H157.342L157.337 322.241C157.283 321.512 156.676 320.955 155.721 320.955C154.778 320.955 154.121 321.487 154.121 322.237V322.241C154.121 322.869 154.519 323.25 155.34 323.447L156.031 323.615C156.525 323.736 156.688 323.912 156.688 324.226V324.231C156.688 324.624 156.336 324.871 155.746 324.871C155.151 324.871 154.829 324.616 154.741 324.18L154.732 324.138H154.003L154.008 324.176C154.096 324.955 154.715 325.479 155.742 325.479ZM158.427 325.395H159.155V321.642H160.043V321.039H159.147V320.507C159.147 320.075 159.348 319.87 159.75 319.87C159.863 319.87 159.976 319.874 160.064 319.887V319.296C159.955 319.28 159.784 319.267 159.62 319.267C158.816 319.267 158.427 319.665 158.427 320.503V321.039H157.819V321.642H158.427V325.395ZM162.284 325.479C162.946 325.479 163.39 325.181 163.625 324.775H163.641V325.395H164.37V321.039H163.641V323.602C163.641 324.344 163.193 324.834 162.506 324.834C161.836 324.834 161.505 324.444 161.505 323.736V321.039H160.776V323.866C160.776 324.859 161.329 325.479 162.284 325.479ZM165.359 325.395H166.087V319.351H165.359V325.395Z" fill="#888888"/>
<path d="M93.9454 284.87H108.243C108.528 284.87 108.743 284.739 108.886 284.477C109.029 284.214 109.005 283.964 108.814 283.726L104.883 278.472C104.74 278.281 104.549 278.186 104.311 278.186C104.073 278.186 103.882 278.281 103.739 278.472L100.022 283.44L97.3767 279.901C97.2337 279.711 97.0431 279.616 96.8048 279.616C96.5665 279.616 96.3759 279.711 96.2329 279.901L93.3735 283.726C93.1829 283.964 93.1591 284.214 93.302 284.477C93.445 284.739 93.6595 284.87 93.9454 284.87ZM91.086 290.589C90.2996 290.589 89.6262 290.309 89.0658 289.749C88.5063 289.189 88.2266 288.515 88.2266 287.729V267.713C88.2266 266.927 88.5063 266.253 89.0658 265.693C89.6262 265.134 90.2996 264.854 91.086 264.854H111.102C111.888 264.854 112.562 265.134 113.122 265.693C113.682 266.253 113.961 266.927 113.961 267.713V287.729C113.961 288.515 113.682 289.189 113.122 289.749C112.562 290.309 111.888 290.589 111.102 290.589H91.086Z" fill="#979797"/>
</g>
<rect x="1.63723" y="1.34035" width="198.372" height="432.666" rx="6.70177" stroke="black" stroke-width="2.68071"/>
<defs>
<filter id="filter0_d_206_2711" x="-10.426" y="379.052" width="222.498" height="66.4815" filterUnits="userSpaceOnUse" color-interpolation-filters="sRGB">
<feFlood flood-opacity="0" result="BackgroundImageFix"/>
<feColorMatrix in="SourceAlpha" type="matrix" values="0 0 0 0 0 0 0 0 0 0 0 0 0 0 0 0 0 0 127 0" result="hardAlpha"/>
<feOffset dy="-0.536141"/>
<feGaussianBlur stdDeviation="5.36141"/>
<feComposite in2="hardAlpha" operator="out"/>
<feColorMatrix type="matrix" values="0 0 0 0 0 0 0 0 0 0 0 0 0 0 0 0 0 0 0.15 0"/>
<feBlend mode="normal" in2="BackgroundImageFix" result="effect1_dropShadow_206_2711"/>
<feBlend mode="normal" in="SourceGraphic" in2="effect1_dropShadow_206_2711" result="shape"/>
</filter>
<filter id="filter1_d_206_2711" x="0.296875" y="-3.21685" width="208.023" height="441.78" filterUnits="userSpaceOnUse" color-interpolation-filters="sRGB">
<feFlood flood-opacity="0" result="BackgroundImageFix"/>
<feColorMatrix in="SourceAlpha" type="matrix" values="0 0 0 0 0 0 0 0 0 0 0 0 0 0 0 0 0 0 127 0" result="hardAlpha"/>
<feMorphology radius="1.60842" operator="erode" in="SourceAlpha" result="effect1_dropShadow_206_2711"/>
<feOffset dx="3.75299"/>
<feGaussianBlur stdDeviation="2.41264"/>
<feColorMatrix type="matrix" values="0 0 0 0 0.27451 0 0 0 0 0.27451 0 0 0 0 0.27451 0 0 0 0.06 0"/>
<feBlend mode="normal" in2="BackgroundImageFix" result="effect1_dropShadow_206_2711"/>
<feBlend mode="normal" in="SourceGraphic" in2="effect1_dropShadow_206_2711" result="shape"/>
</filter>
<filter id="filter2_d_206_2711" x="-4.52644" y="197.3" width="210.703" height="246.625" filterUnits="userSpaceOnUse" color-interpolation-filters="sRGB">
<feFlood flood-opacity="0" result="BackgroundImageFix"/>
<feColorMatrix in="SourceAlpha" type="matrix" values="0 0 0 0 0 0 0 0 0 0 0 0 0 0 0 0 0 0 127 0" result="hardAlpha"/>
<feOffset dy="3.75299"/>
<feGaussianBlur stdDeviation="2.41264"/>
<feColorMatrix type="matrix" values="0 0 0 0 0.27451 0 0 0 0 0.27451 0 0 0 0 0.27451 0 0 0 0.06 0"/>
<feBlend mode="normal" in2="BackgroundImageFix" result="effect1_dropShadow_206_2711"/>
<feBlend mode="normal" in="SourceGraphic" in2="effect1_dropShadow_206_2711" result="shape"/>
</filter>
<filter id="filter3_i_206_2711" x="13.7012" y="388.703" width="174.782" height="26.8071" filterUnits="userSpaceOnUse" color-interpolation-filters="sRGB">
<feFlood flood-opacity="0" result="BackgroundImageFix"/>
<feBlend mode="normal" in="SourceGraphic" in2="BackgroundImageFix" result="shape"/>
<feColorMatrix in="SourceAlpha" type="matrix" values="0 0 0 0 0 0 0 0 0 0 0 0 0 0 0 0 0 0 127 0" result="hardAlpha"/>
<feOffset/>
<feGaussianBlur stdDeviation="0.268071"/>
<feComposite in2="hardAlpha" operator="arithmetic" k2="-1" k3="1"/>
<feColorMatrix type="matrix" values="0 0 0 0 0 0 0 0 0 0 0 0 0 0 0 0 0 0 0.1 0"/>
<feBlend mode="normal" in2="shape" result="effect1_innerShadow_206_2711"/>
</filter>
<clipPath id="clip0_206_2711">
<rect x="0.296875" width="201.053" height="435.347" rx="8.04212" fill="white"/>
</clipPath>
</defs>
</svg>
