<svg width="202" height="436" viewBox="0 0 202 436" fill="none" xmlns="http://www.w3.org/2000/svg">
<g clip-path="url(#clip0_206_2451)">
<rect width="201.053" height="435.347" rx="8.04212" fill="white"/>
<path d="M29.4874 34.8491H21.4453" stroke="black" stroke-width="1.60842" stroke-linecap="round"/>
<path d="M24.1251 31.0962L20.9082 34.8492L24.1251 38.6022" stroke="black" stroke-width="1.60842" stroke-linecap="round" stroke-linejoin="round"/>
<rect x="152.801" y="20.9092" width="27.8793" height="27.8793" rx="13.9397" fill="#D9D9D9"/>
<path d="M79.9509 54.3596L78.0444 58.6755L76.1529 54.3596H75.3423L77.6541 59.6138H78.3972L80.7015 54.3596H79.9509ZM82.3395 55.5981C81.7015 55.5981 81.1086 55.7782 80.6957 56.1085L80.996 56.6489C81.3037 56.3862 81.7841 56.2211 82.257 56.2211C82.9701 56.2211 83.3228 56.5738 83.3228 57.1818V57.3244H82.1819C80.996 57.3244 80.5831 57.8499 80.5831 58.4879C80.5831 59.1784 81.1536 59.6588 82.0543 59.6588C82.6773 59.6588 83.1202 59.4486 83.3604 59.0884V59.6138H84.0434V57.2119C84.0434 56.1235 83.4279 55.5981 82.3395 55.5981ZM82.1744 59.1034C81.6265 59.1034 81.2962 58.8557 81.2962 58.4578C81.2962 58.1201 81.4989 57.8424 82.2119 57.8424H83.3228V58.3978C83.1427 58.8557 82.7148 59.1034 82.1744 59.1034ZM88.2892 55.6356V57.6922C88.2892 58.5479 87.8088 59.0133 87.0582 59.0133C86.3752 59.0133 85.9849 58.623 85.9849 57.8424V55.6356H85.2643V57.9249C85.2643 59.0959 85.9473 59.6588 86.9757 59.6588C87.5386 59.6588 88.034 59.4261 88.3267 59.0133V59.6138H89.0098V55.6356H88.2892ZM90.3065 59.6138H91.0271V54.0443H90.3065V59.6138ZM94.4347 58.8632C94.2846 58.9833 94.0819 59.0508 93.8718 59.0508C93.474 59.0508 93.2488 58.8106 93.2488 58.3828V56.2286H94.3897V55.6356H93.2488V54.7649H92.5282V55.6356H91.8527V56.2286H92.5282V58.4128C92.5282 59.216 92.9861 59.6588 93.7892 59.6588C94.112 59.6588 94.4422 59.5687 94.6599 59.3811L94.4347 58.8632ZM99.033 59.6738C100.422 59.6738 101.067 58.9833 101.067 58.1801C101.067 56.2511 97.8846 57.0542 97.8846 55.7707C97.8846 55.3128 98.2674 54.9375 99.1606 54.9375C99.626 54.9375 100.144 55.0727 100.602 55.3654L100.849 54.7649C100.414 54.4647 99.7761 54.2995 99.1606 54.2995C97.7795 54.2995 97.149 54.9901 97.149 55.8007C97.149 57.7523 100.332 56.9416 100.332 58.2252C100.332 58.683 99.9412 59.0358 99.033 59.0358C98.3575 59.0358 97.6894 58.7806 97.2991 58.4278L97.0214 59.0133C97.4418 59.4036 98.2299 59.6738 99.033 59.6738ZM103.432 55.5981C102.794 55.5981 102.201 55.7782 101.788 56.1085L102.089 56.6489C102.396 56.3862 102.877 56.2211 103.35 56.2211C104.063 56.2211 104.416 56.5738 104.416 57.1818V57.3244H103.275C102.089 57.3244 101.676 57.8499 101.676 58.4879C101.676 59.1784 102.246 59.6588 103.147 59.6588C103.77 59.6588 104.213 59.4486 104.453 59.0884V59.6138H105.136V57.2119C105.136 56.1235 104.521 55.5981 103.432 55.5981ZM103.267 59.1034C102.719 59.1034 102.389 58.8557 102.389 58.4578C102.389 58.1201 102.592 57.8424 103.305 57.8424H104.416V58.3978C104.235 58.8557 103.808 59.1034 103.267 59.1034ZM109.136 55.6356L107.74 58.8256L106.374 55.6356H105.623L107.365 59.6138H108.1L109.842 55.6356H109.136ZM110.799 54.87C111.084 54.87 111.287 54.6598 111.287 54.3896C111.287 54.1344 111.077 53.9317 110.799 53.9317C110.522 53.9317 110.311 54.1419 110.311 54.4046C110.311 54.6673 110.522 54.87 110.799 54.87ZM110.439 59.6138H111.16V55.6356H110.439V59.6138ZM114.584 55.5981C113.954 55.5981 113.444 55.8308 113.151 56.2361V55.6356H112.46V59.6138H113.181V57.5646C113.181 56.7015 113.676 56.2436 114.442 56.2436C115.125 56.2436 115.515 56.6264 115.515 57.407V59.6138H116.236V57.3244C116.236 56.1535 115.553 55.5981 114.584 55.5981ZM120.639 55.6356V56.2511C120.301 55.8157 119.761 55.5981 119.168 55.5981C118.019 55.5981 117.148 56.3712 117.148 57.5196C117.148 58.668 118.019 59.4486 119.168 59.4486C119.738 59.4486 120.256 59.246 120.601 58.8331V59.1484C120.601 60.0491 120.173 60.4845 119.235 60.4845C118.65 60.4845 118.072 60.2818 117.704 59.9666L117.359 60.522C117.794 60.9123 118.53 61.115 119.258 61.115C120.609 61.115 121.322 60.477 121.322 59.0733V55.6356H120.639ZM119.25 58.8181C118.447 58.8181 117.877 58.2852 117.877 57.5196C117.877 56.7465 118.447 56.2286 119.25 56.2286C120.046 56.2286 120.616 56.7465 120.616 57.5196C120.616 58.2852 120.046 58.8181 119.25 58.8181ZM123.764 59.6588C124.823 59.6588 125.483 59.2009 125.483 58.4804C125.483 56.9341 122.961 57.6997 122.961 56.7615C122.961 56.4462 123.269 56.2136 123.9 56.2136C124.29 56.2136 124.688 56.2961 125.048 56.5288L125.356 55.9584C125.01 55.7332 124.425 55.5981 123.907 55.5981C122.886 55.5981 122.248 56.0785 122.248 56.7915C122.248 58.3753 124.763 57.6022 124.763 58.4954C124.763 58.8331 124.485 59.0358 123.817 59.0358C123.299 59.0358 122.759 58.8632 122.421 58.623L122.121 59.1934C122.451 59.4561 123.104 59.6588 123.764 59.6588Z" fill="#A3A7A5"/>
<path d="M71.1467 67.5791V73.5035L66.2957 67.5791H64.4278V77.3369H66.6581V71.4126L71.5231 77.3369H73.3771V67.5791H71.1467ZM75.1142 67.5791V69.3913H77.0657V77.3369H79.324V67.5791H75.1142ZM81.0609 67.5791V69.3913H83.0124V77.3369H85.2706V67.5791H81.0609ZM88.75 74.7441C87.9833 74.7441 87.3979 75.2738 87.3979 76.0823C87.3979 76.6539 87.6906 77.086 88.1506 77.2672L87.5373 79.4836H88.9173L89.7118 77.4763C90.0325 76.7096 90.0882 76.4448 90.0882 76.0823C90.0882 75.2878 89.5306 74.7441 88.75 74.7441ZM94.9353 71.2453H94.1407L94.2941 69.3913H98.3645V67.5791H92.4122L91.9104 73.0714H94.4056C96.1759 73.0714 96.6778 73.5732 96.6778 74.3399C96.6778 75.1344 95.9808 75.6084 94.8517 75.6084C93.8341 75.6084 92.8165 75.2878 92.0777 74.7302L91.1855 76.4587C92.1334 77.1278 93.5553 77.5042 94.9074 77.5042C97.6954 77.5042 98.9639 75.9987 98.9639 74.2702C98.9639 72.5417 97.8208 71.2453 94.9353 71.2453ZM103.395 75.4969L105.639 73.378C107.005 72.1095 107.27 71.2453 107.27 70.2974C107.27 68.527 105.82 67.4119 103.645 67.4119C101.889 67.4119 100.523 68.1228 99.7702 69.224L101.415 70.2834C101.889 69.6283 102.6 69.3077 103.436 69.3077C104.468 69.3077 104.998 69.7537 104.998 70.5204C104.998 70.9944 104.844 71.4962 103.98 72.3186L100.216 75.8732V77.3369H107.59V75.4969H103.395ZM108.564 67.5791V69.3913H110.515V77.3369H112.774V67.5791H108.564ZM116.239 77.4484C116.992 77.4484 117.591 76.8769 117.591 76.0823C117.591 75.2738 116.992 74.7441 116.239 74.7441C115.486 74.7441 114.887 75.2738 114.887 76.0823C114.887 76.8769 115.486 77.4484 116.239 77.4484ZM123.098 77.5042C125.509 77.5042 127.28 75.6781 127.28 72.458C127.28 69.238 125.509 67.4119 123.098 67.4119C120.7 67.4119 118.916 69.238 118.916 72.458C118.916 75.6781 120.7 77.5042 123.098 77.5042ZM123.098 75.5945C121.983 75.5945 121.202 74.6744 121.202 72.458C121.202 70.2416 121.983 69.3216 123.098 69.3216C124.227 69.3216 125.008 70.2416 125.008 72.458C125.008 74.6744 124.227 75.5945 123.098 75.5945ZM133.047 77.5042C135.458 77.5042 137.229 75.6781 137.229 72.458C137.229 69.238 135.458 67.4119 133.047 67.4119C130.649 67.4119 128.865 69.238 128.865 72.458C128.865 75.6781 130.649 77.5042 133.047 77.5042ZM133.047 75.5945C131.932 75.5945 131.151 74.6744 131.151 72.458C131.151 70.2416 131.932 69.3216 133.047 69.3216C134.176 69.3216 134.956 70.2416 134.956 72.458C134.956 74.6744 134.176 75.5945 133.047 75.5945Z" fill="#333333"/>
<path d="M26.3884 103.077V106.635L23.4911 103.077H22.688V108.331H23.6563V104.773L26.5536 108.331H27.3567V103.077H26.3884ZM29.7179 107.505L31.1215 106.169C31.8496 105.486 31.9922 105.021 31.9922 104.511C31.9922 103.58 31.2566 103.002 30.1157 103.002C29.2525 103.002 28.5244 103.325 28.1191 103.873L28.8021 104.398C29.0949 104.023 29.5227 103.85 30.0331 103.85C30.6786 103.85 31.0089 104.128 31.0089 104.608C31.0089 104.901 30.9188 105.209 30.4084 105.696L28.3217 107.678V108.331H32.1948V107.505H29.7179ZM34.4018 105.111H33.8989L34.0115 103.895H36.2708V103.077H33.1859L32.9156 105.937H34.1842C35.2725 105.937 35.5953 106.252 35.5953 106.755C35.5953 107.25 35.1824 107.558 34.4844 107.558C33.8914 107.558 33.321 107.355 32.9382 107.04L32.5253 107.798C33.0057 108.181 33.7563 108.406 34.4994 108.406C35.9105 108.406 36.5786 107.641 36.5786 106.717C36.5786 105.787 35.9556 105.111 34.4018 105.111ZM37.7344 107.138C37.3891 107.138 37.1264 107.385 37.1264 107.761C37.1264 108.031 37.269 108.226 37.4792 108.316L37.1789 109.464H37.7869L38.1697 108.406C38.3048 108.061 38.3423 107.926 38.3423 107.761C38.3423 107.393 38.0871 107.138 37.7344 107.138ZM41.0777 108.406C42.3312 108.406 43.2769 107.43 43.2769 105.704C43.2769 103.978 42.3312 103.002 41.0777 103.002C39.8317 103.002 38.8859 103.978 38.8859 105.704C38.8859 107.43 39.8317 108.406 41.0777 108.406ZM41.0777 107.558C40.3646 107.558 39.8692 106.972 39.8692 105.704C39.8692 104.435 40.3646 103.85 41.0777 103.85C41.7983 103.85 42.2937 104.435 42.2937 105.704C42.2937 106.972 41.7983 107.558 41.0777 107.558ZM46.1281 108.406C47.3816 108.406 48.3273 107.43 48.3273 105.704C48.3273 103.978 47.3816 103.002 46.1281 103.002C44.8821 103.002 43.9364 103.978 43.9364 105.704C43.9364 107.43 44.8821 108.406 46.1281 108.406ZM46.1281 107.558C45.415 107.558 44.9196 106.972 44.9196 105.704C44.9196 104.435 45.415 103.85 46.1281 103.85C46.8487 103.85 47.3441 104.435 47.3441 105.704C47.3441 106.972 46.8487 107.558 46.1281 107.558ZM51.1785 108.406C52.432 108.406 53.3778 107.43 53.3778 105.704C53.3778 103.978 52.432 103.002 51.1785 103.002C49.9325 103.002 48.9868 103.978 48.9868 105.704C48.9868 107.43 49.9325 108.406 51.1785 108.406ZM51.1785 107.558C50.4654 107.558 49.97 106.972 49.97 105.704C49.97 104.435 50.4654 103.85 51.1785 103.85C51.8991 103.85 52.3945 104.435 52.3945 105.704C52.3945 106.972 51.8991 107.558 51.1785 107.558ZM54.5347 108.384C54.8724 108.384 55.1502 108.121 55.1502 107.761C55.1502 107.385 54.8724 107.138 54.5347 107.138C54.1969 107.138 53.9192 107.385 53.9192 107.761C53.9192 108.121 54.1969 108.384 54.5347 108.384ZM57.8855 108.406C59.139 108.406 60.0848 107.43 60.0848 105.704C60.0848 103.978 59.139 103.002 57.8855 103.002C56.6395 103.002 55.6938 103.978 55.6938 105.704C55.6938 107.43 56.6395 108.406 57.8855 108.406ZM57.8855 107.558C57.1724 107.558 56.677 106.972 56.677 105.704C56.677 104.435 57.1724 103.85 57.8855 103.85C58.6061 103.85 59.1015 104.435 59.1015 105.704C59.1015 106.972 58.6061 107.558 57.8855 107.558ZM62.9359 108.406C64.1894 108.406 65.1352 107.43 65.1352 105.704C65.1352 103.978 64.1894 103.002 62.9359 103.002C61.6899 103.002 60.7442 103.978 60.7442 105.704C60.7442 107.43 61.6899 108.406 62.9359 108.406ZM62.9359 107.558C62.2228 107.558 61.7275 106.972 61.7275 105.704C61.7275 104.435 62.2228 103.85 62.9359 103.85C63.6565 103.85 64.1519 104.435 64.1519 105.704C64.1519 106.972 63.6565 107.558 62.9359 107.558Z" fill="#333333"/>
<path d="M119.062 103.077V103.895H120.172V108.331H121.148V103.077H119.062ZM124.382 108.406C125.636 108.406 126.582 107.43 126.582 105.704C126.582 103.977 125.636 103.002 124.382 103.002C123.136 103.002 122.191 103.977 122.191 105.704C122.191 107.43 123.136 108.406 124.382 108.406ZM124.382 107.558C123.669 107.558 123.174 106.972 123.174 105.704C123.174 104.435 123.669 103.85 124.382 103.85C125.103 103.85 125.598 104.435 125.598 105.704C125.598 106.972 125.103 107.558 124.382 107.558ZM128.412 105.906C129.162 105.906 129.673 105.336 129.673 104.465C129.673 103.595 129.162 103.024 128.412 103.024C127.661 103.024 127.158 103.602 127.158 104.465C127.158 105.328 127.661 105.906 128.412 105.906ZM127.977 108.331H128.712L132.3 103.077H131.564L127.977 108.331ZM128.412 105.381C128.022 105.381 127.766 105.043 127.766 104.465C127.766 103.887 128.022 103.55 128.412 103.55C128.817 103.55 129.057 103.88 129.057 104.465C129.057 105.051 128.817 105.381 128.412 105.381ZM131.857 108.383C132.608 108.383 133.118 107.805 133.118 106.942C133.118 106.079 132.608 105.501 131.857 105.501C131.106 105.501 130.604 106.079 130.604 106.942C130.604 107.805 131.106 108.383 131.857 108.383ZM131.857 107.858C131.459 107.858 131.212 107.528 131.212 106.942C131.212 106.357 131.459 106.026 131.857 106.026C132.255 106.026 132.503 106.364 132.503 106.942C132.503 107.52 132.255 107.858 131.857 107.858ZM138.31 103.077H136.148V108.331H137.124V106.815H138.31C139.691 106.815 140.547 106.102 140.547 104.946C140.547 103.782 139.691 103.077 138.31 103.077ZM138.265 105.989H137.124V103.902H138.265C139.121 103.902 139.564 104.285 139.564 104.946C139.564 105.606 139.121 105.989 138.265 105.989ZM145.185 106.349C145.185 105.096 144.329 104.278 143.158 104.278C141.965 104.278 141.086 105.133 141.086 106.327C141.086 107.52 141.957 108.383 143.301 108.383C143.991 108.383 144.554 108.158 144.914 107.73L144.411 107.152C144.126 107.445 143.773 107.588 143.323 107.588C142.625 107.588 142.137 107.212 142.025 106.627H145.17C145.177 106.537 145.185 106.424 145.185 106.349ZM143.158 105.028C143.773 105.028 144.216 105.426 144.291 106.004H142.017C142.107 105.418 142.55 105.028 143.158 105.028ZM146.979 104.908V104.323H146.086V108.331H147.024V106.387C147.024 105.569 147.474 105.148 148.188 105.148C148.255 105.148 148.323 105.156 148.405 105.171V104.278C147.737 104.278 147.249 104.488 146.979 104.908ZM155.335 108.331H156.356L153.984 103.077H153.024L150.659 108.331H151.665L152.183 107.115H154.81L155.335 108.331ZM152.513 106.349L153.496 104.052L154.487 106.349H152.513ZM159.209 104.278C158.623 104.278 158.135 104.473 157.828 104.841V104.323H156.934V108.331H157.873V106.304C157.873 105.501 158.323 105.096 158.991 105.096C159.591 105.096 159.944 105.441 159.944 106.154V108.331H160.882V106.034C160.882 104.826 160.169 104.278 159.209 104.278ZM164.347 104.278C163.762 104.278 163.274 104.473 162.966 104.841V104.323H162.073V108.331H163.011V106.304C163.011 105.501 163.461 105.096 164.129 105.096C164.73 105.096 165.083 105.441 165.083 106.154V108.331H166.021V106.034C166.021 104.826 165.308 104.278 164.347 104.278ZM170.153 104.323V106.349C170.153 107.152 169.711 107.558 169.058 107.558C168.465 107.558 168.119 107.212 168.119 106.484V104.323H167.181V106.612C167.181 107.82 167.879 108.383 168.907 108.383C169.425 108.383 169.898 108.188 170.198 107.82V108.331H171.092V104.323H170.153ZM177.379 104.278C176.741 104.278 176.201 104.533 175.878 104.946C175.6 104.495 175.112 104.278 174.527 104.278C173.979 104.278 173.514 104.473 173.213 104.833V104.323H172.32V108.331H173.258V106.297C173.258 105.501 173.679 105.096 174.302 105.096C174.872 105.096 175.202 105.441 175.202 106.154V108.331H176.141V106.297C176.141 105.501 176.569 105.096 177.184 105.096C177.754 105.096 178.085 105.441 178.085 106.154V108.331H179.023V106.034C179.023 104.826 178.347 104.278 177.379 104.278Z" fill="#333333"/>
<path d="M23.9207 97.7399C24.7343 97.7399 25.3438 97.2749 25.4694 96.5775L25.4726 96.5524H24.926L24.9197 96.5744C24.7752 97.0299 24.4233 97.2749 23.9207 97.2749C23.217 97.2749 22.7584 96.7377 22.7584 95.9053V95.9021C22.7584 95.0665 23.2139 94.5356 23.9207 94.5356C24.4296 94.5356 24.7815 94.7869 24.9103 95.2079L24.926 95.2581H25.4726L25.4663 95.233C25.3438 94.5419 24.7312 94.0706 23.9207 94.0706C22.8683 94.0706 22.1992 94.7775 22.1992 95.9021V95.9053C22.1992 97.0268 22.8715 97.7399 23.9207 97.7399ZM25.7239 97.6802H26.2988L26.6506 96.7032H28.102L28.4538 97.6802H29.0287L27.6653 94.1303H27.0873L25.7239 97.6802ZM27.37 94.7021H27.3826L27.9512 96.2822H26.8014L27.37 94.7021ZM30.7031 97.7399C31.5796 97.7399 32.1136 97.3346 32.1136 96.6906V96.6875C32.1136 96.1409 31.7869 95.8456 31.0172 95.6885L30.6089 95.6037C30.1376 95.5094 29.9209 95.3398 29.9209 95.0665V95.0633C29.9209 94.7429 30.2256 94.5293 30.6968 94.5293C31.146 94.5293 31.4508 94.7304 31.5042 95.0728L31.5104 95.1042H32.0445L32.0414 95.0665C32.0037 94.4759 31.4696 94.0706 30.7062 94.0706C29.924 94.0706 29.368 94.4853 29.3648 95.0822V95.0853C29.3648 95.61 29.7167 95.9272 30.4455 96.0749L30.8539 96.1597C31.3534 96.2634 31.5576 96.4236 31.5576 96.7189V96.722C31.5576 97.0645 31.2371 97.2812 30.7282 97.2812C30.2193 97.2812 29.8706 97.0739 29.8172 96.7377L29.8141 96.7063H29.2769L29.28 96.7409C29.324 97.3629 29.8769 97.7399 30.7031 97.7399ZM32.6539 97.6802H33.2006V96.0937H35.1514V97.6802H35.698V94.1303H35.1514V95.6414H33.2006V94.1303H32.6539V97.6802ZM36.4237 97.6802H37.8939C38.6887 97.6802 39.163 97.3032 39.163 96.6781V96.6749C39.163 96.2037 38.8238 95.8581 38.2928 95.8047V95.7953C38.6824 95.7419 38.9777 95.3932 38.9777 95.0194V95.0162C38.9777 94.4822 38.5442 94.1303 37.8907 94.1303H36.4237V97.6802ZM37.7588 94.5607C38.186 94.5607 38.4311 94.7461 38.4311 95.0791V95.0822C38.4311 95.4435 38.1483 95.6445 37.6331 95.6445H36.9703V94.5607H37.7588ZM37.7525 96.056C38.3117 96.056 38.6038 96.2571 38.6038 96.6498V96.6529C38.6038 97.0425 38.318 97.2498 37.7902 97.2498H36.9703V96.056H37.7525ZM39.4018 97.6802H39.9767L40.3285 96.7032H41.7799L42.1317 97.6802H42.7066L41.3432 94.1303H40.7652L39.4018 97.6802ZM41.0479 94.7021H41.0605L41.6291 96.2822H40.4793L41.0479 94.7021ZM44.604 97.7399C45.4177 97.7399 46.0271 97.2749 46.1528 96.5775L46.1559 96.5524H45.6093L45.603 96.5744C45.4585 97.0299 45.1067 97.2749 44.604 97.2749C43.9003 97.2749 43.4417 96.7377 43.4417 95.9053V95.9021C43.4417 95.0665 43.8972 94.5356 44.604 94.5356C45.1129 94.5356 45.4648 94.7869 45.5936 95.2079L45.6093 95.2581H46.1559L46.1496 95.233C46.0271 94.5419 45.4145 94.0706 44.604 94.0706C43.5516 94.0706 42.8825 94.7775 42.8825 95.9021V95.9053C42.8825 97.0268 43.5548 97.7399 44.604 97.7399ZM46.7025 97.6802H47.2491V96.477L47.6355 96.0592L48.8921 97.6802H49.5738L48.0251 95.6979L49.4481 94.1303H48.7916L47.2648 95.8424H47.2491V94.1303H46.7025V97.6802Z" fill="#828282"/>
<path d="M154.831 97.6802H155.378V94.1303H154.831V97.6802ZM156.1 97.6802H156.644V94.9974H156.656L158.613 97.6802H159.122V94.1303H158.579V96.81H158.569L156.612 94.1303H156.1V97.6802ZM160.762 97.6802H161.309V94.5827H162.458V94.1303H159.612V94.5827H160.762V97.6802ZM162.949 97.6802H165.298V97.2278H163.495V96.0906H165.204V95.6508H163.495V94.5827H165.298V94.1303H162.949V97.6802ZM165.914 97.6802H166.461V96.3042H167.284L168.053 97.6802H168.688L167.846 96.2257C168.295 96.0812 168.575 95.6979 168.575 95.2141V95.2079C168.575 94.5513 168.097 94.1303 167.35 94.1303H165.914V97.6802ZM166.461 95.8707V94.5701H167.277C167.733 94.5701 168.013 94.812 168.013 95.2141V95.2204C168.013 95.6351 167.752 95.8707 167.296 95.8707H166.461ZM169.162 97.6802H171.512V97.2278H169.709V96.0906H171.418V95.6508H169.709V94.5827H171.512V94.1303H169.162V97.6802ZM173.375 97.7399C174.251 97.7399 174.786 97.3346 174.786 96.6906V96.6875C174.786 96.1409 174.459 95.8456 173.689 95.6885L173.281 95.6037C172.81 95.5094 172.593 95.3398 172.593 95.0665V95.0633C172.593 94.7429 172.898 94.5293 173.369 94.5293C173.818 94.5293 174.123 94.7304 174.176 95.0728L174.182 95.1042H174.716L174.713 95.0665C174.676 94.4759 174.142 94.0706 173.378 94.0706C172.596 94.0706 172.04 94.4853 172.037 95.0822V95.0853C172.037 95.61 172.389 95.9272 173.117 96.0749L173.526 96.1597C174.025 96.2634 174.23 96.4236 174.23 96.7189V96.722C174.23 97.0645 173.909 97.2812 173.4 97.2812C172.891 97.2812 172.543 97.0739 172.489 96.7377L172.486 96.7063H171.949L171.952 96.7409C171.996 97.3629 172.549 97.7399 173.375 97.7399ZM176.243 97.6802H176.79V94.5827H177.94V94.1303H175.093V94.5827H176.243V97.6802Z" fill="#828282"/>
<rect x="104.813" y="122.508" width="74.5236" height="25.1986" rx="2.41264" fill="#FDFDFF" stroke="#413D4A" stroke-width="0.536141"/>
<path d="M124.988 137.819H125.776L126.916 133.831H126.934L128.07 137.819H128.858L130.288 132.53H129.434L128.448 136.675H128.43L127.312 132.53H126.535L125.417 136.675H125.402L124.416 132.53H123.562L124.988 137.819ZM131.274 133.37C131.534 133.37 131.735 133.164 131.735 132.915C131.735 132.662 131.534 132.457 131.274 132.457C131.017 132.457 130.812 132.662 130.812 132.915C130.812 133.164 131.017 133.37 131.274 133.37ZM130.878 137.819H131.669V133.963H130.878V137.819ZM133.839 137.896C134 137.896 134.151 137.877 134.242 137.863V137.251C134.184 137.258 134.114 137.265 134.03 137.265C133.696 137.265 133.52 137.148 133.52 136.756V134.594H134.242V133.963H133.52V132.959H132.71V133.963H132.157V134.594H132.71V136.804C132.71 137.573 133.077 137.896 133.839 137.896ZM134.928 137.819H135.719V135.587C135.719 134.986 136.082 134.568 136.628 134.568C137.185 134.568 137.508 134.949 137.508 135.587V137.819H138.299V135.437C138.299 134.506 137.757 133.89 136.932 133.89C136.357 133.89 135.943 134.15 135.738 134.597H135.719V132.53H134.928V137.819ZM140.509 137.896C141.063 137.896 141.488 137.617 141.719 137.166H141.734V137.819H142.529V132.53H141.734V134.619H141.719C141.488 134.165 141.048 133.89 140.502 133.89C139.535 133.89 138.897 134.66 138.897 135.887V135.891C138.897 137.119 139.527 137.896 140.509 137.896ZM140.718 137.214C140.092 137.214 139.707 136.712 139.707 135.891V135.887C139.707 135.074 140.095 134.568 140.718 134.568C141.312 134.568 141.737 135.088 141.737 135.887V135.891C141.737 136.694 141.316 137.214 140.718 137.214ZM143.343 137.819H144.134V135.521C144.134 134.945 144.449 134.612 144.959 134.612C145.113 134.612 145.252 134.63 145.314 134.656V133.919C145.252 133.908 145.153 133.89 145.039 133.89C144.6 133.89 144.277 134.172 144.152 134.623H144.134V133.963H143.343V137.819ZM146.857 137.888C147.367 137.888 147.814 137.625 148.037 137.21H148.052V137.819H148.847V135.162C148.847 134.388 148.25 133.89 147.308 133.89C146.359 133.89 145.783 134.399 145.728 135.063L145.725 135.103H146.472L146.48 135.07C146.546 134.762 146.828 134.546 147.286 134.546C147.777 134.546 148.052 134.803 148.052 135.228V135.517L147.004 135.58C146.091 135.634 145.571 136.045 145.571 136.716V136.723C145.571 137.416 146.088 137.888 146.857 137.888ZM146.37 136.705V136.697C146.37 136.371 146.634 136.162 147.11 136.133L148.052 136.074V136.375C148.052 136.877 147.631 137.254 147.074 137.254C146.648 137.254 146.37 137.042 146.37 136.705ZM150.368 137.819H151.186L151.988 134.931H152.007L152.817 137.819H153.641L154.697 133.963H153.912L153.209 136.998H153.19L152.384 133.963H151.622L150.819 136.998H150.805L150.101 133.963H149.309L150.368 137.819ZM156.218 137.888C156.727 137.888 157.174 137.625 157.398 137.21H157.413V137.819H158.208V135.162C158.208 134.388 157.61 133.89 156.669 133.89C155.719 133.89 155.144 134.399 155.089 135.063L155.085 135.103H155.833L155.84 135.07C155.906 134.762 156.188 134.546 156.647 134.546C157.138 134.546 157.413 134.803 157.413 135.228V135.517L156.364 135.58C155.452 135.634 154.931 136.045 154.931 136.716V136.723C154.931 137.416 155.448 137.888 156.218 137.888ZM155.73 136.705V136.697C155.73 136.371 155.994 136.162 156.471 136.133L157.413 136.074V136.375C157.413 136.877 156.991 137.254 156.434 137.254C156.009 137.254 155.73 137.042 155.73 136.705ZM159.007 137.819H159.799V132.53H159.007V137.819Z" fill="#413D4A"/>
<rect x="21.9824" y="122.24" width="75.0598" height="25.7348" rx="2.68071" fill="#413D4A"/>
<path d="M41.3785 137.818H42.2398L42.7272 136.389H44.765L45.2488 137.818H46.11L44.1896 132.53H43.3026L41.3785 137.818ZM43.7388 133.406H43.7534L44.5414 135.729H42.9471L43.7388 133.406ZM47.9389 137.895C48.4923 137.895 48.9175 137.617 49.1484 137.166H49.163V137.818H49.9583V132.53H49.163V134.619H49.1484C48.9175 134.164 48.4777 133.889 47.9316 133.889C46.964 133.889 46.3263 134.659 46.3263 135.887V135.891C46.3263 137.118 46.9567 137.895 47.9389 137.895ZM48.1478 137.214C47.5211 137.214 47.1363 136.712 47.1363 135.891V135.887C47.1363 135.073 47.5247 134.567 48.1478 134.567C48.7415 134.567 49.1667 135.088 49.1667 135.887V135.891C49.1667 136.693 48.7452 137.214 48.1478 137.214ZM52.2123 137.895C52.7657 137.895 53.1909 137.617 53.4218 137.166H53.4364V137.818H54.2317V132.53H53.4364V134.619H53.4218C53.1909 134.164 52.7511 133.889 52.205 133.889C51.2374 133.889 50.5997 134.659 50.5997 135.887V135.891C50.5997 137.118 51.2301 137.895 52.2123 137.895ZM52.4212 137.214C51.7945 137.214 51.4097 136.712 51.4097 135.891V135.887C51.4097 135.073 51.7982 134.567 52.4212 134.567C53.015 134.567 53.4401 135.088 53.4401 135.887V135.891C53.4401 136.693 53.0186 137.214 52.4212 137.214ZM56.6653 137.818H57.4863V135.605H59.7586V134.912H57.4863V133.237H59.9675V132.53H56.6653V137.818ZM61.899 137.895C62.4854 137.895 62.8775 137.628 63.0791 137.239H63.0975V137.818H63.8928V133.963H63.0975V136.213C63.0975 136.814 62.7383 137.214 62.1812 137.214C61.6314 137.214 61.3602 136.891 61.3602 136.308V133.963H60.5686V136.462C60.5686 137.349 61.0524 137.895 61.899 137.895ZM64.6771 137.818H65.4687V135.572C65.4687 134.971 65.8279 134.567 66.385 134.567C66.9347 134.567 67.2059 134.894 67.2059 135.473V137.818H68.0013V135.322C68.0013 134.436 67.5138 133.889 66.6672 133.889C66.0844 133.889 65.6886 134.153 65.487 134.545H65.4687V133.963H64.6771V137.818ZM70.2076 137.895C70.761 137.895 71.1862 137.617 71.4171 137.166H71.4317V137.818H72.227V132.53H71.4317V134.619H71.4171C71.1862 134.164 70.7464 133.889 70.2003 133.889C69.2327 133.889 68.595 134.659 68.595 135.887V135.891C68.595 137.118 69.2254 137.895 70.2076 137.895ZM70.4165 137.214C69.7898 137.214 69.405 136.712 69.405 135.891V135.887C69.405 135.073 69.7935 134.567 70.4165 134.567C71.0102 134.567 71.4354 135.088 71.4354 135.887V135.891C71.4354 136.693 71.0139 137.214 70.4165 137.214ZM74.4847 137.895C75.3936 137.895 76.0533 137.412 76.0533 136.708V136.704C76.0533 136.151 75.7528 135.839 74.9648 135.656L74.3381 135.513C73.9239 135.414 73.7663 135.253 73.7663 135.015V135.011C73.7663 134.703 74.0339 134.502 74.459 134.502C74.9062 134.502 75.1701 134.736 75.2177 135.073L75.2214 135.099H75.9654L75.9617 135.055C75.9214 134.399 75.3716 133.889 74.459 133.889C73.5721 133.889 72.971 134.362 72.971 135.051V135.055C72.971 135.616 73.3339 135.968 74.0669 136.136L74.6973 136.279C75.1114 136.378 75.2507 136.521 75.2507 136.77V136.774C75.2507 137.085 74.9648 137.283 74.4884 137.283C74.0009 137.283 73.737 137.074 73.6637 136.719L73.6564 136.682H72.8721L72.8757 136.715C72.9564 137.419 73.5208 137.895 74.4847 137.895Z" fill="white"/>
<rect x="12.8672" y="203.198" width="175.318" height="32.1685" rx="2.14457" fill="#F0F0F0"/>
<path d="M51.5567 221.529H52.5526L52.895 220.43H54.4971L54.8395 221.529H55.8354L54.2552 216.996H53.14L51.5567 221.529ZM53.6866 217.876H53.7055L54.2772 219.72H53.1149L53.6866 217.876ZM57.3433 221.598C57.8302 221.598 58.2009 221.353 58.3799 220.954H58.3988V221.529H59.3161V216.996H58.3988V218.746H58.3799C58.1977 218.337 57.8208 218.092 57.3433 218.092C56.4951 218.092 55.9736 218.746 55.9736 219.842V219.845C55.9736 220.938 56.4951 221.598 57.3433 221.598ZM57.6511 220.838C57.1925 220.838 56.9066 220.458 56.9066 219.845V219.842C56.9066 219.226 57.1956 218.853 57.6511 218.853C58.0941 218.853 58.4019 219.236 58.4019 219.842V219.845C58.4019 220.455 58.0972 220.838 57.6511 220.838ZM61.1758 221.598C61.6628 221.598 62.0335 221.353 62.2125 220.954H62.2314V221.529H63.1487V216.996H62.2314V218.746H62.2125C62.0303 218.337 61.6533 218.092 61.1758 218.092C60.3276 218.092 59.8062 218.746 59.8062 219.842V219.845C59.8062 220.938 60.3276 221.598 61.1758 221.598ZM61.4837 220.838C61.025 220.838 60.7392 220.458 60.7392 219.845V219.842C60.7392 219.226 61.0282 218.853 61.4837 218.853C61.9266 218.853 62.2345 219.236 62.2345 219.842V219.845C62.2345 220.455 61.9298 220.838 61.4837 220.838ZM66.0388 221.582C66.4818 221.582 66.8399 221.372 67.0315 221.026H67.0504V221.529H67.9677V219.22C67.9677 218.542 67.4053 218.092 66.5352 218.092C65.6461 218.092 65.1121 218.538 65.0618 219.16L65.0587 219.198H65.8974L65.9037 219.17C65.9477 218.953 66.155 218.793 66.4975 218.793C66.8556 218.793 67.0504 218.978 67.0504 219.277V219.484L66.2179 219.534C65.3822 219.588 64.9079 219.946 64.9079 220.558V220.565C64.9079 221.158 65.3634 221.582 66.0388 221.582ZM65.8158 220.518V220.511C65.8158 220.272 66.0011 220.122 66.3561 220.1L67.0504 220.056V220.298C67.0504 220.649 66.7488 220.913 66.3372 220.913C66.02 220.913 65.8158 220.766 65.8158 220.518ZM70.1007 221.598C70.9992 221.598 71.5803 221.039 71.6243 220.304V220.285H70.7698L70.7667 220.313C70.7039 220.653 70.4745 220.879 70.107 220.879C69.6546 220.879 69.3719 220.505 69.3719 219.845V219.842C69.3719 219.198 69.6546 218.812 70.1038 218.812C70.484 218.812 70.707 219.057 70.7636 219.377L70.7698 219.405H71.6212V219.383C71.5866 218.655 71.0054 218.092 70.0913 218.092C69.0829 218.092 68.4389 218.761 68.4389 219.839V219.842C68.4389 220.929 69.0735 221.598 70.1007 221.598ZM73.6066 221.598C74.505 221.598 75.0862 221.039 75.1302 220.304V220.285H74.2757L74.2726 220.313C74.2097 220.653 73.9804 220.879 73.6129 220.879C73.1605 220.879 72.8778 220.505 72.8778 219.845V219.842C72.8778 219.198 73.1605 218.812 73.6097 218.812C73.9898 218.812 74.2129 219.057 74.2694 219.377L74.2757 219.405H75.127V219.383C75.0925 218.655 74.5113 218.092 73.5971 218.092C72.5887 218.092 71.9447 218.761 71.9447 219.839V219.842C71.9447 220.929 72.5793 221.598 73.6066 221.598ZM77.1187 221.598C78.1365 221.598 78.7868 220.945 78.7868 219.845V219.839C78.7868 218.749 78.124 218.092 77.1156 218.092C76.1103 218.092 75.4506 218.755 75.4506 219.839V219.845C75.4506 220.942 76.0946 221.598 77.1187 221.598ZM77.1219 220.879C76.6695 220.879 76.3836 220.505 76.3836 219.845V219.839C76.3836 219.189 76.6726 218.812 77.1156 218.812C77.5617 218.812 77.8538 219.189 77.8538 219.839V219.845C77.8538 220.502 77.5679 220.879 77.1219 220.879ZM80.4078 221.598C80.9167 221.598 81.2623 221.359 81.4351 220.973H81.4539V221.529H82.3712V218.161H81.4539V220.097C81.4539 220.536 81.1932 220.838 80.7816 220.838C80.3701 220.838 80.1628 220.583 80.1628 220.144V218.161H79.2455V220.335C79.2455 221.124 79.6664 221.598 80.4078 221.598ZM82.9681 221.529H83.8854V219.594C83.8854 219.154 84.1461 218.853 84.5577 218.853C84.9692 218.853 85.1765 219.104 85.1765 219.544V221.529H86.0938V219.355C86.0938 218.567 85.6729 218.092 84.9315 218.092C84.4226 218.092 84.077 218.328 83.9042 218.714H83.8854V218.161H82.9681V221.529ZM88.0133 221.598C88.2049 221.598 88.3525 221.579 88.4562 221.564V220.891C88.3997 220.898 88.34 220.907 88.2583 220.907C87.9819 220.907 87.8405 220.8 87.8405 220.486V218.853H88.4562V218.161H87.8405V217.338H86.9138V218.161H86.4457V218.853H86.9138V220.587C86.9138 221.309 87.2656 221.598 88.0133 221.598ZM89.9327 221.582C90.3756 221.582 90.7338 221.372 90.9254 221.026H90.9442V221.529H91.8616V219.22C91.8616 218.542 91.2992 218.092 90.429 218.092C89.54 218.092 89.006 218.538 88.9557 219.16L88.9526 219.198H89.7913L89.7976 219.17C89.8416 218.953 90.0489 218.793 90.3914 218.793C90.7495 218.793 90.9442 218.978 90.9442 219.277V219.484L90.1118 219.534C89.2761 219.588 88.8018 219.946 88.8018 220.558V220.565C88.8018 221.158 89.2573 221.582 89.9327 221.582ZM89.7097 220.518V220.511C89.7097 220.272 89.895 220.122 90.25 220.1L90.9442 220.056V220.298C90.9442 220.649 90.6427 220.913 90.2311 220.913C89.9139 220.913 89.7097 220.766 89.7097 220.518ZM94.4501 221.598C95.2983 221.598 95.8229 220.938 95.8229 219.845V219.842C95.8229 218.746 95.2983 218.092 94.4532 218.092C93.9726 218.092 93.5988 218.337 93.4134 218.746H93.3946V216.996H92.4773V221.529H93.3946V220.954H93.4134C93.5956 221.353 93.9663 221.598 94.4501 221.598ZM94.1454 220.838C93.6993 220.838 93.3946 220.455 93.3946 219.845V219.842C93.3946 219.236 93.7024 218.853 94.1454 218.853C94.6009 218.853 94.8899 219.226 94.8899 219.842V219.845C94.8899 220.458 94.6009 220.838 94.1454 220.838ZM96.7716 217.728C97.0481 217.728 97.2617 217.511 97.2617 217.25C97.2617 216.99 97.0481 216.773 96.7716 216.773C96.4952 216.773 96.2816 216.99 96.2816 217.25C96.2816 217.511 96.4952 217.728 96.7716 217.728ZM96.313 221.529H97.2303V218.161H96.313V221.529ZM97.868 221.529H98.7853V216.996H97.868V221.529ZM99.8817 217.728C100.158 217.728 100.372 217.511 100.372 217.25C100.372 216.99 100.158 216.773 99.8817 216.773C99.6052 216.773 99.3916 216.99 99.3916 217.25C99.3916 217.511 99.6052 217.728 99.8817 217.728ZM99.423 221.529H100.34V218.161H99.423V221.529ZM102.294 221.598C102.486 221.598 102.634 221.579 102.737 221.564V220.891C102.681 220.898 102.621 220.907 102.539 220.907C102.263 220.907 102.122 220.8 102.122 220.486V218.853H102.737V218.161H102.122V217.338H101.195V218.161H100.727V218.853H101.195V220.587C101.195 221.309 101.547 221.598 102.294 221.598ZM103.771 222.638C104.518 222.638 104.971 222.384 105.235 221.589L106.391 218.161H105.423L104.71 220.794H104.685L103.975 218.161H102.967L104.157 221.529L104.116 221.639C104.035 221.868 103.884 221.947 103.611 221.947C103.476 221.947 103.369 221.928 103.303 221.915V222.597C103.41 222.616 103.592 222.638 103.771 222.638ZM107.987 222.629H108.904V220.954H108.923C109.105 221.353 109.485 221.598 109.966 221.598C110.808 221.598 111.329 220.938 111.329 219.845V219.842C111.329 218.746 110.808 218.092 109.953 218.092C109.476 218.092 109.108 218.34 108.926 218.749H108.904V218.161H107.987V222.629ZM109.652 220.838C109.206 220.838 108.901 220.455 108.901 219.848V219.845C108.901 219.236 109.206 218.853 109.652 218.853C110.107 218.853 110.396 219.226 110.396 219.842V219.845C110.396 220.458 110.107 220.838 109.652 220.838ZM112.809 221.582C113.252 221.582 113.61 221.372 113.801 221.026H113.82V221.529H114.738V219.22C114.738 218.542 114.175 218.092 113.305 218.092C112.416 218.092 111.882 218.538 111.832 219.16L111.829 219.198H112.667L112.674 219.17C112.718 218.953 112.925 218.793 113.267 218.793C113.626 218.793 113.82 218.978 113.82 219.277V219.484L112.988 219.534C112.152 219.588 111.678 219.946 111.678 220.558V220.565C111.678 221.158 112.133 221.582 112.809 221.582ZM112.586 220.518V220.511C112.586 220.272 112.771 220.122 113.126 220.1L113.82 220.056V220.298C113.82 220.649 113.519 220.913 113.107 220.913C112.79 220.913 112.586 220.766 112.586 220.518ZM115.331 221.529H116.249V219.644C116.249 219.154 116.513 218.884 116.965 218.884C117.097 218.884 117.222 218.903 117.298 218.934V218.127C117.229 218.108 117.135 218.092 117.034 218.092C116.641 218.092 116.368 218.334 116.267 218.749H116.249V218.161H115.331V221.529ZM119.139 221.598C119.33 221.598 119.478 221.579 119.582 221.564V220.891C119.525 220.898 119.465 220.907 119.384 220.907C119.107 220.907 118.966 220.8 118.966 220.486V218.853H119.582V218.161H118.966V217.338H118.039V218.161H117.571V218.853H118.039V220.587C118.039 221.309 118.391 221.598 119.139 221.598ZM120.088 221.529H121.005V219.594C121.005 219.154 121.266 218.853 121.677 218.853C122.089 218.853 122.296 219.104 122.296 219.544V221.529H123.213V219.355C123.213 218.567 122.792 218.092 122.051 218.092C121.542 218.092 121.196 218.328 121.024 218.714H121.005V218.161H120.088V221.529ZM125.327 221.598C126.289 221.598 126.754 221.03 126.857 220.533L126.867 220.499H126.025L126.019 220.518C125.953 220.706 125.723 220.913 125.346 220.913C124.878 220.913 124.586 220.599 124.577 220.062H126.895V219.779C126.895 218.761 126.276 218.092 125.29 218.092C124.303 218.092 123.672 218.777 123.672 219.848V219.852C123.672 220.929 124.297 221.598 125.327 221.598ZM125.305 218.777C125.686 218.777 125.959 219.019 126.015 219.484H124.586C124.646 219.028 124.928 218.777 125.305 218.777ZM127.369 221.529H128.287V219.644C128.287 219.154 128.551 218.884 129.003 218.884C129.135 218.884 129.261 218.903 129.336 218.934V218.127C129.267 218.108 129.173 218.092 129.072 218.092C128.679 218.092 128.406 218.334 128.306 218.749H128.287V218.161H127.369V221.529Z" fill="#413D4A"/>
<circle cx="36.4592" cy="219.281" r="10.7228" fill="#979797" fill-opacity="0.1"/>
<path d="M172.637 221.962L175.854 219.282L172.637 216.601" stroke="#4A4A4A" stroke-width="1.07228" stroke-linecap="round" stroke-linejoin="round"/>
<rect x="12.8672" y="246.625" width="175.318" height="32.1685" rx="2.14457" fill="#F0F0F0"/>
<path d="M51.5567 264.956H52.5526L52.895 263.857H54.4971L54.8395 264.956H55.8354L54.2552 260.423H53.14L51.5567 264.956ZM53.6866 261.303H53.7055L54.2772 263.147H53.1149L53.6866 261.303ZM57.6354 265.025C58.5339 265.025 59.115 264.466 59.159 263.731V263.712H58.3046L58.3014 263.74C58.2386 264.08 58.0093 264.306 57.6417 264.306C57.1893 264.306 56.9066 263.932 56.9066 263.272V263.269C56.9066 262.625 57.1893 262.239 57.6386 262.239C58.0187 262.239 58.2417 262.484 58.2983 262.804L58.3046 262.832H59.1559V262.81C59.1213 262.082 58.5402 261.519 57.626 261.519C56.6176 261.519 55.9736 262.188 55.9736 263.266V263.269C55.9736 264.356 56.6082 265.025 57.6354 265.025ZM61.1413 265.025C62.0397 265.025 62.6209 264.466 62.6649 263.731V263.712H61.8104L61.8073 263.74C61.7444 264.08 61.5151 264.306 61.1476 264.306C60.6952 264.306 60.4125 263.932 60.4125 263.272V263.269C60.4125 262.625 60.6952 262.239 61.1444 262.239C61.5245 262.239 61.7476 262.484 61.8041 262.804L61.8104 262.832H62.6617V262.81C62.6272 262.082 62.046 261.519 61.1319 261.519C60.1235 261.519 59.4795 262.188 59.4795 263.266V263.269C59.4795 264.356 60.114 265.025 61.1413 265.025ZM63.1078 264.956H64.0251V263.071C64.0251 262.581 64.289 262.311 64.7414 262.311C64.8733 262.311 64.999 262.33 65.0744 262.361V261.554C65.0053 261.535 64.911 261.519 64.8105 261.519C64.4178 261.519 64.1445 261.761 64.044 262.176H64.0251V261.588H63.1078V264.956ZM66.598 265.025C67.1069 265.025 67.4525 264.786 67.6252 264.4H67.6441V264.956H68.5614V261.588H67.6441V263.524C67.6441 263.963 67.3833 264.265 66.9718 264.265C66.5603 264.265 66.353 264.01 66.353 263.571V261.588H65.4356V263.762C65.4356 264.551 65.8566 265.025 66.598 265.025ZM70.6913 265.025C71.6526 265.025 72.1175 264.457 72.2212 263.96L72.2306 263.926H71.3887L71.3824 263.945C71.3164 264.133 71.0871 264.34 70.7101 264.34C70.2421 264.34 69.9499 264.026 69.9405 263.489H72.2589V263.206C72.2589 262.188 71.64 261.519 70.6536 261.519C69.6672 261.519 69.0358 262.204 69.0358 263.275V263.279C69.0358 264.356 69.6609 265.025 70.6913 265.025ZM70.6693 262.204C71.0494 262.204 71.3227 262.446 71.3793 262.911H69.9499C70.0096 262.455 70.2923 262.204 70.6693 262.204ZM73.9804 265.025C74.4673 265.025 74.838 264.78 75.0171 264.381H75.0359V264.956H75.9532V260.423H75.0359V262.173H75.0171C74.8349 261.764 74.4579 261.519 73.9804 261.519C73.1322 261.519 72.6107 262.173 72.6107 263.269V263.272C72.6107 264.365 73.1322 265.025 73.9804 265.025ZM74.2883 264.265C73.8296 264.265 73.5437 263.885 73.5437 263.272V263.269C73.5437 262.653 73.8328 262.28 74.2883 262.28C74.7312 262.28 75.0391 262.663 75.0391 263.269V263.272C75.0391 263.882 74.7343 264.265 74.2883 264.265ZM77.9198 264.956H78.8685V260.423H77.9198V264.956ZM79.5439 264.956H80.4612V263.021C80.4612 262.581 80.722 262.28 81.1335 262.28C81.545 262.28 81.7524 262.531 81.7524 262.971V264.956H82.6697V262.782C82.6697 261.994 82.2487 261.519 81.5073 261.519C80.9984 261.519 80.6528 261.755 80.4801 262.141H80.4612V261.588H79.5439V264.956ZM84.5891 265.025C84.7807 265.025 84.9284 265.006 85.032 264.991V264.318C84.9755 264.325 84.9158 264.334 84.8341 264.334C84.5577 264.334 84.4163 264.227 84.4163 263.913V262.28H85.032V261.588H84.4163V260.765H83.4896V261.588H83.0215V262.28H83.4896V264.014C83.4896 264.736 83.8414 265.025 84.5891 265.025ZM87.0206 265.025C87.9819 265.025 88.4468 264.457 88.5505 263.96L88.5599 263.926H87.718L87.7117 263.945C87.6457 264.133 87.4164 264.34 87.0394 264.34C86.5713 264.34 86.2792 264.026 86.2698 263.489H88.5882V263.206C88.5882 262.188 87.9693 261.519 86.9829 261.519C85.9965 261.519 85.365 262.204 85.365 263.275V263.279C85.365 264.356 85.9902 265.025 87.0206 265.025ZM86.9986 262.204C87.3787 262.204 87.652 262.446 87.7085 262.911H86.2792C86.3389 262.455 86.6216 262.204 86.9986 262.204ZM89.0625 264.956H89.9798V263.071C89.9798 262.581 90.2437 262.311 90.6961 262.311C90.828 262.311 90.9537 262.33 91.0291 262.361V261.554C90.96 261.535 90.8657 261.519 90.7652 261.519C90.3725 261.519 90.0992 261.761 89.9987 262.176H89.9798V261.588H89.0625V264.956ZM92.826 265.025C93.7873 265.025 94.2522 264.457 94.3559 263.96L94.3653 263.926H93.5234L93.5171 263.945C93.4511 264.133 93.2218 264.34 92.8448 264.34C92.3767 264.34 92.0846 264.026 92.0752 263.489H94.3936V263.206C94.3936 262.188 93.7747 261.519 92.7883 261.519C91.8019 261.519 91.1704 262.204 91.1704 263.275V263.279C91.1704 264.356 91.7956 265.025 92.826 265.025ZM92.804 262.204C93.1841 262.204 93.4574 262.446 93.514 262.911H92.0846C92.1443 262.455 92.427 262.204 92.804 262.204ZM96.2533 265.025C97.1203 265.025 97.7266 264.592 97.7266 263.932V263.929C97.7266 263.432 97.4376 263.156 96.7339 263.008L96.1622 262.886C95.8229 262.814 95.7067 262.7 95.7067 262.528V262.525C95.7067 262.308 95.9046 262.166 96.2219 262.166C96.5612 262.166 96.7591 262.349 96.7905 262.591L96.7936 262.616H97.6387V262.584C97.6167 261.994 97.1172 261.519 96.2219 261.519C95.3643 261.519 94.8114 261.934 94.8114 262.575V262.578C94.8114 263.081 95.1412 263.407 95.7946 263.546L96.3664 263.665C96.6962 263.737 96.8093 263.841 96.8093 264.02V264.023C96.8093 264.24 96.5989 264.375 96.2533 264.375C95.8857 264.375 95.6878 264.221 95.6282 263.957L95.6219 263.929H94.7266L94.7297 263.957C94.8019 264.595 95.3203 265.025 96.2533 265.025ZM99.5173 265.025C99.7089 265.025 99.8565 265.006 99.9602 264.991V264.318C99.9037 264.325 99.844 264.334 99.7623 264.334C99.4859 264.334 99.3445 264.227 99.3445 263.913V262.28H99.9602V261.588H99.3445V260.765H98.4178V261.588H97.9497V262.28H98.4178V264.014C98.4178 264.736 98.7696 265.025 99.5173 265.025Z" fill="#413D4A"/>
<circle cx="36.4592" cy="262.709" r="10.7228" fill="#979797" fill-opacity="0.1"/>
<path d="M172.637 265.39L175.854 262.709L172.637 260.029" stroke="#4A4A4A" stroke-width="1.07228" stroke-linecap="round" stroke-linejoin="round"/>
<rect x="12.8672" y="290.052" width="175.318" height="32.1685" rx="2.14457" fill="#F0F0F0"/>
<path d="M53.5013 308.462C54.6448 308.462 55.3296 307.909 55.3296 307.039V307.036C55.3296 306.323 54.9024 305.937 53.9536 305.748L53.473 305.651C52.9515 305.547 52.719 305.381 52.719 305.095V305.092C52.719 304.768 53.0112 304.545 53.4981 304.542C53.9662 304.542 54.2929 304.759 54.34 305.114L54.3432 305.151H55.2385L55.2354 305.092C55.1914 304.297 54.5474 303.772 53.4981 303.772C52.4929 303.772 51.7703 304.319 51.7703 305.148V305.151C51.7703 305.833 52.2227 306.26 53.118 306.439L53.5955 306.533C54.1578 306.65 54.3809 306.804 54.3809 307.112V307.115C54.3809 307.46 54.051 307.69 53.5264 307.69C53.0081 307.69 52.6342 307.47 52.5745 307.118L52.5683 307.083H51.6729L51.6761 307.133C51.7295 307.969 52.4238 308.462 53.5013 308.462ZM57.3653 308.453C58.3265 308.453 58.7915 307.884 58.8951 307.388L58.9046 307.353H58.0627L58.0564 307.372C57.9904 307.561 57.7611 307.768 57.3841 307.768C56.916 307.768 56.6239 307.454 56.6144 306.917H58.9328V306.634C58.9328 305.616 58.314 304.947 57.3276 304.947C56.3411 304.947 55.7097 305.632 55.7097 306.703V306.706C55.7097 307.784 56.3349 308.453 57.3653 308.453ZM57.3433 305.632C57.7234 305.632 57.9967 305.874 58.0532 306.339H56.6239C56.6836 305.883 56.9663 305.632 57.3433 305.632ZM60.7455 308.453C60.9371 308.453 61.0847 308.434 61.1884 308.418V307.746C61.1319 307.752 61.0722 307.762 60.9905 307.762C60.714 307.762 60.5727 307.655 60.5727 307.341V305.707H61.1884V305.016H60.5727V304.193H59.646V305.016H59.1779V305.707H59.646V307.441C59.646 308.164 59.9978 308.453 60.7455 308.453ZM63.0324 308.453C63.2241 308.453 63.3717 308.434 63.4754 308.418V307.746C63.4188 307.752 63.3591 307.762 63.2775 307.762C63.001 307.762 62.8597 307.655 62.8597 307.341V305.707H63.4754V305.016H62.8597V304.193H61.9329V305.016H61.4649V305.707H61.9329V307.441C61.9329 308.164 62.2848 308.453 63.0324 308.453ZM64.4587 304.583C64.7351 304.583 64.9487 304.366 64.9487 304.105C64.9487 303.844 64.7351 303.628 64.4587 303.628C64.1822 303.628 63.9686 303.844 63.9686 304.105C63.9686 304.366 64.1822 304.583 64.4587 304.583ZM64 308.384H64.9173V305.016H64V308.384ZM65.533 308.384H66.4503V306.449C66.4503 306.009 66.7111 305.707 67.1226 305.707C67.5341 305.707 67.7415 305.959 67.7415 306.398V308.384H68.6588V306.21C68.6588 305.421 68.2378 304.947 67.4964 304.947C66.9875 304.947 66.642 305.183 66.4692 305.569H66.4503V305.016H65.533V308.384ZM70.8138 309.552C71.8254 309.552 72.4568 309.04 72.4568 308.29V305.016H71.5395V305.591H71.5206C71.3384 305.198 70.9709 304.947 70.4965 304.947C69.6452 304.947 69.1174 305.585 69.1174 306.659V306.662C69.1174 307.708 69.6389 308.337 70.4808 308.337C70.9677 308.337 71.3447 308.114 71.5206 307.762H71.5395V308.277C71.5395 308.654 71.2882 308.899 70.8138 308.899C70.4306 308.899 70.1855 308.754 70.1133 308.588L70.1038 308.566H69.2117L69.2148 308.594C69.3028 309.135 69.8871 309.552 70.8138 309.552ZM70.7981 307.664C70.3395 307.664 70.0504 307.291 70.0504 306.684V306.681C70.0504 306.078 70.3426 305.707 70.7981 305.707C71.2442 305.707 71.5426 306.081 71.5426 306.681V306.684C71.5426 307.287 71.2473 307.664 70.7981 307.664ZM74.4453 308.453C75.3124 308.453 75.9187 308.019 75.9187 307.36V307.357C75.9187 306.86 75.6297 306.584 74.926 306.436L74.3542 306.314C74.015 306.241 73.8987 306.128 73.8987 305.955V305.952C73.8987 305.736 74.0966 305.594 74.4139 305.594C74.7532 305.594 74.9511 305.776 74.9825 306.018L74.9857 306.043H75.8307V306.012C75.8087 305.421 75.3092 304.947 74.4139 304.947C73.5563 304.947 73.0034 305.362 73.0034 306.003V306.006C73.0034 306.508 73.3333 306.835 73.9867 306.973L74.5584 307.093C74.8883 307.165 75.0014 307.269 75.0014 307.448V307.451C75.0014 307.668 74.7909 307.803 74.4453 307.803C74.0778 307.803 73.8799 307.649 73.8202 307.385L73.8139 307.357H72.9186L72.9217 307.385C72.994 308.023 73.5123 308.453 74.4453 308.453Z" fill="#413D4A"/>
<circle cx="36.4592" cy="306.136" r="10.7228" fill="#979797" fill-opacity="0.1"/>
<path d="M172.637 308.817L175.854 306.137L172.637 303.456" stroke="#4A4A4A" stroke-width="1.07228" stroke-linecap="round" stroke-linejoin="round"/>
<rect x="12.8672" y="333.48" width="175.318" height="32.1685" rx="2.14457" fill="#F0F0F0"/>
<path d="M51.8457 351.811H54.7767V351.029H52.7944V347.278H51.8457V351.811ZM56.7432 351.88C57.7045 351.88 58.1695 351.312 58.2731 350.815L58.2826 350.781H57.4407L57.4344 350.799C57.3684 350.988 57.1391 351.195 56.7621 351.195C56.294 351.195 56.0019 350.881 55.9924 350.344H58.3108V350.061C58.3108 349.043 57.692 348.374 56.7056 348.374C55.7191 348.374 55.0877 349.059 55.0877 350.13V350.133C55.0877 351.211 55.7129 351.88 56.7432 351.88ZM56.7213 349.059C57.1014 349.059 57.3747 349.301 57.4312 349.766H56.0019C56.0616 349.31 56.3443 349.059 56.7213 349.059ZM59.7873 351.864C60.2303 351.864 60.5884 351.654 60.78 351.308H60.7989V351.811H61.7162V349.502C61.7162 348.824 61.1538 348.374 60.2837 348.374C59.3946 348.374 58.8606 348.82 58.8103 349.442L58.8072 349.48H59.646L59.6522 349.452C59.6962 349.235 59.9036 349.075 60.246 349.075C60.6041 349.075 60.7989 349.26 60.7989 349.559V349.766L59.9664 349.816C59.1308 349.87 58.6564 350.228 58.6564 350.84V350.847C58.6564 351.44 59.1119 351.864 59.7873 351.864ZM59.5643 350.799V350.793C59.5643 350.554 59.7496 350.404 60.1046 350.382L60.7989 350.338V350.58C60.7989 350.931 60.4973 351.195 60.0858 351.195C59.7685 351.195 59.5643 351.048 59.5643 350.799ZM62.3099 351.811H63.2272V349.926C63.2272 349.436 63.4911 349.166 63.9435 349.166C64.0754 349.166 64.2011 349.185 64.2765 349.216V348.409C64.2073 348.39 64.1131 348.374 64.0126 348.374C63.6199 348.374 63.3466 348.616 63.2461 349.031H63.2272V348.443H62.3099V351.811ZM64.6534 351.811H65.5707V349.876C65.5707 349.436 65.8315 349.135 66.243 349.135C66.6545 349.135 66.8619 349.386 66.8619 349.826V351.811H67.7792V349.637C67.7792 348.849 67.3582 348.374 66.6168 348.374C66.1079 348.374 65.7624 348.61 65.5896 348.996H65.5707V348.443H64.6534V351.811ZM69.6358 351.811H70.5531V349.779C70.5531 349.398 70.7887 349.135 71.1374 349.135C71.4767 349.135 71.6809 349.348 71.6809 349.709V351.811H72.5636V349.763C72.5636 349.389 72.7929 349.135 73.1416 349.135C73.4966 349.135 73.6914 349.348 73.6914 349.738V351.811H74.6087V349.508C74.6087 348.83 74.1657 348.374 73.506 348.374C73.0128 348.374 72.6107 348.644 72.4599 349.069H72.4411C72.328 348.626 71.9856 348.374 71.5144 348.374C71.062 348.374 70.7101 348.626 70.5719 349.009H70.5531V348.443H69.6358V351.811ZM76.7355 351.88C77.7533 351.88 78.4036 351.227 78.4036 350.127V350.121C78.4036 349.031 77.7407 348.374 76.7323 348.374C75.727 348.374 75.0673 349.037 75.0673 350.121V350.127C75.0673 351.224 75.7113 351.88 76.7355 351.88ZM76.7386 351.161C76.2862 351.161 76.0004 350.787 76.0004 350.127V350.121C76.0004 349.471 76.2894 349.094 76.7323 349.094C77.1784 349.094 77.4706 349.471 77.4706 350.121V350.127C77.4706 350.784 77.1847 351.161 76.7386 351.161ZM78.8779 351.811H79.7952V349.926C79.7952 349.436 80.0591 349.166 80.5115 349.166C80.6434 349.166 80.7691 349.185 80.8445 349.216V348.409C80.7754 348.39 80.6811 348.374 80.5806 348.374C80.1879 348.374 79.9146 348.616 79.8141 349.031H79.7952V348.443H78.8779V351.811ZM82.6414 351.88C83.6027 351.88 84.0676 351.312 84.1713 350.815L84.1807 350.781H83.3388L83.3325 350.799C83.2665 350.988 83.0372 351.195 82.6602 351.195C82.1922 351.195 81.9 350.881 81.8906 350.344H84.209V350.061C84.209 349.043 83.5901 348.374 82.6037 348.374C81.6173 348.374 80.9858 349.059 80.9858 350.13V350.133C80.9858 351.211 81.611 351.88 82.6414 351.88ZM82.6194 349.059C82.9995 349.059 83.2728 349.301 83.3294 349.766H81.9C81.9597 349.31 82.2424 349.059 82.6194 349.059Z" fill="#413D4A"/>
<circle cx="36.4592" cy="349.564" r="10.7228" fill="#979797" fill-opacity="0.1"/>
<path d="M172.637 352.245L175.854 349.564L172.637 346.883" stroke="#4A4A4A" stroke-width="1.07228" stroke-linecap="round" stroke-linejoin="round"/>
<path d="M38.5853 174.885H41.5162V174.102H39.534V170.351H38.5853V174.885ZM43.4953 174.954C44.5132 174.954 45.1635 174.3 45.1635 173.201V173.194C45.1635 172.104 44.5006 171.448 43.4922 171.448C42.4869 171.448 41.8272 172.111 41.8272 173.194V173.201C41.8272 174.297 42.4712 174.954 43.4953 174.954ZM43.4985 174.234C43.0461 174.234 42.7602 173.86 42.7602 173.201V173.194C42.7602 172.544 43.0493 172.167 43.4922 172.167C43.9383 172.167 44.2304 172.544 44.2304 173.194V173.201C44.2304 173.857 43.9446 174.234 43.4985 174.234ZM45.6378 174.885H46.5551V173C46.5551 172.51 46.819 172.239 47.2714 172.239C47.4033 172.239 47.529 172.258 47.6044 172.29V171.482C47.5353 171.463 47.441 171.448 47.3405 171.448C46.9478 171.448 46.6745 171.69 46.574 172.104H46.5551V171.517H45.6378V174.885ZM49.4013 174.954C50.3626 174.954 50.8275 174.385 50.9312 173.889L50.9406 173.854H50.0987L50.0924 173.873C50.0264 174.061 49.7971 174.269 49.4201 174.269C48.952 174.269 48.6599 173.955 48.6505 173.417H50.9689V173.135C50.9689 172.117 50.35 171.448 49.3636 171.448C48.3772 171.448 47.7457 172.133 47.7457 173.204V173.207C47.7457 174.285 48.3709 174.954 49.4013 174.954ZM49.3793 172.133C49.7594 172.133 50.0327 172.375 50.0893 172.839H48.6599C48.7196 172.384 49.0023 172.133 49.3793 172.133ZM51.4432 174.885H52.3605V172.852C52.3605 172.472 52.5961 172.208 52.9448 172.208C53.2841 172.208 53.4883 172.422 53.4883 172.783V174.885H54.3711V172.836C54.3711 172.462 54.6004 172.208 54.9491 172.208C55.3041 172.208 55.4988 172.422 55.4988 172.811V174.885H56.4161V172.582C56.4161 171.903 55.9732 171.448 55.3135 171.448C54.8203 171.448 54.4182 171.718 54.2674 172.142H54.2485C54.1354 171.699 53.793 171.448 53.3218 171.448C52.8694 171.448 52.5176 171.699 52.3794 172.082H52.3605V171.517H51.4432V174.885ZM58.3513 174.885H59.3V170.351H58.3513V174.885ZM59.9754 175.984H60.8927V174.31H60.9116C61.0938 174.709 61.4739 174.954 61.9545 174.954C62.7964 174.954 63.3179 174.294 63.3179 173.201V173.198C63.3179 172.101 62.7964 171.448 61.942 171.448C61.4645 171.448 61.0969 171.696 60.9147 172.104H60.8927V171.517H59.9754V175.984ZM61.6404 174.193C61.1943 174.193 60.8896 173.81 60.8896 173.204V173.201C60.8896 172.591 61.1943 172.208 61.6404 172.208C62.0959 172.208 62.3849 172.582 62.3849 173.198V173.201C62.3849 173.813 62.0959 174.193 61.6404 174.193ZM65.1808 174.954C66.0478 174.954 66.6541 174.52 66.6541 173.86V173.857C66.6541 173.361 66.3651 173.084 65.6614 172.937L65.0897 172.814C64.7504 172.742 64.6342 172.629 64.6342 172.456V172.453C64.6342 172.236 64.8321 172.095 65.1494 172.095C65.4887 172.095 65.6866 172.277 65.718 172.519L65.7211 172.544H66.5662V172.513C66.5442 171.922 66.0447 171.448 65.1494 171.448C64.2918 171.448 63.7389 171.862 63.7389 172.503V172.506C63.7389 173.009 64.0687 173.336 64.7221 173.474L65.2939 173.593C65.6237 173.666 65.7368 173.769 65.7368 173.948V173.952C65.7368 174.168 65.5263 174.303 65.1808 174.303C64.8132 174.303 64.6153 174.149 64.5556 173.886L64.5494 173.857H63.654L63.6572 173.886C63.7294 174.523 64.2478 174.954 65.1808 174.954ZM68.2531 174.954C68.762 174.954 69.1076 174.715 69.2804 174.328H69.2992V174.885H70.2165V171.517H69.2992V173.452C69.2992 173.892 69.0385 174.193 68.627 174.193C68.2154 174.193 68.0081 173.939 68.0081 173.499V171.517H67.0908V173.691C67.0908 174.479 67.5117 174.954 68.2531 174.954ZM70.8134 174.885H71.7307V172.852C71.7307 172.472 71.9663 172.208 72.315 172.208C72.6543 172.208 72.8585 172.422 72.8585 172.783V174.885H73.7412V172.836C73.7412 172.462 73.9706 172.208 74.3193 172.208C74.6743 172.208 74.869 172.422 74.869 172.811V174.885H75.7863V172.582C75.7863 171.903 75.3434 171.448 74.6837 171.448C74.1905 171.448 73.7884 171.718 73.6376 172.142H73.6187C73.5056 171.699 73.1632 171.448 72.692 171.448C72.2396 171.448 71.8878 171.699 71.7496 172.082H71.7307V171.517H70.8134V174.885Z" fill="#333333"/>
<path d="M135.435 174.885H136V172.821H138.488V174.885H139.054V170.352H138.488V172.312H136V170.352H135.435V174.885ZM140.157 171.065C140.348 171.065 140.499 170.911 140.499 170.722C140.499 170.531 140.348 170.38 140.157 170.38C139.968 170.38 139.814 170.531 139.814 170.722C139.814 170.911 139.968 171.065 140.157 171.065ZM139.883 174.885H140.43V171.618H139.883V174.885ZM142.334 174.948C143.062 174.948 143.603 174.545 143.603 173.974V173.971C143.603 173.506 143.364 173.245 142.704 173.085L142.186 172.959C141.825 172.871 141.677 172.717 141.677 172.494V172.491C141.677 172.202 141.922 172.01 142.318 172.01C142.723 172.01 142.965 172.221 143.009 172.538L143.012 172.56H143.534L143.531 172.519C143.49 171.973 143.034 171.555 142.318 171.555C141.611 171.555 141.118 171.954 141.118 172.516V172.519C141.118 172.99 141.416 173.276 142.032 173.424L142.55 173.55C142.921 173.641 143.044 173.773 143.044 174.008V174.011C143.044 174.307 142.78 174.492 142.337 174.492C141.891 174.492 141.649 174.3 141.583 173.974L141.577 173.942H141.03L141.033 173.971C141.099 174.555 141.564 174.948 142.334 174.948ZM145.233 174.948C145.34 174.948 145.456 174.935 145.525 174.926V174.483C145.478 174.486 145.415 174.495 145.349 174.495C145.057 174.495 144.903 174.398 144.903 174.049V172.07H145.525V171.618H144.903V170.735H144.338V171.618H143.86V172.07H144.338V174.052C144.338 174.677 144.633 174.948 145.233 174.948ZM147.373 174.948C148.274 174.948 148.884 174.294 148.884 173.251V173.245C148.884 172.202 148.271 171.555 147.369 171.555C146.468 171.555 145.858 172.205 145.858 173.245V173.251C145.858 174.291 146.465 174.948 147.373 174.948ZM147.376 174.464C146.798 174.464 146.417 174.021 146.417 173.251V173.245C146.417 172.482 146.801 172.039 147.369 172.039C147.947 172.039 148.324 172.478 148.324 173.245V173.251C148.324 174.018 147.951 174.464 147.376 174.464ZM149.436 174.885H149.983V172.868C149.983 172.372 150.259 172.076 150.684 172.076C150.816 172.076 150.932 172.092 150.976 172.108V171.577C150.932 171.571 150.85 171.555 150.756 171.555C150.388 171.555 150.106 171.794 149.996 172.171H149.983V171.618H149.436V174.885ZM151.83 175.984C152.421 175.984 152.707 175.714 152.939 175.089L154.215 171.618H153.64L152.735 174.338H152.722L151.821 171.618H151.236L152.449 174.888L152.383 175.073C152.251 175.444 152.06 175.532 151.714 175.532C151.648 175.532 151.585 175.522 151.538 175.513V175.959C151.607 175.972 151.723 175.984 151.83 175.984Z" fill="#828282"/>
<rect x="15.0117" y="181.216" width="85.7826" height="1.07228" fill="#4A4A4A"/>
<g filter="url(#filter0_d_206_2451)">
<rect y="390.311" width="201.053" height="45.0359" fill="white"/>
<rect x="65.4092" y="425.696" width="71.8429" height="2.68071" rx="1.34035" fill="#1E272E"/>
<path d="M27.7882 402.111L24.2765 399.302C23.5902 398.755 22.5179 398.75 21.837 399.297L18.3253 402.111C17.8213 402.513 17.5157 403.318 17.6229 403.95L18.2985 407.993C18.454 408.899 19.2957 409.612 20.2125 409.612H25.8956C26.8017 409.612 27.6595 408.883 27.815 407.987L28.4905 403.945C28.587 403.318 28.2814 402.513 27.7882 402.111ZM23.4562 407.467C23.4562 407.687 23.2739 407.87 23.0541 407.87C22.8342 407.87 22.652 407.687 22.652 407.467V405.859C22.652 405.639 22.8342 405.457 23.0541 405.457C23.2739 405.457 23.4562 405.639 23.4562 405.859V407.467Z" fill="black"/>
<path d="M16.3402 418.829H17.1308V417.237H18.8324V418.829H19.623V415.051H18.8324V416.585H17.1308V415.051H16.3402V418.829ZM21.4738 418.886C22.322 418.886 22.8639 418.342 22.8639 417.425V417.42C22.8639 416.512 22.3115 415.965 21.4712 415.965C20.6335 415.965 20.0837 416.517 20.0837 417.42V417.425C20.0837 418.339 20.6204 418.886 21.4738 418.886ZM21.4764 418.287C21.0995 418.287 20.8612 417.975 20.8612 417.425V417.42C20.8612 416.878 21.1021 416.564 21.4712 416.564C21.8429 416.564 22.0864 416.878 22.0864 417.42V417.425C22.0864 417.973 21.8482 418.287 21.4764 418.287ZM23.2592 418.829H24.0236V417.135C24.0236 416.818 24.22 416.598 24.5106 416.598C24.7933 416.598 24.9634 416.776 24.9634 417.077V418.829H25.6991V417.122C25.6991 416.81 25.8902 416.598 26.1808 416.598C26.4766 416.598 26.6389 416.776 26.6389 417.101V418.829H27.4033V416.91C27.4033 416.344 27.0342 415.965 26.4844 415.965C26.0734 415.965 25.7383 416.19 25.6127 416.543H25.597C25.5027 416.174 25.2174 415.965 24.8247 415.965C24.4477 415.965 24.1545 416.174 24.0393 416.493H24.0236V416.022H23.2592V418.829ZM29.1651 418.886C29.9662 418.886 30.3537 418.412 30.44 417.999L30.4479 417.97H29.7463L29.7411 417.986C29.6861 418.143 29.495 418.316 29.1808 418.316C28.7908 418.316 28.5473 418.054 28.5395 417.606H30.4715V417.37C30.4715 416.522 29.9557 415.965 29.1337 415.965C28.3117 415.965 27.7855 416.535 27.7855 417.428V417.431C27.7855 418.329 28.3065 418.886 29.1651 418.886ZM29.1468 416.535C29.4636 416.535 29.6913 416.737 29.7385 417.124H28.5473C28.5971 416.745 28.8327 416.535 29.1468 416.535Z" fill="#333333"/>
<path d="M66.9387 418.891C67.8026 418.891 68.334 418.467 68.334 417.797V417.795C68.334 417.219 68.0094 416.904 67.2345 416.734L66.8156 416.643C66.3235 416.535 66.0957 416.342 66.0957 416.033V416.03C66.0957 415.666 66.4256 415.425 66.9308 415.423C67.4099 415.423 67.7319 415.651 67.7895 416.035L67.7947 416.072H68.2659L68.2633 416.033C68.2214 415.415 67.6822 414.988 66.9439 414.988C66.1664 414.988 65.6167 415.423 65.614 416.043V416.046C65.614 416.598 65.9596 416.931 66.6978 417.093L67.1167 417.185C67.635 417.3 67.8523 417.486 67.8523 417.818V417.821C67.8523 418.211 67.5094 418.457 66.9649 418.457C66.4177 418.457 66.0512 418.224 65.9962 417.844L65.991 417.808H65.5198L65.5224 417.844C65.5695 418.491 66.1219 418.891 66.9387 418.891ZM69.6115 418.881C69.9754 418.881 70.3027 418.685 70.4623 418.386H70.4728V418.829H70.9283V416.946C70.9283 416.402 70.5252 416.054 69.8812 416.054C69.2398 416.054 68.8497 416.415 68.8105 416.863L68.8078 416.891H69.2476L69.2529 416.868C69.3052 416.624 69.5251 416.457 69.8759 416.457C70.2555 416.457 70.4728 416.658 70.4728 416.991V417.219L69.6927 417.263C69.067 417.3 68.7057 417.59 68.7057 418.054V418.059C68.7057 418.554 69.0696 418.881 69.6115 418.881ZM69.1717 418.059V418.054C69.1717 417.8 69.3812 417.637 69.745 417.617L70.4728 417.572V417.795C70.4728 418.19 70.143 418.486 69.7136 418.486C69.3864 418.486 69.1717 418.321 69.1717 418.059ZM72.2739 418.829H72.7399L73.7399 416.106H73.2661L72.5121 418.344H72.5017L71.7503 416.106H71.2713L72.2739 418.829ZM74.3551 415.645C74.5148 415.645 74.6405 415.517 74.6405 415.36C74.6405 415.2 74.5148 415.075 74.3551 415.075C74.1981 415.075 74.0698 415.2 74.0698 415.36C74.0698 415.517 74.1981 415.645 74.3551 415.645ZM74.1274 418.829H74.5829V416.106H74.1274V418.829ZM75.2033 418.829H75.6588V417.226C75.6588 416.763 75.9389 416.457 76.3683 416.457C76.7871 416.457 76.9939 416.7 76.9939 417.143V418.829H77.4495V417.062C77.4495 416.441 77.1039 416.054 76.507 416.054C76.0934 416.054 75.8159 416.24 75.6693 416.493H75.6588V416.106H75.2033V418.829ZM79.1825 419.797C79.9207 419.797 80.3841 419.384 80.3841 418.753V416.106H79.9286V416.567H79.9181C79.7506 416.263 79.4469 416.054 79.0621 416.054C78.371 416.054 77.8971 416.603 77.8971 417.449V417.452C77.8971 418.302 78.3657 418.855 79.0516 418.855C79.4417 418.855 79.7558 418.661 79.9181 418.36H79.9286V418.708C79.9286 419.13 79.6563 419.394 79.1773 419.394C78.8055 419.394 78.5463 419.274 78.46 419.077L78.4495 419.054H77.9914L77.9966 419.077C78.0856 419.48 78.5097 419.797 79.1825 419.797ZM79.1511 418.452C78.6668 418.452 78.3631 418.069 78.3631 417.452V417.449C78.3631 416.844 78.6668 416.457 79.1511 416.457C79.6118 416.457 79.9286 416.849 79.9286 417.449V417.452C79.9286 418.056 79.6144 418.452 79.1511 418.452ZM81.9391 418.881C82.5465 418.881 82.9967 418.546 82.9967 418.069V418.067C82.9967 417.679 82.7978 417.462 82.248 417.329L81.8161 417.224C81.515 417.151 81.392 417.022 81.392 416.836V416.834C81.392 416.593 81.5962 416.433 81.926 416.433C82.2637 416.433 82.4653 416.609 82.502 416.873L82.5046 416.891H82.9391L82.9365 416.857C82.9025 416.402 82.5229 416.054 81.926 416.054C81.337 416.054 80.926 416.386 80.926 416.855V416.857C80.926 417.25 81.1747 417.488 81.6878 417.611L82.1197 417.716C82.4287 417.792 82.5308 417.902 82.5308 418.098V418.101C82.5308 418.347 82.3109 418.501 81.9417 418.501C81.57 418.501 81.3684 418.342 81.3134 418.069L81.3082 418.043H80.8527L80.8553 418.067C80.9103 418.554 81.2977 418.881 81.9391 418.881Z" fill="#718096"/>
<path d="M79.3491 410.014H70.2347C69.1248 410.014 68.2241 409.113 68.2241 408.004V398.889C68.2241 398.669 68.4064 398.487 68.6262 398.487C68.846 398.487 69.0283 398.669 69.0283 398.889V408.004C69.0283 408.668 69.5698 409.21 70.2347 409.21H79.3491C79.5689 409.21 79.7512 409.392 79.7512 409.612C79.7512 409.832 79.5689 410.014 79.3491 410.014Z" fill="#E8E8E8"/>
<path d="M70.2345 407.333C70.1434 407.333 70.0469 407.301 69.9718 407.237C69.8056 407.092 69.7842 406.84 69.9289 406.668L72.3898 403.795C72.6579 403.484 73.0439 403.296 73.4514 403.28C73.8588 403.269 74.261 403.419 74.5505 403.709L75.0598 404.218C75.1938 404.352 75.3654 404.417 75.5584 404.417C75.7461 404.411 75.9176 404.326 76.0409 404.181L78.5018 401.307C78.6466 401.141 78.8986 401.119 79.0701 401.264C79.2363 401.409 79.2578 401.661 79.113 401.832L76.6521 404.706C76.3841 405.017 75.998 405.205 75.5906 405.221C75.1778 405.232 74.781 405.081 74.4915 404.792L73.9875 404.283C73.8535 404.149 73.6766 404.079 73.4889 404.084C73.3013 404.09 73.1297 404.175 73.0064 404.32L70.5455 407.194C70.4597 407.285 70.3471 407.333 70.2345 407.333Z" fill="#E8E8E8"/>
<path d="M115.532 418.829H116.802C117.925 418.829 118.584 418.13 118.584 416.939V416.933C118.584 415.747 117.919 415.051 116.802 415.051H115.532V418.829ZM116.003 418.405V415.475H116.77C117.626 415.475 118.103 415.996 118.103 416.939V416.944C118.103 417.881 117.626 418.405 116.77 418.405H116.003ZM119.357 415.645C119.516 415.645 119.642 415.517 119.642 415.36C119.642 415.2 119.516 415.075 119.357 415.075C119.2 415.075 119.071 415.2 119.071 415.36C119.071 415.517 119.2 415.645 119.357 415.645ZM119.129 418.829H119.584V416.106H119.129V418.829ZM121.171 418.881C121.778 418.881 122.228 418.546 122.228 418.069V418.067C122.228 417.679 122.029 417.462 121.48 417.329L121.048 417.224C120.747 417.151 120.624 417.022 120.624 416.836V416.834C120.624 416.593 120.828 416.433 121.158 416.433C121.495 416.433 121.697 416.609 121.734 416.873L121.736 416.891H122.171L122.168 416.857C122.134 416.402 121.755 416.054 121.158 416.054C120.569 416.054 120.158 416.386 120.158 416.855V416.857C120.158 417.25 120.406 417.488 120.919 417.611L121.351 417.716C121.66 417.792 121.762 417.902 121.762 418.098V418.101C121.762 418.347 121.543 418.501 121.173 418.501C120.802 418.501 120.6 418.342 120.545 418.069L120.54 418.043H120.084L120.087 418.067C120.142 418.554 120.529 418.881 121.171 418.881ZM123.831 418.881C124.446 418.881 124.893 418.48 124.967 417.962L124.969 417.944H124.522L124.516 417.965C124.441 418.268 124.202 418.478 123.831 418.478C123.359 418.478 123.035 418.103 123.035 417.47V417.467C123.035 416.849 123.351 416.457 123.825 416.457C124.226 416.457 124.446 416.698 124.514 416.97L124.519 416.991H124.964L124.961 416.97C124.904 416.504 124.503 416.054 123.825 416.054C123.069 416.054 122.569 416.603 122.569 417.462V417.465C122.569 418.331 123.058 418.881 123.831 418.881ZM126.516 418.881C127.268 418.881 127.776 418.336 127.776 417.467V417.462C127.776 416.593 127.265 416.054 126.514 416.054C125.763 416.054 125.255 416.596 125.255 417.462V417.467C125.255 418.334 125.76 418.881 126.516 418.881ZM126.519 418.478C126.037 418.478 125.721 418.109 125.721 417.467V417.462C125.721 416.826 126.04 416.457 126.514 416.457C126.996 416.457 127.31 416.823 127.31 417.462V417.467C127.31 418.106 126.998 418.478 126.519 418.478ZM129.166 418.881C129.579 418.881 129.857 418.695 130.003 418.441H130.014V418.829H130.469V416.106H130.014V417.708C130.014 418.172 129.734 418.478 129.305 418.478C128.886 418.478 128.679 418.234 128.679 417.792V416.106H128.223V417.873C128.223 418.494 128.569 418.881 129.166 418.881ZM131.064 418.829H131.519V417.226C131.519 416.763 131.799 416.457 132.229 416.457C132.648 416.457 132.854 416.7 132.854 417.143V418.829H133.31V417.062C133.31 416.441 132.964 416.054 132.367 416.054C131.954 416.054 131.676 416.24 131.53 416.493H131.519V416.106H131.064V418.829ZM134.776 418.881C134.865 418.881 134.962 418.87 135.019 418.863V418.494C134.98 418.496 134.928 418.504 134.873 418.504C134.629 418.504 134.501 418.423 134.501 418.132V416.483H135.019V416.106H134.501V415.37H134.03V416.106H133.632V416.483H134.03V418.135C134.03 418.656 134.276 418.881 134.776 418.881Z" fill="#718096"/>
<path d="M115.532 418.829H116.802C117.925 418.829 118.584 418.13 118.584 416.939V416.933C118.584 415.747 117.919 415.051 116.802 415.051H115.532V418.829ZM116.003 418.405V415.475H116.77C117.626 415.475 118.103 415.996 118.103 416.939V416.944C118.103 417.881 117.626 418.405 116.77 418.405H116.003ZM119.357 415.645C119.516 415.645 119.642 415.517 119.642 415.36C119.642 415.2 119.516 415.075 119.357 415.075C119.2 415.075 119.071 415.2 119.071 415.36C119.071 415.517 119.2 415.645 119.357 415.645ZM119.129 418.829H119.584V416.106H119.129V418.829ZM121.171 418.881C121.778 418.881 122.228 418.546 122.228 418.069V418.067C122.228 417.679 122.029 417.462 121.48 417.329L121.048 417.224C120.747 417.151 120.624 417.022 120.624 416.836V416.834C120.624 416.593 120.828 416.433 121.158 416.433C121.495 416.433 121.697 416.609 121.734 416.873L121.736 416.891H122.171L122.168 416.857C122.134 416.402 121.755 416.054 121.158 416.054C120.569 416.054 120.158 416.386 120.158 416.855V416.857C120.158 417.25 120.406 417.488 120.919 417.611L121.351 417.716C121.66 417.792 121.762 417.902 121.762 418.098V418.101C121.762 418.347 121.543 418.501 121.173 418.501C120.802 418.501 120.6 418.342 120.545 418.069L120.54 418.043H120.084L120.087 418.067C120.142 418.554 120.529 418.881 121.171 418.881ZM123.831 418.881C124.446 418.881 124.893 418.48 124.967 417.962L124.969 417.944H124.522L124.516 417.965C124.441 418.268 124.202 418.478 123.831 418.478C123.359 418.478 123.035 418.103 123.035 417.47V417.467C123.035 416.849 123.351 416.457 123.825 416.457C124.226 416.457 124.446 416.698 124.514 416.97L124.519 416.991H124.964L124.961 416.97C124.904 416.504 124.503 416.054 123.825 416.054C123.069 416.054 122.569 416.603 122.569 417.462V417.465C122.569 418.331 123.058 418.881 123.831 418.881ZM126.516 418.881C127.268 418.881 127.776 418.336 127.776 417.467V417.462C127.776 416.593 127.265 416.054 126.514 416.054C125.763 416.054 125.255 416.596 125.255 417.462V417.467C125.255 418.334 125.76 418.881 126.516 418.881ZM126.519 418.478C126.037 418.478 125.721 418.109 125.721 417.467V417.462C125.721 416.826 126.04 416.457 126.514 416.457C126.996 416.457 127.31 416.823 127.31 417.462V417.467C127.31 418.106 126.998 418.478 126.519 418.478ZM129.166 418.881C129.579 418.881 129.857 418.695 130.003 418.441H130.014V418.829H130.469V416.106H130.014V417.708C130.014 418.172 129.734 418.478 129.305 418.478C128.886 418.478 128.679 418.234 128.679 417.792V416.106H128.223V417.873C128.223 418.494 128.569 418.881 129.166 418.881ZM131.064 418.829H131.519V417.226C131.519 416.763 131.799 416.457 132.229 416.457C132.648 416.457 132.854 416.7 132.854 417.143V418.829H133.31V417.062C133.31 416.441 132.964 416.054 132.367 416.054C131.954 416.054 131.676 416.24 131.53 416.493H131.519V416.106H131.064V418.829ZM134.776 418.881C134.865 418.881 134.962 418.87 135.019 418.863V418.494C134.98 418.496 134.928 418.504 134.873 418.504C134.629 418.504 134.501 418.423 134.501 418.132V416.483H135.019V416.106H134.501V415.37H134.03V416.106H133.632V416.483H134.03V418.135C134.03 418.656 134.276 418.881 134.776 418.881Z" fill="#718096"/>
<path d="M126.948 398.889H122.894C120.868 398.889 120.364 399.431 120.364 401.591V407.628C120.364 409.054 121.147 409.392 122.096 408.373L122.101 408.368C122.541 407.902 123.211 407.939 123.591 408.449L124.133 409.172C124.567 409.746 125.269 409.746 125.704 409.172L126.245 408.449C126.631 407.934 127.301 407.896 127.741 408.368C128.695 409.387 129.473 409.049 129.473 407.623V401.591C129.478 399.431 128.974 398.889 126.948 398.889ZM123.313 401.57C123.607 401.57 123.849 401.811 123.849 402.106C123.849 402.401 123.613 402.642 123.313 402.642C123.012 402.642 122.776 402.401 122.776 402.106C122.776 401.811 123.012 401.57 123.313 401.57ZM126.529 405.323C126.229 405.323 125.993 405.082 125.993 404.787C125.993 404.492 126.235 404.251 126.529 404.251C126.824 404.251 127.066 404.492 127.066 404.787C127.066 405.082 126.83 405.323 126.529 405.323ZM127.012 401.886L123.404 405.494C123.323 405.575 123.221 405.612 123.12 405.612C123.018 405.612 122.916 405.575 122.835 405.494C122.68 405.339 122.68 405.082 122.835 404.926L126.444 401.318C126.599 401.162 126.856 401.162 127.012 401.318C127.167 401.473 127.167 401.731 127.012 401.886Z" fill="#E8E8E8"/>
<path d="M175.083 404.449C175.067 404.449 175.056 404.449 175.04 404.449C175.013 404.444 174.975 404.444 174.943 404.449C173.389 404.401 172.214 403.178 172.214 401.672C172.214 400.138 173.464 398.889 174.997 398.889C176.53 398.889 177.78 400.138 177.78 401.672C177.774 403.178 176.595 404.401 175.099 404.449C175.093 404.449 175.088 404.449 175.083 404.449ZM174.997 399.693C173.909 399.693 173.019 400.583 173.019 401.672C173.019 402.744 173.855 403.607 174.922 403.645C174.949 403.639 175.024 403.639 175.093 403.645C176.144 403.596 176.97 402.733 176.975 401.672C176.975 400.583 176.085 399.693 174.997 399.693Z" fill="#E8E8E8"/>
<path d="M175.088 410.309C174.037 410.309 172.981 410.041 172.182 409.505C171.437 409.011 171.029 408.336 171.029 407.601C171.029 406.867 171.437 406.186 172.182 405.687C173.79 404.62 176.396 404.62 177.994 405.687C178.734 406.181 179.146 406.856 179.146 407.591C179.146 408.325 178.739 409.006 177.994 409.505C177.19 410.041 176.139 410.309 175.088 410.309ZM172.627 406.363C172.112 406.706 171.834 407.146 171.834 407.607C171.834 408.063 172.118 408.502 172.627 408.84C173.962 409.735 176.214 409.735 177.549 408.84C178.063 408.497 178.342 408.057 178.342 407.596C178.342 407.14 178.058 406.701 177.549 406.363C176.214 405.473 173.962 405.473 172.627 406.363Z" fill="#E8E8E8"/>
<path d="M164.819 418.829H165.649L165.935 417.912H167.27L167.555 418.829H168.385L167.068 415.051H166.139L164.819 418.829ZM166.594 415.784H166.61L167.086 417.321H166.118L166.594 415.784ZM169.885 418.886C170.634 418.886 171.118 418.42 171.155 417.808V417.792H170.443L170.44 417.815C170.388 418.098 170.197 418.287 169.89 418.287C169.513 418.287 169.278 417.975 169.278 417.425V417.423C169.278 416.886 169.513 416.564 169.888 416.564C170.204 416.564 170.39 416.768 170.437 417.035L170.443 417.059H171.152V417.041C171.123 416.433 170.639 415.965 169.877 415.965C169.037 415.965 168.5 416.522 168.5 417.42V417.423C168.5 418.329 169.029 418.886 169.885 418.886ZM172.807 418.886C173.555 418.886 174.04 418.42 174.076 417.808V417.792H173.364L173.362 417.815C173.309 418.098 173.118 418.287 172.812 418.287C172.435 418.287 172.199 417.975 172.199 417.425V417.423C172.199 416.886 172.435 416.564 172.809 416.564C173.126 416.564 173.312 416.768 173.359 417.035L173.364 417.059H174.074V417.041C174.045 416.433 173.56 415.965 172.799 415.965C171.958 415.965 171.422 416.522 171.422 417.42V417.423C171.422 418.329 171.95 418.886 172.807 418.886ZM175.733 418.886C176.582 418.886 177.123 418.342 177.123 417.425V417.42C177.123 416.512 176.571 415.965 175.731 415.965C174.893 415.965 174.343 416.517 174.343 417.42V417.425C174.343 418.339 174.88 418.886 175.733 418.886ZM175.736 418.287C175.359 418.287 175.121 417.975 175.121 417.425V417.42C175.121 416.878 175.362 416.564 175.731 416.564C176.102 416.564 176.346 416.878 176.346 417.42V417.425C176.346 417.973 176.108 418.287 175.736 418.287ZM178.474 418.886C178.898 418.886 179.186 418.687 179.33 418.365H179.346V418.829H180.11V416.022H179.346V417.635C179.346 418.001 179.129 418.253 178.786 418.253C178.443 418.253 178.27 418.041 178.27 417.674V416.022H177.506V417.834C177.506 418.491 177.856 418.886 178.474 418.886ZM180.608 418.829H181.372V417.216C181.372 416.849 181.59 416.598 181.932 416.598C182.275 416.598 182.448 416.808 182.448 417.174V418.829H183.213V417.017C183.213 416.36 182.862 415.965 182.244 415.965C181.82 415.965 181.532 416.161 181.388 416.483H181.372V416.022H180.608V418.829ZM184.812 418.886C184.972 418.886 185.095 418.87 185.181 418.857V418.297C185.134 418.302 185.084 418.31 185.016 418.31C184.786 418.31 184.668 418.221 184.668 417.959V416.598H185.181V416.022H184.668V415.336H183.896V416.022H183.506V416.598H183.896V418.043C183.896 418.645 184.189 418.886 184.812 418.886Z" fill="#D8D8D8"/>
</g>
</g>
<rect x="1.34035" y="1.34035" width="198.372" height="432.666" rx="6.70177" stroke="black" stroke-width="2.68071"/>
<defs>
<filter id="filter0_d_206_2451" x="-10.7228" y="379.052" width="222.498" height="66.4815" filterUnits="userSpaceOnUse" color-interpolation-filters="sRGB">
<feFlood flood-opacity="0" result="BackgroundImageFix"/>
<feColorMatrix in="SourceAlpha" type="matrix" values="0 0 0 0 0 0 0 0 0 0 0 0 0 0 0 0 0 0 127 0" result="hardAlpha"/>
<feOffset dy="-0.536141"/>
<feGaussianBlur stdDeviation="5.36141"/>
<feComposite in2="hardAlpha" operator="out"/>
<feColorMatrix type="matrix" values="0 0 0 0 0 0 0 0 0 0 0 0 0 0 0 0 0 0 0.15 0"/>
<feBlend mode="normal" in2="BackgroundImageFix" result="effect1_dropShadow_206_2451"/>
<feBlend mode="normal" in="SourceGraphic" in2="effect1_dropShadow_206_2451" result="shape"/>
</filter>
<clipPath id="clip0_206_2451">
<rect width="201.053" height="435.347" rx="8.04212" fill="white"/>
</clipPath>
</defs>
</svg>
